<svg xmlns="http://www.w3.org/2000/svg" viewBox="0 0 137.11 34.43"><g id="Layer_2" data-name="Layer 2"><g id="Layer_1-2" data-name="Layer 1"><path d="M119.9,34.43H17.22A17.22,17.22,0,1,1,17.22,0H119.9a17.22,17.22,0,0,1,0,34.43ZM17.22,1.5a15.72,15.72,0,1,0,0,31.43H119.9a15.72,15.72,0,1,0,0-31.43Z"/><path d="M12.42,20.82a3,3,0,0,1-1.46-1,2.54,2.54,0,0,1-.52-1.58L13.62,18a1.23,1.23,0,0,0,.39.84,1.5,1.5,0,0,0,.94.25c.65,0,1-.18,1-.55a.4.4,0,0,0-.13-.31,1.3,1.3,0,0,0-.45-.23c-.22-.07-.55-.15-1-.25l-1.28-.27c-1.69-.36-2.53-1.24-2.53-2.63a2.44,2.44,0,0,1,.51-1.56,3,3,0,0,1,1.45-.95A6.78,6.78,0,0,1,14.75,12a6.6,6.6,0,0,1,2.28.34,2.86,2.86,0,0,1,1.38,1,2.55,2.55,0,0,1,.47,1.53L16,15.13a1.1,1.1,0,0,0-.35-.79,1.52,1.52,0,0,0-1-.26,1.54,1.54,0,0,0-.74.15.44.44,0,0,0-.27.39.34.34,0,0,0,.1.26,1,1,0,0,0,.4.21,8.85,8.85,0,0,0,1,.25l1.29.28a8.58,8.58,0,0,1,1.4.41,2.37,2.37,0,0,1,1,.74,2.22,2.22,0,0,1,.39,1.38,2.53,2.53,0,0,1-.53,1.61,3.26,3.26,0,0,1-1.53,1,6.85,6.85,0,0,1-2.34.36A6.88,6.88,0,0,1,12.42,20.82Z"/><path d="M27.86,18.32H23c0,.69.32,1,.89,1a.85.85,0,0,0,.56-.17.8.8,0,0,0,.24-.54l3.17.19a2.26,2.26,0,0,1-1.16,1.74,5.64,5.64,0,0,1-2.82.59,4.77,4.77,0,0,1-3.09-.85,3.09,3.09,0,0,1-1-2.53v-.16a3.13,3.13,0,0,1,1-2.55,4.84,4.84,0,0,1,3.11-.86,4.74,4.74,0,0,1,3,.83,3,3,0,0,1,1,2.44A5.73,5.73,0,0,1,27.86,18.32Zm-3.19-1.43v0a.89.89,0,0,0-.21-.65.81.81,0,0,0-.61-.21c-.49,0-.77.3-.85.88Z"/><path d="M28.58,21V14.4h3.14a2.32,2.32,0,0,1-.06.66,4.65,4.65,0,0,1-.28.76l.13.07a3.32,3.32,0,0,1,1.17-1.21,3.19,3.19,0,0,1,1.62-.4c1.5,0,2.24.67,2.24,2V21H33.33V17.14a.83.83,0,0,0-.16-.57.56.56,0,0,0-.47-.19.72.72,0,0,0-.67.41A2.31,2.31,0,0,0,31.79,18v3Z"/><path d="M37.81,20.28a3.87,3.87,0,0,1-.64-2.44v-.31a3.86,3.86,0,0,1,.64-2.45,2.37,2.37,0,0,1,2-.8,2.62,2.62,0,0,1,1.5.4,2.81,2.81,0,0,1,1,1.18l.13-.07a5.8,5.8,0,0,1-.27-1,4.84,4.84,0,0,1-.08-1V12.21h3.21V21H42.05a5.63,5.63,0,0,1,.35-1.43l-.13-.06a2.87,2.87,0,0,1-1,1.21,2.75,2.75,0,0,1-1.52.4A2.36,2.36,0,0,1,37.81,20.28Zm4-1.4a1.71,1.71,0,0,0,.22-1v-.46a1.77,1.77,0,0,0-.22-1,.7.7,0,0,0-.64-.32.67.67,0,0,0-.61.31,1.78,1.78,0,0,0-.2.94V18a1.76,1.76,0,0,0,.2.93.69.69,0,0,0,.61.31A.7.7,0,0,0,41.83,18.88Z"/><path d="M48.3,21V12.21h3.9l1.2,2.94a17.58,17.58,0,0,1,.68,2.15h.13a21.4,21.4,0,0,1,.68-2.16l1.17-2.93h3.87V21H56.8V18.2c0-.58,0-1.17.08-1.77l-.13,0L55.24,21H53l-1.51-4.56-.13,0c0,.67.08,1.26.08,1.77V21Z"/><path d="M61.73,20.29a3.08,3.08,0,0,1-1-2.5v-.21a3,3,0,0,1,1-2.5,4.65,4.65,0,0,1,3.06-.87,4.7,4.7,0,0,1,3.07.87,3.07,3.07,0,0,1,1,2.5v.21a3.11,3.11,0,0,1-1,2.5,4.7,4.7,0,0,1-3.07.87A4.65,4.65,0,0,1,61.73,20.29Zm3.69-1.37a1.62,1.62,0,0,0,.21-.92v-.63a1.6,1.6,0,0,0-.21-.92.7.7,0,0,0-.63-.3.72.72,0,0,0-.63.3,1.7,1.7,0,0,0-.2.92V18a1.72,1.72,0,0,0,.2.92.72.72,0,0,0,.63.3A.7.7,0,0,0,65.42,18.92Z"/><path d="M69.56,21V14.4H72.7a2.32,2.32,0,0,1-.06.66,4.65,4.65,0,0,1-.28.76l.12.07a3.43,3.43,0,0,1,1.18-1.21,3.19,3.19,0,0,1,1.62-.4c1.49,0,2.24.67,2.24,2V21H74.31V17.14a.83.83,0,0,0-.16-.57.57.57,0,0,0-.48-.19.75.75,0,0,0-.67.41A2.43,2.43,0,0,0,72.77,18v3Z"/><path d="M86.27,18.32H81.4c0,.69.32,1,.89,1a.87.87,0,0,0,.56-.17.8.8,0,0,0,.24-.54l3.17.19a2.31,2.31,0,0,1-1.16,1.74,5.65,5.65,0,0,1-2.83.59,4.77,4.77,0,0,1-3.09-.85,3.08,3.08,0,0,1-1-2.53v-.16a3.1,3.1,0,0,1,1-2.55,4.81,4.81,0,0,1,3.11-.86,4.73,4.73,0,0,1,3,.83,3,3,0,0,1,1,2.44A4.61,4.61,0,0,1,86.27,18.32Zm-3.19-1.43v0a.94.94,0,0,0-.2-.65.82.82,0,0,0-.61-.21c-.5,0-.78.3-.86.88Z"/><path d="M86.66,21.32l.75-.05c.63,0,1-.17,1.12-.41l.08-.18L86.27,14.4h3.27L90.16,17c.11.52.22,1.17.32,2h.13q.14-1.19.3-2l.58-2.63h3.16l-1.51,4.83a8.17,8.17,0,0,1-1.28,2.54A3.78,3.78,0,0,1,90,23a11.92,11.92,0,0,1-3.15.38Z"/><path d="M97.16,21V12.21h3.37l1.82,3.22a15.22,15.22,0,0,1,.66,1.38l.14,0a16,16,0,0,1-.11-1.66V12.21h3.13V21h-3.35L101,17.75a14.75,14.75,0,0,1-.68-1.47l-.13,0a17.39,17.39,0,0,1,.1,1.75V21Z"/><path d="M108,20.29a3.08,3.08,0,0,1-1-2.5v-.21a3,3,0,0,1,1-2.5,4.65,4.65,0,0,1,3.06-.87,4.7,4.7,0,0,1,3.07.87,3.07,3.07,0,0,1,1,2.5v.21a3.08,3.08,0,0,1-1,2.5,5.82,5.82,0,0,1-6.12,0Zm3.69-1.37a1.62,1.62,0,0,0,.21-.92v-.63a1.6,1.6,0,0,0-.21-.92.7.7,0,0,0-.63-.3.72.72,0,0,0-.63.3,1.7,1.7,0,0,0-.2.92V18a1.72,1.72,0,0,0,.2.92.72.72,0,0,0,.63.3A.7.7,0,0,0,111.66,18.92Z"/><path d="M116.89,21l-1.74-6.57h3.07l.48,2.69a12.38,12.38,0,0,1,.2,1.48H119c0-.44.1-.93.19-1.47l.46-2.7h2.82l.53,2.7a10,10,0,0,1,.21,1.47h.13c0-.43.09-.92.18-1.47l.42-2.7h3L125.22,21h-3.6l-.34-2.23c-.07-.47-.13-1-.18-1.64H121c0,.66-.09,1.21-.16,1.65L120.49,21Z"/></g></g></svg>