<svg xmlns="http://www.w3.org/2000/svg" viewBox="0 0 137.12 34.43"><defs><style>.cls-1{fill:#fedd00;}</style></defs><g id="Layer_2" data-name="Layer 2"><g id="Layer_1-2" data-name="Layer 1"><path d="M18.75,16.77a2.22,2.22,0,0,1,.39,1.38,2.55,2.55,0,0,1-.53,1.61,3.3,3.3,0,0,1-1.52,1,6.87,6.87,0,0,1-2.35.36,7.14,7.14,0,0,1-2.32-.34,3.21,3.21,0,0,1-1.46-1,2.63,2.63,0,0,1-.52-1.59L13.63,18a1.19,1.19,0,0,0,.39.84,1.46,1.46,0,0,0,.94.26c.64,0,1-.18,1-.55a.42.42,0,0,0-.13-.31,1.29,1.29,0,0,0-.46-.23c-.22-.07-.55-.15-1-.25l-1.27-.27c-1.69-.37-2.54-1.24-2.53-2.63a2.45,2.45,0,0,1,.5-1.56,3,3,0,0,1,1.45-1A7.14,7.14,0,0,1,14.75,12a6.51,6.51,0,0,1,2.28.35,2.94,2.94,0,0,1,1.39,1,2.62,2.62,0,0,1,.46,1.54l-2.9.25a1.07,1.07,0,0,0-.36-.79,1.47,1.47,0,0,0-1-.26,1.51,1.51,0,0,0-.74.15.43.43,0,0,0-.27.38.4.4,0,0,0,.09.27,1,1,0,0,0,.41.21c.21.07.53.15,1,.25l1.28.27A10.17,10.17,0,0,1,17.8,16,2.26,2.26,0,0,1,18.75,16.77Z"/><path d="M26.91,15a3,3,0,0,1,1,2.44,4.43,4.43,0,0,1-.07.83H23c0,.69.32,1,.88,1a.88.88,0,0,0,.57-.17.85.85,0,0,0,.24-.55l3.17.2a2.3,2.3,0,0,1-1.16,1.74,5.65,5.65,0,0,1-2.83.59,4.76,4.76,0,0,1-3.09-.86,3.07,3.07,0,0,1-1-2.53v-.15a3.09,3.09,0,0,1,1-2.55,4.75,4.75,0,0,1,3.11-.86A4.67,4.67,0,0,1,26.91,15Z"/><path d="M36.54,16.28V21H33.33V17.14a.94.94,0,0,0-.15-.58.59.59,0,0,0-.48-.18.72.72,0,0,0-.67.41A2.32,2.32,0,0,0,31.8,18v3H28.59V14.39h3.14a2.67,2.67,0,0,1-.07.66,4.7,4.7,0,0,1-.28.77l.13.07a3.44,3.44,0,0,1,1.17-1.22,3.25,3.25,0,0,1,1.63-.39C35.8,14.28,36.54,15,36.54,16.28Z"/><path d="M42.05,12.2h3.21V21h-3.2a5.27,5.27,0,0,1,.35-1.44l-.13-.05a2.9,2.9,0,0,1-1,1.2,2.69,2.69,0,0,1-1.52.4,2.37,2.37,0,0,1-2-.8,3.9,3.9,0,0,1-.65-2.45v-.3a3.92,3.92,0,0,1,.64-2.45,2.39,2.39,0,0,1,2-.8,2.75,2.75,0,0,1,1.5.39,2.91,2.91,0,0,1,1,1.19l.12-.07a9,9,0,0,1-.27-1,5.86,5.86,0,0,1-.08-1Z"/><path d="M56.07,12.2h3.87V21H56.81V18.19c0-.58,0-1.16.07-1.76l-.12,0L55.25,21H53l-1.5-4.56-.13,0c0,.66.07,1.25.07,1.76V21H48.3V12.2h3.9l1.21,2.94a18.14,18.14,0,0,1,.67,2.16h.13a18.77,18.77,0,0,1,.69-2.16Z"/><path d="M67.86,15.07a3.06,3.06,0,0,1,1,2.5v.21a3.06,3.06,0,0,1-1,2.5,4.63,4.63,0,0,1-3.06.88,4.65,4.65,0,0,1-3.07-.88,3.08,3.08,0,0,1-1-2.5v-.21a3.08,3.08,0,0,1,1-2.5,4.7,4.7,0,0,1,3.07-.86A4.65,4.65,0,0,1,67.86,15.07Z"/><path d="M77.52,16.28V21H74.31V17.14a.94.94,0,0,0-.15-.58.6.6,0,0,0-.48-.18.72.72,0,0,0-.67.41A2.32,2.32,0,0,0,72.78,18v3H69.56V14.39h3.15a2.67,2.67,0,0,1-.07.66,4.7,4.7,0,0,1-.28.77l.13.07a3.44,3.44,0,0,1,1.17-1.22,3.22,3.22,0,0,1,1.63-.39C76.78,14.28,77.52,15,77.52,16.28Z"/><path d="M85.32,15a3,3,0,0,1,1,2.44,5.49,5.49,0,0,1-.06.83H81.4c0,.69.32,1,.89,1a.71.71,0,0,0,.8-.72l3.17.2a2.27,2.27,0,0,1-1.16,1.74,5.64,5.64,0,0,1-2.82.59,4.76,4.76,0,0,1-3.09-.86,3,3,0,0,1-1-2.53v-.15a3.12,3.12,0,0,1,1-2.55,4.77,4.77,0,0,1,3.11-.86A4.65,4.65,0,0,1,85.32,15Z"/><path d="M91.5,14.39h3.16l-1.51,4.83a8,8,0,0,1-1.29,2.54A3.69,3.69,0,0,1,90,23a12,12,0,0,1-3.15.37l-.19-2,.75,0c.63,0,1-.18,1.11-.41l.08-.19-2.33-6.28h3.27L90.16,17c.12.52.22,1.18.32,2h.13c.09-.78.19-1.44.3-2Z"/><path d="M103,12.2h3.14V21h-3.35L101,17.74a11.8,11.8,0,0,1-.69-1.47l-.12,0c.06.69.09,1.27.09,1.76V21H97.16V12.2h3.37l1.83,3.23c.2.38.42.84.66,1.37l.13,0a16.17,16.17,0,0,1-.11-1.66Z"/><path d="M114.1,15.07a3.05,3.05,0,0,1,1,2.5v.21a3.05,3.05,0,0,1-1,2.5,5.78,5.78,0,0,1-6.13,0,3.08,3.08,0,0,1-1-2.5v-.21a3.08,3.08,0,0,1,1-2.5,5.89,5.89,0,0,1,6.13,0Z"/><path d="M127,14.39,125.23,21h-3.61l-.33-2.23c-.07-.48-.14-1-.19-1.65H121c0,.67-.09,1.22-.16,1.66L120.49,21h-3.6l-1.74-6.58h3.08l.48,2.7c.09.53.16,1,.2,1.47H119c0-.43.1-.92.19-1.47l.47-2.7h2.81l.54,2.71a13.16,13.16,0,0,1,.21,1.46h.13c0-.43.09-.91.17-1.46l.42-2.71Z"/><path d="M119.9,0H17.22a17.22,17.22,0,1,0,0,34.43H119.9A17.22,17.22,0,1,0,119.9,0Zm5.33,21h-3.61l-.33-2.23c-.07-.48-.14-1-.19-1.65H121c0,.67-.09,1.22-.16,1.66L120.49,21h-3.6l-1.74-6.58h3.08l.48,2.7c.09.53.16,1,.2,1.47H119c0-.43.1-.92.19-1.47l.47-2.7h2.81l.54,2.71a13.16,13.16,0,0,1,.21,1.46h.13c0-.43.09-.91.17-1.46l.42-2.71h3Zm-10.09-3.4v.21a3.05,3.05,0,0,1-1,2.5,5.78,5.78,0,0,1-6.13,0,3.08,3.08,0,0,1-1-2.5v-.21a3.08,3.08,0,0,1,1-2.5,5.89,5.89,0,0,1,6.13,0A3.05,3.05,0,0,1,115.14,17.57Zm-14.85.49V21H97.16V12.2h3.37l1.83,3.23c.2.38.42.84.66,1.37l.13,0a16.17,16.17,0,0,1-.11-1.66V12.2h3.14V21h-3.35L101,17.74a11.8,11.8,0,0,1-.69-1.47l-.12,0C100.26,17,100.29,17.57,100.29,18.06Zm-14-3.67h3.27L90.16,17c.12.52.22,1.18.32,2h.13c.09-.78.19-1.44.3-2l.59-2.64h3.16l-1.51,4.83a8,8,0,0,1-1.29,2.54A3.69,3.69,0,0,1,90,23a12,12,0,0,1-3.15.37l-.19-2,.75,0c.63,0,1-.18,1.11-.41l.08-.19Zm-4,5a.71.71,0,0,0,.8-.72l3.17.2a2.27,2.27,0,0,1-1.16,1.74,5.64,5.64,0,0,1-2.82.59,4.76,4.76,0,0,1-3.09-.86,3,3,0,0,1-1-2.53v-.15a3.12,3.12,0,0,1,1-2.55,4.77,4.77,0,0,1,3.11-.86,4.65,4.65,0,0,1,3,.83,3,3,0,0,1,1,2.44,5.49,5.49,0,0,1-.06.83H81.4C81.43,19,81.72,19.35,82.29,19.35Zm-8.13-2.79a.6.6,0,0,0-.48-.18.72.72,0,0,0-.67.41A2.32,2.32,0,0,0,72.78,18v3H69.56V14.39h3.15a2.67,2.67,0,0,1-.07.66,4.7,4.7,0,0,1-.28.77l.13.07a3.44,3.44,0,0,1,1.17-1.22,3.22,3.22,0,0,1,1.63-.39c1.49,0,2.23.67,2.23,2V21H74.31V17.14A.94.94,0,0,0,74.16,16.56Zm-5.25,1v.21a3.06,3.06,0,0,1-1,2.5,4.63,4.63,0,0,1-3.06.88,4.65,4.65,0,0,1-3.07-.88,3.08,3.08,0,0,1-1-2.5v-.21a3.08,3.08,0,0,1,1-2.5,4.7,4.7,0,0,1,3.07-.86,4.65,4.65,0,0,1,3.06.86A3.06,3.06,0,0,1,68.91,17.57ZM56.76,16.41,55.25,21H53l-1.5-4.56-.13,0c0,.66.07,1.25.07,1.76V21H48.3V12.2h3.9l1.21,2.94a18.14,18.14,0,0,1,.67,2.16h.13a18.77,18.77,0,0,1,.69-2.16l1.17-2.94h3.87V21H56.81V18.19c0-.58,0-1.16.07-1.76ZM42.28,19.48a2.9,2.9,0,0,1-1,1.2,2.69,2.69,0,0,1-1.52.4,2.37,2.37,0,0,1-2-.8,3.9,3.9,0,0,1-.65-2.45v-.3a3.92,3.92,0,0,1,.64-2.45,2.39,2.39,0,0,1,2-.8,2.75,2.75,0,0,1,1.5.39,2.91,2.91,0,0,1,1,1.19l.12-.07a9,9,0,0,1-.27-1,5.86,5.86,0,0,1-.08-1V12.2h3.21V21h-3.2a5.27,5.27,0,0,1,.35-1.44Zm-9.1-2.92a.59.59,0,0,0-.48-.18.72.72,0,0,0-.67.41A2.32,2.32,0,0,0,31.8,18v3H28.59V14.39h3.14a2.67,2.67,0,0,1-.07.66,4.7,4.7,0,0,1-.28.77l.13.07a3.44,3.44,0,0,1,1.17-1.22,3.25,3.25,0,0,1,1.63-.39c1.49,0,2.23.67,2.23,2V21H33.33V17.14A.94.94,0,0,0,33.18,16.56Zm-9.31,2.79a.88.88,0,0,0,.57-.17.85.85,0,0,0,.24-.55l3.17.2a2.3,2.3,0,0,1-1.16,1.74,5.65,5.65,0,0,1-2.83.59,4.76,4.76,0,0,1-3.09-.86,3.07,3.07,0,0,1-1-2.53v-.15a3.09,3.09,0,0,1,1-2.55,4.75,4.75,0,0,1,3.11-.86,4.67,4.67,0,0,1,3,.83,3,3,0,0,1,1,2.44,4.43,4.43,0,0,1-.07.83H23C23,19,23.31,19.35,23.87,19.35ZM15.8,18.23a1.29,1.29,0,0,0-.46-.23c-.22-.07-.55-.15-1-.25l-1.27-.27c-1.69-.37-2.54-1.24-2.53-2.63a2.45,2.45,0,0,1,.5-1.56,3,3,0,0,1,1.45-1A7.14,7.14,0,0,1,14.75,12a6.51,6.51,0,0,1,2.28.35,2.94,2.94,0,0,1,1.39,1,2.62,2.62,0,0,1,.46,1.54l-2.9.25a1.07,1.07,0,0,0-.36-.79,1.47,1.47,0,0,0-1-.26,1.51,1.51,0,0,0-.74.15.43.43,0,0,0-.27.38.4.4,0,0,0,.09.27,1,1,0,0,0,.41.21c.21.07.53.15,1,.25l1.28.27A10.17,10.17,0,0,1,17.8,16a2.26,2.26,0,0,1,.95.74,2.22,2.22,0,0,1,.39,1.38,2.55,2.55,0,0,1-.53,1.61,3.3,3.3,0,0,1-1.52,1,6.87,6.87,0,0,1-2.35.36,7.14,7.14,0,0,1-2.32-.34,3.21,3.21,0,0,1-1.46-1,2.63,2.63,0,0,1-.52-1.59L13.63,18a1.19,1.19,0,0,0,.39.84,1.46,1.46,0,0,0,.94.26c.64,0,1-.18,1-.55A.42.42,0,0,0,15.8,18.23Z"/><path class="cls-1" d="M18.75,16.77A2.26,2.26,0,0,0,17.8,16a10.17,10.17,0,0,0-1.41-.42l-1.28-.27c-.43-.1-.75-.18-1-.25a1,1,0,0,1-.41-.21.4.4,0,0,1-.09-.27.43.43,0,0,1,.27-.38,1.51,1.51,0,0,1,.74-.15,1.47,1.47,0,0,1,1,.26,1.07,1.07,0,0,1,.36.79l2.9-.25a2.62,2.62,0,0,0-.46-1.54,2.94,2.94,0,0,0-1.39-1A6.51,6.51,0,0,0,14.75,12a7.14,7.14,0,0,0-2.25.32,3,3,0,0,0-1.45,1,2.45,2.45,0,0,0-.5,1.56c0,1.39.84,2.26,2.53,2.63l1.27.27c.44.1.77.18,1,.25a1.29,1.29,0,0,1,.46.23.42.42,0,0,1,.13.31c0,.37-.33.55-1,.55a1.46,1.46,0,0,1-.94-.26,1.19,1.19,0,0,1-.39-.84l-3.19.25A2.63,2.63,0,0,0,11,19.83a3.21,3.21,0,0,0,1.46,1,7.14,7.14,0,0,0,2.32.34,6.87,6.87,0,0,0,2.35-.36,3.3,3.3,0,0,0,1.52-1,2.55,2.55,0,0,0,.53-1.61A2.22,2.22,0,0,0,18.75,16.77Z"/><path class="cls-1" d="M27.93,17.48a3,3,0,0,0-1-2.44,4.67,4.67,0,0,0-3-.83,4.75,4.75,0,0,0-3.11.86,3.09,3.09,0,0,0-1,2.55v.15a3.07,3.07,0,0,0,1,2.53,4.76,4.76,0,0,0,3.09.86,5.65,5.65,0,0,0,2.83-.59,2.3,2.3,0,0,0,1.16-1.74l-3.17-.2a.85.85,0,0,1-.24.55.88.88,0,0,1-.57.17c-.56,0-.86-.35-.88-1h4.87A4.43,4.43,0,0,0,27.93,17.48Zm-3.26-.59H23c.08-.59.36-.88.86-.88a.82.82,0,0,1,.61.21.92.92,0,0,1,.2.65Z"/><path class="cls-1" d="M34.31,14.28a3.25,3.25,0,0,0-1.63.39,3.44,3.44,0,0,0-1.17,1.22l-.13-.07a4.7,4.7,0,0,0,.28-.77,2.67,2.67,0,0,0,.07-.66H28.59V21H31.8V18A2.32,2.32,0,0,1,32,16.79a.72.72,0,0,1,.67-.41.59.59,0,0,1,.48.18.94.94,0,0,1,.15.58V21h3.21V16.28C36.54,15,35.8,14.28,34.31,14.28Z"/><path class="cls-1" d="M42.05,12.2v1.62a5.86,5.86,0,0,0,.08,1,9,9,0,0,0,.27,1l-.12.07a2.91,2.91,0,0,0-1-1.19,2.75,2.75,0,0,0-1.5-.39,2.39,2.39,0,0,0-2,.8,3.92,3.92,0,0,0-.64,2.45v.3a3.9,3.9,0,0,0,.65,2.45,2.37,2.37,0,0,0,2,.8,2.69,2.69,0,0,0,1.52-.4,2.9,2.9,0,0,0,1-1.2l.13.05A5.27,5.27,0,0,0,42.06,21h3.2V12.2Zm0,5.7a1.81,1.81,0,0,1-.21,1,.73.73,0,0,1-.65.32.67.67,0,0,1-.6-.3,1.7,1.7,0,0,1-.21-.94v-.59a1.7,1.7,0,0,1,.21-.94.65.65,0,0,1,.6-.31.72.72,0,0,1,.65.33,1.82,1.82,0,0,1,.21,1Z"/><path class="cls-1" d="M56.07,12.2,54.9,15.14a18.77,18.77,0,0,0-.69,2.16h-.13a18.14,18.14,0,0,0-.67-2.16L52.2,12.2H48.3V21h3.13V18.19c0-.51,0-1.1-.07-1.76l.13,0L53,21h2.26l1.51-4.56.12,0c-.05.6-.07,1.18-.07,1.76V21h3.13V12.2Z"/><path class="cls-1" d="M67.86,15.07a4.65,4.65,0,0,0-3.06-.86,4.7,4.7,0,0,0-3.07.86,3.08,3.08,0,0,0-1,2.5v.21a3.08,3.08,0,0,0,1,2.5,4.65,4.65,0,0,0,3.07.88,4.63,4.63,0,0,0,3.06-.88,3.06,3.06,0,0,0,1-2.5v-.21A3.06,3.06,0,0,0,67.86,15.07ZM65.63,18a1.7,1.7,0,0,1-.2.92.7.7,0,0,1-.63.3.67.67,0,0,1-.63-.3A1.6,1.6,0,0,1,64,18v-.62a1.64,1.64,0,0,1,.21-.93.71.71,0,0,1,.63-.29.74.74,0,0,1,.63.29,1.74,1.74,0,0,1,.2.93Z"/><path class="cls-1" d="M75.29,14.28a3.22,3.22,0,0,0-1.63.39,3.44,3.44,0,0,0-1.17,1.22l-.13-.07a4.7,4.7,0,0,0,.28-.77,2.67,2.67,0,0,0,.07-.66H69.56V21h3.22V18A2.32,2.32,0,0,1,73,16.79a.72.72,0,0,1,.67-.41.6.6,0,0,1,.48.18.94.94,0,0,1,.15.58V21h3.21V16.28C77.52,15,76.78,14.28,75.29,14.28Z"/><path class="cls-1" d="M86.34,17.48a3,3,0,0,0-1-2.44,4.65,4.65,0,0,0-3-.83,4.77,4.77,0,0,0-3.11.86,3.12,3.12,0,0,0-1,2.55v.15a3,3,0,0,0,1,2.53,4.76,4.76,0,0,0,3.09.86,5.64,5.64,0,0,0,2.82-.59,2.27,2.27,0,0,0,1.16-1.74l-3.17-.2a.71.71,0,0,1-.8.72c-.57,0-.86-.35-.89-1h4.88A5.49,5.49,0,0,0,86.34,17.48Zm-3.26-.59H81.42c.07-.59.36-.88.85-.88a.81.81,0,0,1,.61.21.87.87,0,0,1,.2.65Z"/><path class="cls-1" d="M91.5,14.39,90.91,17c-.11.53-.21,1.19-.3,2h-.13c-.1-.8-.2-1.46-.32-2l-.61-2.63H86.28l2.33,6.28-.08.19c-.11.23-.48.37-1.11.41l-.75,0,.19,2A12,12,0,0,0,90,23a3.69,3.69,0,0,0,1.85-1.21,8,8,0,0,0,1.29-2.54l1.51-4.83Z"/><path class="cls-1" d="M103,12.2v2.92a16.17,16.17,0,0,0,.11,1.66l-.13,0c-.24-.53-.46-1-.66-1.37l-1.83-3.23H97.16V21h3.13V18.06c0-.49,0-1.07-.09-1.76l.12,0a11.8,11.8,0,0,0,.69,1.47L102.83,21h3.35V12.2Z"/><path class="cls-1" d="M114.1,15.07a5.89,5.89,0,0,0-6.13,0,3.08,3.08,0,0,0-1,2.5v.21a3.08,3.08,0,0,0,1,2.5,5.78,5.78,0,0,0,6.13,0,3.05,3.05,0,0,0,1-2.5v-.21A3.05,3.05,0,0,0,114.1,15.07ZM111.87,18a1.7,1.7,0,0,1-.2.92.7.7,0,0,1-.63.3.67.67,0,0,1-.63-.3,1.6,1.6,0,0,1-.21-.92v-.62a1.64,1.64,0,0,1,.21-.93.71.71,0,0,1,.63-.29.74.74,0,0,1,.63.29,1.74,1.74,0,0,1,.2.93Z"/><path class="cls-1" d="M124,14.39l-.42,2.71c-.08.55-.14,1-.17,1.46h-.13a13.16,13.16,0,0,0-.21-1.46l-.54-2.71H119.7l-.47,2.7c-.09.55-.15,1-.19,1.47h-.13c0-.45-.11-.94-.2-1.47l-.48-2.7h-3.08L116.89,21h3.6l.32-2.22c.07-.44.12-1,.16-1.66h.13c.05.62.12,1.17.19,1.65l.33,2.23h3.61L127,14.39Z"/></g></g></svg>