<svg xmlns="http://www.w3.org/2000/svg" viewBox="0 0 76.3 18.61"><defs><style>.cls-1{fill:#fedd00;}</style></defs><g id="Layer_2" data-name="Layer 2"><g id="Layer_1-2" data-name="Layer 1"><path d="M10.56,9.4a1.25,1.25,0,0,1,.21.76,1.36,1.36,0,0,1-.29.89,1.83,1.83,0,0,1-.84.58,3.85,3.85,0,0,1-1.29.19,4.05,4.05,0,0,1-1.29-.18,1.71,1.71,0,0,1-.8-.55A1.42,1.42,0,0,1,6,10.22l1.76-.14a.67.67,0,0,0,.21.46.8.8,0,0,0,.52.14q.54,0,.54-.3a.21.21,0,0,0-.07-.17.64.64,0,0,0-.25-.13l-.55-.14-.7-.15C6.49,9.59,6,9.11,6,8.34a1.31,1.31,0,0,1,.28-.86A1.61,1.61,0,0,1,7.11,7a3.78,3.78,0,0,1,1.24-.18A3.8,3.8,0,0,1,9.61,7a1.58,1.58,0,0,1,.76.55,1.4,1.4,0,0,1,.26.84L9,8.49a.59.59,0,0,0-.2-.43.78.78,0,0,0-.53-.15A.78.78,0,0,0,7.89,8a.23.23,0,0,0-.15.21.25.25,0,0,0,0,.15A.81.81,0,0,0,8,8.47a4.13,4.13,0,0,0,.53.14l.71.15A5.2,5.2,0,0,1,10,9,1.31,1.31,0,0,1,10.56,9.4Z"/><path d="M15.07,8.44a1.66,1.66,0,0,1,.56,1.35,2.25,2.25,0,0,1,0,.46H12.9c0,.38.18.57.49.57a.48.48,0,0,0,.31-.09.42.42,0,0,0,.13-.3l1.75.11a1.25,1.25,0,0,1-.64,1,3.08,3.08,0,0,1-1.56.32,2.59,2.59,0,0,1-1.7-.47A1.67,1.67,0,0,1,11.1,10V9.87a1.72,1.72,0,0,1,.58-1.41A2.63,2.63,0,0,1,13.4,8,2.66,2.66,0,0,1,15.07,8.44Z"/><path d="M20.39,9.13v2.59H18.61V9.6a.44.44,0,0,0-.08-.31.34.34,0,0,0-.27-.11.42.42,0,0,0-.37.23,1.37,1.37,0,0,0-.12.64v1.67H16V8.09h1.74a1.37,1.37,0,0,1,0,.36,2.81,2.81,0,0,1-.15.43l.07,0a1.9,1.9,0,0,1,.65-.67A1.8,1.8,0,0,1,19.15,8C20,8,20.39,8.39,20.39,9.13Z"/><path d="M23.43,6.88H25.2v4.84H23.43a2.8,2.8,0,0,1,.2-.79l-.08,0a1.49,1.49,0,0,1-.54.66,1.46,1.46,0,0,1-.84.22,1.32,1.32,0,0,1-1.08-.44A2.13,2.13,0,0,1,20.73,10V9.82a2.09,2.09,0,0,1,.36-1.35A1.29,1.29,0,0,1,22.17,8a1.39,1.39,0,0,1,1.38.87l.07,0a3.85,3.85,0,0,1-.15-.55,4.56,4.56,0,0,1,0-.54Z"/><path d="M31.17,6.88h2.14v4.84H31.58V10.19c0-.32,0-.65,0-1h-.07l-.83,2.52H29.47L28.64,9.2h-.07c0,.37,0,.69,0,1v1.53H26.88V6.88H29L29.7,8.5a9.46,9.46,0,0,1,.38,1.19h.07a10,10,0,0,1,.38-1.19Z"/><path d="M37.69,8.46a1.71,1.71,0,0,1,.57,1.39V10a1.7,1.7,0,0,1-.57,1.38,3.23,3.23,0,0,1-3.39,0A1.7,1.7,0,0,1,33.73,10V9.85a1.71,1.71,0,0,1,.57-1.39,3.23,3.23,0,0,1,3.39,0Z"/><path d="M43,9.13v2.59H41.25V9.6a.5.5,0,0,0-.08-.31.34.34,0,0,0-.27-.11.42.42,0,0,0-.37.23,1.36,1.36,0,0,0-.13.64v1.67H38.63V8.09h1.74a1.37,1.37,0,0,1,0,.36,3.07,3.07,0,0,1-.16.43l.07,0a2,2,0,0,1,.65-.67,1.81,1.81,0,0,1,.9-.21C42.61,8,43,8.39,43,9.13Z"/><path d="M47.33,8.44a1.64,1.64,0,0,1,.57,1.35,3.28,3.28,0,0,1,0,.46H45.17c0,.38.17.57.49.57a.48.48,0,0,0,.31-.09.47.47,0,0,0,.13-.3l1.75.11a1.27,1.27,0,0,1-.64,1,3.08,3.08,0,0,1-1.56.32,2.62,2.62,0,0,1-1.71-.47A1.7,1.7,0,0,1,43.37,10V9.87A1.72,1.72,0,0,1,44,8.46a3.27,3.27,0,0,1,3.38,0Z"/><path d="M50.74,8.09h1.75l-.83,2.67a4.53,4.53,0,0,1-.71,1.4,2,2,0,0,1-1,.66,6.42,6.42,0,0,1-1.74.21l-.1-1.12.41,0c.35,0,.56-.1.62-.23l0-.1L47.86,8.09h1.81L50,9.54c.06.29.12.65.17,1.09h.08a10.39,10.39,0,0,1,.16-1.09Z"/><path d="M57.12,6.88h1.73v4.84H57L56,9.94a6.43,6.43,0,0,1-.38-.81h-.07a9.11,9.11,0,0,1,.05,1v1.61H53.87V6.88h1.87l1,1.78a7.79,7.79,0,0,1,.37.76h.07a8.58,8.58,0,0,1-.06-.92Z"/><path d="M63.23,8.46a1.69,1.69,0,0,1,.58,1.39V10a1.68,1.68,0,0,1-.58,1.38,3.23,3.23,0,0,1-3.39,0A1.7,1.7,0,0,1,59.27,10V9.85a1.71,1.71,0,0,1,.57-1.39A2.61,2.61,0,0,1,61.54,8,2.58,2.58,0,0,1,63.23,8.46Z"/><path d="M70.33,8.09l-1,3.63h-2l-.19-1.23c0-.26-.07-.57-.1-.91H67a8.44,8.44,0,0,1-.09.91l-.18,1.23h-2l-1-3.63h1.7l.27,1.49c0,.29.09.56.11.81H66c0-.24.06-.51.11-.81l.25-1.49h1.56l.29,1.49a6.1,6.1,0,0,1,.12.81h.07c0-.24,0-.51.1-.81l.23-1.49Z"/><path d="M67,0H9.3a9.31,9.31,0,0,0,0,18.61H67A9.31,9.31,0,0,0,67,0Zm2.38,11.72h-2l-.19-1.23c0-.26-.07-.57-.1-.91H67a8.44,8.44,0,0,1-.09.91l-.18,1.23h-2l-1-3.63h1.7l.27,1.49c0,.29.09.56.11.81H66c0-.24.06-.51.11-.81l.25-1.49h1.56l.29,1.49a6.1,6.1,0,0,1,.12.81h.07c0-.24,0-.51.1-.81l.23-1.49h1.64ZM63.81,9.85V10a1.68,1.68,0,0,1-.58,1.38,3.23,3.23,0,0,1-3.39,0A1.7,1.7,0,0,1,59.27,10V9.85a1.71,1.71,0,0,1,.57-1.39A2.61,2.61,0,0,1,61.54,8a2.58,2.58,0,0,1,1.69.48A1.69,1.69,0,0,1,63.81,9.85Zm-8.21.26v1.61H53.87V6.88h1.87l1,1.78a7.79,7.79,0,0,1,.37.76h.07a8.58,8.58,0,0,1-.06-.92V6.88h1.73v4.84H57L56,9.94a6.43,6.43,0,0,1-.38-.81h-.07A9.11,9.11,0,0,1,55.6,10.11Zm-7.74-2h1.81L50,9.54c.06.29.12.65.17,1.09h.08a10.39,10.39,0,0,1,.16-1.09l.32-1.45h1.75l-.83,2.67a4.53,4.53,0,0,1-.71,1.4,2,2,0,0,1-1,.66,6.42,6.42,0,0,1-1.74.21l-.1-1.12.41,0c.35,0,.56-.1.62-.23l0-.1Zm-2.2,2.73a.48.48,0,0,0,.31-.09.47.47,0,0,0,.13-.3l1.75.11a1.27,1.27,0,0,1-.64,1,3.08,3.08,0,0,1-1.56.32,2.62,2.62,0,0,1-1.71-.47A1.7,1.7,0,0,1,43.37,10V9.87A1.72,1.72,0,0,1,44,8.46a3.27,3.27,0,0,1,3.38,0,1.64,1.64,0,0,1,.57,1.35,3.28,3.28,0,0,1,0,.46H45.17C45.18,10.63,45.34,10.82,45.66,10.82ZM41.17,9.29a.34.34,0,0,0-.27-.11.42.42,0,0,0-.37.23,1.36,1.36,0,0,0-.13.64v1.67H38.63V8.09h1.74a1.37,1.37,0,0,1,0,.36,3.07,3.07,0,0,1-.16.43l.07,0a2,2,0,0,1,.65-.67,1.81,1.81,0,0,1,.9-.21c.82,0,1.24.36,1.24,1.1v2.59H41.25V9.6A.5.5,0,0,0,41.17,9.29Zm-2.91.56V10a1.7,1.7,0,0,1-.57,1.38,3.23,3.23,0,0,1-3.39,0A1.7,1.7,0,0,1,33.73,10V9.85a1.71,1.71,0,0,1,.57-1.39,3.23,3.23,0,0,1,3.39,0A1.71,1.71,0,0,1,38.26,9.85ZM31.55,9.2l-.83,2.52H29.47L28.64,9.2h-.07c0,.37,0,.69,0,1v1.53H26.88V6.88H29L29.7,8.5a9.46,9.46,0,0,1,.38,1.19h.07a10,10,0,0,1,.38-1.19l.64-1.62h2.14v4.84H31.58V10.19c0-.32,0-.65,0-1Zm-8,1.7a1.49,1.49,0,0,1-.54.66,1.46,1.46,0,0,1-.84.22,1.32,1.32,0,0,1-1.08-.44A2.13,2.13,0,0,1,20.73,10V9.82a2.09,2.09,0,0,1,.36-1.35A1.29,1.29,0,0,1,22.17,8a1.39,1.39,0,0,1,1.38.87l.07,0a3.85,3.85,0,0,1-.15-.55,4.56,4.56,0,0,1,0-.54V6.88H25.2v4.84H23.43a2.8,2.8,0,0,1,.2-.79Zm-5-1.61a.34.34,0,0,0-.27-.11.42.42,0,0,0-.37.23,1.37,1.37,0,0,0-.12.64v1.67H16V8.09h1.74a1.37,1.37,0,0,1,0,.36,2.81,2.81,0,0,1-.15.43l.07,0a1.9,1.9,0,0,1,.65-.67A1.8,1.8,0,0,1,19.15,8c.83,0,1.24.36,1.24,1.1v2.59H18.61V9.6A.44.44,0,0,0,18.53,9.29Zm-5.14,1.53a.48.48,0,0,0,.31-.09.42.42,0,0,0,.13-.3l1.75.11a1.25,1.25,0,0,1-.64,1,3.08,3.08,0,0,1-1.56.32,2.59,2.59,0,0,1-1.7-.47A1.67,1.67,0,0,1,11.1,10V9.87a1.72,1.72,0,0,1,.58-1.41A2.63,2.63,0,0,1,13.4,8a2.66,2.66,0,0,1,1.67.46,1.66,1.66,0,0,1,.56,1.35,2.25,2.25,0,0,1,0,.46H12.9C12.91,10.63,13.08,10.82,13.39,10.82Zm-4.46-.61a.64.64,0,0,0-.25-.13l-.55-.14-.7-.15C6.49,9.59,6,9.11,6,8.34a1.31,1.31,0,0,1,.28-.86A1.61,1.61,0,0,1,7.11,7a3.78,3.78,0,0,1,1.24-.18A3.8,3.8,0,0,1,9.61,7a1.58,1.58,0,0,1,.76.55,1.4,1.4,0,0,1,.26.84L9,8.49a.59.59,0,0,0-.2-.43.78.78,0,0,0-.53-.15A.78.78,0,0,0,7.89,8a.23.23,0,0,0-.15.21.25.25,0,0,0,0,.15A.81.81,0,0,0,8,8.47a4.13,4.13,0,0,0,.53.14l.71.15A5.2,5.2,0,0,1,10,9a1.31,1.31,0,0,1,.53.41,1.25,1.25,0,0,1,.21.76,1.36,1.36,0,0,1-.29.89,1.83,1.83,0,0,1-.84.58,3.85,3.85,0,0,1-1.29.19,4.05,4.05,0,0,1-1.29-.18,1.71,1.71,0,0,1-.8-.55A1.42,1.42,0,0,1,6,10.22l1.76-.14a.67.67,0,0,0,.21.46.8.8,0,0,0,.52.14q.54,0,.54-.3A.21.21,0,0,0,8.93,10.21Z"/><path class="cls-1" d="M10.56,9.4A1.31,1.31,0,0,0,10,9a5.2,5.2,0,0,0-.77-.23l-.71-.15A4.13,4.13,0,0,1,8,8.47a.81.81,0,0,1-.23-.11.25.25,0,0,1,0-.15A.23.23,0,0,1,7.89,8a.78.78,0,0,1,.41-.09.78.78,0,0,1,.53.15.59.59,0,0,1,.2.43l1.6-.14a1.4,1.4,0,0,0-.26-.84A1.58,1.58,0,0,0,9.61,7a3.8,3.8,0,0,0-1.26-.19A3.78,3.78,0,0,0,7.11,7a1.61,1.61,0,0,0-.8.53A1.31,1.31,0,0,0,6,8.34c0,.77.46,1.25,1.4,1.45l.7.15.55.14a.64.64,0,0,1,.25.13.21.21,0,0,1,.07.17q0,.3-.54.3a.8.8,0,0,1-.52-.14.67.67,0,0,1-.21-.46L6,10.22a1.42,1.42,0,0,0,.29.87,1.71,1.71,0,0,0,.8.55,4.05,4.05,0,0,0,1.29.18,3.85,3.85,0,0,0,1.29-.19,1.83,1.83,0,0,0,.84-.58,1.36,1.36,0,0,0,.29-.89A1.25,1.25,0,0,0,10.56,9.4Z"/><path class="cls-1" d="M15.63,9.79a1.66,1.66,0,0,0-.56-1.35A2.66,2.66,0,0,0,13.4,8a2.63,2.63,0,0,0-1.72.48,1.72,1.72,0,0,0-.58,1.41V10a1.67,1.67,0,0,0,.58,1.39,2.59,2.59,0,0,0,1.7.47,3.08,3.08,0,0,0,1.56-.32,1.25,1.25,0,0,0,.64-1l-1.75-.11a.42.42,0,0,1-.13.3.48.48,0,0,1-.31.09c-.31,0-.48-.19-.49-.57h2.69A2.25,2.25,0,0,0,15.63,9.79Zm-1.8-.33h-.92c0-.32.2-.48.47-.48a.45.45,0,0,1,.34.12.49.49,0,0,1,.11.35Z"/><path class="cls-1" d="M19.15,8a1.8,1.8,0,0,0-.89.21,1.9,1.9,0,0,0-.65.67l-.07,0a2.81,2.81,0,0,0,.15-.43,1.37,1.37,0,0,0,0-.36H16v3.63h1.78V10.05a1.37,1.37,0,0,1,.12-.64.42.42,0,0,1,.37-.23.34.34,0,0,1,.27.11.44.44,0,0,1,.08.31v2.12h1.78V9.13C20.39,8.39,20,8,19.15,8Z"/><path class="cls-1" d="M23.43,6.88v.89a4.56,4.56,0,0,0,0,.54,3.85,3.85,0,0,0,.15.55l-.07,0A1.39,1.39,0,0,0,22.17,8a1.29,1.29,0,0,0-1.08.44,2.09,2.09,0,0,0-.36,1.35V10a2.13,2.13,0,0,0,.36,1.35,1.32,1.32,0,0,0,1.08.44,1.46,1.46,0,0,0,.84-.22,1.49,1.49,0,0,0,.54-.66l.08,0a2.8,2.8,0,0,0-.2.79H25.2V6.88Zm0,3.14a1,1,0,0,1-.12.55.44.44,0,0,1-.69,0,1,1,0,0,1-.11-.52V9.73a1,1,0,0,1,.11-.52.43.43,0,0,1,.69,0,1,1,0,0,1,.12.55Z"/><path class="cls-1" d="M31.17,6.88,30.53,8.5a10,10,0,0,0-.38,1.19h-.07A9.46,9.46,0,0,0,29.7,8.5L29,6.88H26.88v4.84h1.73V10.19c0-.29,0-.61,0-1h.07l.83,2.52h1.25l.83-2.52h.07c0,.33,0,.66,0,1v1.53h1.73V6.88Z"/><path class="cls-1" d="M37.69,8.46a3.23,3.23,0,0,0-3.39,0,1.71,1.71,0,0,0-.57,1.39V10a1.7,1.7,0,0,0,.57,1.38,3.23,3.23,0,0,0,3.39,0A1.7,1.7,0,0,0,38.26,10V9.85A1.71,1.71,0,0,0,37.69,8.46Zm-1.23,1.62a.87.87,0,0,1-.12.51.38.38,0,0,1-.35.16.38.38,0,0,1-.34-.16.87.87,0,0,1-.12-.51V9.73a.87.87,0,0,1,.12-.51A.38.38,0,0,1,36,9.06a.38.38,0,0,1,.35.16.87.87,0,0,1,.12.51Z"/><path class="cls-1" d="M41.79,8a1.81,1.81,0,0,0-.9.21,2,2,0,0,0-.65.67l-.07,0a3.07,3.07,0,0,0,.16-.43,1.37,1.37,0,0,0,0-.36H38.63v3.63H40.4V10.05a1.36,1.36,0,0,1,.13-.64.42.42,0,0,1,.37-.23.34.34,0,0,1,.27.11.5.5,0,0,1,.08.31v2.12H43V9.13C43,8.39,42.61,8,41.79,8Z"/><path class="cls-1" d="M47.9,9.79a1.64,1.64,0,0,0-.57-1.35,3.27,3.27,0,0,0-3.38,0,1.72,1.72,0,0,0-.58,1.41V10a1.7,1.7,0,0,0,.57,1.39,2.62,2.62,0,0,0,1.71.47,3.08,3.08,0,0,0,1.56-.32,1.27,1.27,0,0,0,.64-1l-1.75-.11a.47.47,0,0,1-.13.3.48.48,0,0,1-.31.09c-.32,0-.48-.19-.49-.57h2.69A3.28,3.28,0,0,0,47.9,9.79Zm-1.8-.33h-.92c0-.32.2-.48.47-.48A.45.45,0,0,1,46,9.1a.49.49,0,0,1,.11.35Z"/><path class="cls-1" d="M50.74,8.09l-.32,1.45a10.39,10.39,0,0,0-.16,1.09h-.08c0-.44-.11-.8-.17-1.09l-.34-1.45H47.86l1.29,3.47,0,.1c-.06.13-.27.21-.62.23l-.41,0,.1,1.12a6.42,6.42,0,0,0,1.74-.21,2,2,0,0,0,1-.66,4.53,4.53,0,0,0,.71-1.4l.83-2.67Z"/><path class="cls-1" d="M57.12,6.88V8.49a8.58,8.58,0,0,0,.06.92h-.07a7.79,7.79,0,0,0-.37-.76l-1-1.78H53.87v4.84H55.6V10.11a9.11,9.11,0,0,0-.05-1h.07a6.43,6.43,0,0,0,.38.81l1,1.78h1.85V6.88Z"/><path class="cls-1" d="M63.23,8.46A2.58,2.58,0,0,0,61.54,8a2.61,2.61,0,0,0-1.7.48,1.71,1.71,0,0,0-.57,1.39V10a1.7,1.7,0,0,0,.57,1.38,3.23,3.23,0,0,0,3.39,0A1.68,1.68,0,0,0,63.81,10V9.85A1.69,1.69,0,0,0,63.23,8.46ZM62,10.08a1,1,0,0,1-.11.51.46.46,0,0,1-.7,0,1,1,0,0,1-.11-.51V9.73a1,1,0,0,1,.11-.51.46.46,0,0,1,.7,0,1,1,0,0,1,.11.51Z"/><path class="cls-1" d="M68.69,8.09l-.23,1.49c0,.3-.08.57-.1.81h-.07a6.1,6.1,0,0,0-.12-.81l-.29-1.49H66.32l-.25,1.49c0,.3-.09.57-.11.81h-.07c0-.25-.06-.52-.11-.81l-.27-1.49h-1.7l1,3.63h2l.18-1.23A8.44,8.44,0,0,0,67,9.58h.07c0,.34.06.65.1.91l.19,1.23h2l1-3.63Z"/></g></g></svg>