<svg xmlns="http://www.w3.org/2000/svg" viewBox="0 0 132.85 21.35"><defs><style>.cls-1{fill:#fedd00;}</style></defs><g id="Layer_2" data-name="Layer 2"><g id="Layer_1-2" data-name="Layer 1"><path d="M19.09,10.14a2,2,0,0,1,.35,1.26A2.31,2.31,0,0,1,19,12.86a2.93,2.93,0,0,1-1.38.94,6.19,6.19,0,0,1-2.13.33,6.18,6.18,0,0,1-2.11-.31,2.72,2.72,0,0,1-1.33-.9,2.31,2.31,0,0,1-.48-1.44l2.9-.22a1.08,1.08,0,0,0,.36.76,1.35,1.35,0,0,0,.85.23c.59,0,.88-.16.88-.5a.39.39,0,0,0-.11-.28,1.15,1.15,0,0,0-.42-.21c-.2-.06-.5-.14-.9-.23l-1.16-.24c-1.54-.34-2.3-1.13-2.3-2.39A2.21,2.21,0,0,1,12.09,7a2.8,2.8,0,0,1,1.32-.86,6.18,6.18,0,0,1,2-.3,5.94,5.94,0,0,1,2.08.32,2.63,2.63,0,0,1,1.26.9,2.31,2.31,0,0,1,.42,1.39l-2.64.23a1.06,1.06,0,0,0-.32-.72,1.36,1.36,0,0,0-.88-.24,1.44,1.44,0,0,0-.68.14.39.39,0,0,0-.24.35.36.36,0,0,0,.08.24,1,1,0,0,0,.37.19,8.6,8.6,0,0,0,.88.23l1.16.25a7.38,7.38,0,0,1,1.28.38A2.09,2.09,0,0,1,19.09,10.14Z"/><path d="M26.51,8.57a2.68,2.68,0,0,1,.93,2.22,4.77,4.77,0,0,1-.06.76H22.94c0,.62.29.94.81.94a.78.78,0,0,0,.51-.16.75.75,0,0,0,.22-.49l2.88.17a2.06,2.06,0,0,1-1.05,1.59,5.18,5.18,0,0,1-2.57.53,4.38,4.38,0,0,1-2.81-.77,2.81,2.81,0,0,1-.94-2.3v-.15a2.84,2.84,0,0,1,.94-2.32,4.4,4.4,0,0,1,2.83-.78A4.23,4.23,0,0,1,26.51,8.57Z"/><path d="M35.28,9.69V14H32.35V10.47a.79.79,0,0,0-.14-.52.53.53,0,0,0-.43-.16.66.66,0,0,0-.61.37A2.16,2.16,0,0,0,31,11.22V14H28V8h2.85a2.28,2.28,0,0,1-.05.6,5,5,0,0,1-.26.7l.12.06a3,3,0,0,1,1.06-1.1,2.92,2.92,0,0,1,1.48-.36C34.6,7.88,35.28,8.48,35.28,9.69Z"/><path d="M40.28,6h2.93v8H40.29a4.77,4.77,0,0,1,.32-1.3l-.12-.05a2.65,2.65,0,0,1-.89,1.09,2.49,2.49,0,0,1-1.38.36,2.15,2.15,0,0,1-1.79-.73,3.53,3.53,0,0,1-.58-2.22v-.28a3.54,3.54,0,0,1,.58-2.23,2.16,2.16,0,0,1,1.79-.72,2.55,2.55,0,0,1,1.36.35,2.66,2.66,0,0,1,.91,1.08l.11-.06a6.9,6.9,0,0,1-.24-.91,4.79,4.79,0,0,1-.08-.88Z"/><path d="M53,6h3.52v8H53.7V11.44c0-.53,0-1.07.07-1.61l-.11,0L52.29,14H50.23L48.87,9.81l-.12,0c0,.6.07,1.14.07,1.61V14H46V6h3.55l1.09,2.67a17.39,17.39,0,0,1,.62,2h.12a16.1,16.1,0,0,1,.62-2Z"/><path d="M63.76,8.6a2.78,2.78,0,0,1,.95,2.27v.19a2.82,2.82,0,0,1-.95,2.28,5.32,5.32,0,0,1-5.58,0,2.81,2.81,0,0,1-.94-2.28v-.19a2.78,2.78,0,0,1,.94-2.27,5.32,5.32,0,0,1,5.58,0Z"/><path d="M72.55,9.69V14H69.63V10.47a.85.85,0,0,0-.14-.52.55.55,0,0,0-.44-.16.67.67,0,0,0-.61.37,2.16,2.16,0,0,0-.21,1.06V14H65.31V8h2.86a2.77,2.77,0,0,1-.06.6,5,5,0,0,1-.26.7l.12.06A3,3,0,0,1,69,8.24a2.86,2.86,0,0,1,1.47-.36C71.87,7.88,72.55,8.48,72.55,9.69Z"/><path d="M79.64,8.57a2.68,2.68,0,0,1,.93,2.22,4.77,4.77,0,0,1-.06.76H76.07c0,.62.3.94.81.94a.78.78,0,0,0,.51-.16.71.71,0,0,0,.22-.49L80.5,12a2.1,2.1,0,0,1-1.06,1.59,5.18,5.18,0,0,1-2.57.53,4.4,4.4,0,0,1-2.81-.77,2.81,2.81,0,0,1-.94-2.3v-.15a2.82,2.82,0,0,1,.95-2.32,4.35,4.35,0,0,1,2.82-.78A4.22,4.22,0,0,1,79.64,8.57Z"/><path d="M85.26,8h2.87l-1.37,4.39a7.47,7.47,0,0,1-1.17,2.31,3.35,3.35,0,0,1-1.68,1.1,11,11,0,0,1-2.87.34l-.17-1.85.68,0c.57,0,.91-.15,1-.37l.08-.17L80.51,8h3L84,10.37a15.46,15.46,0,0,1,.29,1.8h.12c.08-.71.18-1.31.28-1.79Z"/><path d="M95.76,6h2.85v8h-3L93.91,11a11.85,11.85,0,0,1-.63-1.34l-.11,0q.09.93.09,1.59V14H90.41V6h3.07l1.66,2.93c.19.35.39.77.6,1.25l.12,0c-.06-.59-.1-1.1-.1-1.51Z"/><path d="M105.82,8.6a2.78,2.78,0,0,1,1,2.27v.19a2.82,2.82,0,0,1-1,2.28,5.32,5.32,0,0,1-5.58,0,2.82,2.82,0,0,1-.95-2.28v-.19a2.78,2.78,0,0,1,.95-2.27,5.32,5.32,0,0,1,5.58,0Z"/><path d="M117.51,8l-1.57,6h-3.28l-.3-2c-.07-.43-.13-.93-.17-1.5h-.12c0,.61-.09,1.11-.15,1.51l-.29,2h-3.27l-1.59-6h2.8l.44,2.45a12.14,12.14,0,0,1,.18,1.34h.12c0-.39.09-.84.18-1.34L110.91,8h2.56l.49,2.46a10.84,10.84,0,0,1,.18,1.33h.12c0-.39.09-.83.16-1.33L114.81,8Z"/><path d="M122.18,0H10.67a10.68,10.68,0,0,0,0,21.35H122.18a10.68,10.68,0,0,0,0-21.35Zm-4.67,8-1.57,6h-3.28l-.3-2c-.07-.43-.13-.93-.17-1.5h-.12c0,.61-.09,1.11-.15,1.51l-.29,2h-3.27l-1.59-6h2.8l.44,2.45a12.14,12.14,0,0,1,.18,1.34h.12c0-.39.09-.84.18-1.34L110.91,8h2.56l.49,2.46a10.84,10.84,0,0,1,.18,1.33h.12c0-.39.09-.83.16-1.33L114.81,8Zm-10.74,2.89v.19a2.82,2.82,0,0,1-1,2.28,5.32,5.32,0,0,1-5.58,0,2.82,2.82,0,0,1-.95-2.28v-.19a2.78,2.78,0,0,1,.95-2.27,5.32,5.32,0,0,1,5.58,0A2.78,2.78,0,0,1,106.77,10.87Zm-13.51.44V14H90.41V6h3.07l1.66,2.93c.19.35.39.77.6,1.25l.12,0c-.06-.59-.1-1.1-.1-1.51V6h2.85v8h-3L93.91,11a11.85,11.85,0,0,1-.63-1.34l-.11,0Q93.26,10.65,93.26,11.31ZM80.51,8h3L84,10.37a15.46,15.46,0,0,1,.29,1.8h.12c.08-.71.18-1.31.28-1.79L85.26,8h2.87l-1.37,4.39a7.47,7.47,0,0,1-1.17,2.31,3.35,3.35,0,0,1-1.68,1.1,11,11,0,0,1-2.87.34l-.17-1.85.68,0c.57,0,.91-.15,1-.37l.08-.17Zm-3.63,4.51a.78.78,0,0,0,.51-.16.71.71,0,0,0,.22-.49L80.5,12a2.1,2.1,0,0,1-1.06,1.59,5.18,5.18,0,0,1-2.57.53,4.4,4.4,0,0,1-2.81-.77,2.81,2.81,0,0,1-.94-2.3v-.15a2.82,2.82,0,0,1,.95-2.32,4.35,4.35,0,0,1,2.82-.78,4.22,4.22,0,0,1,2.75.76,2.68,2.68,0,0,1,.93,2.22,4.77,4.77,0,0,1-.06.76H76.07C76.1,12.17,76.37,12.49,76.88,12.49ZM69.49,10a.55.55,0,0,0-.44-.16.67.67,0,0,0-.61.37,2.16,2.16,0,0,0-.21,1.06V14H65.31V8h2.86a2.77,2.77,0,0,1-.06.6,5,5,0,0,1-.26.7l.12.06A3,3,0,0,1,69,8.24a2.86,2.86,0,0,1,1.47-.36c1.36,0,2,.6,2,1.81V14H69.63V10.47A.85.85,0,0,0,69.49,10Zm-4.78.92v.19a2.82,2.82,0,0,1-.95,2.28,5.32,5.32,0,0,1-5.58,0,2.81,2.81,0,0,1-.94-2.28v-.19a2.78,2.78,0,0,1,.94-2.27,5.32,5.32,0,0,1,5.58,0A2.78,2.78,0,0,1,64.71,10.87Zm-11-1.06L52.29,14H50.23L48.87,9.81l-.12,0c0,.6.07,1.14.07,1.61V14H46V6h3.55l1.09,2.67a17.39,17.39,0,0,1,.62,2h.12a16.1,16.1,0,0,1,.62-2L53,6h3.52v8H53.7V11.44c0-.53,0-1.07.07-1.61Zm-13.17,2.8a2.65,2.65,0,0,1-.89,1.09,2.49,2.49,0,0,1-1.38.36,2.15,2.15,0,0,1-1.79-.73,3.53,3.53,0,0,1-.58-2.22v-.28a3.54,3.54,0,0,1,.58-2.23,2.16,2.16,0,0,1,1.79-.72,2.55,2.55,0,0,1,1.36.35,2.66,2.66,0,0,1,.91,1.08l.11-.06a6.9,6.9,0,0,1-.24-.91,4.79,4.79,0,0,1-.08-.88V6h2.93v8H40.29a4.77,4.77,0,0,1,.32-1.3ZM32.21,10a.53.53,0,0,0-.43-.16.66.66,0,0,0-.61.37A2.16,2.16,0,0,0,31,11.22V14H28V8h2.85a2.28,2.28,0,0,1-.05.6,5,5,0,0,1-.26.7l.12.06a3,3,0,0,1,1.06-1.1,2.92,2.92,0,0,1,1.48-.36c1.36,0,2,.6,2,1.81V14H32.35V10.47A.79.79,0,0,0,32.21,10Zm-8.46,2.54a.78.78,0,0,0,.51-.16.75.75,0,0,0,.22-.49l2.88.17a2.06,2.06,0,0,1-1.05,1.59,5.18,5.18,0,0,1-2.57.53,4.38,4.38,0,0,1-2.81-.77,2.81,2.81,0,0,1-.94-2.3v-.15a2.84,2.84,0,0,1,.94-2.32,4.4,4.4,0,0,1,2.83-.78,4.23,4.23,0,0,1,2.75.76,2.68,2.68,0,0,1,.93,2.22,4.77,4.77,0,0,1-.06.76H22.94C23,12.17,23.23,12.49,23.75,12.49Zm-7.34-1a1.15,1.15,0,0,0-.42-.21c-.2-.06-.5-.14-.9-.23l-1.16-.24c-1.54-.34-2.3-1.13-2.3-2.39A2.21,2.21,0,0,1,12.09,7a2.8,2.8,0,0,1,1.32-.86,6.18,6.18,0,0,1,2-.3,5.94,5.94,0,0,1,2.08.32,2.63,2.63,0,0,1,1.26.9,2.31,2.31,0,0,1,.42,1.39l-2.64.23a1.06,1.06,0,0,0-.32-.72,1.36,1.36,0,0,0-.88-.24,1.44,1.44,0,0,0-.68.14.39.39,0,0,0-.24.35.36.36,0,0,0,.08.24,1,1,0,0,0,.37.19,8.6,8.6,0,0,0,.88.23l1.16.25a7.38,7.38,0,0,1,1.28.38,2.09,2.09,0,0,1,.87.67,2,2,0,0,1,.35,1.26A2.31,2.31,0,0,1,19,12.86a2.93,2.93,0,0,1-1.38.94,6.19,6.19,0,0,1-2.13.33,6.18,6.18,0,0,1-2.11-.31,2.72,2.72,0,0,1-1.33-.9,2.31,2.31,0,0,1-.48-1.44l2.9-.22a1.08,1.08,0,0,0,.36.76,1.35,1.35,0,0,0,.85.23c.59,0,.88-.16.88-.5A.39.39,0,0,0,16.41,11.47Z"/><path class="cls-1" d="M19.09,10.14a2.09,2.09,0,0,0-.87-.67,7.38,7.38,0,0,0-1.28-.38l-1.16-.25a8.6,8.6,0,0,1-.88-.23,1,1,0,0,1-.37-.19.36.36,0,0,1-.08-.24.39.39,0,0,1,.24-.35,1.44,1.44,0,0,1,.68-.14,1.36,1.36,0,0,1,.88.24,1.06,1.06,0,0,1,.32.72l2.64-.23A2.31,2.31,0,0,0,18.79,7a2.63,2.63,0,0,0-1.26-.9,5.94,5.94,0,0,0-2.08-.32,6.18,6.18,0,0,0-2,.3A2.8,2.8,0,0,0,12.09,7a2.21,2.21,0,0,0-.46,1.43c0,1.26.76,2,2.3,2.39l1.16.24c.4.09.7.17.9.23a1.15,1.15,0,0,1,.42.21.39.39,0,0,1,.11.28c0,.34-.29.5-.88.5a1.35,1.35,0,0,1-.85-.23,1.08,1.08,0,0,1-.36-.76l-2.9.22A2.31,2.31,0,0,0,12,12.92a2.72,2.72,0,0,0,1.33.9,6.18,6.18,0,0,0,2.11.31,6.19,6.19,0,0,0,2.13-.33A2.93,2.93,0,0,0,19,12.86a2.31,2.31,0,0,0,.48-1.46A2,2,0,0,0,19.09,10.14Z"/><path class="cls-1" d="M27.44,10.79a2.68,2.68,0,0,0-.93-2.22,4.23,4.23,0,0,0-2.75-.76,4.4,4.4,0,0,0-2.83.78A2.84,2.84,0,0,0,20,10.91v.15a2.81,2.81,0,0,0,.94,2.3,4.38,4.38,0,0,0,2.81.77,5.18,5.18,0,0,0,2.57-.53A2.06,2.06,0,0,0,27.36,12l-2.88-.17a.75.75,0,0,1-.22.49.78.78,0,0,1-.51.16c-.52,0-.78-.32-.81-.94h4.44A4.77,4.77,0,0,0,27.44,10.79Zm-3-.54H23c.07-.53.33-.8.77-.8a.73.73,0,0,1,.56.19.83.83,0,0,1,.18.59Z"/><path class="cls-1" d="M33.24,7.88a2.92,2.92,0,0,0-1.48.36,3,3,0,0,0-1.06,1.1l-.12-.06a5,5,0,0,0,.26-.7,2.28,2.28,0,0,0,.05-.6H28v6H31V11.22a2.16,2.16,0,0,1,.21-1.06.66.66,0,0,1,.61-.37.53.53,0,0,1,.43.16.79.79,0,0,1,.14.52V14h2.93V9.69C35.28,8.48,34.6,7.88,33.24,7.88Z"/><path class="cls-1" d="M40.28,6V7.46a4.79,4.79,0,0,0,.08.88,6.9,6.9,0,0,0,.24.91l-.11.06a2.66,2.66,0,0,0-.91-1.08,2.55,2.55,0,0,0-1.36-.35,2.16,2.16,0,0,0-1.79.72,3.54,3.54,0,0,0-.58,2.23v.28a3.53,3.53,0,0,0,.58,2.22,2.15,2.15,0,0,0,1.79.73,2.49,2.49,0,0,0,1.38-.36,2.65,2.65,0,0,0,.89-1.09l.12.05a4.77,4.77,0,0,0-.32,1.3h2.92V6Zm0,5.18a1.61,1.61,0,0,1-.19.89.65.65,0,0,1-.59.29.62.62,0,0,1-.55-.27,1.6,1.6,0,0,1-.18-.85v-.54A1.64,1.64,0,0,1,39,9.83a.63.63,0,0,1,.55-.28.66.66,0,0,1,.59.3,1.67,1.67,0,0,1,.19.9Z"/><path class="cls-1" d="M53,6,52,8.66a16.1,16.1,0,0,0-.62,2h-.12a17.39,17.39,0,0,0-.62-2L49.52,6H46v8h2.85V11.44c0-.47,0-1-.07-1.61l.12,0L50.23,14h2.06l1.37-4.15.11,0c0,.54-.07,1.08-.07,1.61V14h2.85V6Z"/><path class="cls-1" d="M63.76,8.6a5.32,5.32,0,0,0-5.58,0,2.78,2.78,0,0,0-.94,2.27v.19a2.81,2.81,0,0,0,.94,2.28,5.32,5.32,0,0,0,5.58,0,2.82,2.82,0,0,0,.95-2.28v-.19A2.78,2.78,0,0,0,63.76,8.6Zm-2,2.66a1.53,1.53,0,0,1-.18.83.67.67,0,0,1-.58.28.65.65,0,0,1-.57-.28,1.53,1.53,0,0,1-.18-.83v-.57a1.6,1.6,0,0,1,.18-.85A.67.67,0,0,1,61,9.57a.69.69,0,0,1,.58.27,1.6,1.6,0,0,1,.18.85Z"/><path class="cls-1" d="M70.51,7.88A2.86,2.86,0,0,0,69,8.24,3,3,0,0,0,68,9.34l-.12-.06a5,5,0,0,0,.26-.7,2.77,2.77,0,0,0,.06-.6H65.31v6h2.92V11.22a2.16,2.16,0,0,1,.21-1.06.67.67,0,0,1,.61-.37.55.55,0,0,1,.44.16.85.85,0,0,1,.14.52V14h2.92V9.69C72.55,8.48,71.87,7.88,70.51,7.88Z"/><path class="cls-1" d="M80.57,10.79a2.68,2.68,0,0,0-.93-2.22,4.22,4.22,0,0,0-2.75-.76,4.35,4.35,0,0,0-2.82.78,2.82,2.82,0,0,0-.95,2.32v.15a2.81,2.81,0,0,0,.94,2.3,4.4,4.4,0,0,0,2.81.77,5.18,5.18,0,0,0,2.57-.53A2.1,2.1,0,0,0,80.5,12l-2.89-.17a.71.71,0,0,1-.22.49.78.78,0,0,1-.51.16c-.51,0-.78-.32-.81-.94h4.44A4.77,4.77,0,0,0,80.57,10.79Zm-3-.54H76.09c.07-.53.33-.8.78-.8a.72.72,0,0,1,.55.19.79.79,0,0,1,.19.59Z"/><path class="cls-1" d="M85.26,8l-.53,2.4c-.1.48-.2,1.08-.28,1.79h-.12a15.46,15.46,0,0,0-.29-1.8L83.49,8h-3l2.13,5.71-.08.17c-.1.22-.44.34-1,.37l-.68,0L81,16.12a11,11,0,0,0,2.87-.34,3.35,3.35,0,0,0,1.68-1.1,7.47,7.47,0,0,0,1.17-2.31L88.13,8Z"/><path class="cls-1" d="M95.76,6V8.64c0,.41,0,.92.1,1.51l-.12,0c-.21-.48-.41-.9-.6-1.25L93.48,6H90.41v8h2.85V11.31q0-.66-.09-1.59l.11,0A11.85,11.85,0,0,0,93.91,11L95.56,14h3V6Z"/><path class="cls-1" d="M105.82,8.6a5.32,5.32,0,0,0-5.58,0,2.78,2.78,0,0,0-.95,2.27v.19a2.82,2.82,0,0,0,.95,2.28,5.32,5.32,0,0,0,5.58,0,2.82,2.82,0,0,0,1-2.28v-.19A2.78,2.78,0,0,0,105.82,8.6Zm-2,2.66a1.43,1.43,0,0,1-.19.83.72.72,0,0,1-1.14,0,1.52,1.52,0,0,1-.19-.83v-.57a1.6,1.6,0,0,1,.19-.85.74.74,0,0,1,1.14,0,1.51,1.51,0,0,1,.19.85Z"/><path class="cls-1" d="M114.81,8l-.39,2.46c-.07.5-.12.94-.16,1.33h-.12a10.84,10.84,0,0,0-.18-1.33L113.47,8h-2.56l-.42,2.45c-.09.5-.14,1-.18,1.34h-.12a12.14,12.14,0,0,0-.18-1.34L109.57,8h-2.8l1.59,6h3.27l.29-2c.06-.4.11-.9.15-1.51h.12c0,.57.1,1.07.17,1.5l.3,2h3.28l1.57-6Z"/></g></g></svg>