<svg xmlns="http://www.w3.org/2000/svg" viewBox="0 0 106.42 17.27"><g id="Layer_2" data-name="Layer 2"><g id="Layer_1-2" data-name="Layer 1"><path d="M97.79,17.27H8.64A8.64,8.64,0,1,1,8.64,0H97.79a8.64,8.64,0,0,1,0,17.27ZM8.64,1a7.64,7.64,0,1,0,0,15.27H97.79A7.64,7.64,0,0,0,97.79,1Z"/><path d="M10.76,11.15a2.23,2.23,0,0,1-1.06-.72,1.91,1.91,0,0,1-.38-1.15l2.32-.18a.9.9,0,0,0,.28.61,1.13,1.13,0,0,0,.69.19c.47,0,.7-.14.7-.41a.29.29,0,0,0-.09-.22.83.83,0,0,0-.33-.17l-.72-.18-.93-.2C10,8.46,9.4,7.82,9.4,6.81a1.71,1.71,0,0,1,.37-1.13A2.29,2.29,0,0,1,10.82,5a5.27,5.27,0,0,1,1.64-.23A4.72,4.72,0,0,1,14.12,5a2.06,2.06,0,0,1,1,.72,1.81,1.81,0,0,1,.34,1.11L13.35,7a.81.81,0,0,0-.26-.57,1,1,0,0,0-.7-.19,1.15,1.15,0,0,0-.54.11.31.31,0,0,0-.19.28.29.29,0,0,0,.06.19A.81.81,0,0,0,12,7a4.89,4.89,0,0,0,.7.19l.93.2a6.38,6.38,0,0,1,1,.3,1.72,1.72,0,0,1,.7.54,1.65,1.65,0,0,1,.28,1,1.83,1.83,0,0,1-.39,1.17,2.38,2.38,0,0,1-1.1.76,5.13,5.13,0,0,1-1.71.26A5,5,0,0,1,10.76,11.15Z"/><path d="M22,9.33H18.45c0,.5.23.75.64.75a.52.52,0,0,0,.59-.52L22,9.7A1.69,1.69,0,0,1,21.14,11a4.05,4.05,0,0,1-2.06.43,3.48,3.48,0,0,1-2.24-.62,2.23,2.23,0,0,1-.76-1.84V8.82A2.25,2.25,0,0,1,16.84,7a3.48,3.48,0,0,1,2.26-.63A3.38,3.38,0,0,1,21.3,7,2.15,2.15,0,0,1,22,8.72,4,4,0,0,1,22,9.33Zm-2.32-1h0a.65.65,0,0,0-.15-.47.55.55,0,0,0-.44-.16c-.36,0-.57.22-.62.64Z"/><path d="M22.52,11.26V6.48H24.8a1.87,1.87,0,0,1,0,.48,4.77,4.77,0,0,1-.21.56l.1.05a2.43,2.43,0,0,1,.85-.89,2.32,2.32,0,0,1,1.18-.28c1.09,0,1.63.48,1.63,1.45v3.41H26V8.47a.67.67,0,0,0-.11-.41.42.42,0,0,0-.35-.14.55.55,0,0,0-.49.3,1.77,1.77,0,0,0-.17.85v2.19Z"/><path d="M29.23,10.76A2.84,2.84,0,0,1,28.76,9V8.76A2.81,2.81,0,0,1,29.23,7a1.72,1.72,0,0,1,1.43-.58,2,2,0,0,1,1.09.28,2.07,2.07,0,0,1,.72.86l.1,0a4.18,4.18,0,0,1-.2-.72,3.92,3.92,0,0,1-.06-.71V4.89h2.34v6.37H32.32a3.5,3.5,0,0,1,.25-1l-.1,0a2,2,0,0,1-.71.87,1.9,1.9,0,0,1-1.1.29A1.72,1.72,0,0,1,29.23,10.76Zm2.93-1A1.32,1.32,0,0,0,32.31,9V8.69A1.38,1.38,0,0,0,32.16,8a.52.52,0,0,0-.47-.23.47.47,0,0,0-.44.22,1.26,1.26,0,0,0-.15.69v.42a1.22,1.22,0,0,0,.15.68.48.48,0,0,0,.44.23A.53.53,0,0,0,32.16,9.74Z"/><path d="M36.86,11.26V4.89h2.83L40.57,7a13,13,0,0,1,.49,1.56h.09c.19-.67.35-1.2.5-1.57l.85-2.13h2.82v6.37H43v-2c0-.42,0-.85.05-1.28H43l-1.09,3.31H40.27L39.17,8h-.09c0,.48.05.91.05,1.28v2Z"/><path d="M46.62,10.76a2.25,2.25,0,0,1-.76-1.82V8.79A2.25,2.25,0,0,1,46.62,7a4.26,4.26,0,0,1,4.46,0,2.22,2.22,0,0,1,.76,1.82v.15a2.22,2.22,0,0,1-.76,1.82,4.21,4.21,0,0,1-4.46,0Zm2.69-1a1.21,1.21,0,0,0,.15-.67V8.64A1.19,1.19,0,0,0,49.31,8a.53.53,0,0,0-.46-.22.54.54,0,0,0-.46.22,1.29,1.29,0,0,0-.14.67V9.1a1.31,1.31,0,0,0,.14.67.54.54,0,0,0,.46.22A.53.53,0,0,0,49.31,9.77Z"/><path d="M52.32,11.26V6.48H54.6a1.87,1.87,0,0,1,0,.48,4.77,4.77,0,0,1-.21.56l.1.05a2.43,2.43,0,0,1,.85-.89,2.32,2.32,0,0,1,1.18-.28c1.09,0,1.63.48,1.63,1.45v3.41H55.77V8.47a.67.67,0,0,0-.11-.41.44.44,0,0,0-.35-.14.55.55,0,0,0-.49.3,1.77,1.77,0,0,0-.17.85v2.19Z"/><path d="M64.47,9.33H60.93c0,.5.23.75.64.75a.52.52,0,0,0,.59-.52l2.3.14A1.69,1.69,0,0,1,63.62,11a4.05,4.05,0,0,1-2.06.43,3.48,3.48,0,0,1-2.24-.62,2.23,2.23,0,0,1-.76-1.84V8.82A2.28,2.28,0,0,1,59.32,7a3.48,3.48,0,0,1,2.26-.63,3.38,3.38,0,0,1,2.2.61,2.15,2.15,0,0,1,.74,1.77A4,4,0,0,1,64.47,9.33Zm-2.32-1h0A.65.65,0,0,0,62,7.81a.55.55,0,0,0-.44-.16c-.36,0-.57.22-.62.64Z"/><path d="M64.76,11.51l.54,0q.69,0,.81-.3l.06-.13-1.7-4.57h2.38l.45,1.91c.08.38.16.86.23,1.44h.1c.06-.57.13-1.05.21-1.43l.43-1.92h2.3L69.47,10a6.08,6.08,0,0,1-.93,1.85,2.69,2.69,0,0,1-1.35.87A8.77,8.77,0,0,1,64.9,13Z"/><path d="M72.39,11.26V4.89h2.45l1.33,2.34c.15.28.31.61.48,1l.09,0A11.45,11.45,0,0,1,76.67,7V4.89h2.27v6.37H76.51L75.19,8.92a8.69,8.69,0,0,1-.5-1.07l-.1,0c0,.5.08.92.08,1.27v2.12Z"/><path d="M80.25,10.76a2.22,2.22,0,0,1-.76-1.82V8.79A2.22,2.22,0,0,1,80.25,7a4.26,4.26,0,0,1,4.46,0,2.25,2.25,0,0,1,.76,1.82v.15a2.25,2.25,0,0,1-.76,1.82,4.21,4.21,0,0,1-4.46,0Zm2.69-1a1.22,1.22,0,0,0,.14-.67V8.64A1.19,1.19,0,0,0,82.94,8,.59.59,0,0,0,82,8a1.19,1.19,0,0,0-.15.67V9.1a1.21,1.21,0,0,0,.15.67.59.59,0,0,0,.92,0Z"/><path d="M86.74,11.26,85.47,6.48h2.24l.35,2a9,9,0,0,1,.14,1.07h.1c0-.31.07-.67.14-1.07l.34-2h2l.39,2a6.76,6.76,0,0,1,.15,1.06h.1c0-.31.07-.67.13-1.06l.3-2h2.16L92.8,11.26H90.18l-.25-1.62c-.05-.35-.09-.75-.13-1.2h-.09c0,.48-.07.89-.12,1.2l-.23,1.62Z"/></g></g></svg>