<svg xmlns="http://www.w3.org/2000/svg" viewBox="0 0 106.42 17.28"><defs><style>.cls-1{fill:#fedd00;}</style></defs><g id="Layer_2" data-name="Layer 2"><g id="Layer_1-2" data-name="Layer 1"><path d="M15.36,8.21a1.62,1.62,0,0,1,.29,1,1.83,1.83,0,0,1-.39,1.17,2.3,2.3,0,0,1-1.1.75,4.88,4.88,0,0,1-1.71.26,5.25,5.25,0,0,1-1.69-.24,2.38,2.38,0,0,1-1.06-.72,1.93,1.93,0,0,1-.38-1.15l2.32-.19a.86.86,0,0,0,.28.61,1.07,1.07,0,0,0,.69.19c.47,0,.7-.13.7-.4a.32.32,0,0,0-.09-.23.84.84,0,0,0-.33-.16c-.16,0-.4-.11-.73-.18l-.92-.2C10,8.46,9.4,7.83,9.4,6.82a1.75,1.75,0,0,1,.37-1.14A2.2,2.2,0,0,1,10.82,5a5,5,0,0,1,1.64-.24A5,5,0,0,1,14.12,5a2.13,2.13,0,0,1,1,.72,1.82,1.82,0,0,1,.34,1.12L13.35,7a.77.77,0,0,0-.26-.57,1,1,0,0,0-.7-.19,1.16,1.16,0,0,0-.54.1.33.33,0,0,0-.2.28.32.32,0,0,0,.07.2A.81.81,0,0,0,12,7c.15,0,.38.11.7.18l.93.2a5.43,5.43,0,0,1,1,.31A1.69,1.69,0,0,1,15.36,8.21Z"/><path d="M21.3,7A2.19,2.19,0,0,1,22,8.73a4.07,4.07,0,0,1-.05.61H18.44c0,.5.24.75.65.75A.58.58,0,0,0,19.5,10a.6.6,0,0,0,.18-.39l2.3.14A1.69,1.69,0,0,1,21.14,11a4.17,4.17,0,0,1-2.06.42,3.42,3.42,0,0,1-2.24-.62,2.21,2.21,0,0,1-.76-1.84V8.83A2.27,2.27,0,0,1,16.84,7a3.54,3.54,0,0,1,2.26-.62A3.44,3.44,0,0,1,21.3,7Z"/><path d="M28.31,7.86v3.41H26V8.48a.68.68,0,0,0-.11-.42.43.43,0,0,0-.35-.13.56.56,0,0,0-.49.29,1.77,1.77,0,0,0-.17.85v2.2H22.52V6.48H24.8a1.79,1.79,0,0,1,0,.48,4.19,4.19,0,0,1-.21.56l.1.05a2.2,2.2,0,0,1,2-1.17C27.77,6.4,28.31,6.89,28.31,7.86Z"/><path d="M32.31,4.89h2.34v6.38H32.32a3.55,3.55,0,0,1,.25-1l-.1,0a2.11,2.11,0,0,1-.71.88,2,2,0,0,1-1.1.29,1.72,1.72,0,0,1-1.43-.59A2.83,2.83,0,0,1,28.76,9V8.77A2.84,2.84,0,0,1,29.23,7a1.75,1.75,0,0,1,1.43-.58,1.86,1.86,0,0,1,1.81,1.15l.1,0a4.27,4.27,0,0,1-.2-.73,3.8,3.8,0,0,1-.06-.7Z"/><path d="M42.5,4.89h2.82v6.38H43v-2c0-.42,0-.85.05-1.29H43l-1.09,3.32H40.27L39.17,8h-.09c0,.49.05.92.05,1.29v2H36.86V4.89h2.83L40.57,7a12.67,12.67,0,0,1,.49,1.57h.09A15.87,15.87,0,0,1,41.65,7Z"/><path d="M51.08,7a2.22,2.22,0,0,1,.76,1.82V9a2.24,2.24,0,0,1-.76,1.82,4.26,4.26,0,0,1-4.46,0A2.27,2.27,0,0,1,45.86,9V8.8A2.25,2.25,0,0,1,46.62,7a4.26,4.26,0,0,1,4.46,0Z"/><path d="M58.11,7.86v3.41H55.77V8.48a.68.68,0,0,0-.11-.42.43.43,0,0,0-.35-.13.56.56,0,0,0-.49.29,1.77,1.77,0,0,0-.17.85v2.2H52.32V6.48H54.6a1.79,1.79,0,0,1,0,.48,4.19,4.19,0,0,1-.21.56l.09.05a2.42,2.42,0,0,1,.86-.88,2.32,2.32,0,0,1,1.18-.29C57.57,6.4,58.11,6.89,58.11,7.86Z"/><path d="M63.78,7a2.19,2.19,0,0,1,.74,1.78,4.07,4.07,0,0,1,0,.61H60.93c0,.5.23.75.64.75A.58.58,0,0,0,62,10a.6.6,0,0,0,.18-.39l2.3.14A1.69,1.69,0,0,1,63.62,11a4.17,4.17,0,0,1-2.06.42,3.42,3.42,0,0,1-2.24-.62,2.21,2.21,0,0,1-.76-1.84V8.83A2.3,2.3,0,0,1,59.32,7a3.54,3.54,0,0,1,2.26-.62A3.44,3.44,0,0,1,63.78,7Z"/><path d="M68.27,6.48h2.3L69.47,10a5.79,5.79,0,0,1-.94,1.84,2.7,2.7,0,0,1-1.34.88A8.41,8.41,0,0,1,64.9,13l-.14-1.47.54,0c.46,0,.73-.13.81-.31l.06-.13-1.7-4.57h2.38L67.3,8.4c.08.37.16.85.23,1.44h.1q.09-.86.21-1.44Z"/><path d="M76.67,4.89h2.27v6.38H76.51L75.19,8.92a8,8,0,0,1-.5-1.07l-.1,0c0,.5.08.93.08,1.28v2.12H72.39V4.89h2.45l1.33,2.35c.15.28.31.61.48,1l.09,0A11.62,11.62,0,0,1,76.67,7Z"/><path d="M84.71,7a2.25,2.25,0,0,1,.76,1.82V9a2.27,2.27,0,0,1-.76,1.82,4.26,4.26,0,0,1-4.46,0A2.24,2.24,0,0,1,79.49,9V8.8A2.22,2.22,0,0,1,80.25,7a4.26,4.26,0,0,1,4.46,0Z"/><path d="M94.05,6.48,92.8,11.27H90.18l-.25-1.62c-.05-.35-.09-.75-.13-1.2h-.09q0,.72-.12,1.2l-.23,1.62H86.74L85.47,6.48h2.24l.35,2a9.43,9.43,0,0,1,.14,1.08h.1c0-.32.07-.68.14-1.07l.34-2h2l.39,2a6.88,6.88,0,0,1,.15,1.07h.1c0-.31.07-.67.13-1.07l.3-2Z"/><path d="M97.79,0H8.64a8.64,8.64,0,0,0,0,17.28H97.79A8.64,8.64,0,0,0,97.79,0ZM94.05,6.48,92.8,11.27H90.18l-.25-1.62c-.05-.35-.09-.75-.13-1.2h-.09q0,.72-.12,1.2l-.23,1.62H86.74L85.47,6.48h2.24l.35,2a9.43,9.43,0,0,1,.14,1.08h.1c0-.32.07-.68.14-1.07l.34-2h2l.39,2a6.88,6.88,0,0,1,.15,1.07h.1c0-.31.07-.67.13-1.07l.3-2ZM85.47,8.8V9a2.27,2.27,0,0,1-.76,1.82,4.26,4.26,0,0,1-4.46,0A2.24,2.24,0,0,1,79.49,9V8.8A2.22,2.22,0,0,1,80.25,7a4.26,4.26,0,0,1,4.46,0A2.25,2.25,0,0,1,85.47,8.8Zm-10.8.35v2.12H72.39V4.89h2.45l1.33,2.35c.15.28.31.61.48,1l.09,0A11.62,11.62,0,0,1,76.67,7V4.89h2.27v6.38H76.51L75.19,8.92a8,8,0,0,1-.5-1.07l-.1,0C74.64,8.37,74.67,8.8,74.67,9.15ZM64.47,6.48h2.38L67.3,8.4c.08.37.16.85.23,1.44h.1q.09-.86.21-1.44l.43-1.92h2.3L69.47,10a5.79,5.79,0,0,1-.94,1.84,2.7,2.7,0,0,1-1.34.88A8.41,8.41,0,0,1,64.9,13l-.14-1.47.54,0c.46,0,.73-.13.81-.31l.06-.13Zm-2.9,3.61A.58.58,0,0,0,62,10a.6.6,0,0,0,.18-.39l2.3.14A1.69,1.69,0,0,1,63.62,11a4.17,4.17,0,0,1-2.06.42,3.42,3.42,0,0,1-2.24-.62,2.21,2.21,0,0,1-.76-1.84V8.83A2.3,2.3,0,0,1,59.32,7a3.54,3.54,0,0,1,2.26-.62,3.44,3.44,0,0,1,2.2.6,2.19,2.19,0,0,1,.74,1.78,4.07,4.07,0,0,1,0,.61H60.93C60.94,9.84,61.16,10.09,61.57,10.09Zm-5.91-2a.43.43,0,0,0-.35-.13.56.56,0,0,0-.49.29,1.77,1.77,0,0,0-.17.85v2.2H52.32V6.48H54.6a1.79,1.79,0,0,1,0,.48,4.19,4.19,0,0,1-.21.56l.09.05a2.42,2.42,0,0,1,.86-.88,2.32,2.32,0,0,1,1.18-.29c1.09,0,1.63.49,1.63,1.46v3.41H55.77V8.48A.68.68,0,0,0,55.66,8.06Zm-3.82.74V9a2.24,2.24,0,0,1-.76,1.82,4.26,4.26,0,0,1-4.46,0A2.27,2.27,0,0,1,45.86,9V8.8A2.25,2.25,0,0,1,46.62,7a4.26,4.26,0,0,1,4.46,0A2.22,2.22,0,0,1,51.84,8.8ZM43,8l-1.09,3.32H40.27L39.17,8h-.09c0,.49.05.92.05,1.29v2H36.86V4.89h2.83L40.57,7a12.67,12.67,0,0,1,.49,1.57h.09A15.87,15.87,0,0,1,41.65,7l.85-2.14h2.82v6.38H43v-2c0-.42,0-.85.05-1.29ZM32.47,10.18a2.11,2.11,0,0,1-.71.88,2,2,0,0,1-1.1.29,1.72,1.72,0,0,1-1.43-.59A2.83,2.83,0,0,1,28.76,9V8.77A2.84,2.84,0,0,1,29.23,7a1.75,1.75,0,0,1,1.43-.58,1.86,1.86,0,0,1,1.81,1.15l.1,0a4.27,4.27,0,0,1-.2-.73,3.8,3.8,0,0,1-.06-.7V4.89h2.34v6.38H32.32a3.55,3.55,0,0,1,.25-1ZM25.86,8.06a.43.43,0,0,0-.35-.13.56.56,0,0,0-.49.29,1.77,1.77,0,0,0-.17.85v2.2H22.52V6.48H24.8a1.79,1.79,0,0,1,0,.48,4.19,4.19,0,0,1-.21.56l.1.05a2.2,2.2,0,0,1,2-1.17c1.09,0,1.63.49,1.63,1.46v3.41H26V8.48A.68.68,0,0,0,25.86,8.06Zm-6.77,2A.58.58,0,0,0,19.5,10a.6.6,0,0,0,.18-.39l2.3.14A1.69,1.69,0,0,1,21.14,11a4.17,4.17,0,0,1-2.06.42,3.42,3.42,0,0,1-2.24-.62,2.21,2.21,0,0,1-.76-1.84V8.83A2.27,2.27,0,0,1,16.84,7a3.54,3.54,0,0,1,2.26-.62,3.44,3.44,0,0,1,2.2.6A2.19,2.19,0,0,1,22,8.73a4.07,4.07,0,0,1-.05.61H18.44C18.46,9.84,18.68,10.09,19.09,10.09Zm-5.87-.82a.84.84,0,0,0-.33-.16c-.16,0-.4-.11-.73-.18l-.92-.2C10,8.46,9.4,7.83,9.4,6.82a1.75,1.75,0,0,1,.37-1.14A2.2,2.2,0,0,1,10.82,5a5,5,0,0,1,1.64-.24A5,5,0,0,1,14.12,5a2.13,2.13,0,0,1,1,.72,1.82,1.82,0,0,1,.34,1.12L13.35,7a.77.77,0,0,0-.26-.57,1,1,0,0,0-.7-.19,1.16,1.16,0,0,0-.54.1.33.33,0,0,0-.2.28.32.32,0,0,0,.07.2A.81.81,0,0,0,12,7c.15,0,.38.11.7.18l.93.2a5.43,5.43,0,0,1,1,.31,1.69,1.69,0,0,1,.69.53,1.62,1.62,0,0,1,.29,1,1.83,1.83,0,0,1-.39,1.17,2.3,2.3,0,0,1-1.1.75,4.88,4.88,0,0,1-1.71.26,5.25,5.25,0,0,1-1.69-.24,2.38,2.38,0,0,1-1.06-.72,1.93,1.93,0,0,1-.38-1.15l2.32-.19a.86.86,0,0,0,.28.61,1.07,1.07,0,0,0,.69.19c.47,0,.7-.13.7-.4A.32.32,0,0,0,13.22,9.27Z"/><path class="cls-1" d="M15.36,8.21a1.69,1.69,0,0,0-.69-.53,5.43,5.43,0,0,0-1-.31l-.93-.2C12.4,7.1,12.17,7,12,7a.81.81,0,0,1-.3-.15.32.32,0,0,1-.07-.2.33.33,0,0,1,.2-.28,1.16,1.16,0,0,1,.54-.1,1,1,0,0,1,.7.19.77.77,0,0,1,.26.57l2.11-.18a1.82,1.82,0,0,0-.34-1.12,2.13,2.13,0,0,0-1-.72,5,5,0,0,0-1.66-.25A5,5,0,0,0,10.82,5a2.2,2.2,0,0,0-1.05.69A1.75,1.75,0,0,0,9.4,6.82c0,1,.61,1.64,1.84,1.91l.92.2c.33.07.57.13.73.18a.84.84,0,0,1,.33.16.32.32,0,0,1,.09.23c0,.27-.23.4-.7.4a1.07,1.07,0,0,1-.69-.19.86.86,0,0,1-.28-.61l-2.32.19a1.93,1.93,0,0,0,.38,1.15,2.38,2.38,0,0,0,1.06.72,5.25,5.25,0,0,0,1.69.24,4.88,4.88,0,0,0,1.71-.26,2.3,2.3,0,0,0,1.1-.75,1.83,1.83,0,0,0,.39-1.17A1.62,1.62,0,0,0,15.36,8.21Z"/><path class="cls-1" d="M22,8.73A2.19,2.19,0,0,0,21.3,7a3.44,3.44,0,0,0-2.2-.6A3.54,3.54,0,0,0,16.84,7a2.27,2.27,0,0,0-.76,1.86v.11a2.21,2.21,0,0,0,.76,1.84,3.42,3.42,0,0,0,2.24.62A4.17,4.17,0,0,0,21.14,11,1.69,1.69,0,0,0,22,9.71l-2.3-.14a.6.6,0,0,1-.18.39.58.58,0,0,1-.41.13c-.41,0-.63-.25-.65-.75H22A4.07,4.07,0,0,0,22,8.73ZM19.67,8.3H18.46c.05-.43.26-.64.62-.64a.59.59,0,0,1,.44.15.65.65,0,0,1,.15.47Z"/><path class="cls-1" d="M26.68,6.4a2.2,2.2,0,0,0-2,1.17l-.1-.05A4.19,4.19,0,0,0,24.76,7a1.79,1.79,0,0,0,0-.48H22.52v4.79h2.33V9.07A1.77,1.77,0,0,1,25,8.22a.56.56,0,0,1,.49-.29.43.43,0,0,1,.35.13.68.68,0,0,1,.11.42v2.79h2.34V7.86C28.31,6.89,27.77,6.4,26.68,6.4Z"/><path class="cls-1" d="M32.31,4.89V6.07a3.8,3.8,0,0,0,.06.7,4.27,4.27,0,0,0,.2.73l-.1,0A1.86,1.86,0,0,0,30.66,6.4,1.75,1.75,0,0,0,29.23,7a2.84,2.84,0,0,0-.47,1.79V9a2.83,2.83,0,0,0,.47,1.78,1.72,1.72,0,0,0,1.43.59,2,2,0,0,0,1.1-.29,2.11,2.11,0,0,0,.71-.88l.1,0a3.55,3.55,0,0,0-.25,1h2.33V4.89Zm0,4.15a1.27,1.27,0,0,1-.16.71.51.51,0,0,1-.46.23.5.5,0,0,1-.45-.22,1.35,1.35,0,0,1-.14-.68V8.65A1.35,1.35,0,0,1,31.24,8a.51.51,0,0,1,.45-.23.5.5,0,0,1,.46.24,1.28,1.28,0,0,1,.16.72Z"/><path class="cls-1" d="M42.5,4.89,41.65,7a15.87,15.87,0,0,0-.5,1.57h-.09A12.67,12.67,0,0,0,40.57,7l-.88-2.14H36.86v6.38h2.27v-2c0-.37,0-.8-.05-1.29h.09l1.1,3.32h1.64L43,8h.09c0,.44-.05.87-.05,1.29v2h2.28V4.89Z"/><path class="cls-1" d="M51.08,7a4.26,4.26,0,0,0-4.46,0,2.25,2.25,0,0,0-.76,1.82V9a2.27,2.27,0,0,0,.76,1.82,4.26,4.26,0,0,0,4.46,0A2.24,2.24,0,0,0,51.84,9V8.8A2.22,2.22,0,0,0,51.08,7ZM49.46,9.1a1.19,1.19,0,0,1-.15.67.51.51,0,0,1-.46.22.52.52,0,0,1-.46-.22,1.29,1.29,0,0,1-.14-.67V8.65A1.26,1.26,0,0,1,48.39,8a.52.52,0,0,1,.46-.22.51.51,0,0,1,.46.22,1.16,1.16,0,0,1,.15.67Z"/><path class="cls-1" d="M56.48,6.4a2.32,2.32,0,0,0-1.18.29,2.42,2.42,0,0,0-.86.88l-.09-.05A4.19,4.19,0,0,0,54.56,7a1.79,1.79,0,0,0,0-.48H52.32v4.79h2.33V9.07a1.77,1.77,0,0,1,.17-.85.56.56,0,0,1,.49-.29.43.43,0,0,1,.35.13.68.68,0,0,1,.11.42v2.79h2.34V7.86C58.11,6.89,57.57,6.4,56.48,6.4Z"/><path class="cls-1" d="M64.52,8.73A2.19,2.19,0,0,0,63.78,7a3.44,3.44,0,0,0-2.2-.6A3.54,3.54,0,0,0,59.32,7a2.3,2.3,0,0,0-.76,1.86v.11a2.21,2.21,0,0,0,.76,1.84,3.42,3.42,0,0,0,2.24.62A4.17,4.17,0,0,0,63.62,11a1.69,1.69,0,0,0,.84-1.27l-2.3-.14A.6.6,0,0,1,62,10a.58.58,0,0,1-.41.13c-.41,0-.63-.25-.64-.75h3.54A4.07,4.07,0,0,0,64.52,8.73ZM62.15,8.3H60.94c.05-.43.26-.64.62-.64a.59.59,0,0,1,.44.15.65.65,0,0,1,.15.47Z"/><path class="cls-1" d="M68.27,6.48,67.84,8.4q-.12.58-.21,1.44h-.1c-.07-.59-.15-1.07-.23-1.44l-.45-1.92H64.47l1.7,4.57-.06.13c-.08.18-.35.28-.81.31l-.54,0L64.9,13a8.41,8.41,0,0,0,2.29-.27,2.7,2.7,0,0,0,1.34-.88A5.79,5.79,0,0,0,69.47,10l1.1-3.52Z"/><path class="cls-1" d="M76.67,4.89V7a11.62,11.62,0,0,0,.07,1.21l-.09,0c-.17-.39-.33-.72-.48-1L74.84,4.89H72.39v6.38h2.28V9.15c0-.35,0-.78-.08-1.28l.1,0a8,8,0,0,0,.5,1.07l1.32,2.35h2.43V4.89Z"/><path class="cls-1" d="M84.71,7a4.26,4.26,0,0,0-4.46,0,2.22,2.22,0,0,0-.76,1.82V9a2.24,2.24,0,0,0,.76,1.82,4.26,4.26,0,0,0,4.46,0A2.27,2.27,0,0,0,85.47,9V8.8A2.25,2.25,0,0,0,84.71,7ZM83.08,9.1a1.29,1.29,0,0,1-.14.67.59.59,0,0,1-.92,0,1.19,1.19,0,0,1-.15-.67V8.65A1.16,1.16,0,0,1,82,8a.59.59,0,0,1,.92,0,1.26,1.26,0,0,1,.14.67Z"/><path class="cls-1" d="M91.89,6.48l-.3,2c-.06.4-.11.76-.13,1.07h-.1a6.88,6.88,0,0,0-.15-1.07l-.39-2h-2l-.34,2c-.07.39-.11.75-.14,1.07h-.1a9.43,9.43,0,0,0-.14-1.08l-.35-2H85.47l1.27,4.79h2.62l.23-1.62q.07-.48.12-1.2h.09c0,.45.08.85.13,1.2l.25,1.62H92.8l1.25-4.79Z"/></g></g></svg>