<svg width="154" height="52" viewBox="0 0 154 52" fill="none" xmlns="http://www.w3.org/2000/svg">
<path d="M141.033 0H12.2422C11.7802 0 11.3182 0 10.8563 0C10.4603 0 10.0643 0 9.66836 0C8.81042 0.0329978 7.95247 0.0659795 7.09453 0.230969C6.23659 0.395958 5.44464 0.62695 4.65269 1.02292C3.89374 1.4189 3.20079 1.91386 2.57383 2.54082C1.94687 3.13478 1.45191 3.86074 1.05593 4.61969C0.659958 5.41164 0.395975 6.20356 0.263983 7.0615C0.0989944 7.91944 0.0659976 8.7774 0.0329998 9.63534C0.0329998 10.0313 0.0329978 10.4273 0 10.8233V12.2092V39.0034V40.3893C0 40.7853 2.01353e-06 41.1813 0.0329998 41.5772C0.0659976 42.4352 0.0989944 43.2931 0.263983 44.151C0.428973 45.009 0.659958 45.8009 1.05593 46.5929C1.45191 47.3518 1.94687 48.0448 2.57383 48.6718C3.16779 49.2987 3.89374 49.7937 4.65269 50.1897C5.44464 50.5856 6.23659 50.8496 7.09453 50.9816C7.95247 51.1466 8.81042 51.1796 9.66836 51.2126C10.0643 51.2126 10.4603 51.2126 10.8563 51.2126C11.3182 51.2126 11.7802 51.2126 12.2422 51.2126H141C141.462 51.2126 141.924 51.2126 142.386 51.2126C142.782 51.2126 143.177 51.2126 143.573 51.2126C144.431 51.1796 145.289 51.1466 146.147 50.9816C147.005 50.8166 147.797 50.5856 148.589 50.1897C149.348 49.7937 150.041 49.2987 150.668 48.6718C151.262 48.0778 151.79 47.3518 152.186 46.5929C152.582 45.8009 152.846 45.009 152.978 44.151C153.143 43.2931 153.176 42.4352 153.209 41.5772C153.209 41.1813 153.209 40.7853 153.209 40.3893C153.209 39.9273 153.209 39.4654 153.209 39.0034V12.2092C153.209 11.7472 153.209 11.2852 153.209 10.8233C153.209 10.4273 153.209 10.0313 153.209 9.63534C153.176 8.7774 153.143 7.91944 152.978 7.0615C152.846 6.20356 152.582 5.41164 152.186 4.61969C151.79 3.86074 151.295 3.13478 150.668 2.54082C150.074 1.94685 149.348 1.4189 148.589 1.02292C147.797 0.62695 147.005 0.36296 146.147 0.230969C145.289 0.0659795 144.431 0.0329978 143.573 0C143.177 0 142.782 0 142.386 0C141.957 0 141.495 0 141.033 0Z" fill="#B1B3B6"/>
<path d="M10.8576 50.0904C10.4616 50.0904 10.0987 50.0904 9.70268 50.0904C8.97673 50.0575 8.15179 50.0245 7.29384 49.8925C6.5019 49.7605 5.80894 49.5295 5.18198 49.1995C4.52203 48.8695 3.92807 48.4076 3.4001 47.9126C2.87214 47.3846 2.44317 46.7907 2.08019 46.1307C1.75021 45.4708 1.51923 44.7778 1.38724 44.0188C1.22225 43.1609 1.18925 42.27 1.18925 41.61C1.18925 41.346 1.15625 40.4551 1.15625 40.4551V10.8891C1.15625 10.8891 1.15625 9.99814 1.18925 9.73415C1.22225 9.0742 1.25524 8.18324 1.38724 7.3253C1.51923 6.53335 1.75021 5.84039 2.08019 5.21343C2.41017 4.55347 2.87214 3.92651 3.3671 3.43154C3.89507 2.90358 4.48903 2.4746 5.14899 2.11163C5.80894 1.78165 6.5019 1.55067 7.26085 1.41868C8.11879 1.25369 9.00973 1.2207 9.66969 1.2207H10.8246H142.354H143.509C144.169 1.2207 145.027 1.28669 145.885 1.41868C146.644 1.55067 147.37 1.78165 148.029 2.11163C148.689 2.44161 149.283 2.87059 149.811 3.39855C150.339 3.92652 150.768 4.52048 151.131 5.18044C151.461 5.8404 151.692 6.53336 151.824 7.29231C151.989 8.08426 152.022 8.94217 152.055 9.70112C152.055 10.0641 152.055 10.4601 152.055 10.856C152.055 11.351 152.055 11.78 152.055 12.242V39.0362C152.055 39.4982 152.055 39.9601 152.055 40.4221C152.055 40.8511 152.055 41.2141 152.055 41.61C152.022 42.369 151.989 43.1939 151.824 43.9859C151.692 44.7778 151.461 45.4708 151.131 46.1307C150.801 46.7907 150.339 47.3846 149.844 47.9126C149.316 48.4406 148.722 48.8695 148.063 49.2325C147.403 49.5625 146.71 49.7935 145.918 49.9255C145.093 50.0904 144.235 50.1234 143.509 50.1234C143.146 50.1234 142.75 50.1234 142.354 50.1234H140.968L10.8576 50.0904Z" fill="black"/>
<path d="M31.7455 26.0024C31.7125 22.4717 34.6163 20.7558 34.7483 20.6898C33.0984 18.2809 30.5246 17.951 29.6336 17.918C27.4888 17.687 25.4099 19.2049 24.321 19.2049C23.1991 19.2049 21.5162 17.951 19.7013 17.984C17.3585 18.017 15.1806 19.3699 13.9597 21.4817C11.4849 25.7715 13.3327 32.074 15.7086 35.5388C16.8965 37.2217 18.2824 39.1355 20.0973 39.0696C21.8792 39.0036 22.5391 37.9477 24.684 37.9477C26.7958 37.9477 27.4228 39.0696 29.2707 39.0366C31.1845 39.0036 32.3725 37.3207 33.5274 35.6048C34.9133 33.6579 35.4413 31.744 35.4743 31.645C35.4413 31.612 31.7785 30.2261 31.7455 26.0024Z" fill="white"/>
<path d="M28.2473 15.6407C29.2043 14.4528 29.8642 12.8359 29.6662 11.186C28.2803 11.252 26.5644 12.143 25.5745 13.2979C24.6836 14.3208 23.8916 16.0037 24.1226 17.5876C25.6735 17.7196 27.2574 16.7957 28.2473 15.6407Z" fill="white"/>
<path d="M54.1833 34.7466H48.1117L46.6598 39.0363H44.0859L49.8276 23.1313H52.5004L58.242 39.0363H55.6352L54.1833 34.7466ZM48.7716 32.7667H53.5563L51.1805 25.8042H51.1145L48.7716 32.7667Z" fill="white"/>
<path d="M70.6488 33.2615C70.6488 36.8582 68.735 39.1681 65.7982 39.1681C64.1483 39.1681 62.8284 38.4421 62.1684 37.1552H62.1024V42.8968H59.7266V27.4868H62.0364V29.4007H62.0694C62.7294 28.1468 64.1483 27.3548 65.7652 27.3548C68.702 27.3218 70.6488 29.6647 70.6488 33.2615ZM68.207 33.2615C68.207 30.9186 66.9861 29.3677 65.1382 29.3677C63.3233 29.3677 62.1024 30.9516 62.1024 33.2615C62.1024 35.6043 63.3233 37.1552 65.1382 37.1552C66.9861 37.1552 68.207 35.6043 68.207 33.2615Z" fill="white"/>
<path d="M83.4162 33.2615C83.4162 36.8582 81.5023 39.1681 78.5655 39.1681C76.9156 39.1681 75.5957 38.4421 74.9028 37.1552H74.8368V42.8968H72.4609V27.4868H74.7708V29.4007H74.8038C75.4637 28.1468 76.8827 27.3548 78.4995 27.3548C81.4693 27.3218 83.4162 29.6647 83.4162 33.2615ZM80.9744 33.2615C80.9744 30.9186 79.7535 29.3677 77.9056 29.3677C76.0907 29.3677 74.8698 30.9516 74.8698 33.2615C74.8698 35.6043 76.0907 37.1552 77.9056 37.1552C79.7535 37.1552 80.9744 35.6043 80.9744 33.2615Z" fill="white"/>
<path d="M91.8321 34.6146C91.997 36.1985 93.5479 37.2214 95.6268 37.2214C97.6397 37.2214 99.0586 36.1985 99.0586 34.7796C99.0586 33.5587 98.2006 32.7997 96.1218 32.3048L94.0759 31.8098C91.1721 31.1168 89.7862 29.7309 89.7862 27.5201C89.7862 24.7813 92.162 22.9004 95.5608 22.9004C98.9266 22.9004 101.236 24.7813 101.302 27.5201H98.8936C98.7616 25.9362 97.4417 24.9793 95.5278 24.9793C93.6139 24.9793 92.294 25.9362 92.294 27.3551C92.294 28.477 93.119 29.137 95.1648 29.632L96.9137 30.0609C100.18 30.8199 101.533 32.1398 101.533 34.4827C101.533 37.4525 99.1576 39.3333 95.3958 39.3333C91.865 39.3333 89.4892 37.5185 89.3242 34.6476H91.8321V34.6146Z" fill="white"/>
<path d="M106.715 24.7153V27.4542H108.926V29.335H106.715V35.7366C106.715 36.7265 107.144 37.1885 108.134 37.1885C108.365 37.1885 108.761 37.1555 108.926 37.1225V39.0034C108.662 39.0694 108.134 39.1024 107.606 39.1024C105.263 39.1024 104.339 38.2115 104.339 35.9676V29.335H102.656V27.4542H104.339V24.7153H106.715Z" fill="white"/>
<path d="M110.211 33.2614C110.211 29.6316 112.356 27.3218 115.722 27.3218C119.087 27.3218 121.232 29.5986 121.232 33.2614C121.232 36.9241 119.12 39.201 115.722 39.201C112.323 39.168 110.211 36.8911 110.211 33.2614ZM118.79 33.2614C118.79 30.7535 117.635 29.2687 115.722 29.2687C113.808 29.2687 112.653 30.7535 112.653 33.2614C112.653 35.7692 113.808 37.2541 115.722 37.2541C117.635 37.2541 118.79 35.7692 118.79 33.2614Z" fill="white"/>
<path d="M123.18 27.454H125.457V29.4339H125.523C125.886 28.1139 126.941 27.355 128.294 27.355C128.624 27.355 128.921 27.388 129.119 27.454V29.6648C128.921 29.5988 128.525 29.5329 128.063 29.5329C126.545 29.5329 125.589 30.5558 125.589 32.2057V39.0692H123.18V27.454Z" fill="white"/>
<path d="M140.042 35.6372C139.712 37.7491 137.666 39.201 135.06 39.201C131.694 39.201 129.582 36.9572 129.582 33.3274C129.582 29.6976 131.694 27.3218 134.961 27.3218C138.161 27.3218 140.174 29.5326 140.174 33.0304V33.8554H131.991V33.9874C131.991 35.9672 133.245 37.2541 135.093 37.2541C136.413 37.2541 137.436 36.6272 137.765 35.6372H140.042ZM132.024 32.1725H137.831C137.765 30.3906 136.644 29.2357 134.994 29.2357C133.311 29.2357 132.123 30.4236 132.024 32.1725Z" fill="white"/>
<path d="M48.4749 11.186C50.7518 11.186 52.0717 12.5719 52.0717 14.9808C52.0717 17.4226 50.7518 18.8086 48.4749 18.8086H45.7031V11.186H48.4749ZM46.891 17.7526H48.3429C49.9268 17.7526 50.8508 16.7627 50.8508 15.0138C50.8508 13.2979 49.9268 12.275 48.3429 12.275H46.891V17.7526Z" fill="white"/>
<path d="M53.3906 15.9379C53.3906 14.09 54.4136 12.9351 56.0964 12.9351C57.7793 12.9351 58.8023 14.057 58.8023 15.9379C58.8023 17.8187 57.7793 18.9406 56.0964 18.9406C54.4466 18.9406 53.3906 17.8187 53.3906 15.9379ZM57.6803 15.9379C57.6803 14.6839 57.1194 13.958 56.1294 13.958C55.1395 13.958 54.5785 14.6839 54.5785 15.9379C54.5785 17.1918 55.1395 17.9177 56.1294 17.9177C57.1194 17.9177 57.6803 17.1918 57.6803 15.9379Z" fill="white"/>
<path d="M66.0617 18.809H64.8738L63.6859 14.5853H63.5869L62.399 18.809H61.2441L59.6602 13.0674H60.8151L61.838 17.4561H61.937L63.1249 13.0674H64.2139L65.4018 17.4561H65.4678L66.4907 13.0674H67.6456L66.0617 18.809Z" fill="white"/>
<path d="M68.9648 13.0673H70.0538V13.9912H70.1528C70.4167 13.3642 71.0107 12.9683 71.8686 12.9683C73.1556 12.9683 73.8485 13.7272 73.8485 15.1131V18.8419H72.7266V15.4101C72.7266 14.4862 72.3306 14.0242 71.4727 14.0242C70.6477 14.0242 70.0868 14.5851 70.0868 15.4761V18.8419H68.9648V13.0673Z" fill="white"/>
<path d="M76.8172 10.79H75.6953V18.8085H76.8172V10.79Z" fill="white"/>
<path d="M78.4023 15.9379C78.4023 14.09 79.4253 12.9351 81.1082 12.9351C82.7911 12.9351 83.814 14.057 83.814 15.9379C83.814 17.8187 82.7911 18.9406 81.1082 18.9406C79.4253 18.9406 78.4023 17.8187 78.4023 15.9379ZM82.6591 15.9379C82.6591 14.6839 82.0981 13.958 81.1082 13.958C80.1182 13.958 79.5573 14.6839 79.5573 15.9379C79.5573 17.1918 80.1182 17.9177 81.1082 17.9177C82.0981 17.9177 82.6591 17.1918 82.6591 15.9379Z" fill="white"/>
<path d="M85.0352 17.1918C85.0352 16.1689 85.7941 15.5419 87.18 15.4759L88.7309 15.3769V14.8819C88.7309 14.288 88.3349 13.925 87.543 13.925C86.916 13.925 86.4541 14.156 86.3551 14.552H85.2661C85.3981 13.562 86.3221 12.9351 87.609 12.9351C89.0609 12.9351 89.8528 13.661 89.8528 14.8819V18.8087H88.7639V17.9837H88.6649C88.3349 18.5447 87.675 18.8747 86.949 18.8747C85.8601 18.9077 85.0352 18.2477 85.0352 17.1918ZM88.7309 16.6968V16.2018L87.312 16.3008C86.5201 16.3668 86.1571 16.6308 86.1571 17.1258C86.1571 17.6537 86.6191 17.9507 87.213 17.9507C88.104 17.9507 88.7309 17.4228 88.7309 16.6968Z" fill="white"/>
<path d="M91.3711 15.9379C91.3711 14.123 92.295 12.9681 93.7799 12.9681C94.5719 12.9681 95.2318 13.3311 95.5618 13.991H95.6608V10.8232H96.7827V18.8417H95.6938V17.9178H95.5948C95.2648 18.5447 94.5719 18.9077 93.7799 18.9077C92.295 18.9077 91.3711 17.7528 91.3711 15.9379ZM92.559 15.9379C92.559 17.1588 93.12 17.8848 94.1099 17.8848C95.0668 17.8848 95.6608 17.1258 95.6608 15.9379C95.6608 14.75 95.0668 13.991 94.1099 13.991C93.12 13.991 92.559 14.717 92.559 15.9379Z" fill="white"/>
<path d="M101.469 15.9379C101.469 14.09 102.492 12.9351 104.175 12.9351C105.857 12.9351 106.88 14.057 106.88 15.9379C106.88 17.8187 105.857 18.9406 104.175 18.9406C102.492 18.9406 101.469 17.8187 101.469 15.9379ZM105.725 15.9379C105.725 14.6839 105.164 13.958 104.175 13.958C103.185 13.958 102.624 14.6839 102.624 15.9379C102.624 17.1918 103.185 17.9177 104.175 17.9177C105.164 17.9177 105.725 17.1918 105.725 15.9379Z" fill="white"/>
<path d="M108.43 13.0673H109.519V13.9912H109.618C109.882 13.3642 110.476 12.9683 111.334 12.9683C112.62 12.9683 113.313 13.7272 113.313 15.1131V18.8419H112.191V15.4101C112.191 14.4862 111.795 14.0242 110.938 14.0242C110.08 14.0242 109.552 14.5851 109.552 15.4761V18.8419H108.43V13.0673Z" fill="white"/>
<path d="M119.751 11.6152V13.0671H121.005V14.0241H119.751V16.9939C119.751 17.5879 120.015 17.8518 120.576 17.8518C120.741 17.8518 120.84 17.8518 121.005 17.8188V18.7757C120.807 18.8087 120.609 18.8418 120.378 18.8418C119.124 18.8418 118.596 18.4128 118.596 17.2908V14.0241H117.672V13.0671H118.596V11.6152H119.751Z" fill="white"/>
<path d="M122.555 10.79H123.677V13.9578H123.776C124.04 13.2979 124.667 12.9349 125.524 12.9349C126.745 12.9349 127.504 13.7268 127.504 15.0798V18.8085H126.349V15.3767C126.349 14.4528 125.92 13.9908 125.129 13.9908C124.205 13.9908 123.677 14.5848 123.677 15.4427V18.8085H122.555V10.79Z" fill="white"/>
<path d="M134.134 17.258C133.87 18.2809 132.946 18.9409 131.626 18.9409C129.976 18.9409 128.953 17.8189 128.953 15.9711C128.953 14.1232 129.976 12.9683 131.626 12.9683C133.243 12.9683 134.2 14.0572 134.2 15.8721V16.268H130.141V16.3341C130.174 17.357 130.768 17.984 131.692 17.984C132.385 17.984 132.847 17.7199 133.078 17.291H134.134V17.258ZM130.141 15.4101H133.045C133.012 14.5192 132.484 13.9252 131.626 13.9252C130.801 13.9252 130.207 14.5192 130.141 15.4101Z" fill="white"/>
</svg>
