<svg width="35" height="35" viewBox="0 0 35 35" fill="none" xmlns="http://www.w3.org/2000/svg">
<path d="M17.604 3.18303C25.4103 3.18303 31.746 9.53614 31.746 17.3638C31.746 25.1914 25.4103 31.5445 17.604 31.5445C9.79776 31.5445 3.46202 25.1914 3.46202 17.3638C3.46202 9.53614 9.79776 3.18303 17.604 3.18303ZM17.604 34.0566C26.79 34.0566 34.2422 26.584 34.2422 17.3729C34.2422 8.16176 26.79 0.689121 17.604 0.68912C8.41805 0.689119 0.965838 8.16176 0.965837 17.3729C0.965836 26.584 8.41805 34.0566 17.604 34.0566Z" fill="#FEDD00"/>
<path d="M8.49612 16.7627C8.16134 17.1102 8.16134 17.6361 8.49612 17.9836L16.703 26.5113C17.0377 26.84 17.5534 26.84 17.8611 26.5113L18.4402 25.9102C18.7749 25.5627 18.7749 25.0368 18.4402 24.6893L12.6494 18.6598L25.0907 18.6598C25.5522 18.6598 25.9231 18.2842 25.9231 17.7958L25.9231 16.9506C25.9231 16.4716 25.5612 16.0865 25.0907 16.0865L12.6674 16.0865L18.4583 10.0571C18.7931 9.7096 18.7931 9.18365 18.4583 8.83616L17.8792 8.23511C17.5444 7.9064 17.0378 7.9064 16.7211 8.23511L8.50518 16.7627L8.48707 16.7627L8.49612 16.7627Z" fill="#FEDD00"/>
</svg>
