<svg width="34" height="34" viewBox="0 0 34 34" fill="none" xmlns="http://www.w3.org/2000/svg">
<path d="M16.8021 30.8736C8.99586 30.8736 2.66013 24.5205 2.66013 16.6929C2.66013 8.86524 8.99586 2.5121 16.8021 2.5121C24.6084 2.5121 30.9441 8.86524 30.9441 16.6929C30.9441 24.5205 24.6084 30.8736 16.8021 30.8736ZM16.8021 0C7.61615 0 0.16394 7.47264 0.16394 16.6838C0.16394 25.8949 7.61615 33.3675 16.8021 33.3675C25.9881 33.3675 33.4403 25.8949 33.4403 16.6838C33.4403 7.47264 25.9881 0 16.8021 0Z" fill="black"/>
<path d="M25.9098 17.2939C26.2446 16.9464 26.2446 16.4205 25.9098 16.073L17.703 7.54536C17.3682 7.21665 16.8525 7.21665 16.5449 7.54536L15.9658 8.14644C15.631 8.49393 15.631 9.01985 15.9658 9.36734L21.7566 15.3968H9.31519C8.85373 15.3968 8.48282 15.7725 8.48282 16.2608V17.1061C8.48282 17.585 8.84468 17.9701 9.31519 17.9701H21.7386L15.9476 23.9995C15.6129 24.347 15.6129 24.873 15.9476 25.2205L16.5267 25.8215C16.8615 26.1502 17.3681 26.1502 17.6848 25.8215L25.9007 17.2939H25.9188H25.9098Z" fill="black"/>
</svg>
