<svg width="33" height="29" viewBox="0 0 33 29" fill="none" xmlns="http://www.w3.org/2000/svg">
<path d="M22.3736 9.74182C19.4438 9.8992 16.8894 10.783 14.8192 12.7926C12.7248 14.8265 11.7684 17.3083 12.0347 20.3833C10.8846 20.2381 9.84347 20.0807 8.79022 19.9959C8.42703 19.9596 8.0033 20.008 7.68854 20.1775C6.6716 20.7586 5.69098 21.4003 4.52877 22.1267C4.74669 21.1702 4.87986 20.3228 5.12198 19.5117C5.30358 18.9185 5.21883 18.5916 4.67405 18.2042C1.1753 15.7224 -0.313782 12.0057 0.800005 8.1801C1.82905 4.64503 4.34717 2.4901 7.77328 1.37631C12.4463 -0.149095 17.7126 1.41263 20.5455 5.11718C21.5746 6.44888 22.2041 7.96218 22.3736 9.74182ZM8.88707 8.54329C8.91128 7.84112 8.30596 7.21159 7.59168 7.18737C6.8532 7.16316 6.24788 7.73216 6.22366 8.45855C6.19945 9.19703 6.76845 9.79025 7.50694 9.80235C8.23332 9.82657 8.85075 9.26967 8.88707 8.54329ZM15.9209 7.19948C15.1945 7.21159 14.5892 7.82901 14.6013 8.53118C14.6134 9.25757 15.2187 9.82657 15.9572 9.82657C16.7078 9.81446 17.2647 9.24546 17.2647 8.49486C17.2526 7.75637 16.6594 7.17527 15.9209 7.19948Z" fill="black"/>
<path d="M28.9608 28.0111C28.0287 27.5995 27.1812 26.9821 26.2732 26.8852C25.3652 26.7884 24.421 27.3089 23.4767 27.4058C20.5953 27.6963 18.0167 26.8973 15.8981 24.9361C11.8545 21.1952 12.4356 15.4568 17.1087 12.3939C21.2612 9.66993 27.3628 10.5779 30.2925 14.3551C32.847 17.648 32.5443 22.0305 29.433 24.8029C28.525 25.6019 28.1981 26.2678 28.7792 27.321C28.8882 27.5268 28.9003 27.769 28.9608 28.0111ZM18.392 17.7812C18.9852 17.7812 19.4694 17.3212 19.4937 16.7401C19.5179 16.1226 19.0215 15.6021 18.4041 15.6021C17.7867 15.6021 17.2782 16.1226 17.3024 16.728C17.3145 17.3091 17.8109 17.7812 18.392 17.7812ZM25.2079 15.6021C24.6389 15.6021 24.1425 16.0621 24.1183 16.6432C24.0941 17.2606 24.5783 17.7691 25.1837 17.7691C25.7769 17.7691 26.249 17.3212 26.2611 16.728C26.2974 16.1226 25.8132 15.6021 25.2079 15.6021Z" fill="black"/>
</svg>
