<svg width="32" height="32" viewBox="0 0 32 32" fill="none" xmlns="http://www.w3.org/2000/svg">
<g clip-path="url(#clip0_1250_1270)">
<path d="M16.0027 0.0888677C24.8292 0.103243 31.953 7.25543 31.9105 16.0851C31.8683 24.8039 24.8005 31.9167 15.9923 31.9107C7.1711 31.9061 0.0823497 24.7751 0.0898497 15.9423C0.0970372 7.20793 7.24516 0.0866802 16.0027 0.0888677Z" fill="#FF0000"/>
<path d="M15.9902 23.4957C13.9177 23.4197 11.8443 23.3553 9.77145 23.2619C9.14266 23.2389 8.51672 23.1657 7.89957 23.0432C6.69926 22.7932 6.00301 22.0119 5.75551 20.8225C5.56332 19.8982 5.4852 18.9597 5.4452 18.0197C5.4077 17.1316 5.37957 16.2419 5.39488 15.3538C5.41895 13.9553 5.47426 12.5569 5.75082 11.1794C6.02457 9.81597 6.8877 9.02972 8.27832 8.84847C9.5127 8.68785 10.7533 8.62628 11.9971 8.59253C13.1143 8.56128 14.2318 8.53753 15.3496 8.52691C17.7871 8.50378 20.2246 8.55128 22.6593 8.73409C23.1455 8.77066 23.6361 8.82035 24.1108 8.92597C25.3024 9.19066 25.9933 9.9616 26.2396 11.1447C26.4318 12.0691 26.5099 13.0075 26.5499 13.9478C26.5874 14.8357 26.6155 15.7253 26.6002 16.6135C26.5761 18.0119 26.5208 19.4107 26.2439 20.7882C25.9702 22.1507 25.1071 22.9375 23.7177 23.1182C22.4833 23.2788 21.2427 23.34 19.9989 23.3741C18.8814 23.4053 17.7639 23.4203 16.6464 23.441C16.4277 23.445 16.2089 23.441 15.9902 23.441V23.4957Z" fill="white"/>
<path d="M19.3536 15.9827L13.8477 19.1077V12.8564L19.3536 15.9827Z" fill="#FF0000"/>
</g>
<defs>
<clipPath id="clip0_1250_1270">
<rect width="32" height="32" fill="white"/>
</clipPath>
</defs>
</svg>
