<svg width="32" height="32" viewBox="0 0 32 32" fill="none" xmlns="http://www.w3.org/2000/svg">
<g id="IMAGE" clip-path="url(#clip0_1250_1274)">
<path id="Vector" d="M15.964 31.928C24.7807 31.928 31.928 24.7807 31.928 15.964C31.928 7.14733 24.7807 0 15.964 0C7.14733 0 0 7.14733 0 15.964C0 24.7807 7.14733 31.928 15.964 31.928Z" fill="url(#paint0_linear_1250_1274)"/>
<path id="Vector_2" fill-rule="evenodd" clip-rule="evenodd" d="M15.5968 6.40878C15.2928 6.40876 14.99 6.40657 14.6896 6.40441C11.2663 6.37971 8.14148 6.35717 6.88518 9.57886C6.38633 10.858 6.39226 12.4747 6.40041 14.6909C6.40148 14.9829 6.40259 15.2853 6.40259 15.5986C6.40259 15.8532 6.40171 16.1061 6.40084 16.3565C6.39363 18.4303 6.387 20.3358 6.88518 21.6173C8.13852 24.8406 11.2872 24.8177 14.6923 24.7929C14.9921 24.7906 15.2939 24.7885 15.5966 24.7885C15.9124 24.7885 16.2291 24.7913 16.545 24.7942C19.8382 24.8241 23.0468 24.8533 24.3091 21.6173C24.8081 20.327 24.8022 18.7332 24.7939 16.5178C24.7928 16.2227 24.7916 15.9165 24.7916 15.5986C24.7916 15.2549 24.7935 14.9227 24.7952 14.6017C24.8118 11.57 24.823 9.52422 23.2474 7.95078C21.6656 6.37026 19.5841 6.3843 16.6462 6.40412C16.308 6.40641 15.9583 6.40876 15.5968 6.40878ZM15.5968 6.40878H15.5987H15.5945H15.5968ZM16.2534 8.05502C22.7612 7.99378 23.5988 7.9859 23.0834 19.3089C22.9053 23.2043 20.1937 23.1745 16.688 23.1361C16.333 23.1322 15.9692 23.1282 15.5997 23.1282C8.27276 23.1282 8.06204 22.9188 8.06204 15.5945C8.06204 8.1851 8.64324 8.06902 14.7747 8.06278V8.06486C15.2974 8.06398 15.7898 8.05942 16.2534 8.05502ZM19.4044 10.6926C19.4044 10.0839 19.8984 9.5903 20.5076 9.5903C21.1168 9.5903 21.6108 10.0839 21.6108 10.6926C21.6108 11.3013 21.1168 11.7949 20.5076 11.7949C19.8984 11.7949 19.4044 11.3013 19.4044 10.6926ZM15.5987 10.8793C12.9907 10.8793 10.8766 12.9926 10.8766 15.5986C10.8766 18.2045 12.9907 20.3169 15.5987 20.3169C18.2067 20.3169 20.3197 18.2045 20.3197 15.5986C20.3197 12.9926 18.2067 10.8793 15.5987 10.8793ZM15.5987 12.5353C19.6513 12.5353 19.6565 18.6619 15.5987 18.6619C11.5471 18.6619 11.5408 12.5353 15.5987 12.5353Z" fill="white"/>
</g>
<defs>
<linearGradient id="paint0_linear_1250_1274" x1="16.011" y1="43.7198" x2="43.7546" y2="15.985" gradientUnits="userSpaceOnUse">
<stop stop-color="#FFDD55"/>
<stop offset="0.5" stop-color="#FF543E"/>
<stop offset="1" stop-color="#C837AB"/>
</linearGradient>
<clipPath id="clip0_1250_1274">
<rect width="32" height="32" fill="white"/>
</clipPath>
</defs>
</svg>
