<svg width="32" height="32" viewBox="0 0 32 32" fill="none" xmlns="http://www.w3.org/2000/svg">
<g id="IMAGE" clip-path="url(#clip0_1250_1277)">
<path id="Vector" d="M15.8862 31.7723C24.6598 31.7723 31.7723 24.6598 31.7723 15.8862C31.7723 7.11248 24.6598 0 15.8862 0C7.11248 0 0 7.11248 0 15.8862C0 24.6598 7.11248 31.7723 15.8862 31.7723Z" fill="#55ACEE"/>
<path id="Vector_2" d="M25.6179 11.417C24.9371 11.7188 24.2047 11.923 23.4367 12.0142C24.2209 11.5443 24.8227 10.801 25.1067 9.91375C24.373 10.349 23.5599 10.6648 22.6954 10.835C22.0027 10.0973 21.0158 9.63623 19.923 9.63623C17.8263 9.63623 16.1257 11.3368 16.1257 13.4335C16.1257 13.7311 16.1595 14.0208 16.2246 14.2989C13.0687 14.1406 10.2706 12.629 8.39762 10.3309C8.07082 10.8916 7.88332 11.5443 7.88332 12.2402C7.88332 13.5572 8.55418 14.72 9.5725 15.4008C8.95034 15.3812 8.36442 15.2105 7.85274 14.9253C7.85246 14.9414 7.85246 14.9576 7.85246 14.9734C7.85246 16.8133 9.16186 18.3479 10.8987 18.6965C10.5803 18.7837 10.2443 18.8298 9.8985 18.8298C9.65322 18.8298 9.41562 18.8064 9.18402 18.7622C9.66714 20.2705 11.0691 21.3683 12.7311 21.3992C11.4314 22.4178 9.79426 23.0247 8.01474 23.0247C7.70888 23.0247 7.40587 23.0069 7.10938 22.9714C8.78898 24.0493 10.7854 24.6777 12.9297 24.6777C19.9142 24.6777 23.7338 18.8916 23.7338 13.8733C23.7338 13.7087 23.7301 13.5448 23.7227 13.3822C24.4653 12.847 25.109 12.1784 25.6179 11.417Z" fill="white"/>
</g>
<defs>
<clipPath id="clip0_1250_1277">
<rect width="32" height="32" fill="white"/>
</clipPath>
</defs>
</svg>
