<svg width="29" height="27" viewBox="0 0 29 27" fill="none" xmlns="http://www.w3.org/2000/svg">
<path d="M14.8999 0.363525C22.6094 0.363525 28.8677 5.39016 28.8677 11.59C28.8677 13.7544 28.1018 15.7772 26.7816 17.4966C26.7211 17.5977 26.6304 17.6989 26.5196 17.8202L26.5095 17.8303C26.056 18.3765 25.5521 18.8822 24.9878 19.3474C21.128 22.9278 14.7689 27.1959 13.9324 26.5385C13.2069 25.962 15.1317 23.1705 12.9045 22.7053C12.7534 22.685 12.5921 22.6648 12.4409 22.6446C5.90047 21.7141 0.932129 17.1224 0.932129 11.59C0.932129 5.39016 7.19042 0.363525 14.8999 0.363525Z" fill="black"/>
<path d="M5.9098 15.5823H5.96142H5.97174H8.79008C9.20302 15.5823 9.53337 15.2551 9.53337 14.8684V14.8089C9.53337 14.4122 9.1927 14.0949 8.79008 14.0949H6.71504V9.55366C6.71504 9.15704 6.37436 8.83975 5.97174 8.83975H5.9098C5.49686 8.83975 5.1665 9.16696 5.1665 9.55366V14.8684C5.1665 15.2551 5.49686 15.5823 5.9098 15.5823ZM23.7902 12.2507V12.1912C23.7902 11.7946 23.4495 11.4773 23.0469 11.4773H20.9719V10.3469H23.0469C23.4599 10.3469 23.7902 10.0197 23.7902 9.63299V9.57349C23.7902 9.17688 23.4495 8.85958 23.0469 8.85958H20.2286H20.2183H20.1666C19.7537 8.85958 19.4234 9.18679 19.4234 9.57349V14.8882C19.4234 15.2848 19.764 15.6021 20.1666 15.6021H20.2183H20.2286H23.0469C23.4599 15.6021 23.7902 15.2749 23.7902 14.8882V14.8287C23.7902 14.4321 23.4495 14.1148 23.0469 14.1148H20.9719V12.9844H23.0469C23.4599 12.9646 23.7902 12.6374 23.7902 12.2507ZM18.2465 15.3641C18.3807 15.2352 18.4633 15.0567 18.4633 14.8584V9.54375C18.4633 9.14713 18.1226 8.82983 17.72 8.82983H17.658C17.2451 8.82983 16.9147 9.15705 16.9147 9.54375V12.6671L14.2203 9.19671C14.0964 8.97857 13.8486 8.82983 13.5699 8.82983H13.5079C13.095 8.82983 12.7647 9.15705 12.7647 9.54375V14.8584C12.7647 15.2551 13.1053 15.5723 13.5079 15.5723H13.5699C13.9828 15.5723 14.3132 15.2451 14.3132 14.8584V11.6756L17.0283 15.2352C17.0489 15.265 17.0593 15.2848 17.0799 15.3046C17.1522 15.4038 17.2554 15.4732 17.369 15.5129C17.4516 15.5426 17.5548 15.5624 17.6477 15.5624H17.7096C17.8335 15.5624 17.9574 15.5327 18.0606 15.4831C18.1329 15.4633 18.1948 15.4137 18.2465 15.3641ZM10.8858 15.5823H10.9477C11.3606 15.5823 11.691 15.2551 11.691 14.8684V9.55366C11.691 9.15704 11.3503 8.83975 10.9477 8.83975H10.8858C10.4728 8.83975 10.1425 9.16696 10.1425 9.55366V14.8684C10.1425 15.2551 10.4831 15.5823 10.8858 15.5823Z" fill="white"/>
</svg>
