<svg width="40" height="40" viewBox="0 0 40 40" fill="none" xmlns="http://www.w3.org/2000/svg">
<path d="M7.80952 4C5.70667 4 4 5.70667 4 7.80952V32.1905C4 34.2933 5.70667 36 7.80952 36H32.1905C34.2933 36 36 34.2933 36 32.1905V7.80952C36 5.70667 34.2933 4 32.1905 4H7.80952ZM20 9.33333C26.301 9.33333 31.4286 13.4165 31.4286 18.4375C31.4286 20.4413 30.6357 22.2558 28.9747 24.0387C27.7785 25.3949 25.8366 26.8877 24.0461 28.122C22.2557 29.3411 20.6095 30.3007 20 30.5521C19.7562 30.6511 19.5733 30.6964 19.4286 30.6964C18.9257 30.6964 18.9708 30.1644 19.0089 29.9435C19.0394 29.7758 19.1771 28.9821 19.1771 28.9821C19.2152 28.7002 19.2527 28.2521 19.1384 27.9702C19.0089 27.6579 18.4983 27.4973 18.125 27.4211C12.6393 26.7049 8.57143 22.9327 8.57143 18.4375C8.57143 13.4165 13.699 9.33333 20 9.33333ZM19.2321 15.4271C18.8483 15.4342 18.4762 15.7271 18.4762 16.1905V20.7619C18.4762 21.1825 18.8175 21.5238 19.2381 21.5238C19.6587 21.5238 20 21.1825 20 20.7619V18.5685L21.6652 21.2039C22.0964 21.8073 23.0476 21.5032 23.0476 20.7619V16.1905C23.0476 15.7699 22.7063 15.4286 22.2857 15.4286C21.8651 15.4286 21.5238 15.7699 21.5238 16.1905V18.4762L19.8586 15.7485C19.6969 15.5222 19.4625 15.4228 19.2321 15.4271ZM12.381 15.4286C11.9604 15.4286 11.619 15.7699 11.619 16.1905V20.7619C11.619 21.1825 11.9604 21.5238 12.381 21.5238H14.6667C15.0872 21.5238 15.4286 21.1825 15.4286 20.7619C15.4286 20.3413 15.0872 20 14.6667 20H13.1429V16.1905C13.1429 15.7699 12.8015 15.4286 12.381 15.4286ZM16.9524 15.4286C16.5318 15.4286 16.1905 15.7699 16.1905 16.1905V20.7619C16.1905 21.1825 16.5318 21.5238 16.9524 21.5238C17.373 21.5238 17.7143 21.1825 17.7143 20.7619V16.1905C17.7143 15.7699 17.373 15.4286 16.9524 15.4286ZM24.5714 15.4286C24.1509 15.4286 23.8095 15.7699 23.8095 16.1905V20.7619C23.8095 21.1825 24.1509 21.5238 24.5714 21.5238H26.8571C27.2777 21.5238 27.619 21.1825 27.619 20.7619C27.619 20.3413 27.2777 20 26.8571 20H25.3333V19.2381H26.8571C27.2785 19.2381 27.619 18.8968 27.619 18.4762C27.619 18.0556 27.2785 17.7143 26.8571 17.7143H25.3333V16.9524H26.8571C27.2777 16.9524 27.619 16.611 27.619 16.1905C27.619 15.7699 27.2777 15.4286 26.8571 15.4286H24.5714Z" fill="black"/>
</svg>
