<svg width="280" height="32" viewBox="0 0 280 32" fill="none" xmlns="http://www.w3.org/2000/svg">
<path d="M16.0031 27.7247C18.8807 32.667 23.5963 32.667 26.4739 27.7247L28.089 24.9585L13.6825 0.154785H0L16.0031 27.7247Z" fill="#0F080B"/>
<path d="M46.3557 17.1209C45.2975 18.9281 42.8283 18.9281 41.7701 17.1209L31.8934 0.154785H18.2109L34.2326 27.7247C37.1102 32.667 41.8072 32.667 44.6848 27.7247L55.4154 9.26484L50.143 0.154785H36.479L46.3557 17.1209Z" fill="#0F080B"/>
<path d="M70.1023 27.8359H74.7622L74.7993 27.6884C77.6769 17.0846 78.8651 12.548 79.3478 9.74488C79.8119 12.548 80.9444 17.1399 83.692 27.6884L83.7291 27.8359H88.5004L95.1467 3.58545H90.8025L90.7653 3.73298C87.8877 14.7425 86.7738 19.2053 86.2726 22.0453C85.697 18.984 84.4346 13.9495 81.7427 3.73298L81.7055 3.58545H77.1756L77.1385 3.73298C74.3352 14.6319 73.147 19.2975 72.6458 22.3404C72.0888 19.3897 70.8635 14.4843 68.0602 3.73298L68.023 3.58545H63.5117L70.0838 27.6884L70.1023 27.8359Z" fill="#0F080B"/>
<path d="M102.499 28.1675C106.027 28.1675 109.368 26.2496 110.705 23.4096L107.493 21.7868H107.419L107.363 21.9159C106.974 22.7273 105.544 24.5899 102.537 24.5899C99.8074 24.5899 97.7467 22.8748 97.4311 20.3852H111.299V20.2008C111.392 16.8076 110.464 14.0045 108.607 12.1419C107.011 10.5191 104.801 9.65234 102.239 9.65234C99.696 9.65234 97.394 10.5929 95.7231 12.3263C94.0708 14.0414 93.1797 16.3835 93.1797 18.9653C93.1797 24.3686 97.0041 28.1675 102.499 28.1675ZM102.239 13.1378C104.801 13.1378 106.769 14.7791 106.955 17.0473H97.4125C97.7096 14.7791 99.696 13.1378 102.239 13.1378Z" fill="#0F080B"/>
<path d="M120.062 28.1675C124.61 28.1675 127.414 26.0652 127.414 22.6904C127.414 18.6886 123.756 17.7481 120.805 16.992C118.762 16.4757 117.017 16.0146 117.017 14.7237C117.017 13.691 118.113 12.9718 119.691 12.9718C121.417 12.9718 122.605 13.8754 122.791 15.3139L122.921 16.0515L122.995 16.0331L126.597 15.3692C126.597 12.0128 123.608 9.65234 119.709 9.65234C115.718 9.65234 112.914 11.8469 112.914 14.9819C112.914 18.7808 116.46 19.7214 119.319 20.4774C121.38 21.0307 123.162 21.5102 123.162 22.8379C123.162 23.9998 122.011 24.719 120.155 24.719C117.927 24.719 116.442 23.6863 116.256 22.045L116.219 21.7683L112.395 22.4876C112.432 26.1943 116.59 28.1675 120.062 28.1675Z" fill="#0F080B"/>
<path d="M130.66 24.5349C130.66 26.545 131.941 28.1678 134.058 28.1678C136.694 28.1678 137.455 27.8359 137.455 27.8359V24.4611C137.455 24.4611 136.675 24.5902 135.71 24.5902C135.097 24.5902 134.652 24.2213 134.652 23.6497V13.4147H137.418L137.381 10.003H134.652V4.93164L130.66 5.92748V10.003H128.581L128.562 13.4147H130.66V24.5349Z" fill="#0F080B"/>
<path d="M161.981 12.2528V10.0029H158.473V27.8358H162.706L162.668 16.9369C162.724 15.8488 163.095 15.0005 163.764 14.4473C164.655 13.7096 166.029 13.4699 167.867 13.7096L168.089 13.7465L168.127 10.0214L167.959 10.0029C165.416 9.61565 163.114 10.3902 161.981 12.2528Z" fill="#0F080B"/>
<path d="M179.582 9.63379C177.038 9.63379 174.662 10.6481 173.474 12.5475V10.0026H169.816V27.8355H174.068V18.2644C174.068 15.1847 175.683 13.359 178.394 13.359C180.25 13.359 182.459 14.1704 182.459 18.0062V27.8355H186.711V17.4161C186.748 11.6808 183.035 9.63379 179.582 9.63379Z" fill="#0F080B"/>
<path d="M209.637 17.7848C209.637 21.8973 207.669 24.184 204.104 24.184C200.558 24.184 198.609 21.9157 198.609 17.7848V3.58496H194.32V17.6926C194.32 24.2578 197.978 28.1674 204.123 28.1674C210.249 28.1674 213.925 24.2578 213.925 17.6926V3.58496H209.674V17.7848H209.637Z" fill="#0F080B"/>
<path d="M226.195 9.63379C223.652 9.63379 221.275 10.6481 220.087 12.5475V10.0026H216.43V27.8355H220.681V18.2644C220.681 15.1847 222.296 13.359 225.007 13.359C226.863 13.359 229.073 14.1704 229.073 18.0062V27.8355H233.324V17.4161C233.343 11.6808 229.648 9.63379 226.195 9.63379Z" fill="#0F080B"/>
<path d="M240.233 10.0024H236V27.8353H240.233V10.0024Z" fill="#0F080B"/>
<path d="M238.118 3.41895C236.744 3.41895 235.648 4.47011 235.648 5.83477C235.648 7.14411 236.762 8.21371 238.118 8.21371C239.454 8.21371 240.55 7.14411 240.55 5.83477C240.55 4.50699 239.473 3.41895 238.118 3.41895Z" fill="#0F080B"/>
<path d="M251.648 9.63379C249.012 9.63379 246.617 10.5743 244.872 12.2709C243.145 13.9675 242.18 16.328 242.18 18.9098C242.18 24.2763 246.153 28.1858 251.648 28.1858C257.143 28.1858 261.135 24.2947 261.135 18.9098C261.135 16.328 260.169 13.986 258.443 12.2709C256.698 10.5559 254.284 9.63379 251.648 9.63379ZM251.648 24.3131C248.603 24.3131 246.32 21.9895 246.32 18.8914C246.32 15.8117 248.622 13.4696 251.648 13.4696C254.73 13.4696 257.05 15.7932 257.05 18.8914C257.05 21.9895 254.73 24.3131 251.648 24.3131Z" fill="#0F080B"/>
<path d="M272.871 9.63379C270.327 9.63379 267.951 10.6481 266.763 12.5475V10.0026H263.105V27.8355H267.357V18.2644C267.357 15.1847 268.972 13.359 271.683 13.359C273.539 13.359 275.748 14.1704 275.748 18.0062V27.8355H280V17.4161C280.037 11.6808 276.342 9.63379 272.871 9.63379Z" fill="#0F080B"/>
<path d="M147.575 9.63379C145.032 9.63379 142.73 10.5743 141.059 12.3078C139.407 14.0228 138.516 16.3649 138.516 18.9467C138.516 24.3869 142.359 28.1858 147.835 28.1858C151.363 28.1858 154.704 26.2679 156.041 23.428L152.829 21.8051H152.755L152.699 21.9342C152.31 22.7456 150.88 24.6082 147.872 24.6082C145.143 24.6082 143.083 22.8932 142.767 20.4036H156.635V20.2192C156.728 16.8259 155.8 14.0228 153.943 12.1603C152.347 10.4821 150.137 9.63379 147.575 9.63379ZM142.767 17.0472C143.064 14.7605 145.051 13.1377 147.575 13.1377C150.137 13.1377 152.105 14.7789 152.291 17.0472H142.767Z" fill="#0F080B"/>
</svg>
