<svg width="202" height="48" viewBox="0 0 202 48" fill="none" xmlns="http://www.w3.org/2000/svg">
<g clip-path="url(#clip0_1246_946)">
<path d="M23.9923 42.2937C28.3066 49.8781 35.3635 49.8781 39.6778 42.2937L42.0905 38.0507L20.4973 0H0L23.9923 42.2937Z" fill="#FFDD00"/>
<path d="M69.4691 26.039C67.8933 28.8033 64.1829 28.8006 62.6112 26.0334L47.8186 0H27.3281L51.345 42.3076C55.6579 49.8919 62.7012 49.8919 67.0141 42.3076L83.0881 13.9731L75.1779 0H54.6969L69.4691 26.039Z" fill="#FFDD00"/>
<path d="M96.2962 22.3716H100.499L100.534 22.2385C103.127 12.4515 104.19 8.27371 104.622 5.6841C105.042 8.26539 106.052 12.5056 108.53 22.2371L108.564 22.373H112.858L118.835 0H114.926L114.892 0.13593C112.294 10.2932 111.303 14.4058 110.854 17.0259C110.332 14.2103 109.206 9.56366 106.774 0.13593L106.74 0.00138704H102.655L102.621 0.137317C100.092 10.1948 99.0333 14.5001 98.5807 17.2964C98.0846 14.5709 96.9709 10.0547 94.445 0.13593L94.411 0H90.3516L96.2621 22.2385L96.2975 22.3716H96.2962Z" fill="white"/>
<path d="M125.476 22.6824C128.652 22.6824 131.658 20.9208 132.86 18.2966L129.961 16.7972L129.9 16.7902L129.845 16.9054C129.493 17.6474 128.207 19.3757 125.506 19.3757C123.054 19.3757 121.189 17.7875 120.903 15.4906H133.389L133.393 15.3144C133.47 12.1797 132.633 9.60674 130.974 7.87571C129.534 6.37493 127.551 5.58154 125.236 5.58154C122.922 5.58154 120.869 6.45677 119.374 8.0477C117.893 9.622 117.078 11.7941 117.078 14.1632C117.078 19.1801 120.531 22.6824 125.476 22.6824ZM125.236 8.82584C127.551 8.82584 129.308 10.3308 129.487 12.4321H120.903C121.166 10.3308 122.957 8.82584 125.236 8.82584Z" fill="white"/>
<path d="M141.287 22.6821C145.375 22.6821 147.914 20.7486 147.914 17.6347C147.914 13.9438 144.617 13.0727 141.967 12.3723C140.136 11.8882 138.555 11.4707 138.555 10.2875C138.555 9.33603 139.543 8.67025 140.957 8.67025C142.504 8.67025 143.574 9.50108 143.751 10.8382L143.86 11.5151L143.934 11.5026L147.185 10.8923C147.185 7.79086 144.487 5.61182 140.988 5.61182C137.489 5.61182 134.87 7.6369 134.87 10.5358C134.87 14.0381 138.071 14.9106 140.642 15.611C142.502 16.1187 144.111 16.5556 144.111 17.79C144.111 18.8636 143.075 19.5308 141.409 19.5308C139.405 19.5308 138.06 18.5834 137.895 17.0563L137.865 16.8066L134.422 17.4724C134.422 20.8679 138.16 22.6835 141.289 22.6835L141.287 22.6821Z" fill="white"/>
<path d="M150.825 19.3273C150.825 21.179 151.977 22.6811 153.884 22.6811C156.251 22.6811 156.946 22.3718 156.946 22.3718V19.2524C156.946 19.2524 156.236 19.3717 155.373 19.3717C154.815 19.3717 154.423 19.0291 154.423 18.5103V9.07287H156.92L156.886 5.9215H154.423V1.24023L150.825 2.15707V5.9215H148.948L148.938 9.07287H150.825V19.3273Z" fill="white"/>
<path d="M179.026 8.00162V5.92105H175.859V22.3714H179.665L179.634 12.3098C179.683 11.2986 180.017 10.5233 180.626 10.0059C181.425 9.32763 182.671 9.09599 184.324 9.31792L184.523 9.34428L184.557 5.91134L184.402 5.88915C182.122 5.57291 180.058 6.28168 179.026 8.00023V8.00162Z" fill="white"/>
<path d="M194.874 5.58008C192.587 5.58008 190.442 6.50801 189.381 8.27094V5.92129H186.086V22.3716H189.922V13.5417C189.922 10.7038 191.38 9.01024 193.824 9.01024C195.496 9.01024 197.487 9.75369 197.487 13.2934V22.3716H201.323V12.7663C201.323 7.46784 197.993 5.58008 194.875 5.58008H194.874Z" fill="white"/>
<path d="M105.886 38.4264C105.886 42.2283 104.117 44.3213 100.904 44.3213C97.6911 44.3213 95.9518 42.2283 95.9518 38.4264V25.3188H92.0859V38.3335C92.0859 44.3865 95.382 47.9998 100.904 47.9998C106.426 47.9998 109.722 44.3865 109.722 38.3335V25.3188H105.886V38.4264Z" fill="white"/>
<path d="M120.796 30.8979C118.507 30.8979 116.364 31.8259 115.302 33.5888V31.2392H112.008V47.6895H115.844V38.8596C115.844 36.0217 117.302 34.3281 119.746 34.3281C121.417 34.3281 123.409 35.0716 123.409 38.6113V47.6895H127.245V38.0842C127.245 32.7857 123.915 30.8979 120.797 30.8979H120.796Z" fill="white"/>
<path d="M133.423 31.2388H129.617V47.6891H133.423V31.2388Z" fill="white"/>
<path d="M131.538 25.1763C130.295 25.1763 129.32 26.1514 129.32 27.3955C129.32 28.6397 130.315 29.5857 131.538 29.5857C132.761 29.5857 133.726 28.6037 133.726 27.3955C133.726 26.1874 132.744 25.1763 131.538 25.1763Z" fill="white"/>
<path d="M143.717 30.8979C141.35 30.8979 139.185 31.7635 137.623 33.3336C136.061 34.9037 135.199 37.0758 135.199 39.4491C135.199 44.4036 138.782 48.0002 143.717 48.0002C148.653 48.0002 152.266 44.4036 152.266 39.4491C152.266 37.0731 151.404 34.901 149.839 33.3336C148.272 31.7635 146.099 30.8979 143.719 30.8979H143.717ZM143.717 44.4452C140.98 44.4452 138.915 42.2967 138.915 39.4491C138.915 36.6015 140.98 34.4529 143.717 34.4529C146.455 34.4529 148.58 36.6015 148.58 39.4491C148.58 42.2967 146.489 44.4452 143.717 44.4452Z" fill="white"/>
<path d="M162.831 30.8979C160.544 30.8979 158.4 31.8259 157.338 33.5888V31.2392H154.043V47.6895H157.879V38.8596C157.879 36.0217 159.337 34.3281 161.781 34.3281C163.453 34.3281 165.444 35.0716 165.444 38.6113V47.6895H169.28V38.0842C169.28 32.7857 165.95 30.8979 162.832 30.8979H162.831Z" fill="white"/>
<path d="M166.057 5.58008C163.772 5.58008 161.689 6.4553 160.194 8.04624C158.714 9.62053 157.898 11.7926 157.898 14.1617C157.898 19.1786 161.351 22.6809 166.297 22.6809C169.473 22.6809 172.478 20.9194 173.681 18.2951L170.781 16.7957L170.72 16.7888L170.665 16.9039C170.314 17.646 169.027 19.3742 166.327 19.3742C163.874 19.3742 162.01 17.7861 161.723 15.4891H174.21L174.214 15.313C174.29 12.1782 173.453 9.60528 171.793 7.87425C170.353 6.37347 168.37 5.58008 166.055 5.58008H166.057ZM161.723 12.4307C161.986 10.3293 163.778 8.82437 166.057 8.82437C168.336 8.82437 170.128 10.3293 170.307 12.4307H161.723Z" fill="white"/>
</g>
<defs>
<clipPath id="clip0_1246_946">
<rect width="202" height="48" fill="white"/>
</clipPath>
</defs>
</svg>
