<svg width="26" height="20" viewBox="0 0 26 20" fill="none" xmlns="http://www.w3.org/2000/svg">
<path d="M21.6172 0.0285645H4.35235C2.43404 0.0285645 0.835449 1.65389 0.835449 3.60428V15.8917C0.835449 17.8421 2.43404 19.4675 4.35235 19.4675H21.6172C23.5355 19.4675 25.1341 17.8421 25.1341 15.8917V3.60428C25.1341 1.65389 23.5355 0.0285645 21.6172 0.0285645ZM21.6172 1.7189C21.7451 1.7189 21.8729 1.7189 22.0648 1.78392L14.7752 10.1706C14.3276 10.6907 13.6881 10.9508 12.9848 10.9508C12.2814 10.9508 11.6419 10.6257 11.1943 10.1706L3.90475 1.78392C4.03264 1.78392 4.16052 1.7189 4.35235 1.7189H21.6172ZM23.4715 15.8917C23.4715 16.932 22.6403 17.7771 21.6172 17.7771H4.35235C3.32925 17.7771 2.49799 16.932 2.49799 15.8917V3.60428C2.49799 3.34423 2.56193 3.08418 2.62587 2.88914L9.91546 11.3408C10.6828 12.251 11.7698 12.7061 12.9208 12.7061C14.0718 12.7061 15.1588 12.186 15.9262 11.3408L23.2158 2.88914C23.2797 3.08418 23.3436 3.34423 23.3436 3.60428V15.8917H23.4715Z" fill="black"/>
</svg>
