<svg width="29" height="29" viewBox="0 0 29 29" fill="none" xmlns="http://www.w3.org/2000/svg">
<path fill-rule="evenodd" clip-rule="evenodd" d="M14.6038 0.795898C22.1879 0.795898 28.2764 6.76663 28.2764 14.0917C28.2764 21.4167 22.1761 27.3874 14.6038 27.3874C13.1081 27.3874 11.6832 27.1401 10.3171 26.7044L7.83223 27.7643C6.40726 28.3884 5.84199 27.8232 5.84199 26.092V24.3491C2.86251 21.8642 0.931152 18.2017 0.931152 14.0917C0.931152 6.75485 7.07853 0.795898 14.6038 0.795898Z" fill="black"/>
<path fill-rule="evenodd" clip-rule="evenodd" d="M6.77383 17.4478L10.0713 12.4192C10.507 11.6773 10.9427 10.9236 11.8731 10.7469C12.5561 10.5585 13.1214 10.8058 13.6749 11.2416L16.5955 13.4202C17.0901 13.7971 17.2197 13.7971 17.7143 13.4202L21.5063 10.6292C22.4956 9.81659 23.367 10.323 22.684 11.4418L19.0804 17.2005C19.0804 17.2005 18.2678 18.5077 17.149 18.4488C17.149 18.4488 16.3364 18.4488 15.7829 17.9542L12.6739 15.5282C12.2971 15.2809 12.1204 15.2809 11.6847 15.5871L7.77484 18.5666C6.64429 19.4381 5.96125 18.6844 6.77383 17.4478Z" fill="white"/>
</svg>
