<svg width="174" height="52" viewBox="0 0 174 52" fill="none" xmlns="http://www.w3.org/2000/svg">
<path d="M166.795 51.2126H6.7883C3.25754 51.2126 0.386719 48.3418 0.386719 44.811V6.40154C0.386719 2.87078 3.25754 0 6.7883 0H166.795C170.325 0 173.196 2.87078 173.196 6.40154V44.811C173.196 48.3418 170.325 51.2126 166.795 51.2126Z" fill="black"/>
<path d="M166.795 1.02292C169.764 1.02292 172.173 3.43174 172.173 6.40154V44.811C172.173 47.7808 169.764 50.1897 166.795 50.1897H6.7883C3.8185 50.1897 1.40966 47.7808 1.40966 44.811V6.40154C1.40966 3.43174 3.8185 1.02292 6.7883 1.02292H166.795ZM166.795 0H6.7883C3.25754 0 0.386719 2.87078 0.386719 6.40154V44.811C0.386719 48.3418 3.25754 51.2126 6.7883 51.2126H166.795C170.325 51.2126 173.196 48.3418 173.196 44.811V6.40154C173.196 2.87078 170.325 0 166.795 0Z" fill="#A7A6A6"/>
<path d="M26.9172 24.8804L13.2891 39.3334C13.718 40.9173 15.1369 42.0723 16.8528 42.0723C17.5458 42.0723 18.1727 41.8743 18.7337 41.5773L18.7667 41.5443L34.1107 32.7009L26.9172 24.8804Z" fill="#D75532"/>
<path d="M40.7073 22.4052L34.0747 18.5444L26.6172 25.177L34.1077 32.6675L40.7073 28.8728C41.8622 28.2458 42.6541 27.0249 42.6541 25.639C42.6211 24.2531 41.8622 23.0321 40.7073 22.4052Z" fill="#FFCC32"/>
<path d="M13.2882 11.8794C13.2223 12.1764 13.1562 12.5063 13.1562 12.8363V38.4096C13.1562 38.7396 13.1893 39.0696 13.2882 39.3665L27.3783 25.2765L13.2882 11.8794Z" fill="#0075BC"/>
<path d="M27.0161 25.6061L34.0777 18.5445L18.7667 9.66809C18.2057 9.33812 17.5458 9.14014 16.8528 9.14014C15.1369 9.14014 13.718 10.2951 13.2891 11.879L27.0161 25.6061Z" fill="#00A176"/>
<path d="M61.1021 13.133C61.1021 14.222 60.7722 15.0469 60.1452 15.7069C59.4193 16.4658 58.4953 16.8288 57.3404 16.8288C56.2185 16.8288 55.2945 16.4328 54.5026 15.6739C53.7106 14.9149 53.3477 13.958 53.3477 12.8031C53.3477 11.6811 53.7436 10.7242 54.5026 9.93227C55.2615 9.17332 56.2185 8.77734 57.3404 8.77734C57.9014 8.77734 58.4293 8.87634 58.9243 9.10732C59.4193 9.33831 59.8152 9.60228 60.1122 9.96526L59.4523 10.6252C58.9573 10.0313 58.2313 9.70126 57.3404 9.70126C56.5155 9.70126 55.8225 9.99827 55.2285 10.5592C54.6346 11.1202 54.3376 11.8791 54.3376 12.7701C54.3376 13.694 54.6346 14.4199 55.2285 14.9809C55.8225 15.5419 56.5155 15.8389 57.3404 15.8389C58.1983 15.8389 58.9243 15.5419 59.4853 14.9809C59.8482 14.6179 60.0792 14.09 60.1452 13.43H57.3404V12.5061H61.0692C61.0692 12.7371 61.1021 12.9351 61.1021 13.133Z" fill="white"/>
<path d="M61.1021 13.133C61.1021 14.222 60.7722 15.0469 60.1452 15.7069C59.4193 16.4658 58.4953 16.8288 57.3404 16.8288C56.2185 16.8288 55.2945 16.4328 54.5026 15.6739C53.7106 14.9149 53.3477 13.958 53.3477 12.8031C53.3477 11.6811 53.7436 10.7242 54.5026 9.93227C55.2615 9.17332 56.2185 8.77734 57.3404 8.77734C57.9014 8.77734 58.4293 8.87634 58.9243 9.10732C59.4193 9.33831 59.8152 9.60228 60.1122 9.96526L59.4523 10.6252C58.9573 10.0313 58.2313 9.70126 57.3404 9.70126C56.5155 9.70126 55.8225 9.99827 55.2285 10.5592C54.6346 11.1202 54.3376 11.8791 54.3376 12.7701C54.3376 13.694 54.6346 14.4199 55.2285 14.9809C55.8225 15.5419 56.5155 15.8389 57.3404 15.8389C58.1983 15.8389 58.9243 15.5419 59.4853 14.9809C59.8482 14.6179 60.0792 14.09 60.1452 13.43H57.3404V12.5061H61.0692C61.0692 12.7371 61.1021 12.9351 61.1021 13.133Z" stroke="white" stroke-width="0.2" stroke-miterlimit="10"/>
<path d="M67.0072 9.89905H63.5095V12.3409H66.6443V13.2648H63.5095V15.7067H67.0072V16.6306H62.5195V8.9751H67.0072V9.89905Z" fill="white"/>
<path d="M67.0072 9.89905H63.5095V12.3409H66.6443V13.2648H63.5095V15.7067H67.0072V16.6306H62.5195V8.9751H67.0072V9.89905Z" stroke="white" stroke-width="0.2" stroke-miterlimit="10"/>
<path d="M71.166 16.6306H70.1761V9.89905H68.0312V8.9751H73.3109V9.89905H71.166V16.6306Z" fill="white"/>
<path d="M71.166 16.6306H70.1761V9.89905H68.0312V8.9751H73.3109V9.89905H71.166V16.6306Z" stroke="white" stroke-width="0.2" stroke-miterlimit="10"/>
<path d="M78.1306 8.9751H77.1406V16.6636H78.1306V8.9751Z" fill="white"/>
<path d="M78.1306 8.9751H77.1406V16.6636H78.1306V8.9751Z" stroke="white" stroke-width="0.2" stroke-miterlimit="10"/>
<path d="M82.4864 16.6306H81.4964V9.89905H79.3516V8.9751H84.6312V9.89905H82.4864V16.6306Z" fill="white"/>
<path d="M82.4864 16.6306H81.4964V9.89905H79.3516V8.9751H84.6312V9.89905H82.4864V16.6306Z" stroke="white" stroke-width="0.2" stroke-miterlimit="10"/>
<path d="M94.6261 15.6411C93.8671 16.433 92.9432 16.796 91.8213 16.796C90.6994 16.796 89.7754 16.4 89.0165 15.6411C88.2575 14.8491 87.8945 13.9252 87.8945 12.8033C87.8945 11.6813 88.2575 10.7244 89.0165 9.96547C89.7754 9.17352 90.6994 8.81055 91.8213 8.81055C92.9432 8.81055 93.8671 9.20652 94.6261 9.96547C95.385 10.7574 95.748 11.6813 95.748 12.8033C95.748 13.9252 95.385 14.8821 94.6261 15.6411ZM89.7094 15.0142C90.2704 15.5751 90.9633 15.8721 91.7883 15.8721C92.6132 15.8721 93.3062 15.5751 93.8671 15.0142C94.4281 14.4532 94.7251 13.6942 94.7251 12.8033C94.7251 11.9123 94.4281 11.1864 93.8671 10.5924C93.3062 10.0315 92.6132 9.7345 91.7883 9.7345C90.9633 9.7345 90.2704 10.0315 89.7094 10.5924C89.1484 11.1534 88.8515 11.9123 88.8515 12.8033C88.8515 13.6942 89.1484 14.4202 89.7094 15.0142Z" fill="white"/>
<path d="M94.6261 15.6411C93.8671 16.433 92.9432 16.796 91.8213 16.796C90.6994 16.796 89.7754 16.4 89.0165 15.6411C88.2575 14.8491 87.8945 13.9252 87.8945 12.8033C87.8945 11.6813 88.2575 10.7244 89.0165 9.96547C89.7754 9.17352 90.6994 8.81055 91.8213 8.81055C92.9432 8.81055 93.8671 9.20652 94.6261 9.96547C95.385 10.7574 95.748 11.6813 95.748 12.8033C95.748 13.9252 95.385 14.8821 94.6261 15.6411ZM89.7094 15.0142C90.2704 15.5751 90.9633 15.8721 91.7883 15.8721C92.6132 15.8721 93.3062 15.5751 93.8671 15.0142C94.4281 14.4532 94.7251 13.6942 94.7251 12.8033C94.7251 11.9123 94.4281 11.1864 93.8671 10.5924C93.3062 10.0315 92.6132 9.7345 91.7883 9.7345C90.9633 9.7345 90.2704 10.0315 89.7094 10.5924C89.1484 11.1534 88.8515 11.9123 88.8515 12.8033C88.8515 13.6942 89.1484 14.4202 89.7094 15.0142Z" stroke="white" stroke-width="0.2" stroke-miterlimit="10"/>
<path d="M97.1367 16.6306V8.9751H98.3246L102.086 14.9477H102.119L102.086 13.4628V8.9751H103.076V16.6306H102.02L98.1267 10.394H98.0937L98.1267 11.8459V16.6306H97.1367Z" fill="white"/>
<path d="M97.1367 16.6306V8.9751H98.3246L102.086 14.9477H102.119L102.086 13.4628V8.9751H103.076V16.6306H102.02L98.1267 10.394H98.0937L98.1267 11.8459V16.6306H97.1367Z" stroke="white" stroke-width="0.2" stroke-miterlimit="10"/>
<path d="M87.6334 27.8498C84.6306 27.8498 82.1558 30.1267 82.1558 33.2945C82.1558 36.4293 84.5976 38.7391 87.6334 38.7391C90.6362 38.7391 93.111 36.4293 93.111 33.2945C93.078 30.1267 90.6362 27.8498 87.6334 27.8498ZM87.6334 36.5942C85.9835 36.5942 84.5646 35.2413 84.5646 33.2945C84.5646 31.3476 85.9835 29.9947 87.6334 29.9947C89.2833 29.9947 90.7022 31.3476 90.7022 33.2945C90.7022 35.2413 89.2503 36.5942 87.6334 36.5942ZM75.6882 27.8498C72.6854 27.8498 70.2106 30.1267 70.2106 33.2945C70.2106 36.4293 72.6524 38.7391 75.6882 38.7391C78.691 38.7391 81.1658 36.4293 81.1658 33.2945C81.1658 30.1267 78.691 27.8498 75.6882 27.8498ZM75.6882 36.5942C74.0383 36.5942 72.6194 35.2413 72.6194 33.2945C72.6194 31.3476 74.0383 29.9947 75.6882 29.9947C77.3381 29.9947 78.757 31.3476 78.757 33.2945C78.757 35.2413 77.3381 36.5942 75.6882 36.5942ZM61.4991 29.5327V31.8426H67.0098C66.8448 33.1295 66.4158 34.0864 65.7559 34.7464C64.9639 35.5383 63.71 36.4293 61.4991 36.4293C58.1004 36.4293 55.4275 33.6904 55.4275 30.2917C55.4275 26.8929 58.1004 24.1541 61.4991 24.1541C63.347 24.1541 64.6669 24.88 65.6569 25.804L67.2738 24.1871C65.8878 22.8672 64.073 21.8442 61.4661 21.8442C56.8135 21.8442 52.8867 25.639 52.8867 30.2917C52.8867 34.9444 56.8135 38.7391 61.4661 38.7391C63.974 38.7391 65.8878 37.9142 67.3727 36.3633C68.8906 34.8454 69.3856 32.7005 69.3856 30.9516C69.3856 30.4237 69.3526 29.9287 69.2536 29.4997H61.4991V29.5327ZM119.509 31.3146C119.047 30.0937 117.661 27.8498 114.857 27.8498C112.052 27.8498 109.709 30.0607 109.709 33.2945C109.709 36.3303 112.019 38.7391 115.121 38.7391C117.628 38.7391 119.047 37.2212 119.641 36.3303L117.793 35.1093C117.166 36.0003 116.342 36.6273 115.121 36.6273C113.9 36.6273 113.042 36.0663 112.481 34.9774L119.773 31.9746L119.509 31.3146ZM112.085 33.1295C112.019 31.0176 113.702 29.9617 114.923 29.9617C115.88 29.9617 116.671 30.4237 116.935 31.1166L112.085 33.1295ZM106.178 38.4091H108.554V22.4052H106.178V38.4091ZM102.251 29.0708H102.185C101.657 28.4438 100.635 27.8498 99.3146 27.8498C96.6088 27.8498 94.101 30.2257 94.101 33.3275C94.101 36.3633 96.6088 38.7391 99.3146 38.7391C100.602 38.7391 101.657 38.1782 102.185 37.5182H102.251V38.3102C102.251 40.389 101.13 41.5109 99.3476 41.5109C97.8957 41.5109 96.9718 40.455 96.6088 39.564L94.5299 40.422C95.1239 41.8739 96.7078 43.6228 99.3476 43.6228C102.152 43.6228 104.528 41.9729 104.528 37.9472V28.1798H102.251V29.0708ZM99.5126 36.5942C97.8627 36.5942 96.4768 35.2084 96.4768 33.3275C96.4768 31.4136 97.8627 29.9947 99.5126 29.9947C101.13 29.9947 102.416 31.3806 102.416 33.3275C102.416 35.2084 101.13 36.5942 99.5126 36.5942ZM130.729 22.4052H125.02V38.4091H127.396V32.3376H130.729C133.368 32.3376 135.975 30.4237 135.975 27.3549C135.975 24.3191 133.368 22.4052 130.729 22.4052ZM130.762 30.1267H127.363V24.6491H130.762C132.543 24.6491 133.566 26.134 133.566 27.3879C133.566 28.6088 132.576 30.1267 130.762 30.1267ZM145.545 27.8168C143.829 27.8168 142.014 28.5758 141.288 30.2587L143.4 31.1496C143.862 30.2587 144.687 29.9617 145.578 29.9617C146.798 29.9617 148.052 30.6877 148.085 32.0076V32.1726C147.656 31.9416 146.732 31.5456 145.611 31.5456C143.334 31.5456 140.991 32.7995 140.991 35.1424C140.991 37.2872 142.872 38.6731 144.951 38.6731C146.568 38.6731 147.425 37.9472 147.986 37.1222H148.052V38.3431H150.362V32.2385C150.395 29.4007 148.283 27.8168 145.545 27.8168ZM145.248 36.5942C144.456 36.5942 143.367 36.1983 143.367 35.2413C143.367 34.0204 144.72 33.5255 145.908 33.5255C146.963 33.5255 147.458 33.7564 148.085 34.0534C147.887 35.5383 146.634 36.5942 145.248 36.5942ZM158.81 28.1798L156.071 35.1093H156.005L153.167 28.1798H150.593L154.85 37.8812L152.408 43.2598H154.883L161.45 28.1798H158.81ZM137.295 38.4091H139.671V22.4052H137.295V38.4091Z" fill="white"/>
</svg>
