<svg width="40" height="40" viewBox="0 0 40 40" fill="none" xmlns="http://www.w3.org/2000/svg">
<path d="M33.5639 30.2772C32.8935 30.3572 31.0424 27.4341 30.788 27.0277C30.78 27.0133 30.7592 27.0213 30.7592 27.0373C30.74 28.9813 29.7369 31.4963 27.5914 33.3251C27.5892 33.3267 27.5874 33.3288 27.5864 33.3314C27.5854 33.3339 27.5852 33.3367 27.5857 33.3394C27.5862 33.3421 27.5874 33.3445 27.5893 33.3465C27.5911 33.3485 27.5935 33.35 27.5962 33.3507C28.6617 33.6818 30.9912 34.549 30.4312 35.4946C29.9753 36.2657 22.5884 35.9873 20.4557 35.7457C18.323 35.9857 10.9361 36.2641 10.4786 35.4946C9.91378 34.5426 12.2801 33.6706 13.336 33.3443V33.3411C11.1601 31.4963 10.1506 28.9445 10.149 26.9877L10.1458 26.9861C10.0658 27.1141 8.05147 30.362 7.3459 30.2772C7.00991 30.2356 6.56833 28.4245 7.92827 24.0471C8.56824 21.9832 9.30421 20.2665 10.437 17.4362C10.2466 10.1277 13.2656 4 20.4541 4C27.5626 4 30.6504 10.0077 30.4712 17.4346C31.6024 20.2601 32.34 21.9864 32.9799 24.0455C34.3399 28.4229 33.9015 30.2356 33.5655 30.2756L33.5639 30.2772Z" fill="#0A0005"/>
</svg>
