<svg width="154" height="127" viewBox="0 0 154 127" fill="none" xmlns="http://www.w3.org/2000/svg">
<g clip-path="url(#clip0_211_863)">
<path d="M105.177 74.623C105.177 74.623 108.05 79.427 109.939 80.8123C110.422 81.1661 107.889 72.3328 107.889 72.3328L106.111 73.3427L106.063 73.4418C105.584 74.4161 104.441 73.8461 105.177 74.623Z" fill="#756F75"/>
<path d="M93.073 99.018C93.5529 99.2167 90.2726 103.219 90.094 105.921C90.0758 106.198 95.5289 101.3 95.5289 101.3L93.812 99.1099C92.8199 99.0955 93.3879 98.0279 93.0725 99.018H93.073Z" fill="#756F75"/>
<path d="M98.1948 75.8253L91.1983 61.0862L90.937 61.3543L89.0783 56.0042L83.746 56.3926C83.3066 58.12 81.6582 60.4891 81.5969 62.9848C81.3873 71.4697 82.958 82.6253 83.5547 84.4153C84.6918 87.8245 92.4399 100.558 92.4399 100.558L94.2428 100.157L89.2451 84.0286L88.9951 72.2273C91.486 76.1327 94.5637 80.8028 95.6371 81.7762C97.5477 83.5095 106.894 75.833 106.904 76.3927C106.914 76.9524 106.111 73.3431 106.111 73.3431L98.1944 75.8258L98.1948 75.8253Z" fill="url(#paint0_linear_211_863)"/>
<path d="M96.5783 40.7663C96.5783 40.7663 101.699 42.7028 105.202 46.9786C108.705 51.2544 105.888 61.1909 105.888 61.1909L104.104 61.0724C104.104 61.0724 104.629 53.3392 102.338 51.0516C100.129 48.8475 93.3416 47.0467 94.4014 47.117L96.5778 40.7659L96.5783 40.7663Z" fill="#D8AC9A"/>
<path d="M96.5783 40.7664L94.4019 47.1174C93.4534 47.0544 98.7906 48.491 101.505 50.3739L104.245 45.9061C100.838 42.3784 96.5778 40.7664 96.5778 40.7664H96.5783Z" fill="#0A0005"/>
<path d="M96.9691 44.1672L95.1531 47.4913C95.947 47.7806 97.1918 48.2245 98.458 48.7693C98.4652 48.7725 98.472 48.7756 98.4789 48.7783C98.6743 48.8626 98.8692 48.9496 99.0642 49.0384C99.0897 49.0501 99.1156 49.0618 99.141 49.0735C99.435 49.2092 99.725 49.3493 100.008 49.4944C100.052 49.5174 100.097 49.5404 100.141 49.5634C100.274 49.6328 100.403 49.7031 100.531 49.7743C100.586 49.8049 100.641 49.8356 100.695 49.8667C100.769 49.909 100.84 49.9514 100.912 49.9942C100.97 50.0289 101.027 50.0645 101.083 50.0997C101.181 50.1601 101.275 50.2213 101.367 50.2831C101.413 50.3137 101.46 50.3439 101.504 50.3746L102.272 49.1217C100.036 47.7189 96.9682 44.1681 96.9682 44.1681L96.9691 44.1672Z" fill="#756F75"/>
<path d="M83.8405 44.814C83.8405 44.814 91.0665 38.7328 88.0571 37.4502C86.8591 36.9396 82.7198 28.2853 82.7198 28.2853L78.4401 16.2771L76.7054 16.8751L78.7851 30.3321C78.7851 30.3321 81.8236 41.5115 83.841 44.814H83.8405Z" fill="#D8AC9A"/>
<path d="M79.4431 32.6566C80.4493 36.1154 82.4035 42.462 83.8401 44.8139C83.8401 44.8139 91.0661 38.7328 88.0566 37.4502C87.234 37.0996 85.0253 32.9103 83.721 30.3186C82.5617 30.8909 80.6661 31.9396 79.4427 32.6566H79.4431Z" fill="#756F75"/>
<path d="M84.6576 39.134C81.5755 38.408 80.6597 34.6365 79.4127 32.5518C80.4093 35.9858 82.3894 42.4382 83.8405 44.8141C83.8405 44.8141 84.0955 44.5996 84.4899 44.2422C84.7999 43.7641 85.9079 44.0011 86.1824 43.568C87.7848 41.0403 88.187 39.965 84.6576 39.134Z" fill="#0A0005"/>
<path d="M78.4397 16.2772C78.7814 15.9554 78.3679 12.7359 78.2947 11.9419C78.222 11.1474 77.5485 11 77.5485 11C77.5485 11 77.6721 11.5056 76.7745 11.2483C75.8769 10.991 75.0798 12.3452 74.6681 13.0221C74.2563 13.6994 76.705 16.8747 76.705 16.8747L78.4397 16.2767V16.2772Z" fill="#D8AC9A"/>
<path d="M104.255 59.9709C104.255 59.9709 103.016 61.9948 102.403 63.404C102.156 63.9696 102.342 64.0151 102.724 63.6185C102.989 63.3441 103.565 62.7686 103.672 62.669C103.672 62.669 103.637 64.833 103.914 65.6996C104.276 66.833 105.978 64.7979 106.035 63.4977C106.068 62.751 105.794 61.1368 105.794 61.1368L104.254 59.9705L104.255 59.9709Z" fill="#D8AC9A"/>
<path d="M89.5563 32.5723C89.2182 32.26 86.1628 30.3547 91.0824 29.4953C92.8008 29.1951 92.7912 30.6544 92.7912 30.6544L89.5568 32.5723H89.5563Z" fill="url(#paint1_linear_211_863)"/>
<path d="M84.1514 42.9146C83.9596 43.5726 81.5977 62.5803 81.5977 62.5803L91.6123 61.4582C91.6123 61.4582 92.244 56.4284 92.5022 55.6844C94.6204 49.5803 99.1651 41.7947 98.1157 41.4108C97.7208 41.2661 95.7898 40.0899 94.4741 39.6325C91.3242 38.5378 87.5944 37.8348 87.2576 38.3382C87.2576 38.3382 84.7017 41.0282 84.1514 42.9151V42.9146Z" fill="#756F75"/>
<path d="M97.3236 44.5672L97.2923 44.4712C97.0669 44.9971 94.0138 45.6082 92.7831 48.9034C91.6764 51.8664 92.9599 54.1049 91.1983 56.747C89.8245 58.8083 90.2335 60.2932 91.4783 61.4266L91.6124 61.4586C91.6124 61.4586 92.2441 56.4289 92.5022 55.6848C93.8915 51.6808 96.1102 47.455 97.3241 44.5676L97.3236 44.5672Z" fill="#0A0005"/>
<path d="M94.2505 37.3914L91.5106 38.1304L90.3907 37.9047C90.7121 37.9826 90.8207 38.0006 90.8207 38.0006C90.8207 38.0006 90.7652 38.2161 90.6934 38.4946C91.1474 38.8317 92.0432 39.1611 92.7749 38.8019C93.4325 38.4783 93.9656 37.8069 94.2505 37.3914Z" fill="#E98985"/>
<path d="M75.9242 13.3772C75.9242 13.3772 76.8545 13.5566 77.443 13.302C78.0479 13.0401 77.4521 14.4557 76.9772 14.5404C75.2716 14.8455 74.1 12.0825 75.9238 13.3772H75.9242Z" fill="#D8AC9A"/>
<path d="M94.1828 39.8794C94.3991 41.0687 92.8789 42.5987 91.5983 42.8276C90.3176 43.0566 89.6559 42.8168 89.4395 41.6271C89.2232 40.4378 89.9472 38.8353 91.2279 38.6063C92.5085 38.3774 93.9665 38.6897 94.1828 39.8794Z" fill="#0A0005"/>
<path d="M96.6542 35.2357L94.4386 37.7819L93.667 40.3944L90.7675 42.0659L90.3766 39.731C90.4048 39.6175 90.8211 38.0005 90.8211 38.0005C90.8211 38.0005 90.6775 37.9766 90.2276 37.864C89.2214 37.6129 89.1105 34.2794 89.5563 32.5719C90.0253 30.7738 91.4514 30.1131 91.9214 30.375C92.2086 30.5349 94.9158 30.6494 95.8884 31.676C96.5069 32.329 96.6542 35.2348 96.6542 35.2348V35.2357Z" fill="#D8AC9A"/>
<path d="M96.6006 36.8711L94.6855 36.946C94.6855 36.946 96.7033 36.0199 95.6412 34.9374C95.4294 34.7215 94.9722 35.2727 94.9722 35.2727C94.9722 35.2727 94.52 35.0595 94.8809 34.0681C95.1395 33.3569 95.3535 32.4367 95.3535 32.4367L93.877 32.1942C92.5645 31.9288 90.3049 32.7107 89.6554 32.247C87.6567 30.8193 91.2143 29.5922 93.0989 29.1514C94.7554 28.7639 96.2893 29.7603 96.417 30.9482C96.4615 31.3619 96.8878 31.0442 97.2977 31.233C98.2298 31.6625 97.7008 35.5597 96.6006 36.8716V36.8711Z" fill="url(#paint2_linear_211_863)"/>
<path d="M90.3912 37.9051L91.511 38.1309L94.5346 37.3152L94.4387 37.7821L93.667 40.3945C93.8047 40.4049 92.4417 42.7541 90.7675 42.066C89.4177 41.5112 90.3767 39.7311 90.3767 39.7311C90.4048 39.6176 90.8211 38.0006 90.8211 38.0006C90.8211 38.0006 90.7125 37.9822 90.3912 37.9046V37.9051Z" fill="#D8AC9A"/>
<path d="M91.511 38.1305L90.3912 37.9047C90.7125 37.9826 90.8211 38.0007 90.8211 38.0007C90.8211 38.0007 90.7334 38.3414 90.6361 38.7204C91.1056 39.2436 91.6519 39.6329 92.1022 39.3454C92.7412 38.9376 93.7915 37.9831 94.4864 37.3274L91.5114 38.13L91.511 38.1305Z" fill="#D8AC9A"/>
<path d="M85.7225 67.8569C85.7225 67.8569 87.8521 72.7389 87.8394 74.601C87.8271 76.4631 87.0445 78.6609 87.0591 80.3085C87.0741 81.9561 87.0791 85.2383 88.6093 86.076C89.8922 86.7786 90.663 94.3577 93.1603 96.6637L89.2451 84.0283L88.9951 72.2269C89.0824 72.3639 89.171 72.5023 89.2596 72.6411C88.7342 71.3414 87.9262 69.7605 87.9262 69.7605L85.722 67.8574L85.7225 67.8569Z" fill="#0A0005"/>
<path d="M105.133 77.4279C104.218 77.5302 102.315 77.7068 101.626 77.5423C100.204 77.2034 98.8333 76.3517 98.5479 79.1205C98.3898 80.6537 96.9164 81.4202 96.5156 82.0295C98.5738 81.9538 102.75 79.048 105.133 77.4279H105.133Z" fill="#0A0005"/>
<path d="M57.9356 39.8135L57.3139 36.9807C57.3139 36.9807 55.3352 36.5863 55.3265 36.3502C55.3179 36.1136 55.2206 35.4128 54.938 35.5796C54.6553 35.7459 54.394 36.5652 54.4785 36.9284C54.563 37.2916 56.0668 38.9343 56.0668 38.9343L56.3491 40.0537L57.9351 39.8139L57.9356 39.8135Z" fill="#F5C4AE"/>
<path d="M63.7032 20.0896C63.7032 20.0896 63.6528 19.9734 63.5582 19.7769C71.6832 19.7508 71.5014 16.4033 68.6978 15.2537C66.1864 14.2239 63.9327 18.6002 63.4637 19.584C62.7788 18.2163 60.7146 14.6047 58.4069 15.5353C55.5751 16.6768 55.3919 20.0653 63.7037 20.0896H63.7032ZM63.9695 19.3983C63.9695 19.3983 65.8028 15.2302 67.8752 16.0797C69.9476 16.9292 70.0671 19.4159 63.9695 19.3983ZM59.2245 16.3663C61.3018 15.5286 63.1106 19.7075 63.1106 19.7075C57.0126 19.6899 57.1471 17.2041 59.2245 16.3663Z" fill="url(#paint3_linear_211_863)"/>
<path d="M53.8973 20.6641L72.9961 20.7203C73.097 20.7206 73.179 20.802 73.1787 20.9025L73.1281 37.8204C73.1275 38.0192 72.9643 38.1805 72.7634 38.1799L54.0254 38.1248C53.825 38.1242 53.6624 37.9624 53.6629 37.7632L53.7136 20.8452C53.7139 20.7451 53.7959 20.6638 53.8973 20.6641Z" fill="url(#paint4_linear_211_863)"/>
<path d="M53.1221 19.4096L73.6724 19.4701C73.7102 19.4702 73.7405 19.5005 73.7404 19.5379L73.7326 22.1598L53.0458 22.0989L53.0537 19.477C53.0538 19.4396 53.0843 19.4095 53.1221 19.4096Z" fill="#756F75"/>
<g style="mix-blend-mode:multiply">
<path d="M73.1799 22.1699L53.7011 22.1125L53.7 22.4839L73.1787 22.5412L73.1799 22.1699Z" fill="#E6E6E6"/>
</g>
<path d="M44.3838 41.3565C44.6411 41.8806 44.986 42.3614 45.4123 42.763C45.5523 42.8945 45.6886 43.0338 45.8427 43.2276C46.0363 43.4714 46.7262 44.5165 47.0384 44.4908C47.2492 44.4736 47.8773 45.0252 47.9723 44.8382C48.0677 44.6512 46.8189 43.0455 46.8325 42.8364C46.9002 41.7981 47.9369 42.4768 47.2765 39.7823C47.1393 39.2231 48.0727 38.9229 48.629 38.7674C49.2312 38.5989 49.857 38.9085 50.4291 38.7305C51.518 38.392 52.5188 37.1892 52.7528 36.1117C52.931 35.2893 52.7446 34.3835 52.2061 33.7336C51.6676 33.0838 50.7745 32.7228 49.9401 32.8733C49.7488 32.908 49.5557 32.9707 49.4102 33.0986C49.2925 33.2018 49.213 33.3402 49.1294 33.4722C48.7435 34.082 48.2214 34.6065 47.611 34.9968C46.8539 35.4813 45.9817 35.753 45.171 36.1428C44.7033 36.3677 44.2307 36.6584 44.0016 37.1212C43.7117 37.7066 43.7449 38.8724 43.8758 39.6539C43.9621 40.3515 44.093 40.7661 44.3829 41.3569L44.3838 41.3565Z" fill="url(#paint5_linear_211_863)"/>
<path d="M62.4484 39.5522C62.4484 39.5522 62.2148 38.5558 62.2794 38.0006C62.3516 37.3751 62.5221 36.5883 61.9617 35.8145C61.4009 35.0407 59.6948 34.6342 59.6989 35.0493C59.703 35.4643 60.5401 36.4715 60.1629 36.6135C59.9475 36.6946 59.2995 36.4738 59.5408 36.8947C59.7821 37.3152 60.6883 38.1282 60.7487 38.6176C60.8096 39.1074 60.8828 39.7825 60.8828 39.7825L62.4489 39.5522H62.4484Z" fill="#F5C4AE"/>
<path d="M45.6323 111.213L45.9777 110.268L48.1818 111.277L47.6805 112.15L45.6323 111.213Z" fill="#F8AC9B"/>
<path d="M48.4204 112.491C48.4204 112.491 48.4386 113.327 48.6449 113.71C48.7595 113.922 49.014 114.402 49.9865 115.155C50.765 115.757 52.3425 115.991 52.3652 116.281C52.4165 116.935 51.8107 116.999 51.7694 116.981C51.7589 116.976 50.3546 117.104 49.5907 116.762C47.3911 115.776 44.0071 114.156 43.9812 114.078C43.9467 113.972 45.3614 111.091 45.3614 111.091L48.42 112.491H48.4204Z" fill="url(#paint6_linear_211_863)"/>
<path d="M43.8158 71.3728C43.8158 71.3728 42.9846 75.3877 45.8059 82.2931C48.6272 89.1985 45.6605 110.119 45.6605 110.119L48.1491 111.453C48.1491 111.453 56.1959 93.4139 55.0497 85.5437C53.9036 77.6734 46.2476 69.4382 43.8163 71.3724L43.8158 71.3728Z" fill="url(#paint7_linear_211_863)"/>
<path d="M55.5151 48.1387C56.8503 47.4407 56.3495 40.0531 56.3495 40.0531L58.141 39.7822C58.141 39.7822 60.6047 48.4168 59.0695 49.0833C57.5343 49.7498 54.1799 48.8368 55.5151 48.1387Z" fill="url(#paint8_linear_211_863)"/>
<g style="mix-blend-mode:multiply" opacity="0.5">
<path d="M59.3567 45.1943C59.3567 45.1943 58.9558 47.0141 55.7064 47.9794C58.874 49.5765 59.5257 46.9758 59.5257 46.9758C59.5257 46.9758 59.5221 46.1533 59.3562 45.1948L59.3567 45.1943Z" fill="#F8AC9B"/>
</g>
<path d="M61.0368 113.721L60.9632 112.694H63.3846L63.2864 113.721H61.0368Z" fill="#F8AC9B"/>
<path d="M64.1127 113.721C64.1127 113.721 64.4726 114.463 64.8175 114.721C65.1625 114.98 69.1822 115.528 69.4972 116.093C69.8121 116.657 69.2872 116.964 69.2422 116.964C69.1972 116.964 60.7978 117.045 60.7228 116.964C60.6478 116.883 60.7528 113.721 60.7528 113.721H64.1127Z" fill="url(#paint9_linear_211_863)"/>
<path d="M51.349 44.8797C51.0904 44.9789 50.7945 45.046 50.5023 45.0848C50.1769 45.1281 49.8583 45.1389 49.6084 45.1249C49.2993 45.1078 48.7853 44.9717 48.5072 44.8194C48.3886 44.7545 48.2836 44.6842 48.1841 44.6111C48.0405 44.5061 47.9109 44.3953 47.7905 44.2786C47.451 43.9491 47.167 43.5841 46.7271 43.2493L47.811 45.526L47.4465 47.9009L51.1135 47.5359L51.2008 46.5575L51.3503 44.8806L51.349 44.8793V44.8797Z" fill="#F8AC9B"/>
<path d="M51.8634 39.6494C51.8634 39.6494 52.1252 40.6756 52.5347 41.1195C52.9442 41.5633 53.3245 41.8838 53.0228 42.0893C52.721 42.2948 51.8394 42.635 51.8394 42.635L51.1158 40.6706L51.8634 39.6499V39.6494Z" fill="#F8AC9B"/>
<g style="mix-blend-mode:multiply" opacity="0.5">
<path d="M51.349 44.8797C51.0904 44.9788 50.7945 45.046 50.5023 45.0847C50.1769 45.128 49.8583 45.1388 49.6084 45.1248C49.2993 45.1077 48.7853 44.9716 48.5072 44.8193C48.3886 44.7544 48.2836 44.6841 48.1841 44.6111L48.1813 44.612C48.1813 44.612 48.3445 44.9802 49.7156 45.5741C50.0665 45.726 51.1899 45.7657 51.2703 45.7765L51.3503 44.8801L51.349 44.8788V44.8797Z" fill="#F8AC9B"/>
</g>
<path d="M51.6198 38.224C51.5999 37.3569 51.2945 37.6007 50.7536 37.7107C50.2501 37.813 49.5248 37.7526 49.0944 37.8107C48.6404 37.872 48.2123 37.9878 47.7701 38.1086C47.0138 38.315 46.9316 39.105 46.9693 39.603C46.9698 39.6115 46.9707 39.6206 46.9716 39.6291C47.0134 40.1059 47.2561 41.1906 47.1974 41.5881C47.1379 41.9928 46.299 40.4466 45.6245 40.5065C45.4759 40.5196 45.3396 40.5399 45.1969 40.635C44.9283 40.8134 44.7861 41.1568 44.8424 41.4872C44.9188 41.9333 45.2482 42.2916 45.6091 42.5462C45.9699 42.8008 46.3753 42.9825 46.7271 43.2506C47.167 43.5854 47.451 43.9505 47.7905 44.2799C47.911 44.3966 48.0405 44.5075 48.1841 44.6125C48.2836 44.6855 48.3886 44.7558 48.5072 44.8207C48.7853 44.9725 49.2993 45.1091 49.6084 45.1262C49.8588 45.1402 50.1774 45.1294 50.5023 45.0861C50.7945 45.0474 51.0909 44.9802 51.349 44.8811C51.5535 44.8026 51.7344 44.7044 51.8675 44.58C52.0307 44.4282 52.1466 44.2592 52.2311 44.0784C52.5188 43.4606 52.4147 42.694 52.3729 41.9094C52.3052 40.6305 51.6494 39.4998 51.6198 38.2258V38.224Z" fill="#F8AC9B"/>
<g style="mix-blend-mode:multiply" opacity="0.5">
<path d="M48.7999 38.4542C49.777 38.0603 51.4935 37.6205 50.6627 37.7268C50.1592 37.8291 49.5248 37.7521 49.0944 37.8102C48.6404 37.8715 48.2123 37.9873 47.7701 38.1081C47.0138 38.3145 46.9316 39.1045 46.9693 39.6024C46.9698 39.6106 46.9707 39.6196 46.9716 39.6286C47.1579 39.173 47.8469 38.8381 48.7999 38.4542Z" fill="#F8AC9B"/>
</g>
<path d="M43.2091 69.3466C42.2947 65.3267 44.562 49.4119 46.444 46.6444C48.7327 43.2789 54.4103 50.5299 59.2708 47.0081C60.2961 46.068 60.626 39.3316 60.626 39.3316L62.4266 39.0369C62.4266 39.0369 64.4721 47.8053 63.3151 49.4826C60.2961 53.8594 54.2226 53.3785 54.2226 53.3785C54.2226 53.3785 54.0335 63.484 56.2795 71.0316C56.5463 71.9275 55.8705 72.8243 54.9293 72.859C44.8006 73.2331 44.0703 73.1321 43.2091 69.3461V69.3466Z" fill="url(#paint10_linear_211_863)"/>
<g style="mix-blend-mode:multiply" opacity="0.5">
<path d="M54.2226 53.379C54.2226 53.379 52.706 53.2524 51.5322 52.7981C52.5915 54.6719 54.8266 63.4863 54.5794 61.5336C54.3321 59.5809 54.1644 53.6476 54.2221 53.379H54.2226Z" fill="#F8AC9B"/>
</g>
<g style="mix-blend-mode:multiply" opacity="0.2">
<path d="M47.8655 80.5212C47.8655 80.5212 47.8655 80.5212 47.8655 80.5217C47.8655 80.5217 50.117 86.0138 51.5326 87.5952C52.9483 89.1765 54.3312 93.0386 54.3312 93.0386C54.3312 93.0386 54.6066 91.9048 54.8957 90.515C54.3821 89.3789 53.8586 88.4812 53.3355 87.9372C51.6885 86.2252 49.6416 83.4235 47.866 80.5212H47.8655Z" fill="#221F1F"/>
</g>
<path d="M62.9397 88.5905C62.4107 82.4971 56.3322 71.7121 56.3322 71.7121C56.3322 71.7121 49.7597 69.2957 43.8158 71.3727C44.0117 73.443 45.7445 77.0537 47.8655 80.521C49.6411 83.4232 51.688 86.225 53.335 87.937C53.8581 88.4805 54.3817 89.3787 54.8952 90.5148C57.9306 97.2286 60.6037 112.694 60.6037 112.694H63.67C63.67 112.694 63.4691 94.6842 62.9402 88.5909L62.9397 88.5905Z" fill="url(#paint11_linear_211_863)"/>
</g>
<defs>
<linearGradient id="paint0_linear_211_863" x1="93.0136" y1="103.038" x2="95.03" y2="47.5657" gradientUnits="userSpaceOnUse">
<stop stop-color="#756F75"/>
<stop offset="1" stop-color="#0A0005"/>
</linearGradient>
<linearGradient id="paint1_linear_211_863" x1="88.3093" y1="31.0135" x2="92.7908" y2="31.0135" gradientUnits="userSpaceOnUse">
<stop stop-color="#756F75"/>
<stop offset="1" stop-color="#0A0005"/>
</linearGradient>
<linearGradient id="paint2_linear_211_863" x1="89.0646" y1="33.0059" x2="97.7776" y2="33.0059" gradientUnits="userSpaceOnUse">
<stop stop-color="#756F75"/>
<stop offset="1" stop-color="#0A0005"/>
</linearGradient>
<linearGradient id="paint3_linear_211_863" x1="56.7337" y1="18.2857" x2="70.3868" y2="16.6415" gradientUnits="userSpaceOnUse">
<stop stop-color="#FFED9A"/>
<stop offset="0.98" stop-color="#FFDF00"/>
</linearGradient>
<linearGradient id="paint4_linear_211_863" x1="53.688" y1="29.3918" x2="73.1531" y2="29.4501" gradientUnits="userSpaceOnUse">
<stop stop-color="#756F75"/>
<stop offset="1" stop-color="#0A0005"/>
</linearGradient>
<linearGradient id="paint5_linear_211_863" x1="43.7799" y1="38.858" x2="52.8187" y2="38.858" gradientUnits="userSpaceOnUse">
<stop stop-color="#756F75"/>
<stop offset="1" stop-color="#0A0005"/>
</linearGradient>
<linearGradient id="paint6_linear_211_863" x1="46.8037" y1="118.458" x2="49.3619" y2="112.388" gradientUnits="userSpaceOnUse">
<stop stop-color="#FFED9A"/>
<stop offset="0.98" stop-color="#FFDF00"/>
</linearGradient>
<linearGradient id="paint7_linear_211_863" x1="48.4314" y1="73.6464" x2="50.4434" y2="99.2413" gradientUnits="userSpaceOnUse">
<stop stop-color="#756F75"/>
<stop offset="1" stop-color="#0A0005"/>
</linearGradient>
<linearGradient id="paint8_linear_211_863" x1="55.2079" y1="44.5488" x2="59.573" y2="44.5488" gradientUnits="userSpaceOnUse">
<stop stop-color="#FEBF00"/>
<stop offset="0.98" stop-color="#FFDF00"/>
</linearGradient>
<linearGradient id="paint9_linear_211_863" x1="65.2243" y1="119.612" x2="65.0688" y2="113.273" gradientUnits="userSpaceOnUse">
<stop stop-color="#FFED9A"/>
<stop offset="0.98" stop-color="#FFDF00"/>
</linearGradient>
<linearGradient id="paint10_linear_211_863" x1="43" y1="56.0198" x2="63.6696" y2="56.0198" gradientUnits="userSpaceOnUse">
<stop stop-color="#FFED9A"/>
<stop offset="0.98" stop-color="#FFDF00"/>
</linearGradient>
<linearGradient id="paint11_linear_211_863" x1="62.7429" y1="71.7094" x2="54.8046" y2="89.9403" gradientUnits="userSpaceOnUse">
<stop stop-color="#756F75"/>
<stop offset="1" stop-color="#0A0005"/>
</linearGradient>
<clipPath id="clip0_211_863">
<rect width="67" height="106" fill="white" transform="translate(43 11)"/>
</clipPath>
</defs>
</svg>
