<svg width="154" height="127" viewBox="0 0 154 127" fill="none" xmlns="http://www.w3.org/2000/svg">
<path d="M90.455 50.8183C90.9314 50.578 92.0083 50.0536 92.0373 50.2096C92.0584 50.3219 91.9793 50.4956 91.8341 50.6674C92.4585 50.5338 93.081 50.477 94.4628 50.9552C94.7397 51.0512 94.9739 51.2496 95.0948 51.515C95.2067 51.7605 95.2198 52.0487 94.8235 52.2206C94.0319 52.5638 94.282 52.3254 93.1775 52.832C92.0729 53.3387 90.8138 53.3257 90.1435 52.7599L89.1776 52.452L89.2928 50.8155C89.2928 50.8155 89.8671 50.8309 90.4541 50.8188L90.455 50.8183Z" fill="#F8AC9B"/>
<path d="M66.5125 33.4675C66.5125 33.4675 68.441 36.5598 71.5827 35.8403C71.5827 35.8403 72.4483 34.3962 72.624 33.264C72.6455 33.1248 72.6671 32.9897 72.6882 32.8617C72.8919 31.588 73.0404 30.8782 73.0404 30.8782C73.0404 30.8782 73.0395 30.8782 73.0376 30.8773C72.9107 30.8014 68.7674 28.3611 68.7492 28.511C68.3168 31.9736 66.5125 33.4675 66.5125 33.4675Z" fill="#F8AC9B"/>
<path d="M69.0709 29.3986C69.3806 30.2439 70.6139 31.9884 72.6886 32.8621C72.8923 31.5884 73.0408 30.8786 73.0408 30.8786C73.0408 30.8786 73.0399 30.8786 73.038 30.8777C72.9209 30.8274 68.9787 29.1495 69.0709 29.3991V29.3986Z" fill="#F8AC9B"/>
<path d="M73.9834 30.8801C73.9834 30.8801 68.8555 31.3179 68.6307 28.139C68.4058 24.96 67.5926 22.8755 70.8566 22.462C74.1211 22.048 74.8439 23.2164 75.1783 24.2596C75.5128 25.3023 75.3113 30.685 73.9834 30.8806V30.8801Z" fill="#F8AC9B"/>
<path d="M68.6771 29.0027C68.6031 29.0358 67.4882 29.2067 66.0572 24.912C65.8323 24.2376 65.8164 22.848 66.7322 21.755C67.648 20.6615 70.4079 20.0989 72.6456 20.0048C74.8837 19.9108 75.2271 21.205 75.5597 22.5038C75.9091 23.8674 77.3078 25.1514 77.3078 25.1514C75.2767 25.9212 73.2344 24.1007 72.4147 24.2321C71.5949 24.3634 71.1377 25.5509 71.0211 25.9356C70.9044 26.3207 70.7658 26.6346 69.8322 26.1396C68.8987 25.645 69.1825 27.4631 69.2912 27.8185C69.2912 27.8185 69.2945 28.7238 68.6766 29.0018L68.6771 29.0027Z" fill="url(#paint0_linear_211_864)"/>
<path d="M44.6028 103.961L41.6011 103.524C40.9721 103.432 40.365 102.704 40.3584 101.532C40.3523 100.359 39.1508 99.5452 39.0089 98.5658C38.867 97.5864 40.4957 96.4734 40.4957 96.4734L40.7805 96.2018L41.077 95.9187L43.3727 96.8203C43.3727 96.8203 43.3484 97.3917 43.2795 98.114C43.2289 98.6356 43.1549 99.2359 43.0476 99.7566C42.7933 100.999 43.0177 102.408 44.1002 102.814C45.1837 103.221 44.6019 103.961 44.6019 103.961H44.6028Z" fill="url(#paint1_linear_211_864)"/>
<path d="M65.4993 107L57.5426 105.843C57.4686 105.817 57.4133 105.792 57.381 105.77C56.8887 105.428 57.3524 103.43 57.5084 102.815C57.5374 102.701 57.5566 102.634 57.5566 102.634C57.5566 102.634 60.682 100.817 60.8159 102.576C60.8206 102.631 60.8267 102.685 60.8337 102.739V102.739C61.0848 104.404 63.1496 105.444 64.3736 105.828C65.3091 106.122 65.4758 106.713 65.4988 107H65.4993Z" fill="url(#paint2_linear_211_864)"/>
<path d="M70.6084 61.1502C70.6084 61.1502 69.4078 66.3591 67.9763 72.6219C66.0309 81.1294 63.6593 91.5822 63.2836 93.5731C62.632 97.0305 61.2535 102.511 61.2535 102.511C61.2535 102.511 59.7306 103.64 57.1543 102.696C57.1543 102.696 55.9537 94.4105 56.5135 85.9104C56.5233 85.7711 56.5332 85.631 56.543 85.4908C57.1721 76.8463 58.8439 58.6931 58.8439 58.6931L70.6084 61.1502Z" fill="url(#paint3_linear_211_864)"/>
<path d="M70.6083 61.1502C70.6083 61.1502 69.4077 66.3591 67.9762 72.6219L56.5134 85.9104C56.5233 85.7711 56.5331 85.631 56.5429 85.4908C57.172 76.8463 58.8438 58.6931 58.8438 58.6931L70.6083 61.1502Z" fill="url(#paint4_linear_211_864)"/>
<path d="M68.5759 61.4938C68.5759 61.4938 58.108 79.4677 51.752 87.7056C45.3959 95.9435 43.4538 98.218 43.4538 98.218C43.4538 98.218 40.7374 96.6509 40.5903 95.8303C40.5903 95.8303 45.0647 78.7929 49.058 75.0617C51.3144 72.9534 54.6065 66.1206 55.0801 63.6323C55.5532 61.144 56.8597 56.2737 56.8597 56.2737L68.5759 61.4938Z" fill="url(#paint5_linear_211_864)"/>
<path d="M51.6199 55.4849L51.3585 56.7008C51.3585 56.7008 51.8517 59 49.4056 59.787C49.4056 59.787 48.3713 60.0367 48.443 59.2748C48.5147 58.5133 48.5976 58.8156 48.6749 57.7393C48.7522 56.6631 49.3213 55.7186 50.0792 55.4825L50.7584 54.9004L51.6199 55.4844V55.4849Z" fill="#F8AC9B"/>
<path d="M50.5973 56.249C51.4054 56.643 51.5501 56.6015 51.5501 56.6015C51.5501 56.6015 56.7754 49.7333 57.2939 49.1106C57.8125 48.488 67.2868 42.01 67.2868 42.01L66.3125 33.7502C66.3125 33.7502 55.0263 44.5858 53.7437 46.1897C51.6241 48.8401 49.6422 55.4228 49.6422 55.4228C49.6422 55.4228 49.9631 55.9398 50.5978 56.2495L50.5973 56.249Z" fill="url(#paint6_linear_211_864)"/>
<path d="M74.4537 46.24C74.1839 47.8681 73.8185 49.689 73.4156 51.5336C73.3913 51.6431 73.3674 51.7525 73.343 51.862C73.091 53.0043 72.831 54.1486 72.5626 55.2621C72.4549 55.7087 72.3453 56.1493 72.2352 56.5824L72.2193 56.6406C72.1916 56.8045 72.1453 56.9801 72.1031 57.1398C71.0627 61.3056 70.1329 64.5813 70.0439 64.6205C69.9371 64.6708 69.8233 64.6871 69.7053 64.6559C68.611 64.3545 65.2473 64.1222 62.611 63.1367C60.3836 62.3203 58.5394 61.1188 56.624 59.582C56.3697 59.378 55.7991 58.8522 55.8984 58.536C56.0015 58.1877 56.1711 57.687 56.3851 57.0579C57.129 54.8695 58.4115 51.1061 59.3208 46.6153C59.4922 45.7789 59.6838 44.9565 59.8936 44.1508C60.4412 42.0523 61.1139 40.0815 61.8807 38.3551C63.3066 35.1482 65.0552 32.788 66.9237 32.0368C67.1669 31.9442 68.2648 32.8858 69.272 33.7567C70.2023 34.5605 71.2562 34.8986 72.3209 34.9601L73.0962 36.1118C74.026 37.5694 74.9647 39.4663 74.9301 41.9638C74.9282 42.1483 74.9207 42.3439 74.908 42.5506C74.8514 43.5617 74.6874 44.8284 74.4537 46.239V46.24Z" fill="url(#paint7_linear_211_864)"/>
<g style="mix-blend-mode:multiply" opacity="0.5">
<path d="M74.4536 46.2401C74.1838 47.8682 73.8184 49.6891 73.4156 51.5337C73.3912 51.6432 73.3673 51.7526 73.343 51.8621C67.5579 46.9726 67.6441 39.5781 67.6441 39.5781C70.7568 40.1705 73.1406 41.2486 74.908 42.5517C74.8513 43.5627 74.6873 44.8294 74.4536 46.2401Z" fill="#F8AC9B"/>
</g>
<path d="M90.085 51.7017C90.2888 50.7721 89.8227 50.5449 89.8227 50.5449C89.8227 50.5449 80.4757 47.4181 79.6967 47.0442C78.9182 46.6702 73.0006 38.4365 73.0006 38.4365C73.0006 38.4365 70.7667 35.0476 68.4789 35.3917C66.4904 35.6902 65.5292 37.0585 65.0692 38.4277C64.5207 40.0595 65.0496 41.859 66.3785 42.9613C69.361 45.4361 75.3418 50.3274 76.8206 51.0022C80.1118 52.5046 89.4859 52.9265 89.4859 52.9265C89.4859 52.9265 89.9253 52.4315 90.085 51.7017Z" fill="url(#paint8_linear_211_864)"/>
<path d="M112.694 69.2334C111.793 68.6969 107.887 66.7945 97.9559 66.8751C86.5802 66.9677 82.0234 69.2534 81.8838 69.3247C83.0019 68.6131 83.7439 67.3659 83.7439 65.9474C83.7439 65.5268 83.6788 65.1217 83.5579 64.7407H111.158C111.037 65.1221 110.972 65.5268 110.972 65.9474C110.972 67.3072 111.653 68.5092 112.695 69.2334H112.694Z" fill="#756F75"/>
<path d="M111.782 64.5433V65.824C111.782 65.9502 111.679 66.0536 111.552 66.0536H83.1636C83.0366 66.0536 82.9326 65.9507 82.9326 65.824V64.5433C82.9326 64.4176 83.0361 64.3137 83.1636 64.3137H111.552C111.679 64.3137 111.783 64.4171 111.783 64.5433H111.782Z" fill="#0A0005"/>
<path d="M107.276 63.1898C106.143 68.3471 101.017 71.6168 95.8292 70.4907C90.6414 69.3647 87.3531 64.268 88.4857 59.1107C89.6184 53.953 94.7448 50.6838 99.9321 51.8098C101.26 52.0981 102.463 52.6472 103.5 53.3891C106.481 55.5243 107.991 59.2528 107.3 63.066C107.292 63.1065 107.284 63.1498 107.275 63.1898H107.276Z" fill="#FFE280"/>
<path d="M103.58 66.8167C106.728 63.6873 106.728 58.6135 103.58 55.4841C100.432 52.3546 95.329 52.3546 92.1813 55.4841C89.0336 58.6135 89.0336 63.6873 92.1813 66.8167C95.329 69.9462 100.432 69.9462 103.58 66.8167Z" fill="#FCC207"/>
<path d="M103.112 66.3511C106.001 63.4788 106.001 58.822 103.112 55.9497C100.223 53.0774 95.5388 53.0774 92.6498 55.9497C89.7607 58.822 89.7607 63.4788 92.6498 66.3511C95.5388 69.2234 100.223 69.2234 103.112 66.3511Z" fill="#FFE280"/>
<path d="M100.121 61.6183C99.8652 61.201 99.3832 60.7749 98.6768 60.3418C98.3274 60.1313 98.0585 59.9543 97.8669 59.8123C97.6777 59.6707 97.5475 59.5505 97.4786 59.4537C97.4097 59.3568 97.3882 59.2492 97.4144 59.1286C97.4449 58.9903 97.5259 58.8995 97.6608 58.8525C97.7953 58.8077 98.0084 58.8171 98.3021 58.8809C98.9176 59.0145 99.5692 59.3354 100.259 59.8439L101.254 58.4296C100.584 57.9518 99.8882 57.616 99.1701 57.4176L99.3322 56.6799L98.1948 56.4331L98.0304 57.181C97.2374 57.0935 96.6092 57.1759 96.1473 57.4293C95.685 57.6849 95.3871 58.111 95.255 58.7132C95.1688 59.1058 95.1627 59.4476 95.2339 59.7401C95.3075 60.033 95.4634 60.3148 95.7 60.5905C95.9398 60.8643 96.2729 61.1367 96.701 61.4092C97.0809 61.6499 97.3798 61.8469 97.6023 62.0057C97.8224 62.1641 97.9733 62.2973 98.059 62.403C98.147 62.5092 98.1756 62.6209 98.1489 62.742C98.1105 62.9157 98.0121 63.0266 97.851 63.0704C97.6908 63.1123 97.4542 63.1002 97.1427 63.0326C96.7652 62.9507 96.3431 62.7825 95.878 62.5311C95.4105 62.2791 94.9889 62.0002 94.6128 61.6947L94.2151 63.5053C94.8863 63.9887 95.6204 64.3329 96.4125 64.5443L96.1886 65.5642L97.3259 65.811L97.5573 64.7585C98.3246 64.8298 98.9438 64.7166 99.4179 64.4186C99.8919 64.1205 100.196 63.6669 100.33 63.055C100.449 62.5134 100.38 62.0342 100.121 61.6187L100.121 61.6183Z" fill="#FCC207"/>
<path d="M96.843 55.0353C96.7994 54.8034 96.6134 54.6958 96.3909 54.6781C96.3422 54.6744 96.293 54.6753 96.2443 54.6702C96.3764 54.6842 96.0214 54.6553 96.0991 54.6506C95.9787 54.6576 95.841 54.6912 95.7253 54.7284C95.5197 54.795 95.3201 54.9026 95.1271 54.9971C94.8072 55.1541 94.4849 55.3166 94.1865 55.5122C93.8755 55.7162 93.5771 55.95 93.3143 56.2131C93.1691 56.3588 93.0459 56.5181 92.9372 56.6923C92.7939 56.9228 92.7316 57.1375 92.8557 57.3922C92.9105 57.504 93.0558 57.5543 93.171 57.5529C93.4075 57.5497 93.55 57.3825 93.7013 57.2283C93.8146 57.1124 93.9327 56.9983 94.0535 56.8902C94.0591 56.8856 94.0929 56.8558 94.1092 56.8422C94.1275 56.8269 94.1552 56.8059 94.1598 56.8022C94.225 56.7519 94.291 56.7035 94.3585 56.6569C94.4952 56.5624 94.6362 56.4757 94.7805 56.3924C95.0611 56.2308 95.3464 56.0808 95.6382 55.9406C95.6504 55.9346 95.7506 55.889 95.7881 55.8727C95.8785 55.8331 95.9708 55.7995 96.0621 55.7627C96.138 55.7325 96.2134 55.6994 96.2884 55.6668C96.3511 55.6486 96.405 55.6174 96.4514 55.5741C96.4879 55.5597 96.538 55.5336 96.5493 55.5294C96.7554 55.454 96.8828 55.2528 96.842 55.0348L96.843 55.0353Z" fill="#FFEFB1"/>
<path opacity="0.5" d="M115 73.0466V101.284C115 102.931 113.645 104.279 111.988 104.279H82.7935C82.54 104.279 82.2936 104.248 82.0576 104.19C81.5521 104.065 81.094 103.816 80.7207 103.476C80.4532 103.234 80.2293 102.945 80.0611 102.625C80.0522 102.607 80.0433 102.59 80.0349 102.572C79.8597 102.223 79.7506 101.837 79.7225 101.429C79.7173 101.359 79.715 101.289 79.715 101.218V73.2273C79.715 71.6434 80.5385 70.1788 81.881 69.326C81.881 69.326 81.8819 69.3256 81.8842 69.3242C83.0024 68.6126 83.7444 67.3654 83.7444 65.9469C83.7444 65.5263 83.6792 65.1212 83.5584 64.7402H111.158C111.037 65.1216 110.972 65.5263 110.972 65.9469C110.972 67.3067 111.653 68.5087 112.695 69.2329C112.695 69.2329 112.695 69.2329 112.696 69.2329C112.766 69.2809 112.837 69.3274 112.909 69.3708C114.202 70.1541 115.001 71.5405 115.001 73.0456L115 73.0466Z" fill="#F5F5FA"/>
<path d="M110.702 101.049C110.611 101.454 109.333 101.852 107.227 102.064C107.201 102.07 107.182 102.07 107.156 102.07C105.645 102.218 104.01 102.243 102.59 102.16C102.751 102.757 102.939 103.348 103.152 103.932C103.197 104.054 103.242 104.183 103.287 104.305C103.778 104.318 104.295 104.324 104.831 104.318C105.173 104.311 105.509 104.299 105.838 104.285C108.506 104.144 110.546 103.646 110.721 103.078C110.727 103.059 110.734 103.04 110.734 103.021L110.702 101.049V101.049Z" fill="#FCC207"/>
<path d="M110.45 100.696C110.25 100.831 109.959 100.953 109.584 101.062C108.699 101.325 107.369 101.518 105.838 101.601C105.509 101.614 105.173 101.627 104.83 101.633C103.978 101.646 103.17 101.627 102.441 101.575C102.486 101.774 102.538 101.967 102.589 102.16C104.01 102.243 105.644 102.218 107.155 102.07C107.181 102.07 107.2 102.07 107.226 102.064C109.332 101.852 110.611 101.453 110.701 101.049C110.708 101.036 110.708 101.017 110.708 101.004C110.701 100.895 110.624 100.792 110.449 100.695L110.45 100.696Z" fill="#FFE280"/>
<path d="M110.702 98.365C110.611 98.7757 109.333 99.1679 107.227 99.3798C107.201 99.3863 107.182 99.3863 107.156 99.3863C105.418 99.5595 103.519 99.5595 101.976 99.4315C102.021 99.6755 102.066 99.926 102.118 100.17C102.183 100.491 102.259 100.811 102.331 101.127C102.366 101.28 102.402 101.428 102.441 101.576C103.17 101.627 103.978 101.647 104.831 101.634C105.173 101.627 105.509 101.615 105.838 101.602C107.369 101.518 108.699 101.325 109.584 101.062C109.959 100.953 110.249 100.831 110.45 100.696C110.598 100.6 110.695 100.497 110.721 100.395C110.728 100.375 110.734 100.356 110.734 100.337L110.702 98.3655V98.365Z" fill="#FCC207"/>
<path d="M110.45 98.0115C110.25 98.1465 109.959 98.2685 109.584 98.3775C108.699 98.6406 107.369 98.8334 105.838 98.9168C105.509 98.9298 105.173 98.9424 104.83 98.9489C103.752 98.968 102.738 98.9233 101.866 98.8399C101.905 99.0388 101.937 99.2316 101.975 99.4309C103.519 99.5595 105.418 99.5595 107.155 99.3858C107.181 99.3858 107.2 99.3858 107.226 99.3792C109.332 99.1673 110.611 98.7757 110.701 98.3645C110.708 98.3514 110.708 98.3323 110.708 98.3193C110.701 98.2103 110.624 98.1074 110.449 98.011L110.45 98.0115Z" fill="#FFE280"/>
<path d="M110.702 95.6807C110.611 96.0914 109.333 96.4835 107.227 96.6954C107.201 96.702 107.182 96.702 107.156 96.702C105.257 96.8882 103.158 96.8752 101.55 96.7085C101.589 96.9846 101.847 98.7119 101.866 98.8405C102.738 98.9238 103.752 98.969 104.831 98.9495C105.173 98.9429 105.509 98.9304 105.839 98.9173C107.369 98.834 108.7 98.6412 109.585 98.378C109.959 98.2691 110.25 98.147 110.45 98.012C110.599 97.9156 110.696 97.8131 110.721 97.7102C110.728 97.6911 110.735 97.6716 110.735 97.6525L110.702 95.6811L110.702 95.6807Z" fill="#FCC207"/>
<path d="M110.45 95.3276C110.25 95.4622 109.959 95.5842 109.584 95.6936C108.699 95.9568 107.369 96.1496 105.838 96.2329C105.509 96.246 105.173 96.2585 104.831 96.2651C103.584 96.2842 102.428 96.2264 101.472 96.1044C101.491 96.3037 101.517 96.5091 101.549 96.7079C103.157 96.8751 105.257 96.8877 107.155 96.7014C107.181 96.7014 107.2 96.7014 107.227 96.6949C109.332 96.483 110.611 96.0914 110.701 95.6801C110.708 95.6671 110.708 95.648 110.708 95.635C110.701 95.526 110.624 95.4231 110.449 95.3267L110.45 95.3276Z" fill="#FFE280"/>
<path d="M110.702 92.9968C110.611 93.4076 109.333 93.7997 107.227 94.0116C107.201 94.0181 107.181 94.0181 107.156 94.0181C105.115 94.2174 102.848 94.1914 101.194 93.986C101.233 94.2878 101.453 95.9895 101.472 96.1049C102.428 96.227 103.584 96.2847 104.83 96.2656C105.173 96.2591 105.509 96.2465 105.838 96.2335C107.369 96.1501 108.699 95.9573 109.584 95.6942C109.959 95.5852 110.249 95.4632 110.45 95.3281C110.598 95.2317 110.695 95.1293 110.721 95.0264C110.727 95.0073 110.734 94.9877 110.734 94.9686L110.702 92.9973V92.9968Z" fill="#FCC207"/>
<path d="M110.424 92.6242C110.23 92.7654 109.926 92.8939 109.533 93.0094C108.654 93.2725 107.323 93.4653 105.793 93.5487C105.464 93.5617 105.128 93.5743 104.786 93.5808C103.397 93.6064 102.124 93.5296 101.117 93.3819C101.143 93.5808 101.168 93.7801 101.194 93.9855C102.848 94.1909 105.114 94.2165 107.156 94.0176C107.182 94.0176 107.201 94.0176 107.227 94.0111C109.333 93.7992 110.611 93.4076 110.702 92.9963C110.708 92.9833 110.708 92.9642 110.708 92.9512C110.702 92.8422 110.611 92.7328 110.424 92.6238V92.6242Z" fill="#FFE280"/>
<path d="M98.837 90.4219V90.4668C98.837 90.4518 98.8429 90.4368 98.8463 90.4219H98.837Z" fill="#FCC207"/>
<path d="M108.635 90.3315L110.644 90.3124C110.647 90.298 110.66 90.284 110.66 90.2695C110.658 90.1238 110.5 89.9775 110.166 89.8411C108.861 89.306 105.376 89.1081 102.384 89.3991C100.236 89.6082 98.9318 90.0125 98.8456 90.4218L108.635 90.3319L108.635 90.3315Z" fill="#FFE280"/>
<path d="M98.837 90.4834V90.4651C98.837 90.4712 98.8365 90.4773 98.837 90.4834Z" fill="#FFE280"/>
<path d="M99.3284 90.8949C100.633 91.43 104.118 91.6279 107.11 91.3368C107.133 91.3345 107.158 91.3322 107.181 91.3298C109.29 91.1189 110.562 90.7179 110.644 90.3127L98.8459 90.4217C98.8431 90.4362 98.837 90.4506 98.837 90.465V90.4832C98.8502 90.6234 99.0075 90.7631 99.3284 90.8949Z" fill="#FFE280"/>
<path d="M102.59 102.16C101.201 102.077 100.019 101.897 99.3729 101.633C99.037 101.492 98.882 101.351 98.882 101.203V103.219C98.882 103.238 98.8885 103.258 98.9012 103.277C99.0693 103.804 100.877 104.208 103.287 104.304C103.242 104.182 103.196 104.054 103.151 103.932C102.938 103.347 102.751 102.757 102.589 102.16H102.59Z" fill="#FFAB00"/>
<path d="M98.8824 101.158V101.204C98.8824 101.191 98.8824 101.171 98.8892 101.158H98.8824Z" fill="#FFAB00"/>
<path d="M102.441 101.576C101.362 101.492 100.445 101.345 99.8188 101.152C99.5345 101.068 99.3087 100.972 99.1537 100.863C98.9986 100.959 98.9082 101.062 98.889 101.158C98.8824 101.171 98.8824 101.19 98.8824 101.203C98.8824 101.351 99.0375 101.492 99.3734 101.633C100.019 101.896 101.201 102.076 102.59 102.16C102.539 101.967 102.487 101.775 102.442 101.576H102.441Z" fill="#FFC400"/>
<path d="M98.8824 98.4739V98.5204C98.8824 98.507 98.8824 98.4873 98.8892 98.4739H98.8824Z" fill="#FFAB00"/>
<path d="M102.331 101.126C102.259 100.81 102.183 100.49 102.118 100.17C102.067 99.9255 102.021 99.6749 101.976 99.4309C100.853 99.3345 99.9223 99.1738 99.3734 98.9494C99.0375 98.8082 98.8824 98.6667 98.8824 98.519V100.536C98.8824 100.555 98.889 100.574 98.9017 100.593C98.934 100.69 99.0178 100.786 99.1537 100.863C99.3087 100.972 99.5345 101.068 99.8188 101.152C100.446 101.344 101.362 101.492 102.441 101.575C102.402 101.428 102.366 101.28 102.331 101.126Z" fill="#FFAB00"/>
<path d="M101.866 98.84C101.04 98.7567 100.335 98.6281 99.8188 98.4675C99.5345 98.3841 99.3087 98.2877 99.1537 98.1787C98.9986 98.2751 98.9082 98.3776 98.889 98.474C98.8824 98.487 98.8824 98.5061 98.8824 98.5191C98.8824 98.6668 99.0375 98.8079 99.3734 98.9495C99.9223 99.1744 100.853 99.3346 101.976 99.431C101.938 99.2321 101.905 99.0393 101.867 98.84H101.866Z" fill="#FFC400"/>
<path d="M98.8824 95.79V95.8366C98.8824 95.8231 98.8824 95.8035 98.8892 95.79H98.8824Z" fill="#FFAB00"/>
<path d="M101.808 98.4483C101.757 98.1465 101.589 96.9841 101.55 96.7079C100.619 96.6115 99.8511 96.4574 99.3729 96.265C99.037 96.1239 98.882 95.9823 98.882 95.8347V97.8512C98.882 97.8703 98.8885 97.8899 98.9012 97.909C98.9335 98.0054 99.0173 98.1018 99.1532 98.1786C99.3082 98.2876 99.534 98.384 99.8183 98.4674C100.335 98.628 101.039 98.7561 101.866 98.8399C101.847 98.7114 101.827 98.5833 101.808 98.4483H101.808Z" fill="#FFAB00"/>
<path d="M101.472 96.1045C100.814 96.0276 100.252 95.9182 99.8188 95.7836C99.5345 95.7003 99.3087 95.6038 99.1537 95.4949C98.9986 95.5913 98.9082 95.6937 98.889 95.7901C98.8824 95.8032 98.8824 95.8223 98.8824 95.8353C98.8824 95.9829 99.0375 96.124 99.3734 96.2656C99.8511 96.4584 100.62 96.6126 101.55 96.7085C101.518 96.5097 101.492 96.3038 101.473 96.105L101.472 96.1045Z" fill="#FFC400"/>
<path d="M98.8824 93.1057V93.1523C98.8824 93.1388 98.8824 93.1191 98.8892 93.1057H98.8824Z" fill="#FFAB00"/>
<path d="M101.42 95.7639C101.388 95.4752 101.233 94.2872 101.194 93.9854C100.425 93.889 99.786 93.7479 99.3729 93.5807C99.037 93.4396 98.882 93.298 98.882 93.1504V95.1669C98.882 95.186 98.8885 95.2056 98.9012 95.2246C98.9335 95.321 99.0173 95.4175 99.1532 95.4943C99.3082 95.6033 99.534 95.6997 99.8183 95.783C100.251 95.9181 100.813 96.0271 101.472 96.1039C101.453 95.9884 101.44 95.879 101.42 95.7635V95.7639Z" fill="#FFAB00"/>
<path d="M101.117 93.3819C100.587 93.3051 100.135 93.2147 99.7734 93.0992C99.5022 93.0159 99.2825 92.926 99.1274 92.8296C98.9855 92.9195 98.9077 93.0159 98.8885 93.1058C98.882 93.1188 98.882 93.1379 98.882 93.1509C98.882 93.2986 99.037 93.4397 99.3729 93.5812C99.786 93.7484 100.425 93.8895 101.194 93.9859C101.168 93.7806 101.143 93.5812 101.117 93.3824V93.3819Z" fill="#FFC400"/>
<path d="M110.689 92.2903C110.689 92.3034 110.683 92.329 110.676 92.3416C110.644 92.438 110.557 92.5311 110.424 92.6242C110.227 92.7612 109.927 92.8939 109.533 93.0094C108.654 93.2725 107.323 93.4653 105.793 93.5487C105.464 93.5617 105.128 93.5743 104.786 93.5808C103.397 93.6064 102.124 93.5296 101.117 93.3819C100.587 93.3051 100.135 93.2148 99.7734 93.0993C99.5022 93.0159 99.2825 92.926 99.1275 92.8296C98.979 92.7397 98.8886 92.6433 98.8562 92.5409C98.8431 92.5218 98.837 92.5022 98.837 92.4897V90.4862C98.8502 90.6212 99.0047 90.7623 99.3279 90.8969C99.3991 90.9291 99.4835 90.9533 99.5734 90.9803C101.035 91.4232 104.289 91.6095 107.111 91.3398C107.137 91.3333 107.156 91.3333 107.182 91.3268C109.288 91.1214 110.56 90.7167 110.644 90.312H110.657L110.689 92.2899V92.2903Z" fill="#FCC207"/>
<path d="M101.117 93.3818C100.587 93.305 100.135 93.2147 99.7734 93.0992C99.5022 93.0158 99.2825 92.9259 99.1275 92.8295C98.979 92.7396 98.8886 92.6432 98.8562 92.5408C98.8431 92.5217 98.837 92.5021 98.837 92.4896V90.4861C98.8502 90.6211 99.0047 90.7622 99.3279 90.8968C99.3991 90.929 99.483 90.9546 99.5734 90.9802C99.735 92.3736 101.117 93.3818 101.117 93.3818Z" fill="#FFAB00"/>
<path d="M109.688 89.6378C109.688 89.6509 109.681 89.67 109.675 89.6825V89.6956C109.61 89.9266 109.235 90.145 108.635 90.3313C107.75 90.6074 106.381 90.8193 104.792 90.9027C104.462 90.9157 104.126 90.9283 103.784 90.9348C101.814 90.967 100.07 90.8002 98.9851 90.511C98.9335 90.5045 98.8815 90.4919 98.8366 90.4724C98.2745 90.3117 97.926 90.1129 97.8548 89.8944C97.8482 89.8879 97.8416 89.8754 97.8482 89.8688C97.8351 89.8558 97.8351 89.8497 97.8351 89.8367V87.7755L109.655 87.6665L109.687 89.6378H109.688Z" fill="#FCC207"/>
<path d="M106.108 88.6897C103.117 88.9808 99.6315 88.7829 98.3269 88.2478C97.0223 87.7127 98.3906 87.043 101.382 86.7519C104.374 86.4609 107.859 86.6588 109.164 87.1939C109.498 87.3308 109.656 87.4766 109.658 87.6223C109.662 88.0419 108.362 88.4518 106.179 88.6823C106.156 88.6846 106.131 88.6874 106.108 88.6897H106.108Z" fill="#FFE280"/>
<path d="M110.053 85.1787L110.087 87.1533C110.087 87.1715 110.082 87.192 110.074 87.2101C109.909 87.7797 107.859 88.2733 105.189 88.413C104.861 88.4289 104.526 88.4405 104.182 88.4461C101.038 88.4987 98.4572 88.0405 98.2511 87.4085C98.2426 87.3903 98.2356 87.3703 98.2356 87.3522V85.2895L110.053 85.1787Z" fill="#FCC207"/>
<path d="M106.507 86.2029C103.515 86.494 100.03 86.2961 98.7251 85.761C97.4205 85.2259 98.7888 84.5562 101.781 84.2651C104.772 83.974 108.258 84.172 109.562 84.7071C109.896 84.844 110.054 84.9897 110.056 85.1355C110.06 85.5551 108.76 85.9649 106.577 86.1955C106.554 86.1978 106.53 86.2006 106.506 86.2029H106.507Z" fill="#FFE280"/>
<path d="M110.705 82.5981L110.738 84.5727C110.738 84.5909 110.733 84.6114 110.725 84.6296C110.56 85.1991 108.511 85.6928 105.84 85.8325C105.513 85.8483 105.177 85.86 104.833 85.8655C101.689 85.9182 99.1083 85.4599 98.9022 84.8279C98.8937 84.8098 98.8867 84.7898 98.8867 84.7716V82.709L110.705 82.5981Z" fill="#FCC207"/>
<path d="M107.158 83.6219C104.166 83.9129 100.681 83.715 99.3762 83.1799C98.0717 82.6448 99.4399 81.9751 102.432 81.6841C105.424 81.393 108.909 81.5909 110.213 82.126C110.547 82.2629 110.706 82.4087 110.707 82.5545C110.712 82.9741 109.411 83.3839 107.228 83.6144C107.205 83.6167 107.181 83.6195 107.157 83.6219H107.158Z" fill="#FFE280"/>
<path d="M109.938 79.8855L109.971 81.8601C109.971 81.8783 109.966 81.8987 109.958 81.9169C109.793 82.4865 107.744 82.9801 105.073 83.1198C104.746 83.1357 104.41 83.1473 104.066 83.1529C100.922 83.2055 98.3414 82.7473 98.1353 82.1153C98.1269 82.0971 98.1199 82.0771 98.1199 82.0589V79.9963L109.938 79.8855Z" fill="#FCC207"/>
<path d="M106.391 80.9092C103.399 81.2003 99.9139 81.0024 98.6094 80.4673C97.3048 79.9322 98.6731 79.2625 101.665 78.9714C104.657 78.6803 108.142 78.8783 109.446 79.4134C109.78 79.5503 109.939 79.696 109.941 79.8418C109.945 80.2614 108.644 80.6712 106.462 80.9018C106.439 80.9041 106.414 80.9069 106.39 80.9087L106.391 80.9092Z" fill="#FFE280"/>
<path d="M104.046 80.8586C106.783 80.8125 108.994 80.363 108.985 79.8546C108.977 79.3462 106.751 78.9714 104.015 79.0174C101.278 79.0635 99.0671 79.513 99.0757 80.0214C99.0844 80.5298 101.31 80.9046 104.046 80.8586Z" fill="#FCC207"/>
<path d="M104.045 80.7831C106.556 80.7409 108.586 80.3282 108.578 79.8615C108.57 79.3947 106.528 79.0506 104.016 79.0929C101.504 79.1352 99.4747 79.5478 99.4827 80.0146C99.4906 80.4813 101.533 80.8254 104.045 80.7831Z" fill="#FFE280"/>
<path d="M100.026 101.706L100.06 103.68C100.06 103.699 100.054 103.719 100.047 103.737C99.8816 104.307 97.8323 104.8 95.1618 104.94C94.8344 104.956 94.4985 104.968 94.1547 104.973C91.0106 105.026 88.4301 104.568 88.224 103.936C88.2155 103.917 88.2085 103.897 88.2085 103.879V101.817L100.026 101.706Z" fill="#FCC207"/>
<path d="M96.4795 102.73C93.4876 103.021 90.0026 102.823 88.698 102.288C87.3934 101.753 88.7617 101.083 91.7535 100.792C94.7454 100.501 98.2304 100.699 99.535 101.234C99.869 101.371 100.027 101.517 100.029 101.663C100.033 102.082 98.7331 102.492 96.5502 102.723C96.5272 102.725 96.5024 102.728 96.479 102.73H96.4795Z" fill="#FFE280"/>
<path d="M100.026 99.022L100.06 100.997C100.06 101.015 100.054 101.035 100.047 101.053C99.8816 101.623 97.8323 102.117 95.1618 102.256C94.8344 102.272 94.4985 102.284 94.1547 102.289C91.0106 102.342 88.4301 101.884 88.224 101.252C88.2155 101.234 88.2085 101.214 88.2085 101.195V99.1328L100.026 99.022Z" fill="#FCC207"/>
<path d="M96.4795 100.046C93.4876 100.337 90.0026 100.139 88.698 99.6042C87.3934 99.0691 88.7617 98.3994 91.7535 98.1084C94.7454 97.8173 98.2304 98.0152 99.535 98.5503C99.869 98.6872 100.027 98.833 100.029 98.9788C100.033 99.3984 98.7331 99.8082 96.5502 100.039C96.5272 100.041 96.5024 100.044 96.479 100.046H96.4795Z" fill="#FFE280"/>
<path d="M100.026 96.3381L100.06 98.3127C100.06 98.3309 100.054 98.3514 100.047 98.3695C99.8816 98.9391 97.8323 99.4328 95.1618 99.5725C94.8344 99.5883 94.4985 99.5999 94.1547 99.6055C91.0106 99.6582 88.4301 99.1999 88.224 98.5679C88.2155 98.5498 88.2085 98.5297 88.2085 98.5116V96.449L100.026 96.3381Z" fill="#FCC207"/>
<path d="M96.4795 97.3623C93.4876 97.6534 90.0026 97.4555 88.698 96.9204C87.3934 96.3853 88.7617 95.7156 91.7535 95.4245C94.7454 95.1335 98.2304 95.3314 99.535 95.8665C99.869 96.0034 100.027 96.1492 100.029 96.2949C100.033 96.7145 98.7331 97.1244 96.5502 97.3549C96.5272 97.3572 96.5024 97.36 96.479 97.3623H96.4795Z" fill="#FFE280"/>
<path d="M99.9808 93.6545L100.015 95.6291C100.015 95.6473 100.009 95.6678 100.001 95.686C99.8361 96.2555 97.7867 96.7492 95.1163 96.8889C94.7888 96.9047 94.453 96.9163 94.1091 96.9219C90.9651 96.9746 88.3845 96.5163 88.1784 95.8843C88.17 95.8662 88.163 95.8462 88.163 95.828V93.7654L99.9808 93.6545Z" fill="#FCC207"/>
<path d="M96.4334 94.6787C93.4416 94.9698 89.9565 94.7719 88.652 94.2368C87.3474 93.7017 88.7157 93.032 91.7075 92.7409C94.6993 92.4499 98.1844 92.6478 99.489 93.1829C99.823 93.3198 99.9813 93.4656 99.9832 93.6113C99.9874 94.0309 98.687 94.4408 96.5042 94.6713C96.4812 94.6736 96.4564 94.6764 96.433 94.6787H96.4334Z" fill="#FFE280"/>
<path d="M98.9789 91.0081L99.0126 92.9827C99.0126 93.0008 99.007 93.0213 98.9995 93.0395C98.8341 93.609 96.7848 94.1027 94.1143 94.2424C93.7869 94.2582 93.451 94.2699 93.1072 94.2755C89.9631 94.3281 87.3826 93.8698 87.1765 93.2379C87.168 93.2197 87.161 93.1997 87.161 93.1815V91.1189L98.9789 91.0081Z" fill="#FCC207"/>
<path d="M95.432 92.0323C92.4401 92.3233 88.9551 92.1254 87.6505 91.5903C86.3459 91.0552 87.7142 90.3855 90.706 90.0945C93.6979 89.8034 97.1829 90.0013 98.4875 90.5364C98.8215 90.6733 98.9798 90.8191 98.9817 90.9649C98.9859 91.3845 97.6856 91.7943 95.5027 92.0248C95.4798 92.0271 95.4549 92.0299 95.4315 92.0323H95.432Z" fill="#FFE280"/>
<path d="M97.3324 88.5952L97.3661 90.5698C97.3661 90.588 97.3605 90.6085 97.353 90.6266C97.1877 91.1962 95.1383 91.6898 92.4678 91.8295C92.1404 91.8454 91.8045 91.857 91.4607 91.8626C88.3166 91.9152 85.7361 91.457 85.53 90.825C85.5216 90.8069 85.5145 90.7868 85.5145 90.7687V88.7061L97.3324 88.5952Z" fill="#FCC207"/>
<path d="M93.7855 89.6194C90.7937 89.9105 87.3086 89.7126 86.004 89.1775C84.6995 88.6424 86.0677 87.9727 89.0596 87.6816C92.0514 87.3905 95.5365 87.5885 96.841 88.1236C97.175 88.2605 97.3333 88.4062 97.3352 88.552C97.3394 88.9716 96.0391 89.3814 93.8562 89.612C93.8333 89.6143 93.8084 89.6171 93.785 89.6189L93.7855 89.6194Z" fill="#FFE280"/>
<path d="M91.4409 89.5693C94.1774 89.5232 96.3887 89.0737 96.38 88.5653C96.3714 88.0569 94.146 87.6821 91.4096 87.7281C88.6732 87.7742 86.4619 88.2237 86.4705 88.7321C86.4792 89.2405 88.7045 89.6153 91.4409 89.5693Z" fill="#FCC207"/>
<path d="M91.4397 89.4936C93.9513 89.4513 95.981 89.0387 95.973 88.5719C95.9651 88.1052 93.9226 87.7611 91.4109 87.8033C88.8993 87.8456 86.8696 88.2583 86.8776 88.725C86.8855 89.1918 88.928 89.5359 91.4397 89.4936Z" fill="#FFE280"/>
<path d="M99.0493 83.9325C98.3658 87.0439 95.2738 89.0162 92.1442 88.3367C89.0147 87.6572 87.0309 84.5826 87.7143 81.4717C88.3977 78.3603 91.4903 76.3881 94.6194 77.0675C95.4199 77.2412 96.146 77.5724 96.7713 78.0204C98.5696 79.3085 99.4807 81.5579 99.0638 83.858C99.0596 83.8827 99.0544 83.9083 99.0488 83.933L99.0493 83.9325Z" fill="#FFE280"/>
<path d="M96.82 86.1201C98.7188 84.2323 98.7188 81.1715 96.82 79.2837C94.9212 77.3959 91.8426 77.3959 89.9437 79.2837C88.0449 81.1715 88.0449 84.2323 89.9437 86.1201C91.8426 88.0079 94.9212 88.0079 96.82 86.1201Z" fill="#FCC207"/>
<path d="M96.5375 85.8392C98.2802 84.1065 98.2802 81.2973 96.5375 79.5646C94.7947 77.832 91.9691 77.832 90.2263 79.5646C88.4835 81.2973 88.4835 84.1065 90.2263 85.8392C91.9691 87.5719 94.7947 87.5719 96.5375 85.8392Z" fill="#FFE280"/>
<path d="M94.7332 82.9843C94.5786 82.7328 94.2877 82.4753 93.8619 82.214C93.6511 82.0869 93.489 81.9802 93.3733 81.8946C93.259 81.8093 93.1808 81.7367 93.1391 81.678C93.0974 81.6198 93.0843 81.5546 93.1007 81.4819C93.119 81.3986 93.1677 81.3436 93.2492 81.3152C93.3302 81.2882 93.4586 81.2938 93.6361 81.3324C94.0076 81.413 94.4006 81.6067 94.8165 81.9132L95.4171 81.06C95.0128 80.7717 94.5931 80.5692 94.1598 80.4495L94.2577 80.0042L93.5715 79.8552L93.4722 80.3065C92.9939 80.2534 92.6145 80.3032 92.3362 80.4565C92.0575 80.6106 91.8776 80.8677 91.798 81.2309C91.746 81.468 91.7423 81.6738 91.7854 81.8503C91.8299 82.0273 91.9236 82.1973 92.0664 82.3635C92.2112 82.5284 92.4121 82.6932 92.6702 82.8576C92.8993 83.0029 93.0796 83.1217 93.2141 83.2176C93.3466 83.3131 93.438 83.3937 93.4895 83.4575C93.5424 83.5217 93.5598 83.5888 93.5438 83.6619C93.5209 83.7667 93.4614 83.8333 93.3644 83.8603C93.2675 83.8854 93.1251 83.8785 92.9372 83.8375C92.7096 83.7881 92.4547 83.6866 92.1742 83.5348C91.8922 83.383 91.6378 83.2144 91.4111 83.0299L91.1713 84.122C91.5765 84.4136 92.0191 84.6213 92.4969 84.7489L92.362 85.3641L93.0482 85.5131L93.1878 84.8783C93.6506 84.9216 94.0244 84.8532 94.3102 84.673C94.5964 84.4932 94.7795 84.2194 94.8606 83.8501C94.9322 83.5236 94.8901 83.2339 94.7341 82.9838L94.7332 82.9843Z" fill="#FCC207"/>
<path d="M92.7559 79.0132C92.7297 78.8735 92.6172 78.8083 92.4833 78.7976C92.4542 78.7952 92.4242 78.7957 92.3947 78.7929C92.4744 78.8013 92.2603 78.784 92.3071 78.7812C92.2345 78.7854 92.1516 78.8055 92.0818 78.8283C91.9577 78.8688 91.8373 78.9331 91.7207 78.9904C91.5277 79.0849 91.3333 79.1832 91.1534 79.301C90.9656 79.4239 90.7857 79.565 90.6274 79.7238C90.5398 79.8119 90.4653 79.9078 90.3997 80.013C90.3131 80.1523 90.2756 80.2818 90.3505 80.4354C90.3833 80.503 90.4714 80.5332 90.5407 80.5323C90.6831 80.5304 90.7693 80.4294 90.8606 80.3362C90.929 80.2664 91.0002 80.1975 91.0733 80.1323C91.0766 80.1295 91.0972 80.1118 91.107 80.1034C91.1183 80.0941 91.1347 80.0815 91.1375 80.0792C91.1768 80.0489 91.2166 80.0196 91.2574 79.9916C91.3398 79.9348 91.4251 79.8822 91.5118 79.8324C91.6809 79.735 91.8532 79.6447 92.0289 79.5599C92.0364 79.5562 92.0968 79.5287 92.1193 79.5189C92.1736 79.4952 92.2294 79.4747 92.2847 79.4528C92.3306 79.4346 92.376 79.4146 92.421 79.3951C92.4589 79.3843 92.4912 79.3653 92.5193 79.3392C92.5414 79.3308 92.5718 79.315 92.5784 79.3122C92.703 79.2665 92.7798 79.1454 92.755 79.0136L92.7559 79.0132Z" fill="#FFEFB1"/>
<path d="M113.078 100.259C112.395 103.371 109.303 105.343 106.173 104.663C103.043 103.984 101.06 100.909 101.743 97.7984C102.427 94.687 105.519 92.7147 108.648 93.3942C109.449 93.5679 110.175 93.899 110.8 94.347C112.598 95.6352 113.509 97.8845 113.093 100.185C113.088 100.209 113.083 100.235 113.078 100.26L113.078 100.259Z" fill="#FFE280"/>
<path d="M110.849 102.447C112.748 100.559 112.748 97.4987 110.849 95.6109C108.95 93.7231 105.871 93.7231 103.973 95.6109C102.074 97.4987 102.074 100.559 103.973 102.447C105.871 104.335 108.95 104.335 110.849 102.447Z" fill="#FCC207"/>
<path d="M110.566 102.166C112.309 100.434 112.309 97.6244 110.566 95.8918C108.823 94.1591 105.998 94.1591 104.255 95.8918C102.512 97.6244 102.512 100.434 104.255 102.166C105.998 103.899 108.823 103.899 110.566 102.166Z" fill="#FFE280"/>
<path d="M108.762 99.3112C108.608 99.0597 108.317 98.8022 107.891 98.5409C107.68 98.4138 107.518 98.3071 107.403 98.2215C107.288 98.1362 107.21 98.0636 107.168 98.0049C107.127 97.9467 107.114 97.8815 107.13 97.8088C107.148 97.7255 107.197 97.6705 107.278 97.6421C107.36 97.6151 107.488 97.6207 107.665 97.6594C108.037 97.7399 108.43 97.9337 108.846 98.2401L109.446 97.3869C109.042 97.0986 108.622 96.8961 108.189 96.7764L108.287 96.3312L107.601 96.1821L107.501 96.6334C107.023 96.5803 106.644 96.6301 106.366 96.7834C106.087 96.9375 105.907 97.1946 105.827 97.5578C105.775 97.7949 105.772 98.0007 105.815 98.1772C105.859 98.3542 105.953 98.5242 106.096 98.6904C106.24 98.8553 106.441 99.0201 106.7 99.1845C106.929 99.3298 107.109 99.4486 107.243 99.5445C107.376 99.64 107.467 99.7206 107.519 99.7844C107.572 99.8486 107.589 99.9157 107.573 99.9888C107.55 100.094 107.491 100.16 107.394 100.187C107.297 100.212 107.154 100.205 106.967 100.164C106.739 100.115 106.484 100.013 106.203 99.8617C105.921 99.7099 105.667 99.5413 105.44 99.3569L105.201 100.449C105.606 100.74 106.048 100.948 106.526 101.076L106.391 101.691L107.078 101.84L107.217 101.205C107.68 101.249 108.054 101.18 108.339 101C108.626 100.82 108.809 100.546 108.89 100.177C108.962 99.8505 108.919 99.5608 108.763 99.3107L108.762 99.3112Z" fill="#FCC207"/>
<path d="M106.785 95.3401C106.759 95.2004 106.646 95.1352 106.512 95.1245C106.483 95.1221 106.453 95.1226 106.424 95.1198C106.503 95.1282 106.289 95.1109 106.336 95.1082C106.263 95.1123 106.181 95.1324 106.111 95.1552C105.987 95.1957 105.866 95.26 105.75 95.3173C105.557 95.4118 105.362 95.5101 105.182 95.6279C104.994 95.7508 104.815 95.8919 104.656 96.0507C104.569 96.1388 104.494 96.2347 104.429 96.3399C104.342 96.4792 104.305 96.6087 104.379 96.7623C104.412 96.8299 104.5 96.8601 104.57 96.8592C104.712 96.8573 104.798 96.7563 104.89 96.6631C104.958 96.5933 105.029 96.5244 105.102 96.4592C105.106 96.4564 105.126 96.4387 105.136 96.4303C105.147 96.421 105.164 96.4084 105.166 96.4061C105.206 96.3758 105.246 96.3465 105.286 96.3185C105.369 96.2617 105.454 96.2091 105.541 96.1593C105.71 96.0619 105.882 95.9716 106.058 95.8868C106.065 95.8831 106.126 95.8556 106.148 95.8458C106.203 95.8221 106.258 95.8016 106.314 95.7797C106.359 95.7615 106.405 95.7415 106.45 95.722C106.488 95.7112 106.52 95.6921 106.548 95.6661C106.57 95.6577 106.601 95.6419 106.607 95.6391C106.732 95.5934 106.809 95.4723 106.784 95.3405L106.785 95.3401Z" fill="#FFEFB1"/>
<defs>
<linearGradient id="paint0_linear_211_864" x1="77.2642" y1="25.4433" x2="65.9244" y2="23.7753" gradientUnits="userSpaceOnUse">
<stop stop-color="#756F75"/>
<stop offset="1" stop-color="#0A0005"/>
</linearGradient>
<linearGradient id="paint1_linear_211_864" x1="45.243" y1="100.299" x2="38.8595" y2="99.3601" gradientUnits="userSpaceOnUse">
<stop stop-color="#FFED9A"/>
<stop offset="0.98" stop-color="#FFDF00"/>
</linearGradient>
<linearGradient id="paint2_linear_211_864" x1="65.8189" y1="104.856" x2="57.3186" y2="103.605" gradientUnits="userSpaceOnUse">
<stop stop-color="#FFED9A"/>
<stop offset="0.98" stop-color="#FFDF00"/>
</linearGradient>
<linearGradient id="paint3_linear_211_864" x1="67.5196" y1="82.1579" x2="55.6506" y2="80.412" gradientUnits="userSpaceOnUse">
<stop stop-color="#756F75"/>
<stop offset="1" stop-color="#0A0005"/>
</linearGradient>
<linearGradient id="paint4_linear_211_864" x1="68.7316" y1="73.9182" x2="56.8625" y2="72.1724" gradientUnits="userSpaceOnUse">
<stop stop-color="#756F75"/>
<stop offset="1" stop-color="#0A0005"/>
</linearGradient>
<linearGradient id="paint5_linear_211_864" x1="65.9219" y1="79.5477" x2="43.4752" y2="76.246" gradientUnits="userSpaceOnUse">
<stop stop-color="#756F75"/>
<stop offset="1" stop-color="#0A0005"/>
</linearGradient>
<linearGradient id="paint6_linear_211_864" x1="66.6543" y1="46.3112" x2="51.3155" y2="44.055" gradientUnits="userSpaceOnUse">
<stop stop-color="#FFED9A"/>
<stop offset="0.98" stop-color="#FFDF00"/>
</linearGradient>
<linearGradient id="paint7_linear_211_864" x1="74.0319" y1="49.1813" x2="57.6282" y2="46.7684" gradientUnits="userSpaceOnUse">
<stop stop-color="#FFED9A"/>
<stop offset="0.98" stop-color="#FFDF00"/>
</linearGradient>
<linearGradient id="paint8_linear_211_864" x1="90.9231" y1="46.0527" x2="64.4548" y2="42.1593" gradientUnits="userSpaceOnUse">
<stop stop-color="#FFED9A"/>
<stop offset="0.98" stop-color="#FFDF00"/>
</linearGradient>
</defs>
</svg>
