<svg width="27" height="27" viewBox="0 0 27 27" fill="none" xmlns="http://www.w3.org/2000/svg">
<path d="M13.6506 0.153076C6.4054 0.153076 0.529297 4.70196 0.529297 10.3116C0.529297 14.9447 4.53797 18.854 10.0141 20.0739L8.13439 24.8256C8.13439 24.8256 7.82982 26.9846 9.47882 26.239C10.4079 25.8178 13.3983 22.8445 15.8318 20.3267C22.0402 19.5248 26.7718 15.3441 26.7718 10.3116C26.7718 4.70196 20.8957 0.153076 13.6506 0.153076ZM8.46666 13.9651C7.8852 14.43 7.15607 14.664 6.3008 14.664C5.40554 14.664 4.56258 14.4112 3.79346 13.912L3.50427 13.7249L4.27339 12.0588L4.63334 12.3365C5.16865 12.7514 5.73473 12.9542 6.36233 12.9542C6.78997 12.9542 7.12223 12.8637 7.34989 12.6859C7.54678 12.5299 7.63908 12.3365 7.63908 12.0775C7.63908 11.6282 7.22068 11.2632 6.3931 10.9887C4.74717 10.4489 3.91344 9.57532 3.91344 8.38662C3.91344 7.66279 4.19648 7.0544 4.75333 6.58641C5.28556 6.14026 5.97469 5.9125 6.80227 5.9125C7.61139 5.9125 8.32514 6.10594 8.92813 6.48345L9.24193 6.68001L8.46666 8.1495L8.14978 7.98727C7.67907 7.74703 7.22067 7.62535 6.78689 7.62535C6.41771 7.62535 6.12237 7.70647 5.91009 7.86559C5.67627 8.0403 5.65166 8.20254 5.65166 8.30862C5.65166 8.80157 6.32849 9.12917 6.89764 9.31636C7.7806 9.60652 8.3959 9.94347 8.78046 10.3491C9.18656 10.7796 9.39268 11.3443 9.39268 12.0307C9.39268 12.8232 9.08196 13.4721 8.46666 13.9651ZM23.2308 13.9651C22.6493 14.43 21.9202 14.664 21.0649 14.664C20.1696 14.664 19.3267 14.4112 18.5576 13.912L18.3514 13.7779L18.4037 14.5173H16.6932L16.3702 9.85611L14.5212 14.5173H13.3644L11.5124 9.85611L11.1924 14.5173H9.4819L10.0726 6.05602H11.7093L13.9428 11.7936L16.1764 6.05602H17.813L18.3361 13.5751L19.0375 12.0557L19.3974 12.3334C19.9328 12.7483 20.4988 12.9511 21.1264 12.9511C21.5541 12.9511 21.8863 12.8606 22.114 12.6828C22.3109 12.5268 22.4032 12.3334 22.4032 12.0744C22.4032 11.6251 21.9848 11.2601 21.1572 10.9855C19.5113 10.4489 18.6775 9.57532 18.6775 8.38662C18.6775 7.66279 18.9606 7.0544 19.5174 6.58641C20.0497 6.14026 20.7388 5.9125 21.5664 5.9125C22.3755 5.9125 23.0892 6.10594 23.6922 6.48345L24.006 6.68001L23.2338 8.1495L22.917 7.98727C22.4463 7.74703 21.9879 7.62535 21.5541 7.62535C21.1849 7.62535 20.8895 7.70647 20.6773 7.86559C20.4435 8.0403 20.4188 8.20254 20.4188 8.30862C20.4188 8.80157 21.0957 9.12917 21.6648 9.31636C22.5478 9.60652 23.1631 9.94347 23.5476 10.3491C23.9537 10.7796 24.1599 11.3443 24.1599 12.0307C24.1599 12.8232 23.8461 13.4721 23.2308 13.9651Z" fill="black"/>
</svg>
