<svg width="195" height="46" viewBox="0 0 195 46" fill="none" xmlns="http://www.w3.org/2000/svg">
<g clip-path="url(#clip0_413_2520)">
<path d="M23.1609 40.5315C27.3257 47.7998 34.1381 47.7998 38.3028 40.5315L40.632 36.4653L19.787 0H0L23.1609 40.5315Z" fill="#FFDD00"/>
<path d="M67.0602 24.954C65.5391 27.6032 61.9572 27.6005 60.44 24.9487L46.16 0H26.3796L49.5642 40.5448C53.7277 47.8131 60.5269 47.8131 64.6903 40.5448L80.2073 13.3909L72.5712 0H52.8L67.0602 24.954Z" fill="#FFDD00"/>
<path d="M92.9602 21.4395H97.0171L97.0513 21.3119C99.5541 11.9327 100.58 7.92897 100.998 5.44726C101.403 7.921 102.378 11.9845 104.77 21.3105L104.803 21.4408H108.948L114.718 0H110.944L110.912 0.130266C108.403 9.86436 107.447 13.8056 107.014 16.3165C106.51 13.6182 105.423 9.16517 103.075 0.130266L103.043 0.00132925H99.0988L99.0659 0.131596C96.6249 9.76998 95.6025 13.896 95.1656 16.5757C94.6866 13.9638 93.6115 9.63573 91.1732 0.130266L91.1403 0H87.2216L92.9273 21.3119L92.9615 21.4395H92.9602Z" fill="#FFDD00"/>
<path d="M121.128 21.7374C124.194 21.7374 127.096 20.0493 128.256 17.5343L125.457 16.0974L125.398 16.0908L125.345 16.2011C125.006 16.9123 123.764 18.5685 121.157 18.5685C118.79 18.5685 116.99 17.0465 116.713 14.8453H128.767L128.771 14.6765C128.844 11.6724 128.036 9.2066 126.435 7.5477C125.045 6.10945 123.131 5.34912 120.896 5.34912C118.662 5.34912 116.68 6.18788 115.237 7.71253C113.808 9.22122 113.021 11.3028 113.021 13.5732C113.021 18.3811 116.354 21.7374 121.128 21.7374ZM120.896 8.45824C123.131 8.45824 124.827 9.90047 124.999 11.9143H116.713C116.967 9.90047 118.696 8.45824 120.896 8.45824Z" fill="#FFDD00"/>
<path d="M136.392 21.737C140.339 21.737 142.79 19.884 142.79 16.8999C142.79 13.3627 139.607 12.528 137.049 11.8567C135.282 11.3928 133.755 10.9927 133.755 9.85883C133.755 8.94696 134.709 8.30892 136.074 8.30892C137.567 8.30892 138.6 9.10514 138.771 10.3865L138.877 11.0352L138.948 11.0233L142.086 10.4384C142.086 7.46618 139.482 5.37793 136.104 5.37793C132.726 5.37793 130.198 7.31863 130.198 10.0968C130.198 13.4531 133.288 14.2892 135.77 14.9605C137.566 15.447 139.119 15.8657 139.119 17.0487C139.119 18.0776 138.119 18.7169 136.511 18.7169C134.576 18.7169 133.278 17.8091 133.118 16.3456L133.089 16.1063L129.766 16.7443C129.766 19.9983 133.374 21.7383 136.395 21.7383L136.392 21.737Z" fill="#FFDD00"/>
<path d="M145.6 18.5219C145.6 20.2964 146.712 21.736 148.552 21.736C150.837 21.736 151.508 21.4396 151.508 21.4396V18.4501C151.508 18.4501 150.822 18.5644 149.989 18.5644C149.451 18.5644 149.072 18.2361 149.072 17.739V8.69475H151.483L151.45 5.67469H149.072V1.18848L145.6 2.06711V5.67469H143.788L143.777 8.69475H145.6V18.5219Z" fill="#FFDD00"/>
<path d="M172.821 7.66836V5.67449H169.765V21.4394H173.438L173.408 11.797C173.456 10.828 173.778 10.0849 174.366 9.58913C175.137 8.93912 176.34 8.71714 177.936 8.92982L178.128 8.95507L178.161 5.66518L178.011 5.64391C175.81 5.34084 173.817 6.02009 172.821 7.66703V7.66836Z" fill="#FFDD00"/>
<path d="M188.124 5.34766C185.916 5.34766 183.846 6.23692 182.821 7.9264V5.67465H179.64V21.4395H183.343V12.9775C183.343 10.2579 184.751 8.63489 187.111 8.63489C188.724 8.63489 190.646 9.34737 190.646 12.7396V21.4395H194.349V12.2345C194.349 7.15676 191.135 5.34766 188.125 5.34766H188.124Z" fill="#FFDD00"/>
<path d="M102.217 36.8256C102.217 40.469 100.509 42.4749 97.4079 42.4749C94.3063 42.4749 92.6273 40.469 92.6273 36.8256V24.2642H88.8954V36.7365C88.8954 42.5373 92.0772 46 97.4079 46C102.739 46 105.92 42.5373 105.92 36.7365V24.2642H102.217V36.8256Z" fill="#FFDD00"/>
<path d="M116.611 29.6104C114.401 29.6104 112.333 30.4996 111.308 32.1891V29.9373H108.127V45.7022H111.83V37.2402C111.83 34.5206 113.238 32.8976 115.597 32.8976C117.211 32.8976 119.133 33.6101 119.133 37.0023V45.7022H122.836V36.4972C122.836 31.4195 119.621 29.6104 116.612 29.6104H116.611Z" fill="#FFDD00"/>
<path d="M128.802 29.9375H125.128V45.7024H128.802V29.9375Z" fill="#FFDD00"/>
<path d="M126.98 24.1274C125.78 24.1274 124.839 25.0619 124.839 26.2542C124.839 27.4466 125.799 28.3531 126.98 28.3531C128.16 28.3531 129.092 27.412 129.092 26.2542C129.092 25.0965 128.144 24.1274 126.98 24.1274Z" fill="#FFDD00"/>
<path d="M138.739 29.6104C136.453 29.6104 134.363 30.4398 132.855 31.9445C131.347 33.4492 130.516 35.5308 130.516 37.8052C130.516 42.5533 133.974 46 138.739 46C143.503 46 146.991 42.5533 146.991 37.8052C146.991 35.5282 146.159 33.4466 144.648 31.9445C143.135 30.4398 141.037 29.6104 138.74 29.6104H138.739ZM138.739 42.5931C136.096 42.5931 134.103 40.5341 134.103 37.8052C134.103 35.0762 136.096 33.0172 138.739 33.0172C141.381 33.0172 143.432 35.0762 143.432 37.8052C143.432 40.5341 141.414 42.5931 138.739 42.5931Z" fill="#FFDD00"/>
<path d="M157.189 29.6104C154.981 29.6104 152.911 30.4996 151.886 32.1891V29.9373H148.705V45.7022H152.408V37.2402C152.408 34.5206 153.816 32.8976 156.175 32.8976C157.789 32.8976 159.711 33.6101 159.711 37.0023V45.7022H163.414V36.4972C163.414 31.4195 160.199 29.6104 157.19 29.6104H157.189Z" fill="#FFDD00"/>
<path d="M160.305 5.34766C158.099 5.34766 156.089 6.18641 154.645 7.71106C153.216 9.21976 152.429 11.3014 152.429 13.5717C152.429 18.3796 155.762 21.736 160.536 21.736C163.602 21.736 166.504 20.0478 167.664 17.5329L164.865 16.096L164.806 16.0893L164.754 16.1996C164.414 16.9108 163.172 18.567 160.565 18.567C158.198 18.567 156.398 17.0451 156.121 14.8438H168.175L168.179 14.675C168.253 11.6709 167.445 9.20514 165.842 7.54623C164.452 6.10799 162.538 5.34766 160.303 5.34766H160.305ZM156.121 11.9128C156.375 9.89901 158.104 8.45677 160.305 8.45677C162.505 8.45677 164.235 9.89901 164.408 11.9128H156.121Z" fill="#FFDD00"/>
</g>
<defs>
<clipPath id="clip0_413_2520">
<rect width="195" height="46" fill="white"/>
</clipPath>
</defs>
</svg>
