<svg width="40" height="40" viewBox="0 0 40 40" fill="none" xmlns="http://www.w3.org/2000/svg">
<path fill-rule="evenodd" clip-rule="evenodd" d="M27.1584 4.82446C22.2407 3.72518 17.1409 3.72518 12.2232 4.82446L11.6933 4.94169C10.31 5.25096 9.03952 5.93766 8.02299 6.9255C7.00645 7.91333 6.28367 9.16363 5.93492 10.5375C4.68836 15.4495 4.68836 20.5951 5.93492 25.5071C6.2675 26.8174 6.94061 28.0164 7.886 28.9827C8.8314 29.9489 10.0155 30.648 11.3182 31.0091L12.045 35.3482C12.0682 35.486 12.1279 35.6151 12.2179 35.7219C12.3079 35.8288 12.4249 35.9096 12.5568 35.9559C12.6886 36.0022 12.8304 36.0123 12.9675 35.9851C13.1046 35.958 13.2319 35.8946 13.3361 35.8015L17.6049 31.9829C20.8093 32.1785 24.0253 31.9222 27.1584 31.2217L27.6898 31.1045C29.0731 30.7952 30.3436 30.1085 31.3601 29.1207C32.3767 28.1328 33.0995 26.8825 33.4482 25.5087C34.6946 20.5966 34.6946 15.4511 33.4482 10.5391C33.0993 9.165 32.3763 7.91456 31.3595 6.9267C30.3427 5.93885 29.0719 5.25227 27.6883 4.94325L27.1584 4.82446ZM13.5424 10.4109C13.2519 10.3686 12.9557 10.4271 12.703 10.5766H12.6812C12.095 10.9205 11.5667 11.3534 11.1165 11.863C10.7414 12.296 10.5382 12.7336 10.485 13.1557C10.4538 13.4058 10.4757 13.659 10.5491 13.8981L10.5773 13.9138C10.9993 15.1533 11.5495 16.3459 12.2216 17.4682C13.0883 19.0445 14.1548 20.5024 15.3947 21.8057L15.4322 21.8589L15.4916 21.9026L15.5275 21.9448L15.5713 21.9824C16.8792 23.226 18.3405 24.2976 19.9198 25.171C21.7251 26.1542 22.8208 26.6185 23.4789 26.8123V26.8217C23.6712 26.881 23.8462 26.9076 24.0229 26.9076C24.5833 26.8662 25.1137 26.6384 25.5297 26.2605C26.0377 25.8103 26.4675 25.2805 26.802 24.6912V24.6802C27.1162 24.0863 27.0099 23.5267 26.5566 23.1469C25.6461 22.3513 24.6616 21.6447 23.6165 21.0367C22.9162 20.6569 22.205 20.8866 21.9174 21.2712L21.3031 22.0464C20.9874 22.431 20.4153 22.3778 20.4153 22.3778L20.3996 22.3872C16.1309 21.2977 14.9914 16.9758 14.9914 16.9758C14.9914 16.9758 14.9382 16.3881 15.3337 16.088L16.1027 15.469C16.4716 15.1689 16.728 14.4593 16.3325 13.759C15.7285 12.7129 15.0233 11.7287 14.227 10.8204C14.0534 10.6067 13.8098 10.4611 13.5393 10.4093L13.5424 10.4109ZM20.7545 8.53208C20.5472 8.53208 20.3484 8.61442 20.2018 8.76099C20.0553 8.90755 19.9729 9.10634 19.9729 9.31362C19.9729 9.5209 20.0553 9.71968 20.2018 9.86625C20.3484 10.0128 20.5472 10.0952 20.7545 10.0952C22.7318 10.0952 24.373 10.7407 25.6719 11.9787C26.3393 12.6555 26.8598 13.4573 27.2006 14.3358C27.5429 15.2158 27.6992 16.1552 27.6586 17.0962C27.6543 17.1988 27.6702 17.3013 27.7055 17.3978C27.7408 17.4942 27.7947 17.5828 27.8643 17.6584C28.0047 17.8112 28.2 17.9018 28.4073 17.9105C28.6146 17.9193 28.8168 17.8453 28.9695 17.7048C29.1223 17.5644 29.2129 17.3691 29.2217 17.1618C29.2701 16.0043 29.078 14.8494 28.6574 13.77C28.2349 12.6854 27.5944 11.6991 26.7754 10.872L26.7598 10.8564C25.1483 9.31675 23.1085 8.53208 20.7545 8.53208ZM20.7013 11.1018C20.494 11.1018 20.2952 11.1841 20.1487 11.3307C20.0021 11.4773 19.9198 11.676 19.9198 11.8833C19.9198 12.0906 20.0021 12.2894 20.1487 12.436C20.2952 12.5825 20.494 12.6649 20.7013 12.6649H20.7279C22.1534 12.7665 23.1913 13.2416 23.9181 14.0216C24.6637 14.825 25.0498 15.8238 25.0201 17.0587C25.0153 17.2659 25.0931 17.4666 25.2363 17.6166C25.3795 17.7665 25.5764 17.8534 25.7837 17.8582C25.9909 17.863 26.1916 17.7852 26.3416 17.642C26.4915 17.4988 26.5784 17.3019 26.5832 17.0946C26.6207 15.4737 26.0986 14.0748 25.0639 12.9587V12.9556C24.0057 11.8208 22.5536 11.2206 20.806 11.1033L20.7795 11.1002L20.7013 11.1018ZM20.6716 13.7199C20.567 13.7107 20.4616 13.7226 20.3618 13.755C20.2619 13.7874 20.1696 13.8396 20.0903 13.9085C20.0111 13.9774 19.9465 14.0615 19.9005 14.1559C19.8544 14.2502 19.8279 14.3529 19.8224 14.4578C19.817 14.5626 19.8327 14.6675 19.8687 14.7662C19.9046 14.8648 19.9601 14.9552 20.0318 15.0319C20.1035 15.1087 20.1899 15.1702 20.2858 15.2128C20.3818 15.2554 20.4854 15.2782 20.5903 15.2799C21.2437 15.3143 21.661 15.5112 21.9236 15.7754C22.1878 16.0411 22.3847 16.4678 22.4207 17.1353C22.4227 17.2401 22.4457 17.3436 22.4885 17.4393C22.5312 17.5351 22.5928 17.6213 22.6696 17.6928C22.7464 17.7643 22.8368 17.8195 22.9354 17.8553C23.034 17.8911 23.1388 17.9067 23.2435 17.9012C23.3483 17.8956 23.4509 17.869 23.5451 17.823C23.6394 17.7769 23.7234 17.7124 23.7922 17.6332C23.861 17.554 23.9131 17.4617 23.9455 17.362C23.9779 17.2622 23.9898 17.1569 23.9806 17.0524C23.9306 16.1146 23.6368 15.2861 23.035 14.6765C22.4301 14.0669 21.6063 13.77 20.6716 13.7199Z" fill="#0A0005"/>
</svg>
