<svg width="28" height="28" viewBox="0 0 28 28" fill="none" xmlns="http://www.w3.org/2000/svg">
<path fill-rule="evenodd" clip-rule="evenodd" d="M27.5034 13.3625C27.3265 6.34898 21.5483 0.718506 14.4375 0.718506C7.41135 0.718506 1.68369 6.22069 1.37752 13.1234C1.37169 13.313 1.36489 13.5025 1.36489 13.693C1.36489 16.1472 2.05011 18.4361 3.23783 20.3946L0.881836 27.3527L8.12184 25.0511C9.99478 26.0795 12.1486 26.6665 14.4375 26.6665C21.6591 26.6665 27.5102 20.8582 27.5102 13.692C27.5092 13.5832 27.5092 13.4733 27.5034 13.3625ZM14.4375 24.5992C12.204 24.5992 10.1289 23.9383 8.39108 22.7943L4.16798 24.1405L5.53842 20.0894C4.22241 18.2903 3.44583 16.0811 3.44583 13.694C3.44583 13.3392 3.46429 12.9845 3.50122 12.6355C4.03968 7.11489 8.74 2.78777 14.4375 2.78777C20.2089 2.78777 24.952 7.2247 25.3923 12.8425C25.4166 13.1244 25.4293 13.4053 25.4293 13.693C25.4293 19.7093 20.4957 24.5992 14.4375 24.5992Z" fill="black"/>
<path fill-rule="evenodd" clip-rule="evenodd" d="M20.4295 16.3117C20.1049 16.1523 18.5323 15.3816 18.2388 15.2776C17.9452 15.1677 17.7304 15.1182 17.5166 15.437C17.3028 15.7548 16.6846 16.4711 16.5009 16.6791C16.3114 16.8929 16.1277 16.9182 15.8031 16.7588C15.4852 16.5994 14.4501 16.2689 13.2264 15.1794C12.2778 14.3406 11.6295 13.3006 11.4458 12.9828C11.2621 12.665 11.4274 12.4929 11.5868 12.3345C11.7335 12.1877 11.9046 11.9613 12.0698 11.7776C12.1126 11.7222 12.1495 11.6736 12.1865 11.624C12.2603 11.5074 12.3147 11.3976 12.3886 11.244C12.4984 11.0302 12.444 10.8465 12.3643 10.6871C12.2846 10.5277 11.6422 8.96088 11.373 8.32523C11.1096 7.68861 10.8403 7.79845 10.6508 7.79845C10.4671 7.79845 10.2533 7.76831 10.0385 7.76831C9.82464 7.76831 9.47571 7.84801 9.18121 8.16583C8.88768 8.48366 8.06152 9.25538 8.06152 10.8222C8.06152 11.1896 8.1286 11.556 8.22677 11.9059C8.5514 13.0256 9.24827 13.9499 9.37073 14.1093C9.53013 14.3173 11.5858 17.6345 14.8418 18.9136C18.1037 20.1801 18.1037 19.7582 18.6917 19.7028C19.2787 19.6542 20.5889 18.9379 20.8523 18.1914C21.1215 17.4508 21.1216 16.8142 21.0419 16.6801C20.9622 16.5508 20.7474 16.4711 20.4295 16.3117Z" fill="black"/>
</svg>
