<svg width="40" height="40" viewBox="0 0 40 40" fill="none" xmlns="http://www.w3.org/2000/svg">
<path d="M33.6009 11.414C28.8216 3.99697 19.0344 1.79933 11.4653 6.40063C4.07908 11.0019 1.70086 21.0286 6.48016 28.4227L6.86891 29.0179L5.26818 35.0156L11.2595 33.4132L11.854 33.8024C14.438 35.1988 17.2507 36 20.0406 36C23.0362 36 26.0318 35.1988 28.6158 33.5963C36.002 28.789 38.1973 18.9683 33.6009 11.3682V11.414ZM29.4162 26.8432C28.6158 28.0336 27.6097 28.8348 26.2148 29.0408C25.4144 29.0408 24.4082 29.43 20.4293 27.8504C17.0449 26.248 14.2322 23.6383 12.2428 20.6395C11.0536 19.243 10.4362 17.4346 10.2533 15.6261C10.2533 14.0237 10.8478 12.6273 11.854 11.62C12.2428 11.2308 12.6544 11.0248 13.0431 11.0248H14.0493C14.438 11.0248 14.8496 11.0248 15.0554 11.826C15.4442 12.8333 16.4504 15.2369 16.4504 15.443C16.6562 15.649 16.5647 17.1828 15.65 18.0527C15.1469 18.625 15.0554 18.6479 15.2613 19.0599C16.0616 20.2503 17.0678 21.4636 18.0511 22.4708C19.2402 23.4781 20.4522 24.2793 21.8471 24.8745C22.2358 25.0805 22.6474 25.0805 22.8532 24.6685C23.0591 24.2793 24.0424 23.272 24.454 22.86C24.8427 22.4708 25.0485 22.4708 25.4601 22.654L28.6616 24.2564C29.0503 24.4624 29.4619 24.6456 29.6677 24.8516C29.8735 25.4468 29.8736 26.248 29.4619 26.8432H29.4162Z" fill="#0A0005"/>
</svg>
