<svg xmlns="http://www.w3.org/2000/svg" viewBox="0 0 159.23 25.42"><defs><style>.cls-1{fill:#fedd00;}</style></defs><g id="Layer_2" data-name="Layer 2"><g id="Layer_1-2" data-name="Layer 1"><path d="M159.23,12.71a12.72,12.72,0,0,1-12.71,12.71H12.71A12.71,12.71,0,0,1,12.71,0H146.52A12.72,12.72,0,0,1,159.23,12.71Z"/><path class="cls-1" d="M15.91,16.49a3.46,3.46,0,0,1-1.59-1.08,2.79,2.79,0,0,1-.57-1.73l3.48-.27a1.3,1.3,0,0,0,.42.91,1.6,1.6,0,0,0,1,.28c.7,0,1.06-.2,1.06-.6a.46.46,0,0,0-.14-.34,1.43,1.43,0,0,0-.5-.25c-.24-.07-.6-.17-1.09-.27l-1.38-.29c-1.85-.41-2.77-1.36-2.77-2.88a2.64,2.64,0,0,1,.56-1.7,3.3,3.3,0,0,1,1.58-1,7.42,7.42,0,0,1,2.45-.35,7.18,7.18,0,0,1,2.49.37,3.06,3.06,0,0,1,1.51,1.08A2.76,2.76,0,0,1,23,10l-3.17.27a1.19,1.19,0,0,0-.38-.85,1.64,1.64,0,0,0-1.06-.29,1.82,1.82,0,0,0-.81.16.49.49,0,0,0-.29.42.39.39,0,0,0,.1.29,1,1,0,0,0,.45.23,10.42,10.42,0,0,0,1,.28l1.4.3a9.72,9.72,0,0,1,1.54.45,2.54,2.54,0,0,1,1,.81,2.44,2.44,0,0,1,.42,1.51,2.76,2.76,0,0,1-.57,1.75A3.65,3.65,0,0,1,21,16.47a7.63,7.63,0,0,1-2.57.39A7.81,7.81,0,0,1,15.91,16.49Z"/><path class="cls-1" d="M32.77,13.75H27.44c0,.76.35,1.13,1,1.13A.91.91,0,0,0,29,14.7a.87.87,0,0,0,.27-.6l3.46.21a2.52,2.52,0,0,1-1.27,1.91,6.23,6.23,0,0,1-3.08.64A5.24,5.24,0,0,1,25,15.93a3.38,3.38,0,0,1-1.13-2.76V13A3.42,3.42,0,0,1,25,10.21a5.22,5.22,0,0,1,3.4-.94,5.08,5.08,0,0,1,3.29.91,3.25,3.25,0,0,1,1.11,2.67A6.58,6.58,0,0,1,32.77,13.75ZM29.28,12.2v0a1,1,0,0,0-.22-.71.87.87,0,0,0-.67-.23q-.81,0-.93,1Z"/><path class="cls-1" d="M33.55,16.65V9.48H37a2.75,2.75,0,0,1-.07.72,5.13,5.13,0,0,1-.3.83l.13.08A3.75,3.75,0,0,1,38,9.78a3.51,3.51,0,0,1,1.77-.43c1.63,0,2.44.73,2.44,2.18v5.12H38.73V12.47a1,1,0,0,0-.16-.63.68.68,0,0,0-.53-.2.81.81,0,0,0-.73.45,2.57,2.57,0,0,0-.25,1.27v3.29Z"/><path class="cls-1" d="M43.63,15.9a4.23,4.23,0,0,1-.71-2.67V12.9a4.25,4.25,0,0,1,.71-2.68,2.57,2.57,0,0,1,2.14-.87,3,3,0,0,1,1.64.43,3.2,3.2,0,0,1,1.09,1.29l.13-.07a9,9,0,0,1-.29-1.09,5.9,5.9,0,0,1-.09-1.06V7.08h3.51v9.57h-3.5a5.68,5.68,0,0,1,.38-1.56L48.5,15a3.15,3.15,0,0,1-1.07,1.31,3,3,0,0,1-1.66.44A2.59,2.59,0,0,1,43.63,15.9ZM48,14.37a2,2,0,0,0,.23-1.07v-.5A2,2,0,0,0,48,11.72a.79.79,0,0,0-.71-.36.76.76,0,0,0-.66.34,1.9,1.9,0,0,0-.22,1v.64a1.84,1.84,0,0,0,.22,1,.76.76,0,0,0,.66.34A.79.79,0,0,0,48,14.37Z"/><path class="cls-1" d="M55.07,16.65V7.08h4.26l1.31,3.22a18.19,18.19,0,0,1,.74,2.35h.14a23.54,23.54,0,0,1,.75-2.36l1.28-3.21h4.22v9.57H64.36v-3c0-.63,0-1.27.08-1.92l-.14,0-1.65,5H60.19l-1.64-5-.14,0c.05.72.08,1.36.08,1.92v3Z"/><path class="cls-1" d="M69.73,15.9a3.34,3.34,0,0,1-1.14-2.73V13a3.34,3.34,0,0,1,1.14-2.73,6.36,6.36,0,0,1,6.69,0A3.34,3.34,0,0,1,77.56,13v.22a3.34,3.34,0,0,1-1.14,2.73,6.31,6.31,0,0,1-6.69,0Zm4-1.49a1.88,1.88,0,0,0,.22-1v-.69a1.92,1.92,0,0,0-.22-1,.9.9,0,0,0-1.38,0,1.82,1.82,0,0,0-.22,1v.69a1.79,1.79,0,0,0,.22,1,.89.89,0,0,0,1.38,0Z"/><path class="cls-1" d="M78.28,16.65V9.48h3.43a2.75,2.75,0,0,1-.07.72,5.13,5.13,0,0,1-.3.83l.13.08a3.73,3.73,0,0,1,1.28-1.33,3.58,3.58,0,0,1,1.78-.43c1.62,0,2.44.73,2.44,2.18v5.12H83.46V12.47a1,1,0,0,0-.17-.63.64.64,0,0,0-.52-.2.8.8,0,0,0-.73.45,2.57,2.57,0,0,0-.25,1.27v3.29Z"/><path class="cls-1" d="M96.52,13.75H91.2c0,.76.35,1.13,1,1.13a.78.78,0,0,0,.88-.78l3.45.21a2.49,2.49,0,0,1-1.26,1.91,6.23,6.23,0,0,1-3.08.64,5.24,5.24,0,0,1-3.38-.93,3.38,3.38,0,0,1-1.13-2.76V13a3.42,3.42,0,0,1,1.14-2.79,5.21,5.21,0,0,1,3.39-.94,5.09,5.09,0,0,1,3.3.91,3.25,3.25,0,0,1,1.11,2.67A5.29,5.29,0,0,1,96.52,13.75ZM93,12.2v0a1,1,0,0,0-.22-.71.87.87,0,0,0-.67-.23q-.81,0-.93,1Z"/><path class="cls-1" d="M97,17l.82-.05c.69,0,1.09-.19,1.22-.45l.08-.2L96.52,9.48h3.57l.67,2.87a19.54,19.54,0,0,1,.35,2.16h.15c.09-.86.2-1.58.32-2.16l.64-2.87h3.45L104,14.75a8.66,8.66,0,0,1-1.4,2.77,4.05,4.05,0,0,1-2,1.31,13,13,0,0,1-3.44.41Z"/><path class="cls-1" d="M108.41,16.65V7.08h3.67l2,3.52c.23.42.47.92.73,1.51l.14,0a16.52,16.52,0,0,1-.12-1.81V7.08h3.42v9.57h-3.65l-2-3.52a16.12,16.12,0,0,1-.75-1.6l-.14,0a18.17,18.17,0,0,1,.11,1.91v3.18Z"/><path class="cls-1" d="M120.2,15.9a3.34,3.34,0,0,1-1.14-2.73V13a3.34,3.34,0,0,1,1.14-2.73,6.36,6.36,0,0,1,6.69,0A3.34,3.34,0,0,1,128,13v.22a3.34,3.34,0,0,1-1.14,2.73,6.31,6.31,0,0,1-6.69,0Zm4-1.49a1.78,1.78,0,0,0,.23-1v-.69a1.82,1.82,0,0,0-.23-1,.76.76,0,0,0-.68-.32.79.79,0,0,0-.69.32,1.82,1.82,0,0,0-.22,1v.69a1.79,1.79,0,0,0,.22,1,.78.78,0,0,0,.69.33A.75.75,0,0,0,124.23,14.41Z"/><path class="cls-1" d="M129.94,16.65,128,9.48h3.36l.52,2.93a15.19,15.19,0,0,1,.22,1.62h.14c0-.48.12-1,.22-1.61l.5-2.94h3.07l.59,2.95a11.58,11.58,0,0,1,.22,1.6H137c0-.47.1-1,.19-1.6l.46-2.95h3.24L139,16.65H135.1l-.36-2.43q-.12-.78-.21-1.8h-.13c-.05.73-.11,1.33-.18,1.81l-.35,2.42Z"/></g></g></svg>