<svg xmlns="http://www.w3.org/2000/svg" viewBox="0 0 261.24 43.39"><defs><style>.cls-1{fill:#fedd00;}</style></defs><g id="Layer_2" data-name="Layer 2"><g id="Layer_1-2" data-name="Layer 1"><path d="M41.41,22a3.94,3.94,0,0,1,.7,2.47,4.5,4.5,0,0,1-1,2.88,5.93,5.93,0,0,1-2.71,1.85,12.26,12.26,0,0,1-4.19.64,12.59,12.59,0,0,1-4.15-.6,5.63,5.63,0,0,1-2.6-1.77,4.71,4.71,0,0,1-.94-2.83l5.7-.45A2.17,2.17,0,0,0,33,25.7a2.61,2.61,0,0,0,1.68.46c1.15,0,1.73-.33,1.73-1a.71.71,0,0,0-.23-.55,2.3,2.3,0,0,0-.81-.41c-.4-.12-1-.27-1.78-.45l-2.27-.48c-3-.65-4.52-2.22-4.52-4.69a4.38,4.38,0,0,1,.91-2.8,5.44,5.44,0,0,1,2.58-1.7,12.57,12.57,0,0,1,4-.57,11.77,11.77,0,0,1,4.08.61,5.12,5.12,0,0,1,2.47,1.77,4.6,4.6,0,0,1,.83,2.73l-5.19.45a2,2,0,0,0-.63-1.41,2.67,2.67,0,0,0-1.73-.46,2.84,2.84,0,0,0-1.32.26.79.79,0,0,0-.48.69.72.72,0,0,0,.17.48,1.91,1.91,0,0,0,.72.37,17.1,17.1,0,0,0,1.72.45L37.2,20a15.74,15.74,0,0,1,2.51.74A4.12,4.12,0,0,1,41.41,22Z"/><path d="M57.8,23.28a9,9,0,0,1-.11,1.49H49c0,1.23.57,1.85,1.59,1.85a1.51,1.51,0,0,0,1-.3,1.5,1.5,0,0,0,.43-1l5.66.35a4.09,4.09,0,0,1-2.07,3.11,10.05,10.05,0,0,1-5.05,1.05A8.59,8.59,0,0,1,45,28.33a5.53,5.53,0,0,1-1.85-4.52v-.28A5.56,5.56,0,0,1,45,19a8.58,8.58,0,0,1,5.55-1.54A8.38,8.38,0,0,1,56,18.92,5.31,5.31,0,0,1,57.8,23.28Z"/><path d="M73.2,21.14v8.37H67.46V22.67a1.52,1.52,0,0,0-.28-1,1,1,0,0,0-.85-.33,1.32,1.32,0,0,0-1.2.72,4.35,4.35,0,0,0-.41,2.08v5.39H59V17.77H64.6A5.42,5.42,0,0,1,64.48,19a8.92,8.92,0,0,1-.5,1.37l.22.12a6.09,6.09,0,0,1,2.1-2.17,5.69,5.69,0,0,1,2.9-.7Q73.21,17.57,73.2,21.14Z"/><path d="M83,13.85h5.74V29.51H83A9.24,9.24,0,0,1,83.67,27l-.24-.1A5,5,0,0,1,81.68,29a4.78,4.78,0,0,1-2.71.72,4.21,4.21,0,0,1-3.5-1.44,6.91,6.91,0,0,1-1.15-4.37v-.54A7,7,0,0,1,75.46,19,4.25,4.25,0,0,1,79,17.57a4.84,4.84,0,0,1,2.68.7,5,5,0,0,1,1.78,2.12l.23-.13a10.88,10.88,0,0,1-.48-1.78A9.37,9.37,0,0,1,83,16.75Z"/><path d="M108.07,13.85H115V29.51h-5.59v-5c0-1,0-2.09.13-3.16l-.22,0-2.7,8.14h-4l-2.68-8.14-.24,0c.09,1.19.14,2.24.14,3.16v5h-5.6V13.85h7l2.15,5.26A31.29,31.29,0,0,1,104.52,23h.23A38.25,38.25,0,0,1,106,19.1Z"/><path d="M131,23.45v.37a5.51,5.51,0,0,1-1.87,4.47,10.39,10.39,0,0,1-10.95,0,5.51,5.51,0,0,1-1.86-4.47v-.37A5.49,5.49,0,0,1,118.18,19a10.44,10.44,0,0,1,10.95,0A5.47,5.47,0,0,1,131,23.45Z"/><path d="M146.39,21.14v8.37h-5.74V22.67a1.58,1.58,0,0,0-.27-1,1,1,0,0,0-.86-.33,1.32,1.32,0,0,0-1.2.72,4.35,4.35,0,0,0-.41,2.08v5.39h-5.74V17.77h5.62a5.42,5.42,0,0,1-.12,1.18,8.92,8.92,0,0,1-.5,1.37l.23.12a6,6,0,0,1,2.09-2.17,5.7,5.7,0,0,1,2.91-.7Q146.39,17.57,146.39,21.14Z"/><path d="M162.14,23.28a10.24,10.24,0,0,1-.11,1.49h-8.72c.05,1.23.58,1.85,1.59,1.85a1.49,1.49,0,0,0,1-.3,1.45,1.45,0,0,0,.43-1l5.66.35a4,4,0,0,1-2.07,3.11,10,10,0,0,1-5,1.05,8.55,8.55,0,0,1-5.52-1.52,5.5,5.5,0,0,1-1.85-4.52v-.28A5.59,5.59,0,0,1,149.37,19a8.58,8.58,0,0,1,5.55-1.54,8.38,8.38,0,0,1,5.4,1.49A5.32,5.32,0,0,1,162.14,23.28Z"/><path d="M171.35,17.77H177l-2.69,8.62a14.72,14.72,0,0,1-2.3,4.55,6.71,6.71,0,0,1-3.31,2.14,21.07,21.07,0,0,1-5.62.67l-.35-3.62,1.34-.08c1.13-.07,1.79-.31,2-.74l.15-.32L162,17.77h5.84l1.09,4.7a34.92,34.92,0,0,1,.57,3.53h.24a32.89,32.89,0,0,1,.54-3.52Z"/><path d="M192,13.85h5.6V29.51h-6l-3.24-5.76a23,23,0,0,1-1.23-2.63l-.23.06c.12,1.22.18,2.27.18,3.13v5.2h-5.59V13.85h6l3.25,5.76c.37.69.77,1.51,1.19,2.47l.23,0c-.12-1.16-.19-2.15-.19-3Z"/><path d="M213.58,23.45v.37a5.51,5.51,0,0,1-1.86,4.47,10.39,10.39,0,0,1-10.95,0,5.51,5.51,0,0,1-1.86-4.47v-.37A5.49,5.49,0,0,1,200.77,19a10.44,10.44,0,0,1,10.95,0A5.49,5.49,0,0,1,213.58,23.45Z"/><path d="M234.67,17.77,231.6,29.51h-6.45l-.59-4c-.13-.85-.24-1.83-.34-2.94H224c-.08,1.19-.17,2.17-.29,2.95l-.57,4h-6.43L213.6,17.77h5.49l.86,4.81q.26,1.43.36,2.64h.23c.07-.78.19-1.65.35-2.63l.83-4.82h5l1,4.83a19.41,19.41,0,0,1,.37,2.62h.24c.06-.77.16-1.64.31-2.62l.75-4.83Z"/><path d="M239.54,0H21.7a21.7,21.7,0,1,0,0,43.39H239.54a21.7,21.7,0,1,0,0-43.39Zm-4.87,17.77L231.6,29.51h-6.45l-.59-4c-.13-.85-.24-1.83-.34-2.94H224c-.08,1.19-.17,2.17-.29,2.95l-.57,4h-6.43L213.6,17.77h5.49l.86,4.81q.26,1.43.36,2.64h.23c.07-.78.19-1.65.35-2.63l.83-4.82h5l1,4.83a19.41,19.41,0,0,1,.37,2.62h.24c.06-.77.16-1.64.31-2.62l.75-4.83Zm-21.09,5.68v.37a5.51,5.51,0,0,1-1.86,4.47,10.39,10.39,0,0,1-10.95,0,5.51,5.51,0,0,1-1.86-4.47v-.37A5.49,5.49,0,0,1,200.77,19a10.44,10.44,0,0,1,10.95,0A5.49,5.49,0,0,1,213.58,23.45Zm-26.52.86v5.2h-5.59V13.85h6l3.25,5.76c.37.69.77,1.51,1.19,2.47l.23,0c-.12-1.16-.19-2.15-.19-3V13.85h5.6V29.51h-6l-3.24-5.76a23,23,0,0,1-1.23-2.63l-.23.06C187,22.4,187.06,23.45,187.06,24.31Zm-25-6.54h5.84l1.09,4.7a34.92,34.92,0,0,1,.57,3.53h.24a32.89,32.89,0,0,1,.54-3.52l1-4.71H177l-2.69,8.62a14.72,14.72,0,0,1-2.3,4.55,6.71,6.71,0,0,1-3.31,2.14,21.07,21.07,0,0,1-5.62.67l-.35-3.62,1.34-.08c1.13-.07,1.79-.31,2-.74l.15-.32Zm-7.13,8.85a1.49,1.49,0,0,0,1-.3,1.45,1.45,0,0,0,.43-1l5.66.35a4,4,0,0,1-2.07,3.11,10,10,0,0,1-5,1.05,8.55,8.55,0,0,1-5.52-1.52,5.5,5.5,0,0,1-1.85-4.52v-.28A5.59,5.59,0,0,1,149.37,19a8.58,8.58,0,0,1,5.55-1.54,8.38,8.38,0,0,1,5.4,1.49,5.32,5.32,0,0,1,1.82,4.36,10.24,10.24,0,0,1-.11,1.49h-8.72C153.36,26,153.89,26.62,154.9,26.62Zm-14.52-5a1,1,0,0,0-.86-.33,1.32,1.32,0,0,0-1.2.72,4.35,4.35,0,0,0-.41,2.08v5.39h-5.74V17.77h5.62a5.42,5.42,0,0,1-.12,1.18,8.92,8.92,0,0,1-.5,1.37l.23.12a6,6,0,0,1,2.09-2.17,5.7,5.7,0,0,1,2.91-.7q4,0,4,3.57v8.37h-5.74V22.67A1.58,1.58,0,0,0,140.38,21.65ZM131,23.45v.37a5.51,5.51,0,0,1-1.87,4.47,10.39,10.39,0,0,1-10.95,0,5.51,5.51,0,0,1-1.86-4.47v-.37A5.49,5.49,0,0,1,118.18,19a10.44,10.44,0,0,1,10.95,0A5.47,5.47,0,0,1,131,23.45Zm-21.7-2.08-2.7,8.14h-4l-2.68-8.14-.24,0c.09,1.19.14,2.24.14,3.16v5h-5.6V13.85h7l2.15,5.26A31.29,31.29,0,0,1,104.52,23h.23A38.25,38.25,0,0,1,106,19.1l2.1-5.25H115V29.51h-5.59v-5c0-1,0-2.09.13-3.16ZM83.43,26.85A5,5,0,0,1,81.68,29a4.78,4.78,0,0,1-2.71.72,4.21,4.21,0,0,1-3.5-1.44,6.91,6.91,0,0,1-1.15-4.37v-.54A7,7,0,0,1,75.46,19,4.25,4.25,0,0,1,79,17.57a4.84,4.84,0,0,1,2.68.7,5,5,0,0,1,1.78,2.12l.23-.13a10.88,10.88,0,0,1-.48-1.78A9.37,9.37,0,0,1,83,16.75v-2.9h5.74V29.51H83A9.24,9.24,0,0,1,83.67,27Zm-16.25-5.2a1,1,0,0,0-.85-.33,1.32,1.32,0,0,0-1.2.72,4.35,4.35,0,0,0-.41,2.08v5.39H59V17.77H64.6A5.42,5.42,0,0,1,64.48,19a8.92,8.92,0,0,1-.5,1.37l.22.12a6.09,6.09,0,0,1,2.1-2.17,5.69,5.69,0,0,1,2.9-.7q4,0,4,3.57v8.37H67.46V22.67A1.52,1.52,0,0,0,67.18,21.65Zm-16.61,5a1.51,1.51,0,0,0,1-.3,1.5,1.5,0,0,0,.43-1l5.66.35a4.09,4.09,0,0,1-2.07,3.11,10.05,10.05,0,0,1-5.05,1.05A8.59,8.59,0,0,1,45,28.33a5.53,5.53,0,0,1-1.85-4.52v-.28A5.56,5.56,0,0,1,45,19a8.58,8.58,0,0,1,5.55-1.54A8.38,8.38,0,0,1,56,18.92a5.31,5.31,0,0,1,1.81,4.36,9,9,0,0,1-.11,1.49H49C49,26,49.55,26.62,50.57,26.62Zm-14.43-2a2.3,2.3,0,0,0-.81-.41c-.4-.12-1-.27-1.78-.45l-2.27-.48c-3-.65-4.52-2.22-4.52-4.69a4.38,4.38,0,0,1,.91-2.8,5.44,5.44,0,0,1,2.58-1.7,12.57,12.57,0,0,1,4-.57,11.77,11.77,0,0,1,4.08.61,5.12,5.12,0,0,1,2.47,1.77,4.6,4.6,0,0,1,.83,2.73l-5.19.45a2,2,0,0,0-.63-1.41,2.67,2.67,0,0,0-1.73-.46,2.84,2.84,0,0,0-1.32.26.79.79,0,0,0-.48.69.72.72,0,0,0,.17.48,1.91,1.91,0,0,0,.72.37,17.1,17.1,0,0,0,1.72.45L37.2,20a15.74,15.74,0,0,1,2.51.74A4.12,4.12,0,0,1,41.41,22a3.94,3.94,0,0,1,.7,2.47,4.5,4.5,0,0,1-1,2.88,5.93,5.93,0,0,1-2.71,1.85,12.26,12.26,0,0,1-4.19.64,12.59,12.59,0,0,1-4.15-.6,5.63,5.63,0,0,1-2.6-1.77,4.71,4.71,0,0,1-.94-2.83l5.7-.45A2.17,2.17,0,0,0,33,25.7a2.61,2.61,0,0,0,1.68.46c1.15,0,1.73-.33,1.73-1A.71.71,0,0,0,36.14,24.62Z"/><path class="cls-1" d="M41.41,22a4.12,4.12,0,0,0-1.7-1.32A15.74,15.74,0,0,0,37.2,20l-2.29-.49A17.1,17.1,0,0,1,33.19,19a1.91,1.91,0,0,1-.72-.37.72.72,0,0,1-.17-.48.79.79,0,0,1,.48-.69,2.84,2.84,0,0,1,1.32-.26,2.67,2.67,0,0,1,1.73.46,2,2,0,0,1,.63,1.41l5.19-.45a4.6,4.6,0,0,0-.83-2.73,5.12,5.12,0,0,0-2.47-1.77,11.77,11.77,0,0,0-4.08-.61,12.57,12.57,0,0,0-4,.57,5.44,5.44,0,0,0-2.58,1.7,4.38,4.38,0,0,0-.91,2.8c0,2.47,1.5,4,4.52,4.69l2.27.48c.79.18,1.38.33,1.78.45a2.3,2.3,0,0,1,.81.41.71.71,0,0,1,.23.55c0,.66-.58,1-1.73,1A2.61,2.61,0,0,1,33,25.7a2.17,2.17,0,0,1-.69-1.5l-5.7.45a4.71,4.71,0,0,0,.94,2.83,5.63,5.63,0,0,0,2.6,1.77,12.59,12.59,0,0,0,4.15.6,12.26,12.26,0,0,0,4.19-.64,5.93,5.93,0,0,0,2.71-1.85,4.5,4.5,0,0,0,1-2.88A3.94,3.94,0,0,0,41.41,22Z"/><path class="cls-1" d="M57.8,23.28A5.31,5.31,0,0,0,56,18.92a8.38,8.38,0,0,0-5.4-1.49A8.58,8.58,0,0,0,45,19a5.56,5.56,0,0,0-1.87,4.56v.28A5.53,5.53,0,0,0,45,28.33a8.59,8.59,0,0,0,5.52,1.52,10.05,10.05,0,0,0,5.05-1.05,4.09,4.09,0,0,0,2.07-3.11L52,25.34a1.5,1.5,0,0,1-.43,1,1.51,1.51,0,0,1-1,.3c-1,0-1.55-.62-1.59-1.85h8.71A9,9,0,0,0,57.8,23.28ZM52,22.22H49c.14-1,.64-1.57,1.52-1.57a1.44,1.44,0,0,1,1.09.38A1.59,1.59,0,0,1,52,22.19Z"/><path class="cls-1" d="M69.2,17.57a5.69,5.69,0,0,0-2.9.7,6.09,6.09,0,0,0-2.1,2.17L64,20.32a8.92,8.92,0,0,0,.5-1.37,5.42,5.42,0,0,0,.12-1.18H59V29.51h5.74V24.12A4.35,4.35,0,0,1,65.13,22a1.32,1.32,0,0,1,1.2-.72,1,1,0,0,1,.85.33,1.52,1.52,0,0,1,.28,1v6.84H73.2V21.14Q73.2,17.57,69.2,17.57Z"/><path class="cls-1" d="M83,13.85v2.9a9.37,9.37,0,0,0,.15,1.73,10.88,10.88,0,0,0,.48,1.78l-.23.13a5,5,0,0,0-1.78-2.12,4.84,4.84,0,0,0-2.68-.7A4.25,4.25,0,0,0,75.46,19a7,7,0,0,0-1.14,4.38v.54a6.91,6.91,0,0,0,1.15,4.37A4.21,4.21,0,0,0,79,29.72,4.78,4.78,0,0,0,81.68,29a5,5,0,0,0,1.75-2.15l.24.1A9.24,9.24,0,0,0,83,29.51h5.73V13.85ZM83,24a3.22,3.22,0,0,1-.38,1.75,1.27,1.27,0,0,1-1.15.58,1.2,1.2,0,0,1-1.09-.55,3.05,3.05,0,0,1-.36-1.66V23.09a3.13,3.13,0,0,1,.36-1.68,1.2,1.2,0,0,1,1.09-.55,1.27,1.27,0,0,1,1.15.58A3.3,3.3,0,0,1,83,23.21Z"/><path class="cls-1" d="M108.07,13.85,106,19.1A38.25,38.25,0,0,0,104.75,23h-.23a31.29,31.29,0,0,0-1.21-3.85l-2.15-5.26h-7V29.51h5.6v-5c0-.92-.05-2-.14-3.16l.24,0,2.68,8.14h4l2.7-8.14.22,0c-.09,1.07-.13,2.12-.13,3.16v5H115V13.85Z"/><path class="cls-1" d="M129.13,19a10.44,10.44,0,0,0-10.95,0,5.49,5.49,0,0,0-1.86,4.47v.37a5.51,5.51,0,0,0,1.86,4.47,10.39,10.39,0,0,0,10.95,0A5.51,5.51,0,0,0,131,23.82v-.37A5.47,5.47,0,0,0,129.13,19Zm-4,5.22a2.92,2.92,0,0,1-.37,1.65,1.26,1.26,0,0,1-1.12.53,1.29,1.29,0,0,1-1.13-.53,3,3,0,0,1-.36-1.65V23.08a3,3,0,0,1,.36-1.65,1.29,1.29,0,0,1,1.13-.53,1.26,1.26,0,0,1,1.12.53,2.92,2.92,0,0,1,.37,1.65Z"/><path class="cls-1" d="M142.4,17.57a5.7,5.7,0,0,0-2.91.7,6,6,0,0,0-2.09,2.17l-.23-.12a8.92,8.92,0,0,0,.5-1.37,5.42,5.42,0,0,0,.12-1.18h-5.62V29.51h5.74V24.12a4.35,4.35,0,0,1,.41-2.08,1.32,1.32,0,0,1,1.2-.72,1,1,0,0,1,.86.33,1.58,1.58,0,0,1,.27,1v6.84h5.74V21.14Q146.39,17.57,142.4,17.57Z"/><path class="cls-1" d="M162.14,23.28a5.32,5.32,0,0,0-1.82-4.36,8.38,8.38,0,0,0-5.4-1.49A8.58,8.58,0,0,0,149.37,19a5.59,5.59,0,0,0-1.86,4.56v.28a5.5,5.5,0,0,0,1.85,4.52,8.55,8.55,0,0,0,5.52,1.52,10,10,0,0,0,5-1.05A4,4,0,0,0,162,25.69l-5.66-.35a1.45,1.45,0,0,1-.43,1,1.49,1.49,0,0,1-1,.3c-1,0-1.54-.62-1.59-1.85H162A10.24,10.24,0,0,0,162.14,23.28Zm-5.82-1.06h-3c.13-1,.64-1.57,1.52-1.57A1.46,1.46,0,0,1,156,21a1.63,1.63,0,0,1,.36,1.16Z"/><path class="cls-1" d="M171.35,17.77l-1,4.71a32.89,32.89,0,0,0-.54,3.52h-.24a34.92,34.92,0,0,0-.57-3.53l-1.09-4.7H162L166.2,29l-.15.32c-.2.43-.86.67-2,.74l-1.34.08.35,3.62a21.07,21.07,0,0,0,5.62-.67A6.71,6.71,0,0,0,172,30.94a14.72,14.72,0,0,0,2.3-4.55L177,17.77Z"/><path class="cls-1" d="M192,13.85v5.22c0,.81.07,1.8.19,3l-.23,0c-.42-1-.82-1.78-1.19-2.47l-3.25-5.76h-6V29.51h5.59v-5.2c0-.86-.06-1.91-.18-3.13l.23-.06a23,23,0,0,0,1.23,2.63l3.24,5.76h6V13.85Z"/><path class="cls-1" d="M211.72,19a10.44,10.44,0,0,0-10.95,0,5.49,5.49,0,0,0-1.86,4.47v.37a5.51,5.51,0,0,0,1.86,4.47,10.39,10.39,0,0,0,10.95,0,5.51,5.51,0,0,0,1.86-4.47v-.37A5.49,5.49,0,0,0,211.72,19Zm-4,5.22a3,3,0,0,1-.36,1.65,1.46,1.46,0,0,1-2.25,0,3,3,0,0,1-.36-1.65V23.08a3,3,0,0,1,.36-1.65,1.46,1.46,0,0,1,2.25,0,3,3,0,0,1,.36,1.65Z"/><path class="cls-1" d="M229.37,17.77l-.75,4.83c-.15,1-.25,1.85-.31,2.62h-.24a19.41,19.41,0,0,0-.37-2.62l-1-4.83h-5l-.83,4.82c-.16,1-.28,1.85-.35,2.63h-.23q-.1-1.21-.36-2.64l-.86-4.81H213.6l3.11,11.74h6.43l.57-4c.12-.78.21-1.76.29-2.95h.22c.1,1.11.21,2.09.34,2.94l.59,4h6.45l3.07-11.74Z"/></g></g></svg>