<svg xmlns="http://www.w3.org/2000/svg" viewBox="0 0 261.23 43.39"><g id="Layer_2" data-name="Layer 2"><g id="Layer_1-2" data-name="Layer 1"><path d="M239.54,43.39H21.7A21.7,21.7,0,1,1,21.7,0H239.54a21.7,21.7,0,0,1,0,43.39ZM21.7.75a20.95,20.95,0,1,0,0,41.89H239.54a20.95,20.95,0,0,0,0-41.89Z"/><path d="M30.11,29.25a5.54,5.54,0,0,1-2.61-1.77,4.64,4.64,0,0,1-.93-2.83l5.69-.45a2.13,2.13,0,0,0,.7,1.5,2.6,2.6,0,0,0,1.67.46c1.16,0,1.74-.33,1.74-1a.75.75,0,0,0-.23-.56,2.36,2.36,0,0,0-.82-.41c-.39-.12-1-.27-1.77-.44l-2.27-.48q-4.53-1-4.52-4.7a4.32,4.32,0,0,1,.9-2.79,5.47,5.47,0,0,1,2.59-1.71,12.54,12.54,0,0,1,4-.57,11.77,11.77,0,0,1,4.08.61,5.07,5.07,0,0,1,2.47,1.77,4.61,4.61,0,0,1,.84,2.73l-5.19.45a2,2,0,0,0-.63-1.41,2.73,2.73,0,0,0-1.73-.46,2.84,2.84,0,0,0-1.32.26.79.79,0,0,0-.48.69.7.7,0,0,0,.16.48,2.07,2.07,0,0,0,.73.37,16.06,16.06,0,0,0,1.71.45l2.3.49a15,15,0,0,1,2.51.75A4.08,4.08,0,0,1,41.41,22a4,4,0,0,1,.7,2.46,4.56,4.56,0,0,1-1,2.88,6,6,0,0,1-2.72,1.85,12.26,12.26,0,0,1-4.19.64A12.57,12.57,0,0,1,30.11,29.25Z"/><path d="M57.69,24.77H49c.05,1.23.58,1.85,1.59,1.85a1.48,1.48,0,0,0,1-.3,1.43,1.43,0,0,0,.43-1l5.66.35a4,4,0,0,1-2.07,3.11,10,10,0,0,1-5,1.05A8.55,8.55,0,0,1,45,28.33a5.52,5.52,0,0,1-1.85-4.52v-.28A5.59,5.59,0,0,1,45,19a8.58,8.58,0,0,1,5.55-1.54A8.38,8.38,0,0,1,56,18.92a5.32,5.32,0,0,1,1.82,4.37A10.1,10.1,0,0,1,57.69,24.77ZM52,22.22v0A1.63,1.63,0,0,0,51.62,21a1.45,1.45,0,0,0-1.09-.37c-.88,0-1.39.52-1.52,1.56Z"/><path d="M59,29.52V17.77h5.62A4.37,4.37,0,0,1,64.47,19,8.7,8.7,0,0,1,64,20.32l.22.12a6.09,6.09,0,0,1,2.1-2.17,5.66,5.66,0,0,1,2.9-.7q4,0,4,3.57v8.38H67.45V22.67a1.59,1.59,0,0,0-.27-1,1.05,1.05,0,0,0-.86-.33,1.29,1.29,0,0,0-1.19.72,4.23,4.23,0,0,0-.42,2.08v5.4Z"/><path d="M75.46,28.28a7,7,0,0,1-1.15-4.37v-.54A6.87,6.87,0,0,1,75.46,19,4.19,4.19,0,0,1,79,17.57a4.82,4.82,0,0,1,2.68.7,5.07,5.07,0,0,1,1.79,2.12l.22-.13a13.36,13.36,0,0,1-.48-1.78A9.4,9.4,0,0,1,83,16.75v-2.9h5.73V29.52H83A9.57,9.57,0,0,1,83.66,27l-.23-.1A5.08,5.08,0,0,1,81.68,29a4.81,4.81,0,0,1-2.72.72A4.22,4.22,0,0,1,75.46,28.28Zm7.18-2.49A3.19,3.19,0,0,0,83,24v-.82a3.23,3.23,0,0,0-.39-1.77,1.26,1.26,0,0,0-1.15-.58,1.2,1.2,0,0,0-1.08.55,3.13,3.13,0,0,0-.36,1.68v1.06a3.05,3.05,0,0,0,.36,1.66,1.2,1.2,0,0,0,1.08.55A1.28,1.28,0,0,0,82.64,25.79Z"/><path d="M94.19,29.52V13.85h7l2.15,5.26a33.47,33.47,0,0,1,1.2,3.85h.24A35.82,35.82,0,0,1,106,19.1l2.09-5.25H115V29.52h-5.59v-5c0-1,0-2.09.13-3.15l-.22,0-2.7,8.15h-4l-2.69-8.15-.23,0c.09,1.18.13,2.23.13,3.15v5Z"/><path d="M118.18,28.29a5.51,5.51,0,0,1-1.86-4.47v-.37A5.51,5.51,0,0,1,118.18,19a10.44,10.44,0,0,1,10.95,0A5.51,5.51,0,0,1,131,23.45v.37a5.48,5.48,0,0,1-1.87,4.47,10.37,10.37,0,0,1-10.94,0Zm6.6-2.44a3,3,0,0,0,.36-1.65V23.08a3,3,0,0,0-.36-1.65,1.46,1.46,0,0,0-2.25,0,3,3,0,0,0-.36,1.65V24.2a3,3,0,0,0,.36,1.65,1.46,1.46,0,0,0,2.25,0Z"/><path d="M132.17,29.52V17.77h5.61a4.37,4.37,0,0,1-.12,1.18,8.7,8.7,0,0,1-.49,1.37l.22.12a6.09,6.09,0,0,1,2.1-2.17,5.66,5.66,0,0,1,2.9-.7q4,0,4,3.57v8.38h-5.73V22.67a1.59,1.59,0,0,0-.28-1,1,1,0,0,0-.85-.33,1.3,1.3,0,0,0-1.2.72,4.24,4.24,0,0,0-.41,2.08v5.4Z"/><path d="M162,24.77h-8.71c0,1.23.57,1.85,1.59,1.85a1.51,1.51,0,0,0,1-.3,1.47,1.47,0,0,0,.43-1l5.66.35a4.09,4.09,0,0,1-2.07,3.11,10,10,0,0,1-5,1.05,8.6,8.6,0,0,1-5.53-1.52,5.52,5.52,0,0,1-1.85-4.52v-.28A5.56,5.56,0,0,1,149.37,19a8.58,8.58,0,0,1,5.55-1.54,8.38,8.38,0,0,1,5.4,1.49,5.32,5.32,0,0,1,1.81,4.37A8.89,8.89,0,0,1,162,24.77Zm-5.7-2.55v0A1.63,1.63,0,0,0,156,21a1.48,1.48,0,0,0-1.1-.37c-.88,0-1.38.52-1.52,1.56Z"/><path d="M162.72,30.13l1.34-.08c1.12-.06,1.79-.31,2-.74l.15-.32L162,17.77h5.84l1.1,4.7a34.92,34.92,0,0,1,.57,3.53h.23c.16-1.4.34-2.57.54-3.52l1-4.71H177l-2.7,8.62A14.73,14.73,0,0,1,172,30.94a6.71,6.71,0,0,1-3.31,2.14,21.15,21.15,0,0,1-5.63.67Z"/><path d="M181.46,29.52V13.85h6l3.26,5.77c.37.68.77,1.5,1.18,2.46l.24,0a27.12,27.12,0,0,1-.19-3V13.85h5.59V29.52h-6l-3.25-5.77a23.52,23.52,0,0,1-1.23-2.62l-.22.05c.12,1.23.18,2.27.18,3.13v5.21Z"/><path d="M200.77,28.29a5.48,5.48,0,0,1-1.87-4.47v-.37A5.48,5.48,0,0,1,200.77,19a10.44,10.44,0,0,1,10.95,0,5.51,5.51,0,0,1,1.86,4.47v.37a5.48,5.48,0,0,1-1.87,4.47,10.37,10.37,0,0,1-10.94,0Zm6.6-2.44a3,3,0,0,0,.36-1.65V23.08a3,3,0,0,0-.36-1.65,1.29,1.29,0,0,0-1.13-.53,1.26,1.26,0,0,0-1.12.53,3,3,0,0,0-.37,1.65V24.2a3,3,0,0,0,.37,1.65,1.26,1.26,0,0,0,1.12.53A1.29,1.29,0,0,0,207.37,25.85Z"/><path d="M216.7,29.52l-3.11-11.75h5.49l.87,4.81a26,26,0,0,1,.35,2.64h.24c.07-.78.18-1.65.34-2.63l.83-4.82h5l1,4.83a21.14,21.14,0,0,1,.37,2.62h.23c.06-.77.17-1.64.32-2.62l.74-4.83h5.31l-3.08,11.75h-6.44l-.6-4q-.18-1.28-.33-2.94H224c-.08,1.19-.18,2.17-.3,2.95l-.57,4Z"/></g></g></svg>