<svg xmlns="http://www.w3.org/2000/svg" viewBox="0 0 184.09 44.09"><defs><style>.cls-1{fill:#fedd00;}</style></defs><g id="Layer_2" data-name="Layer 2"><g id="Layer_1-2" data-name="Layer 1"><path d="M25.09,22.28a3,3,0,0,1,.52,1.85,3.34,3.34,0,0,1-.71,2.16,4.34,4.34,0,0,1-2,1.39,9.21,9.21,0,0,1-3.14.48,9.42,9.42,0,0,1-3.11-.45,4.05,4.05,0,0,1-2-1.33,3.5,3.5,0,0,1-.7-2.12l4.27-.34a1.69,1.69,0,0,0,.52,1.13,2,2,0,0,0,1.26.34c.87,0,1.31-.24,1.31-.74a.54.54,0,0,0-.18-.41,1.69,1.69,0,0,0-.61-.31c-.29-.09-.74-.2-1.33-.33l-1.71-.36c-2.26-.5-3.39-1.67-3.39-3.53a3.24,3.24,0,0,1,.68-2.09,4.06,4.06,0,0,1,1.94-1.28,9.31,9.31,0,0,1,3-.43,8.8,8.8,0,0,1,3.06.46,3.9,3.9,0,0,1,1.85,1.32,3.51,3.51,0,0,1,.63,2l-3.9.34a1.44,1.44,0,0,0-.47-1,2,2,0,0,0-1.3-.35,2.1,2.1,0,0,0-1,.19.6.6,0,0,0-.36.52.52.52,0,0,0,.12.36,1.59,1.59,0,0,0,.55.28,12.69,12.69,0,0,0,1.29.33l1.72.37a12.73,12.73,0,0,1,1.88.56A3.15,3.15,0,0,1,25.09,22.28Z"/><path d="M36,20a4,4,0,0,1,1.36,3.28,8.05,8.05,0,0,1-.08,1.11H30.77c0,.93.43,1.39,1.19,1.39a1.14,1.14,0,0,0,.75-.23,1.06,1.06,0,0,0,.32-.73l4.25.26a3.08,3.08,0,0,1-1.55,2.34,7.62,7.62,0,0,1-3.79.78A6.43,6.43,0,0,1,27.8,27a4.12,4.12,0,0,1-1.39-3.39v-.21A4.19,4.19,0,0,1,27.81,20,6.42,6.42,0,0,1,32,18.84,6.31,6.31,0,0,1,36,20Z"/><path d="M48.94,21.62v6.29h-4.3V22.77a1.15,1.15,0,0,0-.21-.76.77.77,0,0,0-.64-.25,1,1,0,0,0-.9.54,3.21,3.21,0,0,0-.31,1.57v4H38.27V19.1h4.22a4,4,0,0,1-.09.88A6.53,6.53,0,0,1,42,21l.17.09a4.59,4.59,0,0,1,1.58-1.63A4.25,4.25,0,0,1,45.94,19Q48.94,19,48.94,21.62Z"/><path d="M56.32,16.16h4.31V27.91h-4.3A7.09,7.09,0,0,1,56.8,26l-.18-.08a3.78,3.78,0,0,1-1.31,1.62,3.68,3.68,0,0,1-2,.53A3.15,3.15,0,0,1,50.65,27a5.13,5.13,0,0,1-.87-3.27V23.3A5.21,5.21,0,0,1,50.64,20,3.16,3.16,0,0,1,53.27,19a3.68,3.68,0,0,1,2,.52,3.79,3.79,0,0,1,1.33,1.59l.17-.09a8.75,8.75,0,0,1-.36-1.34,7.5,7.5,0,0,1-.11-1.3Z"/><path d="M75.11,16.16H80.3V27.91H76.1V24.19c0-.77,0-1.56.1-2.36l-.16,0-2,6.11H71L69,21.8l-.18,0c.07.89.1,1.68.1,2.36v3.72H64.7V16.16h5.23l1.61,3.94A23.17,23.17,0,0,1,72.45,23h.18a26.35,26.35,0,0,1,.91-2.89Z"/><path d="M90.92,20a4.08,4.08,0,0,1,1.4,3.35v.28A4.14,4.14,0,0,1,90.92,27a6.27,6.27,0,0,1-4.11,1.17A6.29,6.29,0,0,1,82.7,27a4.13,4.13,0,0,1-1.39-3.35v-.28A4.1,4.1,0,0,1,82.7,20a6.29,6.29,0,0,1,4.11-1.17A6.26,6.26,0,0,1,90.92,20Z"/><path d="M103.87,21.62v6.29h-4.3V22.77a1.15,1.15,0,0,0-.21-.76.77.77,0,0,0-.64-.25,1,1,0,0,0-.9.54,3.21,3.21,0,0,0-.31,1.57v4H93.2V19.1h4.22a4,4,0,0,1-.09.88A6.33,6.33,0,0,1,97,21l.16.09a4.67,4.67,0,0,1,1.58-1.63,4.29,4.29,0,0,1,2.18-.52C102.88,19,103.87,19.84,103.87,21.62Z"/><path d="M114.33,20a4,4,0,0,1,1.37,3.28,6.74,6.74,0,0,1-.09,1.11h-6.54c0,.93.43,1.39,1.19,1.39a1.15,1.15,0,0,0,.76-.23,1.11,1.11,0,0,0,.32-.73l4.25.26A3.07,3.07,0,0,1,114,27.38a7.55,7.55,0,0,1-3.78.78A6.44,6.44,0,0,1,106.1,27a4.15,4.15,0,0,1-1.39-3.39v-.21a4.19,4.19,0,0,1,1.4-3.42,6.42,6.42,0,0,1,4.17-1.16A6.31,6.31,0,0,1,114.33,20Z"/><path d="M122.6,19.1h4.24l-2,6.47A11,11,0,0,1,123.1,29a5.06,5.06,0,0,1-2.49,1.61,15.6,15.6,0,0,1-4.22.5l-.26-2.72,1-.05c.84-.06,1.34-.24,1.49-.56l.11-.24-3.13-8.42H120l.83,3.52a26.92,26.92,0,0,1,.42,2.66h.18c.12-1.06.25-1.94.4-2.65Z"/><path d="M138.09,16.16h4.19V27.91h-4.49l-2.43-4.32a18.27,18.27,0,0,1-.93-2l-.16,0c.08.92.13,1.7.13,2.35v3.9h-4.2V16.16h4.52l2.44,4.32c.28.52.58,1.13.89,1.85l.18,0a19.92,19.92,0,0,1-.14-2.23Z"/><path d="M152.91,20a4.11,4.11,0,0,1,1.4,3.35v.28A4.11,4.11,0,0,1,152.9,27a7.79,7.79,0,0,1-8.21,0,4.14,4.14,0,0,1-1.4-3.35v-.28a4.11,4.11,0,0,1,1.4-3.35,7.8,7.8,0,0,1,8.22,0Z"/><path d="M170.13,19.1l-2.31,8.81H163l-.45-3c-.09-.63-.18-1.37-.25-2.2h-.17c-.05.89-.13,1.62-.22,2.21l-.42,3h-4.83l-2.34-8.81h4.13l.64,3.61q.19,1.07.27,2h.18c.05-.58.13-1.24.26-2l.62-3.62h3.77l.72,3.62a16.09,16.09,0,0,1,.28,2h.17c.05-.58.13-1.23.24-2l.56-3.62Z"/><path d="M162,0H22a22,22,0,0,0,0,44.09H162A22,22,0,1,0,162,0Zm5.78,27.91H163l-.45-3c-.09-.63-.18-1.37-.25-2.2h-.17c-.05.89-.13,1.62-.22,2.21l-.42,3h-4.83l-2.34-8.81h4.13l.64,3.61q.19,1.07.27,2h.18c.05-.58.13-1.24.26-2l.62-3.62h3.77l.72,3.62a16.09,16.09,0,0,1,.28,2h.17c.05-.58.13-1.23.24-2l.56-3.62h4Zm-13.51-4.55v.28A4.11,4.11,0,0,1,152.9,27a7.79,7.79,0,0,1-8.21,0,4.14,4.14,0,0,1-1.4-3.35v-.28a4.11,4.11,0,0,1,1.4-3.35,7.8,7.8,0,0,1,8.22,0A4.11,4.11,0,0,1,154.31,23.36ZM134.4,24v3.9h-4.2V16.16h4.52l2.44,4.32c.28.52.58,1.13.89,1.85l.18,0a19.92,19.92,0,0,1-.14-2.23V16.16h4.19V27.91h-4.49l-2.43-4.32a18.27,18.27,0,0,1-.93-2l-.16,0C134.35,22.58,134.4,23.36,134.4,24ZM115.61,19.1H120l.83,3.52a26.92,26.92,0,0,1,.42,2.66h.18c.12-1.06.25-1.94.4-2.65l.78-3.53h4.24l-2,6.47A11,11,0,0,1,123.1,29a5.06,5.06,0,0,1-2.49,1.61,15.6,15.6,0,0,1-4.22.5l-.26-2.72,1-.05c.84-.06,1.34-.24,1.49-.56l.11-.24Zm-5.35,6.64a1.15,1.15,0,0,0,.76-.23,1.11,1.11,0,0,0,.32-.73l4.25.26A3.07,3.07,0,0,1,114,27.38a7.55,7.55,0,0,1-3.78.78A6.44,6.44,0,0,1,106.1,27a4.15,4.15,0,0,1-1.39-3.39v-.21a4.19,4.19,0,0,1,1.4-3.42,6.42,6.42,0,0,1,4.17-1.16,6.31,6.31,0,0,1,4,1.12,4,4,0,0,1,1.37,3.28,6.74,6.74,0,0,1-.09,1.11h-6.54C109.1,25.28,109.5,25.74,110.26,25.74ZM99.36,22a.77.77,0,0,0-.64-.25,1,1,0,0,0-.9.54,3.21,3.21,0,0,0-.31,1.57v4H93.2V19.1h4.22a4,4,0,0,1-.09.88A6.33,6.33,0,0,1,97,21l.16.09a4.67,4.67,0,0,1,1.58-1.63,4.29,4.29,0,0,1,2.18-.52c2,0,3,.89,3,2.67v6.29h-4.3V22.77A1.15,1.15,0,0,0,99.36,22Zm-7,1.35v.28A4.14,4.14,0,0,1,90.92,27a6.27,6.27,0,0,1-4.11,1.17A6.29,6.29,0,0,1,82.7,27a4.13,4.13,0,0,1-1.39-3.35v-.28A4.1,4.1,0,0,1,82.7,20a6.29,6.29,0,0,1,4.11-1.17A6.26,6.26,0,0,1,90.92,20,4.08,4.08,0,0,1,92.32,23.36ZM76,21.8l-2,6.11H71L69,21.8l-.18,0c.07.89.1,1.68.1,2.36v3.72H64.7V16.16h5.23l1.61,3.94A23.17,23.17,0,0,1,72.45,23h.18a26.35,26.35,0,0,1,.91-2.89l1.57-3.94H80.3V27.91H76.1V24.19c0-.77,0-1.56.1-2.36ZM56.62,25.91a3.78,3.78,0,0,1-1.31,1.62,3.68,3.68,0,0,1-2,.53A3.15,3.15,0,0,1,50.65,27a5.13,5.13,0,0,1-.87-3.27V23.3A5.21,5.21,0,0,1,50.64,20,3.16,3.16,0,0,1,53.27,19a3.68,3.68,0,0,1,2,.52,3.79,3.79,0,0,1,1.33,1.59l.17-.09a8.75,8.75,0,0,1-.36-1.34,7.5,7.5,0,0,1-.11-1.3V16.16h4.31V27.91h-4.3A7.09,7.09,0,0,1,56.8,26ZM44.43,22a.77.77,0,0,0-.64-.25,1,1,0,0,0-.9.54,3.21,3.21,0,0,0-.31,1.57v4H38.27V19.1h4.22a4,4,0,0,1-.09.88A6.53,6.53,0,0,1,42,21l.17.09a4.59,4.59,0,0,1,1.58-1.63A4.25,4.25,0,0,1,45.94,19q3,0,3,2.67v6.29h-4.3V22.77A1.15,1.15,0,0,0,44.43,22ZM32,25.74a1.14,1.14,0,0,0,.75-.23,1.06,1.06,0,0,0,.32-.73l4.25.26a3.08,3.08,0,0,1-1.55,2.34,7.62,7.62,0,0,1-3.79.78A6.43,6.43,0,0,1,27.8,27a4.12,4.12,0,0,1-1.39-3.39v-.21A4.19,4.19,0,0,1,27.81,20,6.42,6.42,0,0,1,32,18.84,6.31,6.31,0,0,1,36,20a4,4,0,0,1,1.36,3.28,8.05,8.05,0,0,1-.08,1.11H30.77C30.8,25.28,31.2,25.74,32,25.74Zm-10.83-1.5a1.69,1.69,0,0,0-.61-.31c-.29-.09-.74-.2-1.33-.33l-1.71-.36c-2.26-.5-3.39-1.67-3.39-3.53a3.24,3.24,0,0,1,.68-2.09,4.06,4.06,0,0,1,1.94-1.28,9.31,9.31,0,0,1,3-.43,8.8,8.8,0,0,1,3.06.46,3.9,3.9,0,0,1,1.85,1.32,3.51,3.51,0,0,1,.63,2l-3.9.34a1.44,1.44,0,0,0-.47-1,2,2,0,0,0-1.3-.35,2.1,2.1,0,0,0-1,.19.6.6,0,0,0-.36.52.52.52,0,0,0,.12.36,1.59,1.59,0,0,0,.55.28,12.69,12.69,0,0,0,1.29.33l1.72.37a12.73,12.73,0,0,1,1.88.56,3.15,3.15,0,0,1,1.28,1,3,3,0,0,1,.52,1.85,3.34,3.34,0,0,1-.71,2.16,4.34,4.34,0,0,1-2,1.39,9.21,9.21,0,0,1-3.14.48,9.42,9.42,0,0,1-3.11-.45,4.05,4.05,0,0,1-2-1.33,3.5,3.5,0,0,1-.7-2.12l4.27-.34a1.69,1.69,0,0,0,.52,1.13,2,2,0,0,0,1.26.34c.87,0,1.31-.24,1.31-.74A.54.54,0,0,0,21.13,24.24Z"/><path class="cls-1" d="M25.09,22.28a3.15,3.15,0,0,0-1.28-1,12.73,12.73,0,0,0-1.88-.56l-1.72-.37A12.69,12.69,0,0,1,18.92,20a1.59,1.59,0,0,1-.55-.28.52.52,0,0,1-.12-.36.6.6,0,0,1,.36-.52,2.1,2.1,0,0,1,1-.19,2,2,0,0,1,1.3.35,1.44,1.44,0,0,1,.47,1l3.9-.34a3.51,3.51,0,0,0-.63-2,3.9,3.9,0,0,0-1.85-1.32,8.8,8.8,0,0,0-3.06-.46,9.31,9.31,0,0,0-3,.43,4.06,4.06,0,0,0-1.94,1.28,3.24,3.24,0,0,0-.68,2.09c0,1.86,1.13,3,3.39,3.53l1.71.36c.59.13,1,.24,1.33.33a1.69,1.69,0,0,1,.61.31.54.54,0,0,1,.18.41c0,.5-.44.74-1.31.74a2,2,0,0,1-1.26-.34,1.69,1.69,0,0,1-.52-1.13L14,24.26a3.5,3.5,0,0,0,.7,2.12,4.05,4.05,0,0,0,2,1.33,9.42,9.42,0,0,0,3.11.45,9.21,9.21,0,0,0,3.14-.48,4.34,4.34,0,0,0,2-1.39,3.34,3.34,0,0,0,.71-2.16A3,3,0,0,0,25.09,22.28Z"/><path class="cls-1" d="M37.39,23.24A4,4,0,0,0,36,20,6.31,6.31,0,0,0,32,18.84,6.42,6.42,0,0,0,27.81,20a4.19,4.19,0,0,0-1.4,3.42v.21A4.12,4.12,0,0,0,27.8,27a6.43,6.43,0,0,0,4.14,1.14,7.62,7.62,0,0,0,3.79-.78A3.08,3.08,0,0,0,37.28,25L33,24.78a1.06,1.06,0,0,1-.32.73,1.14,1.14,0,0,1-.75.23c-.76,0-1.16-.46-1.19-1.39h6.54A8.05,8.05,0,0,0,37.39,23.24ZM33,22.44H30.79c.1-.79.48-1.18,1.14-1.18a1.11,1.11,0,0,1,.82.28,1.23,1.23,0,0,1,.27.87Z"/><path class="cls-1" d="M45.94,19a4.25,4.25,0,0,0-2.17.52,4.59,4.59,0,0,0-1.58,1.63L42,21a6.53,6.53,0,0,0,.38-1,4,4,0,0,0,.09-.88H38.27v8.81h4.31v-4a3.21,3.21,0,0,1,.31-1.57,1,1,0,0,1,.9-.54.77.77,0,0,1,.64.25,1.15,1.15,0,0,1,.21.76v5.14h4.3V21.62Q48.94,19,45.94,19Z"/><path class="cls-1" d="M56.32,16.16v2.17a7.5,7.5,0,0,0,.11,1.3A8.75,8.75,0,0,0,56.79,21l-.17.09a3.79,3.79,0,0,0-1.33-1.59,3.68,3.68,0,0,0-2-.52A3.16,3.16,0,0,0,50.64,20a5.21,5.21,0,0,0-.86,3.28v.41A5.13,5.13,0,0,0,50.65,27a3.15,3.15,0,0,0,2.62,1.08,3.68,3.68,0,0,0,2-.53,3.78,3.78,0,0,0,1.31-1.62l.18.08a7.09,7.09,0,0,0-.47,1.92h4.3V16.16Zm0,7.64A2.41,2.41,0,0,1,56,25.11a1,1,0,0,1-.87.44.9.9,0,0,1-.81-.42,2.3,2.3,0,0,1-.27-1.25v-.79a2.36,2.36,0,0,1,.27-1.26.9.9,0,0,1,.81-.42,1,1,0,0,1,.87.44,2.46,2.46,0,0,1,.28,1.33Z"/><path class="cls-1" d="M75.11,16.16,73.54,20.1A26.35,26.35,0,0,0,72.63,23h-.18a23.17,23.17,0,0,0-.91-2.89l-1.61-3.94H64.7V27.91h4.2V24.19c0-.68,0-1.47-.1-2.36l.18,0,2,6.11h3l2-6.11.16,0c-.06.8-.1,1.59-.1,2.36v3.72h4.2V16.16Z"/><path class="cls-1" d="M90.92,20a6.26,6.26,0,0,0-4.11-1.17A6.29,6.29,0,0,0,82.7,20a4.1,4.1,0,0,0-1.39,3.35v.28A4.13,4.13,0,0,0,82.7,27a6.29,6.29,0,0,0,4.11,1.17A6.27,6.27,0,0,0,90.92,27a4.14,4.14,0,0,0,1.4-3.35v-.28A4.08,4.08,0,0,0,90.92,20Zm-3,3.91a2.26,2.26,0,0,1-.27,1.24,1,1,0,0,1-.85.4.93.93,0,0,1-.84-.4,2.26,2.26,0,0,1-.27-1.24v-.83A2.24,2.24,0,0,1,86,21.85a.93.93,0,0,1,.84-.4,1,1,0,0,1,.85.4,2.24,2.24,0,0,1,.27,1.24Z"/><path class="cls-1" d="M100.88,19a4.29,4.29,0,0,0-2.18.52,4.67,4.67,0,0,0-1.58,1.63L97,21a6.33,6.33,0,0,0,.37-1,4,4,0,0,0,.09-.88H93.2v8.81h4.31v-4a3.21,3.21,0,0,1,.31-1.57,1,1,0,0,1,.9-.54.77.77,0,0,1,.64.25,1.15,1.15,0,0,1,.21.76v5.14h4.3V21.62C103.87,19.84,102.88,19,100.88,19Z"/><path class="cls-1" d="M115.7,23.24A4,4,0,0,0,114.33,20a6.31,6.31,0,0,0-4-1.12A6.42,6.42,0,0,0,106.11,20a4.19,4.19,0,0,0-1.4,3.42v.21A4.15,4.15,0,0,0,106.1,27a6.44,6.44,0,0,0,4.15,1.14,7.55,7.55,0,0,0,3.78-.78A3.07,3.07,0,0,0,115.59,25l-4.25-.26a1.11,1.11,0,0,1-.32.73,1.15,1.15,0,0,1-.76.23c-.76,0-1.16-.46-1.19-1.39h6.54A6.74,6.74,0,0,0,115.7,23.24Zm-4.37-.8H109.1c.1-.79.48-1.18,1.14-1.18a1.13,1.13,0,0,1,.82.28,1.23,1.23,0,0,1,.27.87Z"/><path class="cls-1" d="M122.6,19.1l-.78,3.53c-.15.71-.28,1.59-.4,2.65h-.18a26.92,26.92,0,0,0-.42-2.66L120,19.1h-4.38l3.13,8.42-.11.24c-.15.32-.65.5-1.49.56l-1,.05.26,2.72a15.6,15.6,0,0,0,4.22-.5A5.06,5.06,0,0,0,123.1,29a11,11,0,0,0,1.72-3.41l2-6.47Z"/><path class="cls-1" d="M138.09,16.16v3.91a19.92,19.92,0,0,0,.14,2.23l-.18,0c-.31-.72-.61-1.33-.89-1.85l-2.44-4.32H130.2V27.91h4.2V24c0-.65-.05-1.43-.13-2.35l.16,0a18.27,18.27,0,0,0,.93,2l2.43,4.32h4.49V16.16Z"/><path class="cls-1" d="M152.91,20a7.8,7.8,0,0,0-8.22,0,4.11,4.11,0,0,0-1.4,3.35v.28a4.14,4.14,0,0,0,1.4,3.35,7.79,7.79,0,0,0,8.21,0,4.11,4.11,0,0,0,1.41-3.35v-.28A4.11,4.11,0,0,0,152.91,20Zm-3,3.91a2.25,2.25,0,0,1-.28,1.24.93.93,0,0,1-.84.4,1,1,0,0,1-.85-.4,2.26,2.26,0,0,1-.27-1.24v-.83a2.24,2.24,0,0,1,.27-1.24,1,1,0,0,1,.85-.4.93.93,0,0,1,.84.4,2.23,2.23,0,0,1,.28,1.24Z"/><path class="cls-1" d="M166.15,19.1l-.56,3.62c-.11.74-.19,1.39-.24,2h-.17a16.09,16.09,0,0,0-.28-2l-.72-3.62h-3.77l-.62,3.62c-.13.73-.21,1.39-.26,2h-.18q-.07-.92-.27-2l-.64-3.61h-4.13l2.34,8.81h4.83l.42-3c.09-.59.17-1.32.22-2.21h.17c.07.83.16,1.57.25,2.2l.45,3h4.83l2.31-8.81Z"/></g></g></svg>