<svg xmlns="http://www.w3.org/2000/svg" viewBox="0 0 184.09 44.09"><g id="Layer_2" data-name="Layer 2"><g id="Layer_1-2" data-name="Layer 1"><path d="M162.05,44.09H22A22,22,0,0,1,22,0h140a22,22,0,0,1,0,44.09ZM22,.75a21.3,21.3,0,0,0,0,42.59h140a21.3,21.3,0,0,0,0-42.59Z"/><path d="M16.61,27.71a4.14,4.14,0,0,1-1.95-1.33A3.44,3.44,0,0,1,14,24.26l4.28-.34a1.61,1.61,0,0,0,.52,1.13,2,2,0,0,0,1.26.34c.87,0,1.3-.24,1.3-.74a.57.57,0,0,0-.17-.41,1.76,1.76,0,0,0-.62-.31,13.36,13.36,0,0,0-1.33-.33l-1.7-.37q-3.4-.74-3.39-3.52a3.23,3.23,0,0,1,.68-2.1,4.16,4.16,0,0,1,1.94-1.28,9.55,9.55,0,0,1,3-.42,8.8,8.8,0,0,1,3.06.46,3.86,3.86,0,0,1,1.86,1.32,3.43,3.43,0,0,1,.62,2l-3.89.34A1.49,1.49,0,0,0,20.9,19a2,2,0,0,0-1.3-.34,2.1,2.1,0,0,0-1,.19.59.59,0,0,0-.36.52.5.5,0,0,0,.13.36,1.43,1.43,0,0,0,.54.28,12.69,12.69,0,0,0,1.29.33l1.72.37a12.37,12.37,0,0,1,1.88.56,3.09,3.09,0,0,1,1.28,1,3,3,0,0,1,.53,1.85,3.4,3.4,0,0,1-.71,2.16,4.45,4.45,0,0,1-2,1.39,9.32,9.32,0,0,1-3.15.48A9.42,9.42,0,0,1,16.61,27.71Z"/><path d="M37.31,24.35H30.77c0,.93.43,1.39,1.19,1.39a1.1,1.1,0,0,0,.75-.23,1.07,1.07,0,0,0,.33-.73l4.25.26a3,3,0,0,1-1.56,2.33,7.47,7.47,0,0,1-3.78.79A6.44,6.44,0,0,1,27.8,27a4.15,4.15,0,0,1-1.39-3.39v-.21A4.19,4.19,0,0,1,27.81,20,6.42,6.42,0,0,1,32,18.84,6.31,6.31,0,0,1,36,20a4,4,0,0,1,1.36,3.27A6.79,6.79,0,0,1,37.31,24.35ZM33,22.44v0a1.23,1.23,0,0,0-.27-.87,1.15,1.15,0,0,0-.82-.28c-.66,0-1,.39-1.15,1.18Z"/><path d="M38.28,27.91V19.1h4.21a3.05,3.05,0,0,1-.09.88A6.33,6.33,0,0,1,42,21l.17.09a4.56,4.56,0,0,1,1.57-1.63A4.29,4.29,0,0,1,46,18.94c2,0,3,.9,3,2.68v6.29H44.64V22.77a1.2,1.2,0,0,0-.21-.77.79.79,0,0,0-.64-.24,1,1,0,0,0-.9.54,3.31,3.31,0,0,0-.31,1.56v4.05Z"/><path d="M50.65,27a5.15,5.15,0,0,1-.86-3.27V23.3A5.13,5.13,0,0,1,50.65,20a3.15,3.15,0,0,1,2.63-1.08,3.67,3.67,0,0,1,2,.53,3.88,3.88,0,0,1,1.34,1.59L56.8,21a8.75,8.75,0,0,1-.36-1.34,6.63,6.63,0,0,1-.11-1.3V16.16h4.3V27.91h-4.3A7.41,7.41,0,0,1,56.8,26l-.17-.08a3.87,3.87,0,0,1-1.32,1.62,3.65,3.65,0,0,1-2,.53A3.17,3.17,0,0,1,50.65,27ZM56,25.11a2.42,2.42,0,0,0,.29-1.31v-.62A2.45,2.45,0,0,0,56,21.85a1,1,0,0,0-.86-.44.9.9,0,0,0-.82.42,2.36,2.36,0,0,0-.27,1.26v.79a2.3,2.3,0,0,0,.27,1.25.9.9,0,0,0,.82.41A1,1,0,0,0,56,25.11Z"/><path d="M64.71,27.91V16.16h5.23l1.61,3.94a25.34,25.34,0,0,1,.9,2.89h.18a30,30,0,0,1,.91-2.9l1.58-3.93H80.3V27.91H76.11V24.19c0-.78,0-1.57.1-2.37l-.17,0-2,6.11H71L69,21.8l-.18,0c.07.89.1,1.68.1,2.37v3.72Z"/><path d="M82.71,27a4.14,4.14,0,0,1-1.4-3.35v-.28A4.11,4.11,0,0,1,82.71,20a6.26,6.26,0,0,1,4.11-1.17A6.26,6.26,0,0,1,90.93,20a4.11,4.11,0,0,1,1.4,3.35v.28A4.11,4.11,0,0,1,90.92,27a6.24,6.24,0,0,1-4.1,1.17A6.26,6.26,0,0,1,82.71,27Zm5-1.83a2.26,2.26,0,0,0,.27-1.24v-.84a2.2,2.2,0,0,0-.27-1.23.93.93,0,0,0-.84-.4,1,1,0,0,0-.85.4,2.2,2.2,0,0,0-.27,1.23v.84A2.26,2.26,0,0,0,86,25.16a1,1,0,0,0,.85.4A.93.93,0,0,0,87.66,25.16Z"/><path d="M93.21,27.91V19.1h4.21a3.05,3.05,0,0,1-.09.88A6.33,6.33,0,0,1,97,21l.17.09a4.56,4.56,0,0,1,1.57-1.63,4.32,4.32,0,0,1,2.18-.53c2,0,3,.9,3,2.68v6.29H99.57V22.77a1.26,1.26,0,0,0-.2-.77.82.82,0,0,0-.65-.24,1,1,0,0,0-.9.54,3.31,3.31,0,0,0-.31,1.56v4.05Z"/><path d="M115.62,24.35h-6.54c0,.93.43,1.39,1.19,1.39a1.14,1.14,0,0,0,.75-.23,1.11,1.11,0,0,0,.32-.73l4.25.26A3,3,0,0,1,114,27.37a7.51,7.51,0,0,1-3.79.79A6.39,6.39,0,0,1,106.11,27a4.12,4.12,0,0,1-1.39-3.39v-.21a4.16,4.16,0,0,1,1.4-3.42,6.41,6.41,0,0,1,4.16-1.16,6.29,6.29,0,0,1,4,1.12,4,4,0,0,1,1.37,3.27A8.09,8.09,0,0,1,115.62,24.35Zm-4.29-1.91v0a1.23,1.23,0,0,0-.27-.87,1.11,1.11,0,0,0-.82-.28c-.66,0-1,.39-1.14,1.18Z"/><path d="M116.13,28.37l1-.06c.85,0,1.35-.23,1.5-.55l.11-.24-3.14-8.42H120l.82,3.52a26.55,26.55,0,0,1,.43,2.66h.17c.12-1.06.26-1.94.41-2.65l.78-3.53h4.24l-2,6.47A11.08,11.08,0,0,1,123.1,29a5.09,5.09,0,0,1-2.48,1.61,15.71,15.71,0,0,1-4.22.5Z"/><path d="M130.21,27.91V16.16h4.51l2.45,4.32c.28.52.57,1.13.89,1.85l.17,0c-.09-.87-.14-1.61-.14-2.22V16.16h4.2V27.91h-4.5l-2.43-4.32a18,18,0,0,1-.92-2l-.17.05c.09.91.13,1.7.13,2.35v3.9Z"/><path d="M144.69,27a4.14,4.14,0,0,1-1.4-3.35v-.28a4.11,4.11,0,0,1,1.4-3.35,7.8,7.8,0,0,1,8.22,0,4.11,4.11,0,0,1,1.4,3.35v.28a4.14,4.14,0,0,1-1.4,3.35,7.8,7.8,0,0,1-8.22,0Zm5-1.83a2.26,2.26,0,0,0,.27-1.24v-.84a2.2,2.2,0,0,0-.27-1.23,1,1,0,0,0-.85-.4.93.93,0,0,0-.84.4,2.2,2.2,0,0,0-.27,1.23v.84a2.26,2.26,0,0,0,.27,1.24.93.93,0,0,0,.84.4A1,1,0,0,0,149.65,25.16Z"/><path d="M156.65,27.91l-2.33-8.81h4.12l.65,3.61c.12.71.21,1.37.26,2h.18c.05-.58.14-1.24.26-2l.62-3.61h3.77l.72,3.62a14.15,14.15,0,0,1,.28,2h.18c0-.58.12-1.23.23-2l.57-3.62h4l-2.3,8.81H163l-.45-3c-.09-.64-.17-1.37-.25-2.21h-.17q-.08,1.34-.21,2.22l-.43,3Z"/></g></g></svg>