<svg xmlns="http://www.w3.org/2000/svg" viewBox="0 0 220.72 34.92"><defs><style>.cls-1{fill:#fedd00;}</style></defs><g id="Layer_2" data-name="Layer 2"><g id="Layer_1-2" data-name="Layer 1"><path d="M31.48,16.57a3.33,3.33,0,0,1,.6,2.09,3.8,3.8,0,0,1-.81,2.44A4.9,4.9,0,0,1,29,22.67a10.32,10.32,0,0,1-3.56.55,10.58,10.58,0,0,1-3.51-.51,4.66,4.66,0,0,1-2.22-1.5,4,4,0,0,1-.79-2.4l4.83-.38a1.86,1.86,0,0,0,.59,1.27,2.24,2.24,0,0,0,1.43.39q1.47,0,1.47-.84a.63.63,0,0,0-.2-.47,1.82,1.82,0,0,0-.69-.34,14.29,14.29,0,0,0-1.5-.38l-1.93-.41q-3.84-.84-3.84-4a3.71,3.71,0,0,1,.77-2.37A4.63,4.63,0,0,1,22,9.85a10.45,10.45,0,0,1,3.41-.49,9.89,9.89,0,0,1,3.46.52,4.33,4.33,0,0,1,2.1,1.5,3.92,3.92,0,0,1,.71,2.32l-4.41.38a1.64,1.64,0,0,0-.53-1.19,2.24,2.24,0,0,0-1.47-.4,2.34,2.34,0,0,0-1.12.23.65.65,0,0,0-.41.58.59.59,0,0,0,.14.4,1.56,1.56,0,0,0,.62.32A13.35,13.35,0,0,0,26,14.4l1.95.42a13.88,13.88,0,0,1,2.13.63A3.33,3.33,0,0,1,31.48,16.57Z"/><path d="M43.85,14a4.49,4.49,0,0,1,1.55,3.7,8.57,8.57,0,0,1-.1,1.26H37.91c0,1,.48,1.57,1.34,1.57a1.08,1.08,0,0,0,1.22-1.09l4.8.3a3.48,3.48,0,0,1-1.75,2.64,8.6,8.6,0,0,1-4.29.89,7.26,7.26,0,0,1-4.68-1.29A4.67,4.67,0,0,1,33,18.09v-.23A4.74,4.74,0,0,1,34.56,14a7.25,7.25,0,0,1,4.71-1.31A7,7,0,0,1,43.85,14Z"/><path d="M58.46,15.82v7.12H53.59V17.13a1.29,1.29,0,0,0-.24-.87.86.86,0,0,0-.72-.28,1.12,1.12,0,0,0-1,.61,3.7,3.7,0,0,0-.35,1.77v4.58H46.39V13h4.77a4.4,4.4,0,0,1-.1,1,8,8,0,0,1-.43,1.16l.2.11a5.1,5.1,0,0,1,1.77-1.85,4.93,4.93,0,0,1,2.47-.59Q58.46,12.8,58.46,15.82Z"/><path d="M66.8,9.65h4.87V22.94H66.81a8.22,8.22,0,0,1,.53-2.18l-.2-.08a4.33,4.33,0,0,1-1.48,1.82,4.13,4.13,0,0,1-2.31.61,3.61,3.61,0,0,1-3-1.22,5.9,5.9,0,0,1-1-3.71v-.46a5.84,5.84,0,0,1,1-3.71,3.58,3.58,0,0,1,3-1.21,4.12,4.12,0,0,1,2.28.59,4.32,4.32,0,0,1,1.51,1.8l.19-.11a11.58,11.58,0,0,1-.41-1.51,8.41,8.41,0,0,1-.12-1.47Z"/><path d="M88,9.65h5.87V22.94H89.16V18.73c0-.88,0-1.77.12-2.68l-.19,0L86.8,22.94H83.38L81.11,16l-.2,0c.07,1,.11,1.9.11,2.68v4.21H76.27V9.65h5.92L84,14.11a28.26,28.26,0,0,1,1,3.26h.2a30.64,30.64,0,0,1,1-3.27Z"/><path d="M105.92,14a4.62,4.62,0,0,1,1.58,3.79v.31a4.67,4.67,0,0,1-1.58,3.8,8.83,8.83,0,0,1-9.29,0,4.7,4.7,0,0,1-1.58-3.8v-.31A4.65,4.65,0,0,1,96.63,14a8.83,8.83,0,0,1,9.29,0Z"/><path d="M120.57,15.82v7.12H115.7V17.13a1.29,1.29,0,0,0-.24-.87.86.86,0,0,0-.72-.28,1.11,1.11,0,0,0-1,.61,3.7,3.7,0,0,0-.35,1.77v4.58H108.5V13h4.77a4.4,4.4,0,0,1-.1,1,8,8,0,0,1-.43,1.16l.19.11a5.2,5.2,0,0,1,1.78-1.85,4.93,4.93,0,0,1,2.47-.59Q120.57,12.8,120.57,15.82Z"/><path d="M132.39,14a4.49,4.49,0,0,1,1.54,3.7,8.59,8.59,0,0,1-.09,1.26h-7.4c0,1,.49,1.57,1.35,1.57A1.08,1.08,0,0,0,129,19.39l4.8.3a3.46,3.46,0,0,1-1.76,2.64,8.56,8.56,0,0,1-4.28.89,7.24,7.24,0,0,1-4.68-1.29,4.67,4.67,0,0,1-1.57-3.84v-.23A4.71,4.71,0,0,1,123.1,14a7.25,7.25,0,0,1,4.71-1.31A7.07,7.07,0,0,1,132.39,14Z"/><path d="M141.74,13h4.8l-2.29,7.32a12.34,12.34,0,0,1-1.95,3.85A5.65,5.65,0,0,1,139.49,26a18,18,0,0,1-4.77.57l-.29-3.07,1.13-.07c1-.06,1.52-.27,1.69-.63l.13-.27L133.84,13h4.95l.93,4c.18.79.34,1.79.49,3h.2c.13-1.18.28-2.18.45-3Z"/><path d="M159.25,9.65H164V22.94h-5.08l-2.76-4.89a23,23,0,0,1-1-2.23l-.19,0c.1,1,.15,1.93.15,2.66v4.42h-4.75V9.65h5.11l2.76,4.88c.32.59.66,1.28,1,2.09l.2,0a22.92,22.92,0,0,1-.16-2.51Z"/><path d="M176,14a4.65,4.65,0,0,1,1.58,3.79v.31A4.68,4.68,0,0,1,176,21.9a8.83,8.83,0,0,1-9.29,0,4.7,4.7,0,0,1-1.58-3.8v-.31A4.65,4.65,0,0,1,166.71,14a8.85,8.85,0,0,1,9.3,0Z"/><path d="M195.48,13l-2.61,10H187.4l-.5-3.38c-.11-.73-.2-1.56-.28-2.5h-.19c-.07,1-.15,1.84-.25,2.5l-.49,3.38h-5.45L177.6,13h4.66l.73,4.08c.14.8.25,1.55.3,2.24h.2c.06-.66.16-1.4.3-2.23l.7-4.09h4.26l.82,4.1a16.21,16.21,0,0,1,.31,2.22h.2q.07-1,.27-2.22L191,13Z"/><path d="M203.26,0H17.45a17.46,17.46,0,0,0,0,34.92H203.26a17.46,17.46,0,1,0,0-34.92Zm-7.78,13-2.61,10H187.4l-.5-3.38c-.11-.73-.2-1.56-.28-2.5h-.19c-.07,1-.15,1.84-.25,2.5l-.49,3.38h-5.45L177.6,13h4.66l.73,4.08c.14.8.25,1.55.3,2.24h.2c.06-.66.16-1.4.3-2.23l.7-4.09h4.26l.82,4.1a16.21,16.21,0,0,1,.31,2.22h.2q.07-1,.27-2.22L191,13Zm-17.89,4.82v.31A4.68,4.68,0,0,1,176,21.9a8.83,8.83,0,0,1-9.29,0,4.7,4.7,0,0,1-1.58-3.8v-.31A4.65,4.65,0,0,1,166.71,14a8.85,8.85,0,0,1,9.3,0A4.65,4.65,0,0,1,177.59,17.79Zm-22.51.73v4.42h-4.75V9.65h5.11l2.76,4.88c.32.59.66,1.28,1,2.09l.2,0a22.92,22.92,0,0,1-.16-2.51V9.65H164V22.94h-5.08l-2.76-4.89a23,23,0,0,1-1-2.23l-.19,0C155,16.9,155.08,17.79,155.08,18.52ZM133.84,13h4.95l.93,4c.18.79.34,1.79.49,3h.2c.13-1.18.28-2.18.45-3l.88-4h4.8l-2.29,7.32a12.34,12.34,0,0,1-1.95,3.85A5.65,5.65,0,0,1,139.49,26a18,18,0,0,1-4.77.57l-.29-3.07,1.13-.07c1-.06,1.52-.27,1.69-.63l.13-.27Zm-6,7.51A1.08,1.08,0,0,0,129,19.39l4.8.3a3.46,3.46,0,0,1-1.76,2.64,8.56,8.56,0,0,1-4.28.89,7.24,7.24,0,0,1-4.68-1.29,4.67,4.67,0,0,1-1.57-3.84v-.23A4.71,4.71,0,0,1,123.1,14a7.25,7.25,0,0,1,4.71-1.31A7.07,7.07,0,0,1,132.39,14a4.49,4.49,0,0,1,1.54,3.7,8.59,8.59,0,0,1-.09,1.26h-7.4C126.48,20,126.93,20.48,127.79,20.48Zm-12.33-4.22a.86.86,0,0,0-.72-.28,1.11,1.11,0,0,0-1,.61,3.7,3.7,0,0,0-.35,1.77v4.58H108.5V13h4.77a4.4,4.4,0,0,1-.1,1,8,8,0,0,1-.43,1.16l.19.11a5.2,5.2,0,0,1,1.78-1.85,4.93,4.93,0,0,1,2.47-.59q3.39,0,3.39,3v7.12H115.7V17.13A1.29,1.29,0,0,0,115.46,16.26Zm-8,1.53v.31a4.67,4.67,0,0,1-1.58,3.8,8.83,8.83,0,0,1-9.29,0,4.7,4.7,0,0,1-1.58-3.8v-.31A4.65,4.65,0,0,1,96.63,14a8.83,8.83,0,0,1,9.29,0A4.62,4.62,0,0,1,107.5,17.79ZM89.09,16,86.8,22.94H83.38L81.11,16l-.2,0c.07,1,.11,1.9.11,2.68v4.21H76.27V9.65h5.92L84,14.11a28.26,28.26,0,0,1,1,3.26h.2a30.64,30.64,0,0,1,1-3.27L88,9.65h5.87V22.94H89.16V18.73c0-.88,0-1.77.12-2.68Zm-22,4.66a4.33,4.33,0,0,1-1.48,1.82,4.13,4.13,0,0,1-2.31.61,3.61,3.61,0,0,1-3-1.22,5.9,5.9,0,0,1-1-3.71v-.46a5.84,5.84,0,0,1,1-3.71,3.58,3.58,0,0,1,3-1.21,4.12,4.12,0,0,1,2.28.59,4.32,4.32,0,0,1,1.51,1.8l.19-.11a11.58,11.58,0,0,1-.41-1.51,8.41,8.41,0,0,1-.12-1.47V9.65h4.87V22.94H66.81a8.22,8.22,0,0,1,.53-2.18ZM53.35,16.26a.86.86,0,0,0-.72-.28,1.12,1.12,0,0,0-1,.61,3.7,3.7,0,0,0-.35,1.77v4.58H46.39V13h4.77a4.4,4.4,0,0,1-.1,1,8,8,0,0,1-.43,1.16l.2.11a5.1,5.1,0,0,1,1.77-1.85,4.93,4.93,0,0,1,2.47-.59q3.39,0,3.39,3v7.12H53.59V17.13A1.29,1.29,0,0,0,53.35,16.26Zm-14.1,4.22a1.08,1.08,0,0,0,1.22-1.09l4.8.3a3.48,3.48,0,0,1-1.75,2.64,8.6,8.6,0,0,1-4.29.89,7.26,7.26,0,0,1-4.68-1.29A4.67,4.67,0,0,1,33,18.09v-.23A4.74,4.74,0,0,1,34.56,14a7.25,7.25,0,0,1,4.71-1.31A7,7,0,0,1,43.85,14a4.49,4.49,0,0,1,1.55,3.7,8.57,8.57,0,0,1-.1,1.26H37.91C37.94,20,38.39,20.48,39.25,20.48ZM27,18.78a1.82,1.82,0,0,0-.69-.34,14.29,14.29,0,0,0-1.5-.38l-1.93-.41q-3.84-.84-3.84-4a3.71,3.71,0,0,1,.77-2.37A4.63,4.63,0,0,1,22,9.85a10.45,10.45,0,0,1,3.41-.49,9.89,9.89,0,0,1,3.46.52,4.33,4.33,0,0,1,2.1,1.5,3.92,3.92,0,0,1,.71,2.32l-4.41.38a1.64,1.64,0,0,0-.53-1.19,2.24,2.24,0,0,0-1.47-.4,2.34,2.34,0,0,0-1.12.23.65.65,0,0,0-.41.58.59.59,0,0,0,.14.4,1.56,1.56,0,0,0,.62.32A13.35,13.35,0,0,0,26,14.4l1.95.42a13.88,13.88,0,0,1,2.13.63,3.23,3.23,0,0,1,2,3.21,3.8,3.8,0,0,1-.81,2.44A4.9,4.9,0,0,1,29,22.67a10.32,10.32,0,0,1-3.56.55,10.58,10.58,0,0,1-3.51-.51,4.66,4.66,0,0,1-2.22-1.5,4,4,0,0,1-.79-2.4l4.83-.38a1.86,1.86,0,0,0,.59,1.27,2.24,2.24,0,0,0,1.43.39q1.47,0,1.47-.84A.63.63,0,0,0,27,18.78Z"/><path class="cls-1" d="M31.48,16.57A3.33,3.33,0,0,0,30,15.45a13.88,13.88,0,0,0-2.13-.63L26,14.4A13.35,13.35,0,0,1,24.51,14a1.56,1.56,0,0,1-.62-.32.59.59,0,0,1-.14-.4.65.65,0,0,1,.41-.58,2.34,2.34,0,0,1,1.12-.23,2.24,2.24,0,0,1,1.47.4,1.64,1.64,0,0,1,.53,1.19l4.41-.38A3.92,3.92,0,0,0,31,11.38a4.33,4.33,0,0,0-2.1-1.5,9.89,9.89,0,0,0-3.46-.52A10.45,10.45,0,0,0,22,9.85a4.63,4.63,0,0,0-2.19,1.44,3.71,3.71,0,0,0-.77,2.37q0,3.15,3.84,4l1.93.41a14.29,14.29,0,0,1,1.5.38,1.82,1.82,0,0,1,.69.34.63.63,0,0,1,.2.47q0,.84-1.47.84a2.24,2.24,0,0,1-1.43-.39,1.86,1.86,0,0,1-.59-1.27l-4.83.38a4,4,0,0,0,.79,2.4,4.66,4.66,0,0,0,2.22,1.5,10.58,10.58,0,0,0,3.51.51A10.32,10.32,0,0,0,29,22.67a4.9,4.9,0,0,0,2.3-1.57,3.8,3.8,0,0,0,.81-2.44A3.33,3.33,0,0,0,31.48,16.57Z"/><path class="cls-1" d="M45.4,17.65A4.49,4.49,0,0,0,43.85,14a7,7,0,0,0-4.58-1.27A7.25,7.25,0,0,0,34.56,14,4.74,4.74,0,0,0,33,17.86v.23a4.67,4.67,0,0,0,1.57,3.84,7.26,7.26,0,0,0,4.68,1.29,8.6,8.6,0,0,0,4.29-.89,3.48,3.48,0,0,0,1.75-2.64l-4.8-.3a1.08,1.08,0,0,1-1.22,1.09c-.86,0-1.31-.53-1.34-1.57H45.3A8.57,8.57,0,0,0,45.4,17.65Zm-4.94-.9H37.93c.12-.89.55-1.33,1.29-1.33a1.24,1.24,0,0,1,.93.31,1.37,1.37,0,0,1,.31,1Z"/><path class="cls-1" d="M55.07,12.8a4.93,4.93,0,0,0-2.47.59,5.1,5.1,0,0,0-1.77,1.85l-.2-.11A8,8,0,0,0,51.06,14a4.4,4.4,0,0,0,.1-1H46.39v10h4.87V18.36a3.7,3.7,0,0,1,.35-1.77,1.12,1.12,0,0,1,1-.61.86.86,0,0,1,.72.28,1.29,1.29,0,0,1,.24.87v5.81h4.87V15.82Q58.46,12.81,55.07,12.8Z"/><path class="cls-1" d="M66.8,9.65V12.1a8.41,8.41,0,0,0,.12,1.47,11.58,11.58,0,0,0,.41,1.51l-.19.11a4.32,4.32,0,0,0-1.51-1.8,4.12,4.12,0,0,0-2.28-.59,3.58,3.58,0,0,0-3,1.21,5.84,5.84,0,0,0-1,3.71v.46a5.9,5.9,0,0,0,1,3.71,3.61,3.61,0,0,0,3,1.22,4.13,4.13,0,0,0,2.31-.61,4.33,4.33,0,0,0,1.48-1.82l.2.08a8.22,8.22,0,0,0-.53,2.18h4.86V9.65Zm0,8.63a2.8,2.8,0,0,1-.32,1.49,1.09,1.09,0,0,1-1,.49,1,1,0,0,1-.92-.47,2.64,2.64,0,0,1-.3-1.41v-.89a2.7,2.7,0,0,1,.3-1.43,1,1,0,0,1,.92-.47,1.09,1.09,0,0,1,1,.49,2.84,2.84,0,0,1,.32,1.5Z"/><path class="cls-1" d="M88,9.65,86.27,14.1a30.64,30.64,0,0,0-1,3.27H85a28.26,28.26,0,0,0-1-3.26L82.19,9.65H76.27V22.94H81V18.73c0-.78,0-1.67-.11-2.68l.2,0,2.27,6.92H86.8L89.09,16l.19,0c-.08.91-.12,1.8-.12,2.68v4.21h4.75V9.65Z"/><path class="cls-1" d="M105.92,14a8.83,8.83,0,0,0-9.29,0,4.65,4.65,0,0,0-1.58,3.79v.31a4.7,4.7,0,0,0,1.58,3.8,8.83,8.83,0,0,0,9.29,0,4.67,4.67,0,0,0,1.58-3.8v-.31A4.62,4.62,0,0,0,105.92,14Zm-3.38,4.43a2.47,2.47,0,0,1-.31,1.39,1,1,0,0,1-1,.46,1.08,1.08,0,0,1-1-.46,2.55,2.55,0,0,1-.31-1.39v-.95a2.54,2.54,0,0,1,.31-1.4,1.09,1.09,0,0,1,1-.45,1.06,1.06,0,0,1,1,.45,2.46,2.46,0,0,1,.31,1.4Z"/><path class="cls-1" d="M117.18,12.8a4.93,4.93,0,0,0-2.47.59,5.2,5.2,0,0,0-1.78,1.85l-.19-.11a8,8,0,0,0,.43-1.16,4.4,4.4,0,0,0,.1-1H108.5v10h4.87V18.36a3.7,3.7,0,0,1,.35-1.77,1.11,1.11,0,0,1,1-.61.86.86,0,0,1,.72.28,1.29,1.29,0,0,1,.24.87v5.81h4.87V15.82Q120.57,12.81,117.18,12.8Z"/><path class="cls-1" d="M133.93,17.65a4.49,4.49,0,0,0-1.54-3.7,7.07,7.07,0,0,0-4.58-1.27A7.25,7.25,0,0,0,123.1,14a4.71,4.71,0,0,0-1.58,3.87v.23a4.67,4.67,0,0,0,1.57,3.84,7.24,7.24,0,0,0,4.68,1.29,8.56,8.56,0,0,0,4.28-.89,3.46,3.46,0,0,0,1.76-2.64l-4.8-.3a1.08,1.08,0,0,1-1.22,1.09c-.86,0-1.31-.53-1.35-1.57h7.4A8.59,8.59,0,0,0,133.93,17.65Zm-4.93-.9h-2.53c.11-.89.55-1.33,1.29-1.33a1.26,1.26,0,0,1,.93.31,1.41,1.41,0,0,1,.31,1Z"/><path class="cls-1" d="M141.74,13l-.88,4c-.17.81-.32,1.81-.45,3h-.2c-.15-1.21-.31-2.21-.49-3l-.93-4h-4.95l3.54,9.52-.13.27c-.17.36-.73.57-1.69.63l-1.13.07.29,3.07a18,18,0,0,0,4.77-.57,5.65,5.65,0,0,0,2.81-1.82,12.34,12.34,0,0,0,1.95-3.85L146.54,13Z"/><path class="cls-1" d="M159.25,9.65v4.42a22.92,22.92,0,0,0,.16,2.51l-.2,0c-.35-.81-.69-1.5-1-2.09l-2.76-4.88h-5.11V22.94h4.75V18.52c0-.73-.05-1.62-.15-2.66l.19,0a23,23,0,0,0,1,2.23l2.76,4.89H164V9.65Z"/><path class="cls-1" d="M176,14a8.85,8.85,0,0,0-9.3,0,4.65,4.65,0,0,0-1.58,3.79v.31a4.7,4.7,0,0,0,1.58,3.8,8.83,8.83,0,0,0,9.29,0,4.68,4.68,0,0,0,1.59-3.8v-.31A4.65,4.65,0,0,0,176,14Zm-3.39,4.43a2.56,2.56,0,0,1-.3,1.39,1.08,1.08,0,0,1-1,.46,1,1,0,0,1-1-.46,2.47,2.47,0,0,1-.31-1.39v-.95a2.46,2.46,0,0,1,.31-1.4,1.06,1.06,0,0,1,1-.45,1.09,1.09,0,0,1,1,.45,2.55,2.55,0,0,1,.3,1.4Z"/><path class="cls-1" d="M191,13l-.63,4.1q-.19,1.24-.27,2.22h-.2a16.21,16.21,0,0,0-.31-2.22l-.82-4.1h-4.26l-.7,4.09c-.14.83-.24,1.57-.3,2.23h-.2c0-.69-.16-1.44-.3-2.24L182.26,13H177.6l2.64,10h5.45l.49-3.38c.1-.66.18-1.5.25-2.5h.19c.08.94.17,1.77.28,2.5l.5,3.38h5.47l2.61-10Z"/></g></g></svg>