<svg xmlns="http://www.w3.org/2000/svg" viewBox="0 0 220.72 34.91"><g id="Layer_2" data-name="Layer 2"><g id="Layer_1-2" data-name="Layer 1"><path d="M203.26,34.91H17.46A17.46,17.46,0,1,1,17.46,0h185.8a17.46,17.46,0,1,1,0,34.91ZM17.46,1a16.46,16.46,0,1,0,0,32.91h185.8a16.46,16.46,0,1,0,0-32.91Z"/><path d="M21.9,22.7a4.66,4.66,0,0,1-2.22-1.5,4,4,0,0,1-.79-2.4l4.83-.38a1.84,1.84,0,0,0,.59,1.27,2.24,2.24,0,0,0,1.43.39c1,0,1.47-.28,1.47-.83a.62.62,0,0,0-.2-.47,1.81,1.81,0,0,0-.69-.35c-.33-.11-.83-.23-1.5-.38l-1.93-.41q-3.84-.83-3.84-4a3.69,3.69,0,0,1,.77-2.37A4.64,4.64,0,0,1,22,9.84a10.75,10.75,0,0,1,3.41-.48,9.89,9.89,0,0,1,3.46.52A4.31,4.31,0,0,1,31,11.37a3.94,3.94,0,0,1,.71,2.32l-4.41.38a1.66,1.66,0,0,0-.53-1.19,2.31,2.31,0,0,0-1.47-.39,2.35,2.35,0,0,0-1.12.22.68.68,0,0,0-.41.59.61.61,0,0,0,.14.4,1.7,1.7,0,0,0,.62.32c.32.1.8.23,1.45.38l1.95.41a12.77,12.77,0,0,1,2.13.64,3.23,3.23,0,0,1,2,3.21,3.82,3.82,0,0,1-.81,2.44A5,5,0,0,1,29,22.67a10.57,10.57,0,0,1-3.56.55A10.56,10.56,0,0,1,21.9,22.7Z"/><path d="M45.3,18.91H37.91c0,1,.48,1.56,1.34,1.56a1.27,1.27,0,0,0,.85-.25,1.29,1.29,0,0,0,.37-.83l4.8.29a3.44,3.44,0,0,1-1.75,2.64,8.48,8.48,0,0,1-4.29.9,7.2,7.2,0,0,1-4.68-1.3A4.65,4.65,0,0,1,33,18.09v-.24A4.74,4.74,0,0,1,34.56,14a7.25,7.25,0,0,1,4.71-1.3,7.11,7.11,0,0,1,4.58,1.26,4.51,4.51,0,0,1,1.55,3.7A8.71,8.71,0,0,1,45.3,18.91Zm-4.84-2.17v0a1.34,1.34,0,0,0-.31-1,1.25,1.25,0,0,0-.93-.32c-.74,0-1.17.45-1.29,1.33Z"/><path d="M46.39,22.93V13h4.77a4.4,4.4,0,0,1-.1,1,8.06,8.06,0,0,1-.43,1.17l.2.1a5.06,5.06,0,0,1,1.77-1.84,4.83,4.83,0,0,1,2.47-.6q3.39,0,3.39,3v7.11H53.59V17.12a1.33,1.33,0,0,0-.24-.87.89.89,0,0,0-.72-.28,1.13,1.13,0,0,0-1,.62,3.67,3.67,0,0,0-.35,1.77v4.57Z"/><path d="M60.38,21.88a5.88,5.88,0,0,1-1-3.71v-.45a5.89,5.89,0,0,1,1-3.72,3.61,3.61,0,0,1,3-1.21,4.12,4.12,0,0,1,2.28.6,4.22,4.22,0,0,1,1.51,1.79l.19-.1a12,12,0,0,1-.41-1.51,8.58,8.58,0,0,1-.12-1.47V9.64h4.87V22.93H66.81a8.17,8.17,0,0,1,.53-2.17l-.2-.09a4.27,4.27,0,0,1-1.48,1.82,4.05,4.05,0,0,1-2.31.61A3.58,3.58,0,0,1,60.38,21.88Zm6.1-2.12a2.76,2.76,0,0,0,.32-1.48v-.7a2.84,2.84,0,0,0-.32-1.5,1.1,1.1,0,0,0-1-.5,1,1,0,0,0-.92.47,2.72,2.72,0,0,0-.3,1.43v.89a2.66,2.66,0,0,0,.3,1.42,1,1,0,0,0,.92.46A1.09,1.09,0,0,0,66.48,19.76Z"/><path d="M76.27,22.93V9.64h5.92L84,14.1a28.54,28.54,0,0,1,1,3.27h.2a31.73,31.73,0,0,1,1-3.28L88,9.64h5.87V22.93H89.17v-4.2c0-.88,0-1.78.11-2.68l-.19,0L86.8,22.93H83.38L81.11,16l-.2,0c.07,1,.11,1.9.11,2.68v4.2Z"/><path d="M96.63,21.89a4.68,4.68,0,0,1-1.58-3.79v-.31A4.67,4.67,0,0,1,96.63,14a8.89,8.89,0,0,1,9.29,0,4.64,4.64,0,0,1,1.58,3.8v.31a4.65,4.65,0,0,1-1.58,3.79,8.78,8.78,0,0,1-9.29,0Zm5.6-2.07a2.5,2.5,0,0,0,.31-1.4v-1a2.48,2.48,0,0,0-.31-1.4,1.06,1.06,0,0,0-1-.45,1.09,1.09,0,0,0-1,.45,2.57,2.57,0,0,0-.31,1.4v1a2.59,2.59,0,0,0,.31,1.4,1.09,1.09,0,0,0,1,.45A1.06,1.06,0,0,0,102.23,19.82Z"/><path d="M108.5,22.93V13h4.77a4.4,4.4,0,0,1-.1,1,8.06,8.06,0,0,1-.43,1.17l.19.1a5.17,5.17,0,0,1,1.78-1.84,4.83,4.83,0,0,1,2.47-.6q3.39,0,3.39,3v7.11H115.7V17.12a1.33,1.33,0,0,0-.24-.87.89.89,0,0,0-.72-.28,1.12,1.12,0,0,0-1,.62,3.67,3.67,0,0,0-.35,1.77v4.57Z"/><path d="M133.84,18.91h-7.4q.06,1.56,1.35,1.56a1.27,1.27,0,0,0,.85-.25,1.29,1.29,0,0,0,.37-.83l4.8.29a3.43,3.43,0,0,1-1.76,2.64,8.44,8.44,0,0,1-4.28.9,7.18,7.18,0,0,1-4.68-1.3,4.65,4.65,0,0,1-1.57-3.83v-.24A4.71,4.71,0,0,1,123.1,14a7.25,7.25,0,0,1,4.71-1.3,7.13,7.13,0,0,1,4.58,1.26,4.5,4.5,0,0,1,1.54,3.7A8.73,8.73,0,0,1,133.84,18.91ZM129,16.74v0a1.39,1.39,0,0,0-.31-1,1.26,1.26,0,0,0-.93-.32c-.74,0-1.18.45-1.29,1.33Z"/><path d="M134.43,23.45l1.13-.06c1-.06,1.52-.27,1.69-.63l.13-.28L133.84,13h4.95l.93,4c.18.79.34,1.79.49,3h.2c.13-1.19.28-2.19.45-3l.88-4h4.8l-2.29,7.32a12.41,12.41,0,0,1-1.95,3.86A5.72,5.72,0,0,1,139.49,26a18,18,0,0,1-4.77.57Z"/><path d="M150.33,22.93V9.64h5.11l2.76,4.89c.32.58.66,1.28,1,2.09l.2,0a23.24,23.24,0,0,1-.16-2.52V9.64H164V22.93h-5.08L156.16,18a21.89,21.89,0,0,1-1-2.23l-.19,0c.1,1,.15,1.92.15,2.66v4.41Z"/><path d="M166.71,21.89a4.68,4.68,0,0,1-1.58-3.79v-.31a4.67,4.67,0,0,1,1.58-3.8,8.91,8.91,0,0,1,9.3,0,4.67,4.67,0,0,1,1.58,3.8v.31A4.66,4.66,0,0,1,176,21.89a8.78,8.78,0,0,1-9.29,0Zm5.61-2.07a2.6,2.6,0,0,0,.3-1.4v-1a2.58,2.58,0,0,0-.3-1.4,1.09,1.09,0,0,0-1-.45,1.06,1.06,0,0,0-1,.45,2.48,2.48,0,0,0-.31,1.4v1a2.5,2.5,0,0,0,.31,1.4,1.06,1.06,0,0,0,1,.45A1.09,1.09,0,0,0,172.32,19.82Z"/><path d="M180.24,22.93,177.6,13h4.66L183,17c.14.81.25,1.56.3,2.25h.2c.06-.66.16-1.41.3-2.24l.7-4.09h4.26l.82,4.1a16.57,16.57,0,0,1,.31,2.23h.2c0-.66.14-1.4.27-2.23L191,13h4.5l-2.61,10H187.4l-.5-3.38c-.11-.72-.2-1.55-.28-2.5h-.19c-.07,1-.15,1.85-.25,2.51l-.49,3.37Z"/></g></g></svg>