<svg xmlns="http://www.w3.org/2000/svg" viewBox="0 0 76.3 18.61"><g id="Layer_2" data-name="Layer 2"><g id="Layer_1-2" data-name="Layer 1"><path d="M67,18.61H9.3A9.31,9.31,0,0,1,9.3,0H67a9.31,9.31,0,0,1,0,18.61ZM9.3.75a8.56,8.56,0,0,0,0,17.11H67A8.56,8.56,0,0,0,67,.75Z"/><path d="M7.07,11.64a1.67,1.67,0,0,1-.81-.55A1.42,1.42,0,0,1,6,10.22l1.76-.14a.67.67,0,0,0,.22.46.76.76,0,0,0,.51.14q.54,0,.54-.3a.21.21,0,0,0-.07-.17.64.64,0,0,0-.25-.13l-.55-.14-.7-.14C6.49,9.59,6,9.11,6,8.34a1.31,1.31,0,0,1,.28-.86A1.66,1.66,0,0,1,7.11,7a3.82,3.82,0,0,1,1.24-.18A3.54,3.54,0,0,1,9.61,7a1.54,1.54,0,0,1,.77.54,1.42,1.42,0,0,1,.25.85L9,8.49a.6.6,0,0,0-.2-.43.78.78,0,0,0-.53-.14A.81.81,0,0,0,7.89,8a.23.23,0,0,0-.15.21.25.25,0,0,0,0,.15A.49.49,0,0,0,8,8.47a4.13,4.13,0,0,0,.53.14l.71.15A5.2,5.2,0,0,1,10,9a1.25,1.25,0,0,1,.53.41,1.28,1.28,0,0,1,.22.77,1.39,1.39,0,0,1-.3.89,1.89,1.89,0,0,1-.84.57,3.8,3.8,0,0,1-1.29.2A3.93,3.93,0,0,1,7.07,11.64Z"/><path d="M15.6,10.26H12.9c0,.38.18.57.49.57a.41.41,0,0,0,.31-.1.42.42,0,0,0,.13-.3l1.75.11a1.26,1.26,0,0,1-.63,1,3.08,3.08,0,0,1-1.57.33,2.65,2.65,0,0,1-1.7-.47A1.72,1.72,0,0,1,11.1,10V9.87a1.75,1.75,0,0,1,.58-1.41A2.71,2.71,0,0,1,13.4,8a2.58,2.58,0,0,1,1.67.46,1.64,1.64,0,0,1,.56,1.35A3.55,3.55,0,0,1,15.6,10.26Zm-1.77-.79h0a.52.52,0,0,0-.11-.36A.45.45,0,0,0,13.38,9c-.27,0-.43.16-.47.49Z"/><path d="M16,11.72V8.09h1.74a1.32,1.32,0,0,1,0,.36,1.85,1.85,0,0,1-.15.43l.07,0a1.75,1.75,0,0,1,.65-.67,1.72,1.72,0,0,1,.9-.22c.82,0,1.23.37,1.23,1.1v2.59H18.62V9.6a.46.46,0,0,0-.09-.31.31.31,0,0,0-.26-.1.4.4,0,0,0-.37.22,1.29,1.29,0,0,0-.13.65v1.66Z"/><path d="M21.09,11.34A2.2,2.2,0,0,1,20.74,10V9.82a2.1,2.1,0,0,1,.35-1.35A1.3,1.3,0,0,1,22.18,8a1.51,1.51,0,0,1,.82.21,1.67,1.67,0,0,1,.56.66l.07,0a3.85,3.85,0,0,1-.15-.55,2.92,2.92,0,0,1-.05-.54V6.88h1.78v4.84H23.44a2.71,2.71,0,0,1,.19-.79l-.07,0a1.52,1.52,0,0,1-.55.66,1.45,1.45,0,0,1-.83.22A1.3,1.3,0,0,1,21.09,11.34Zm2.22-.77a1,1,0,0,0,.12-.54V9.77a1,1,0,0,0-.12-.55A.38.38,0,0,0,23,9a.38.38,0,0,0-.34.18,1,1,0,0,0-.11.52v.32a1,1,0,0,0,.11.52.4.4,0,0,0,.34.17A.38.38,0,0,0,23.31,10.57Z"/><path d="M26.88,11.72V6.88H29l.66,1.63a9.22,9.22,0,0,1,.38,1.18h.07a10,10,0,0,1,.38-1.19l.64-1.62h2.14v4.84H31.58V10.19c0-.32,0-.65,0-1h-.07l-.83,2.52H29.48L28.65,9.2h-.08c0,.37,0,.7,0,1v1.53Z"/><path d="M34.3,11.34A1.7,1.7,0,0,1,33.73,10V9.85a1.69,1.69,0,0,1,.57-1.38A2.61,2.61,0,0,1,36,8a2.58,2.58,0,0,1,1.69.48,1.67,1.67,0,0,1,.58,1.38V10a1.71,1.71,0,0,1-.58,1.38,2.54,2.54,0,0,1-1.69.49A2.55,2.55,0,0,1,34.3,11.34Zm2-.75a.87.87,0,0,0,.12-.51V9.73a.87.87,0,0,0-.12-.51A.38.38,0,0,0,36,9.06a.38.38,0,0,0-.35.16,1,1,0,0,0-.11.51v.35a1,1,0,0,0,.11.51.38.38,0,0,0,.35.16A.38.38,0,0,0,36.34,10.59Z"/><path d="M38.63,11.72V8.09h1.74a1.32,1.32,0,0,1,0,.36,3.79,3.79,0,0,1-.15.43l.07,0A1.65,1.65,0,0,1,41.79,8C42.62,8,43,8.4,43,9.13v2.59H41.25V9.6a.52.52,0,0,0-.08-.31.33.33,0,0,0-.27-.1.41.41,0,0,0-.37.22,1.42,1.42,0,0,0-.12.65v1.66Z"/><path d="M47.86,10.26H45.17c0,.38.18.57.49.57a.43.43,0,0,0,.31-.1.42.42,0,0,0,.13-.3l1.75.11a1.25,1.25,0,0,1-.64,1,3.07,3.07,0,0,1-1.56.33,2.65,2.65,0,0,1-1.7-.47,1.69,1.69,0,0,1-.58-1.4V9.87A1.75,1.75,0,0,1,44,8.46,2.69,2.69,0,0,1,45.67,8a2.58,2.58,0,0,1,1.67.46A1.64,1.64,0,0,1,47.9,9.8,2.38,2.38,0,0,1,47.86,10.26ZM46.1,9.47h0A.52.52,0,0,0,46,9.1.45.45,0,0,0,45.65,9c-.27,0-.43.16-.47.49Z"/><path d="M48.08,11.91l.41,0c.35,0,.56-.1.62-.23l0-.1L47.86,8.09h1.81L50,9.54c.06.29.12.65.18,1.1h.07c.05-.44.1-.8.16-1.09l.33-1.46h1.74l-.83,2.67a4.41,4.41,0,0,1-.71,1.4,2.06,2.06,0,0,1-1,.67,6.92,6.92,0,0,1-1.74.2Z"/><path d="M53.88,11.72V6.88h1.86l1,1.78c.11.21.23.47.36.76h.07a8.58,8.58,0,0,1-.06-.92V6.88h1.74v4.84H57L56,9.94a8.26,8.26,0,0,1-.38-.81l-.07,0a9.26,9.26,0,0,1,.06,1v1.61Z"/><path d="M59.85,11.34A1.68,1.68,0,0,1,59.27,10V9.85a1.67,1.67,0,0,1,.58-1.38,3.22,3.22,0,0,1,3.38,0,1.67,1.67,0,0,1,.58,1.38V10a1.68,1.68,0,0,1-.58,1.38,3.16,3.16,0,0,1-3.38,0Zm2-.75a1,1,0,0,0,.11-.51V9.73a1,1,0,0,0-.11-.51.46.46,0,0,0-.7,0,1,1,0,0,0-.11.51v.35a1,1,0,0,0,.11.51.46.46,0,0,0,.7,0Z"/><path d="M64.78,11.72l-1-3.63h1.7l.27,1.49c0,.29.09.56.11.81H66c0-.24.06-.51.11-.81l.26-1.49h1.55l.3,1.49c0,.28.09.55.11.81h.07c0-.23,0-.5.1-.81l.23-1.49h1.64l-1,3.63h-2l-.19-1.23c0-.26-.07-.57-.1-.91H67a8.44,8.44,0,0,1-.09.91l-.18,1.23Z"/></g></g></svg>