<svg xmlns="http://www.w3.org/2000/svg" viewBox="0 0 76.3 18.61"><defs><style>.cls-1{fill:#fedd00;}</style></defs><g id="Layer_2" data-name="Layer 2"><g id="Layer_1-2" data-name="Layer 1"><path d="M10.56,9.4a1.25,1.25,0,0,1,.21.76,1.36,1.36,0,0,1-.29.89,1.75,1.75,0,0,1-.84.57,3.66,3.66,0,0,1-1.3.2,4,4,0,0,1-1.28-.18,1.71,1.71,0,0,1-.8-.55A1.37,1.37,0,0,1,6,10.21l1.76-.13a.69.69,0,0,0,.21.46.85.85,0,0,0,.52.14q.54,0,.54-.3a.24.24,0,0,0-.07-.17.62.62,0,0,0-.26-.13,5,5,0,0,0-.54-.14l-.71-.15C6.49,9.59,6,9.1,6,8.34a1.31,1.31,0,0,1,.28-.86A1.61,1.61,0,0,1,7.11,7a3.78,3.78,0,0,1,1.24-.18A3.8,3.8,0,0,1,9.61,7a1.58,1.58,0,0,1,.76.55,1.4,1.4,0,0,1,.26.84L9,8.49a.59.59,0,0,0-.2-.43.78.78,0,0,0-.53-.15A.9.9,0,0,0,7.89,8a.25.25,0,0,0-.15.22.2.2,0,0,0,0,.14A.59.59,0,0,0,8,8.47a4.37,4.37,0,0,0,.52.14l.71.15A5,5,0,0,1,10,9,1.31,1.31,0,0,1,10.56,9.4Z"/><path d="M15.07,8.44a1.66,1.66,0,0,1,.56,1.35,2.32,2.32,0,0,1,0,.46H12.9c0,.38.18.57.49.57a.48.48,0,0,0,.31-.09.42.42,0,0,0,.13-.3l1.75.11a1.27,1.27,0,0,1-.64,1,3.18,3.18,0,0,1-1.56.32,2.64,2.64,0,0,1-1.71-.47A1.7,1.7,0,0,1,11.1,10V9.87a1.72,1.72,0,0,1,.58-1.41A2.61,2.61,0,0,1,13.4,8,2.66,2.66,0,0,1,15.07,8.44Z"/><path d="M20.39,9.13v2.59H18.61V9.6a.56.56,0,0,0-.08-.32.37.37,0,0,0-.27-.1.42.42,0,0,0-.37.23,1.37,1.37,0,0,0-.12.64v1.67H16V8.09h1.74a1.37,1.37,0,0,1,0,.36,2.81,2.81,0,0,1-.15.43l.07,0a1.88,1.88,0,0,1,.64-.67,1.84,1.84,0,0,1,.9-.22C20,8,20.39,8.39,20.39,9.13Z"/><path d="M23.43,6.88H25.2v4.84H23.43a2.73,2.73,0,0,1,.2-.79l-.08,0a1.56,1.56,0,0,1-.54.66,1.46,1.46,0,0,1-.84.22,1.32,1.32,0,0,1-1.08-.44A2.13,2.13,0,0,1,20.73,10V9.82a2.15,2.15,0,0,1,.36-1.36A1.32,1.32,0,0,1,22.17,8a1.53,1.53,0,0,1,.83.22,1.46,1.46,0,0,1,.55.66l.07,0a4.24,4.24,0,0,1-.15-.55,3.12,3.12,0,0,1,0-.54Z"/><path d="M31.17,6.88h2.14v4.84H31.58V10.19c0-.32,0-.65,0-1h-.07l-.83,2.52H29.47L28.64,9.2h-.07c0,.37,0,.69,0,1v1.53H26.88V6.88H29L29.7,8.5a11.48,11.48,0,0,1,.38,1.19h.07c.14-.51.26-.91.37-1.19Z"/><path d="M37.69,8.46a1.7,1.7,0,0,1,.57,1.38V10a1.7,1.7,0,0,1-.57,1.38,3.23,3.23,0,0,1-3.39,0A1.71,1.71,0,0,1,33.72,10V9.84a1.71,1.71,0,0,1,.58-1.38,3.23,3.23,0,0,1,3.39,0Z"/><path d="M43,9.13v2.59H41.25V9.6a.56.56,0,0,0-.08-.32.37.37,0,0,0-.27-.1.42.42,0,0,0-.37.23,1.36,1.36,0,0,0-.13.64v1.67H38.63V8.09h1.73a1.38,1.38,0,0,1,0,.36,3.07,3.07,0,0,1-.16.43l.07,0a2,2,0,0,1,.65-.67,1.82,1.82,0,0,1,.9-.22Q43,8,43,9.13Z"/><path d="M47.33,8.44a1.64,1.64,0,0,1,.57,1.35,3.42,3.42,0,0,1,0,.46H45.17c0,.38.17.57.49.57a.5.5,0,0,0,.31-.09.47.47,0,0,0,.13-.3l1.75.11a1.27,1.27,0,0,1-.64,1,3.18,3.18,0,0,1-1.56.32,2.62,2.62,0,0,1-1.71-.47,1.7,1.7,0,0,1-.57-1.4V9.87A1.72,1.72,0,0,1,44,8.46a3.27,3.27,0,0,1,3.38,0Z"/><path d="M50.74,8.09h1.75l-.83,2.66A4.83,4.83,0,0,1,51,12.16a2.12,2.12,0,0,1-1,.66,6.42,6.42,0,0,1-1.74.21l-.1-1.12.41,0c.35,0,.55-.09.62-.22l0-.1L47.86,8.09h1.81L50,9.54c.06.29.12.65.17,1.09h.08a10.39,10.39,0,0,1,.16-1.09Z"/><path d="M57.12,6.88h1.73v4.84H57L56,9.94a6,6,0,0,1-.38-.82l-.07,0c0,.38.05.7.05,1v1.61H53.87V6.88h1.87l1,1.78a7.79,7.79,0,0,1,.37.76l.07,0a8.42,8.42,0,0,1-.06-.91Z"/><path d="M63.23,8.46a1.68,1.68,0,0,1,.58,1.38V10a1.71,1.71,0,0,1-.58,1.38,3.23,3.23,0,0,1-3.39,0A1.7,1.7,0,0,1,59.27,10V9.84a1.7,1.7,0,0,1,.57-1.38A2.61,2.61,0,0,1,61.54,8,2.58,2.58,0,0,1,63.23,8.46Z"/><path d="M70.33,8.09l-1,3.63h-2l-.18-1.23c0-.27-.07-.57-.1-.91H67c0,.36-.06.67-.09.91l-.18,1.23h-2l-1-3.63h1.7l.27,1.48c0,.3.09.57.11.82H66c0-.24.06-.51.11-.81l.25-1.49h1.56l.29,1.49a6.1,6.1,0,0,1,.12.81h.07c0-.24,0-.51.1-.81l.23-1.49Z"/><path d="M67,0H9.3a9.31,9.31,0,0,0,0,18.61H67A9.31,9.31,0,0,0,67,0Zm2.38,11.72h-2l-.18-1.23c0-.27-.07-.57-.1-.91H67c0,.36-.06.67-.09.91l-.18,1.23h-2l-1-3.63h1.7l.27,1.48c0,.3.09.57.11.82H66c0-.24.06-.51.11-.81l.25-1.49h1.56l.29,1.49a6.1,6.1,0,0,1,.12.81h.07c0-.24,0-.51.1-.81l.23-1.49h1.64ZM63.81,9.84V10a1.71,1.71,0,0,1-.58,1.38,3.23,3.23,0,0,1-3.39,0A1.7,1.7,0,0,1,59.27,10V9.84a1.7,1.7,0,0,1,.57-1.38A2.61,2.61,0,0,1,61.54,8a2.58,2.58,0,0,1,1.69.48A1.68,1.68,0,0,1,63.81,9.84Zm-8.21.27v1.61H53.87V6.88h1.87l1,1.78a7.79,7.79,0,0,1,.37.76l.07,0a8.42,8.42,0,0,1-.06-.91V6.88h1.73v4.84H57L56,9.94a6,6,0,0,1-.38-.82l-.07,0C55.58,9.52,55.6,9.84,55.6,10.11Zm-7.74-2h1.81L50,9.54c.06.29.12.65.17,1.09h.08a10.39,10.39,0,0,1,.16-1.09l.32-1.45h1.75l-.83,2.66A4.83,4.83,0,0,1,51,12.16a2.12,2.12,0,0,1-1,.66,6.42,6.42,0,0,1-1.74.21l-.1-1.12.41,0c.35,0,.55-.09.62-.22l0-.1Zm-2.2,2.73a.5.5,0,0,0,.31-.09.47.47,0,0,0,.13-.3l1.75.11a1.27,1.27,0,0,1-.64,1,3.18,3.18,0,0,1-1.56.32,2.62,2.62,0,0,1-1.71-.47,1.7,1.7,0,0,1-.57-1.4V9.87A1.72,1.72,0,0,1,44,8.46a3.27,3.27,0,0,1,3.38,0,1.64,1.64,0,0,1,.57,1.35,3.42,3.42,0,0,1,0,.46H45.17C45.18,10.63,45.34,10.82,45.66,10.82ZM41.17,9.28a.37.37,0,0,0-.27-.1.42.42,0,0,0-.37.23,1.36,1.36,0,0,0-.13.64v1.67H38.63V8.09h1.73a1.38,1.38,0,0,1,0,.36,3.07,3.07,0,0,1-.16.43l.07,0a2,2,0,0,1,.65-.67,1.82,1.82,0,0,1,.9-.22Q43,8,43,9.13v2.59H41.25V9.6A.56.56,0,0,0,41.17,9.28Zm-2.91.56V10a1.7,1.7,0,0,1-.57,1.38,3.23,3.23,0,0,1-3.39,0A1.71,1.71,0,0,1,33.72,10V9.84a1.71,1.71,0,0,1,.58-1.38,3.23,3.23,0,0,1,3.39,0A1.7,1.7,0,0,1,38.26,9.84ZM31.55,9.2l-.83,2.52H29.47L28.64,9.2h-.07c0,.37,0,.69,0,1v1.53H26.88V6.88H29L29.7,8.5a11.48,11.48,0,0,1,.38,1.19h.07c.14-.51.26-.91.37-1.19l.65-1.62h2.14v4.84H31.58V10.19c0-.32,0-.65,0-1Zm-8,1.7a1.56,1.56,0,0,1-.54.66,1.46,1.46,0,0,1-.84.22,1.32,1.32,0,0,1-1.08-.44A2.13,2.13,0,0,1,20.73,10V9.82a2.15,2.15,0,0,1,.36-1.36A1.32,1.32,0,0,1,22.17,8a1.53,1.53,0,0,1,.83.22,1.46,1.46,0,0,1,.55.66l.07,0a4.24,4.24,0,0,1-.15-.55,3.12,3.12,0,0,1,0-.54V6.88H25.2v4.84H23.43a2.73,2.73,0,0,1,.2-.79Zm-5-1.62a.37.37,0,0,0-.27-.1.42.42,0,0,0-.37.23,1.37,1.37,0,0,0-.12.64v1.67H16V8.09h1.74a1.37,1.37,0,0,1,0,.36,2.81,2.81,0,0,1-.15.43l.07,0a1.88,1.88,0,0,1,.64-.67,1.84,1.84,0,0,1,.9-.22c.83,0,1.24.37,1.24,1.11v2.59H18.61V9.6A.56.56,0,0,0,18.53,9.28Zm-5.14,1.54a.48.48,0,0,0,.31-.09.42.42,0,0,0,.13-.3l1.75.11a1.27,1.27,0,0,1-.64,1,3.18,3.18,0,0,1-1.56.32,2.64,2.64,0,0,1-1.71-.47A1.7,1.7,0,0,1,11.1,10V9.87a1.72,1.72,0,0,1,.58-1.41A2.61,2.61,0,0,1,13.4,8a2.66,2.66,0,0,1,1.67.46,1.66,1.66,0,0,1,.56,1.35,2.32,2.32,0,0,1,0,.46H12.9C12.91,10.63,13.08,10.82,13.39,10.82Zm-4.46-.61a.62.62,0,0,0-.26-.13,5,5,0,0,0-.54-.14l-.71-.15C6.49,9.59,6,9.1,6,8.34a1.31,1.31,0,0,1,.28-.86A1.61,1.61,0,0,1,7.11,7a3.78,3.78,0,0,1,1.24-.18A3.8,3.8,0,0,1,9.61,7a1.58,1.58,0,0,1,.76.55,1.4,1.4,0,0,1,.26.84L9,8.49a.59.59,0,0,0-.2-.43.78.78,0,0,0-.53-.15A.9.9,0,0,0,7.89,8a.25.25,0,0,0-.15.22.2.2,0,0,0,0,.14A.59.59,0,0,0,8,8.47a4.37,4.37,0,0,0,.52.14l.71.15A5,5,0,0,1,10,9a1.31,1.31,0,0,1,.53.41,1.25,1.25,0,0,1,.21.76,1.36,1.36,0,0,1-.29.89,1.75,1.75,0,0,1-.84.57,3.66,3.66,0,0,1-1.3.2,4,4,0,0,1-1.28-.18,1.71,1.71,0,0,1-.8-.55A1.37,1.37,0,0,1,6,10.21l1.76-.13a.69.69,0,0,0,.21.46.85.85,0,0,0,.52.14q.54,0,.54-.3A.24.24,0,0,0,8.93,10.21Z"/><path class="cls-1" d="M10.56,9.4A1.31,1.31,0,0,0,10,9a5,5,0,0,0-.78-.23l-.71-.15A4.37,4.37,0,0,1,8,8.47a.59.59,0,0,1-.23-.12.2.2,0,0,1,0-.14A.25.25,0,0,1,7.89,8a.9.9,0,0,1,.41-.08.78.78,0,0,1,.53.15.59.59,0,0,1,.2.43l1.6-.14a1.4,1.4,0,0,0-.26-.84A1.58,1.58,0,0,0,9.61,7a3.8,3.8,0,0,0-1.26-.19A3.78,3.78,0,0,0,7.11,7a1.61,1.61,0,0,0-.8.53A1.31,1.31,0,0,0,6,8.34c0,.76.46,1.25,1.39,1.45l.71.15a5,5,0,0,1,.54.14.62.62,0,0,1,.26.13.24.24,0,0,1,.07.17q0,.3-.54.3a.85.85,0,0,1-.52-.14.69.69,0,0,1-.21-.46L6,10.21a1.37,1.37,0,0,0,.29.88,1.71,1.71,0,0,0,.8.55,4,4,0,0,0,1.28.18,3.66,3.66,0,0,0,1.3-.2,1.75,1.75,0,0,0,.84-.57,1.36,1.36,0,0,0,.29-.89A1.25,1.25,0,0,0,10.56,9.4Z"/><path class="cls-1" d="M15.63,9.79a1.66,1.66,0,0,0-.56-1.35A2.66,2.66,0,0,0,13.4,8a2.61,2.61,0,0,0-1.72.48,1.72,1.72,0,0,0-.58,1.41V10a1.7,1.7,0,0,0,.57,1.4,2.64,2.64,0,0,0,1.71.47,3.18,3.18,0,0,0,1.56-.32,1.27,1.27,0,0,0,.64-1l-1.75-.11a.42.42,0,0,1-.13.3.48.48,0,0,1-.31.09c-.31,0-.48-.19-.49-.57h2.69A2.32,2.32,0,0,0,15.63,9.79Zm-1.8-.33h-.92c0-.32.2-.48.47-.48a.5.5,0,0,1,.34.11.53.53,0,0,1,.11.36Z"/><path class="cls-1" d="M19.15,8a1.84,1.84,0,0,0-.9.22,1.88,1.88,0,0,0-.64.67l-.07,0a2.81,2.81,0,0,0,.15-.43,1.37,1.37,0,0,0,0-.36H16v3.63h1.78V10.05a1.37,1.37,0,0,1,.12-.64.42.42,0,0,1,.37-.23.37.37,0,0,1,.27.1.56.56,0,0,1,.08.32v2.12h1.78V9.13C20.39,8.39,20,8,19.15,8Z"/><path class="cls-1" d="M23.43,6.88v.89a3.12,3.12,0,0,0,0,.54,4.24,4.24,0,0,0,.15.55l-.07,0A1.46,1.46,0,0,0,23,8.24,1.53,1.53,0,0,0,22.17,8a1.32,1.32,0,0,0-1.08.44,2.15,2.15,0,0,0-.36,1.36V10a2.13,2.13,0,0,0,.36,1.35,1.32,1.32,0,0,0,1.08.44,1.46,1.46,0,0,0,.84-.22,1.56,1.56,0,0,0,.54-.66l.08,0a2.73,2.73,0,0,0-.2.79H25.2V6.88Zm0,3.14a1,1,0,0,1-.12.55.41.41,0,0,1-.35.17.35.35,0,0,1-.34-.17,1,1,0,0,1-.11-.51V9.73a1,1,0,0,1,.11-.52A.37.37,0,0,1,23,9a.4.4,0,0,1,.35.18,1,1,0,0,1,.12.55Z"/><path class="cls-1" d="M31.17,6.88,30.52,8.5c-.11.28-.23.68-.37,1.19h-.07A11.48,11.48,0,0,0,29.7,8.5L29,6.88H26.88v4.84h1.73V10.19c0-.29,0-.61,0-1h.07l.83,2.52h1.25l.83-2.52h.07c0,.33,0,.66,0,1v1.53h1.73V6.88Z"/><path class="cls-1" d="M37.69,8.46a3.23,3.23,0,0,0-3.39,0,1.71,1.71,0,0,0-.58,1.38V10a1.71,1.71,0,0,0,.58,1.38,3.23,3.23,0,0,0,3.39,0A1.7,1.7,0,0,0,38.26,10V9.84A1.7,1.7,0,0,0,37.69,8.46Zm-1.23,1.62a.86.86,0,0,1-.12.5.39.39,0,0,1-.35.17.38.38,0,0,1-.34-.17.86.86,0,0,1-.12-.5V9.73a.87.87,0,0,1,.12-.51A.38.38,0,0,1,36,9.05a.39.39,0,0,1,.35.17.87.87,0,0,1,.12.51Z"/><path class="cls-1" d="M41.79,8a1.82,1.82,0,0,0-.9.22,2,2,0,0,0-.65.67l-.07,0a3.07,3.07,0,0,0,.16-.43,1.38,1.38,0,0,0,0-.36H38.63v3.63H40.4V10.05a1.36,1.36,0,0,1,.13-.64.42.42,0,0,1,.37-.23.37.37,0,0,1,.27.1.56.56,0,0,1,.08.32v2.12H43V9.13Q43,8,41.79,8Z"/><path class="cls-1" d="M47.9,9.79a1.64,1.64,0,0,0-.57-1.35,3.27,3.27,0,0,0-3.38,0,1.72,1.72,0,0,0-.58,1.41V10a1.7,1.7,0,0,0,.57,1.4,2.62,2.62,0,0,0,1.71.47,3.18,3.18,0,0,0,1.56-.32,1.27,1.27,0,0,0,.64-1l-1.75-.11a.47.47,0,0,1-.13.3.5.5,0,0,1-.31.09c-.32,0-.48-.19-.49-.57h2.69A3.42,3.42,0,0,0,47.9,9.79Zm-1.8-.33h-.92c0-.32.19-.48.47-.48a.45.45,0,0,1,.33.11.49.49,0,0,1,.12.36Z"/><path class="cls-1" d="M50.74,8.09l-.32,1.45a10.39,10.39,0,0,0-.16,1.09h-.08c0-.44-.11-.8-.17-1.09l-.34-1.45H47.86l1.29,3.47,0,.1c-.07.13-.27.2-.62.22l-.41,0,.1,1.12a6.42,6.42,0,0,0,1.74-.21,2.12,2.12,0,0,0,1-.66,4.83,4.83,0,0,0,.71-1.41l.83-2.66Z"/><path class="cls-1" d="M57.12,6.88V8.49a8.42,8.42,0,0,0,.06.91l-.07,0a7.79,7.79,0,0,0-.37-.76l-1-1.78H53.87v4.84H55.6V10.11c0-.27,0-.59-.05-1l.07,0a6,6,0,0,0,.38.82l1,1.78h1.85V6.88Z"/><path class="cls-1" d="M63.23,8.46A2.58,2.58,0,0,0,61.54,8a2.61,2.61,0,0,0-1.7.48,1.7,1.7,0,0,0-.57,1.38V10a1.7,1.7,0,0,0,.57,1.38,3.23,3.23,0,0,0,3.39,0A1.71,1.71,0,0,0,63.81,10V9.84A1.68,1.68,0,0,0,63.23,8.46ZM62,10.08a.86.86,0,0,1-.12.5.38.38,0,0,1-.34.17.39.39,0,0,1-.35-.17,1,1,0,0,1-.11-.5V9.73a1,1,0,0,1,.11-.51.39.39,0,0,1,.35-.17.38.38,0,0,1,.34.17.87.87,0,0,1,.12.51Z"/><path class="cls-1" d="M68.69,8.09l-.23,1.49c0,.3-.08.57-.1.81h-.07a6.1,6.1,0,0,0-.12-.81l-.29-1.49H66.32l-.25,1.49c0,.3-.09.57-.11.81h-.07c0-.25-.06-.52-.11-.82l-.27-1.48h-1.7l1,3.63h2l.18-1.23c0-.24.06-.55.09-.91h.07c0,.34.06.64.1.91l.18,1.23h2l1-3.63Z"/></g></g></svg>